%TF.GenerationSoftware,KiCad,Pcbnew,5.1.6-c6e7f7d~87~ubuntu20.04.1*%
%TF.CreationDate,2020-09-17T17:53:29+01:00*%
%TF.ProjectId,pcb-illuminator,7063622d-696c-46c7-956d-696e61746f72,rev?*%
%TF.SameCoordinates,Original*%
%TF.FileFunction,Other,Fab,Top*%
%FSLAX46Y46*%
G04 Gerber Fmt 4.6, Leading zero omitted, Abs format (unit mm)*
G04 Created by KiCad (PCBNEW 5.1.6-c6e7f7d~87~ubuntu20.04.1) date 2020-09-17 17:53:29*
%MOMM*%
%LPD*%
G01*
G04 APERTURE LIST*
%ADD10C,0.100000*%
%ADD11C,0.150000*%
%ADD12C,0.200000*%
G04 APERTURE END LIST*
D10*
%TO.C,D1*%
X156770000Y-119530306D02*
X156770000Y-122469694D01*
X161770000Y-121000000D02*
G75*
G03*
X161770000Y-121000000I-2500000J0D01*
G01*
X156769984Y-122469666D02*
G75*
G03*
X156770000Y-119530306I2500016J1469666D01*
G01*
%TO.C,D2*%
X156770000Y-104530306D02*
X156770000Y-107469694D01*
X161770000Y-106000000D02*
G75*
G03*
X161770000Y-106000000I-2500000J0D01*
G01*
X156769984Y-107469666D02*
G75*
G03*
X156770000Y-104530306I2500016J1469666D01*
G01*
%TO.C,D3*%
X156770000Y-90530306D02*
X156770000Y-93469694D01*
X161770000Y-92000000D02*
G75*
G03*
X161770000Y-92000000I-2500000J0D01*
G01*
X156769984Y-93469666D02*
G75*
G03*
X156770000Y-90530306I2500016J1469666D01*
G01*
%TO.C,D4*%
X138770000Y-121000000D02*
G75*
G03*
X138770000Y-121000000I-2500000J0D01*
G01*
X133770000Y-119530306D02*
X133770000Y-122469694D01*
X133769984Y-122469666D02*
G75*
G03*
X133770000Y-119530306I2500016J1469666D01*
G01*
%TO.C,D5*%
X138770000Y-106000000D02*
G75*
G03*
X138770000Y-106000000I-2500000J0D01*
G01*
X133770000Y-104530306D02*
X133770000Y-107469694D01*
X133769984Y-107469666D02*
G75*
G03*
X133770000Y-104530306I2500016J1469666D01*
G01*
%TO.C,D6*%
X138770000Y-92000000D02*
G75*
G03*
X138770000Y-92000000I-2500000J0D01*
G01*
X133770000Y-90530306D02*
X133770000Y-93469694D01*
X133769984Y-93469666D02*
G75*
G03*
X133770000Y-90530306I2500016J1469666D01*
G01*
%TO.C,D7*%
X113770000Y-121000000D02*
G75*
G03*
X113770000Y-121000000I-2500000J0D01*
G01*
X108770000Y-119530306D02*
X108770000Y-122469694D01*
X108769984Y-122469666D02*
G75*
G03*
X108770000Y-119530306I2500016J1469666D01*
G01*
%TO.C,D8*%
X108770000Y-104530306D02*
X108770000Y-107469694D01*
X113770000Y-106000000D02*
G75*
G03*
X113770000Y-106000000I-2500000J0D01*
G01*
X108769984Y-107469666D02*
G75*
G03*
X108770000Y-104530306I2500016J1469666D01*
G01*
%TO.C,D9*%
X108770000Y-90530306D02*
X108770000Y-93469694D01*
X113770000Y-92000000D02*
G75*
G03*
X113770000Y-92000000I-2500000J0D01*
G01*
X108769984Y-93469666D02*
G75*
G03*
X108770000Y-90530306I2500016J1469666D01*
G01*
%TO.C,J2*%
X161640000Y-67250000D02*
X158330000Y-67250000D01*
X162020000Y-67250000D02*
X161640000Y-67250000D01*
X157950000Y-67250000D02*
X158330000Y-67250000D01*
X158330000Y-67640000D02*
X161640000Y-67640000D01*
X157390000Y-67640000D02*
X158330000Y-67640000D01*
X163340000Y-67640000D02*
X161640000Y-67640000D01*
X166640000Y-67640000D02*
X163340000Y-67640000D01*
X167580000Y-67640000D02*
X166640000Y-67640000D01*
X163340000Y-67250000D02*
X166640000Y-67250000D01*
X162960000Y-67250000D02*
X163340000Y-67250000D01*
X167020000Y-67250000D02*
X166640000Y-67250000D01*
X166490000Y-71320000D02*
X163440000Y-71950000D01*
X166620000Y-71450000D02*
X163560000Y-72080000D01*
X161480000Y-71320000D02*
X158440000Y-71950000D01*
X161610000Y-71450000D02*
X158560000Y-72080000D01*
X162960000Y-72970000D02*
X167020000Y-72970000D01*
X167020000Y-70430000D02*
X167020000Y-72970000D01*
X162960000Y-70430000D02*
X167020000Y-70430000D01*
X162960000Y-70430000D02*
X162960000Y-72970000D01*
X157950000Y-70430000D02*
X162020000Y-70430000D01*
X157950000Y-72970000D02*
X157950000Y-70430000D01*
X162020000Y-72970000D02*
X157950000Y-72970000D01*
X162020000Y-70430000D02*
X162020000Y-72970000D01*
X157390000Y-70170000D02*
X157390000Y-68650000D01*
X167580000Y-70170000D02*
X167580000Y-73220000D01*
X167580000Y-70170000D02*
X157390000Y-70170000D01*
X157390000Y-67640000D02*
X157390000Y-62940000D01*
X157390000Y-68650000D02*
X157390000Y-67640000D01*
X167580000Y-67640000D02*
X167580000Y-70170000D01*
X167580000Y-60780000D02*
X167580000Y-67640000D01*
X158330000Y-66490000D02*
X158720000Y-66490000D01*
X161640000Y-66490000D02*
X161260000Y-66490000D01*
X163340000Y-66490000D02*
X163720000Y-66490000D01*
X166640000Y-66490000D02*
X166260000Y-66490000D01*
X166640000Y-63320000D02*
X166640000Y-66490000D01*
X163340000Y-63320000D02*
X166640000Y-63320000D01*
X163340000Y-63320000D02*
X163340000Y-66490000D01*
X161640000Y-63320000D02*
X161640000Y-66490000D01*
X158330000Y-63320000D02*
X161640000Y-63320000D01*
X158330000Y-63320000D02*
X158330000Y-66490000D01*
X167020000Y-62680000D02*
X167020000Y-60780000D01*
X162960000Y-62680000D02*
X162960000Y-67250000D01*
X162960000Y-62680000D02*
X167020000Y-62680000D01*
X157950000Y-62680000D02*
X157950000Y-60780000D01*
X162020000Y-62680000D02*
X162020000Y-67250000D01*
X162020000Y-62680000D02*
X157950000Y-62680000D01*
X167020000Y-60780000D02*
X162960000Y-60780000D01*
X167580000Y-60780000D02*
X167020000Y-60780000D01*
X167020000Y-67250000D02*
X167020000Y-62680000D01*
X162960000Y-60780000D02*
X162020000Y-60780000D01*
X162960000Y-60780000D02*
X162960000Y-62680000D01*
X157950000Y-60780000D02*
X157390000Y-60780000D01*
X162020000Y-60780000D02*
X157950000Y-60780000D01*
X157950000Y-67250000D02*
X157950000Y-62680000D01*
X162020000Y-60780000D02*
X162020000Y-62680000D01*
X156890000Y-63190000D02*
X156890000Y-61540000D01*
X157390000Y-62940000D02*
X157390000Y-61790000D01*
X156890000Y-63190000D02*
X157390000Y-62940000D01*
X157390000Y-61790000D02*
X157390000Y-60780000D01*
X156890000Y-61540000D02*
X157390000Y-61790000D01*
X156890000Y-68400000D02*
X157390000Y-68650000D01*
X156890000Y-73220000D02*
X156890000Y-68400000D01*
X157390000Y-73220000D02*
X156890000Y-73220000D01*
X157390000Y-73220000D02*
X167580000Y-73220000D01*
X157390000Y-73220000D02*
X157390000Y-70170000D01*
X161260000Y-64460000D02*
X161260000Y-67250000D01*
X161260000Y-67250000D02*
X158720000Y-67250000D01*
X158720000Y-64460000D02*
X158720000Y-67250000D01*
X161260000Y-64460000D02*
X158720000Y-64460000D01*
X166260000Y-64460000D02*
X166260000Y-67250000D01*
X166260000Y-67250000D02*
X163720000Y-67250000D01*
X163720000Y-64460000D02*
X163720000Y-67250000D01*
X166260000Y-64460000D02*
X163720000Y-64460000D01*
X158514468Y-71076005D02*
G75*
G03*
X158460000Y-72050000I455532J-513995D01*
G01*
X161452333Y-71168263D02*
G75*
G03*
X158470000Y-71120000I-1522333J-1901737D01*
G01*
X158461761Y-72061687D02*
G75*
G03*
X161610000Y-72000000I1548239J1351687D01*
G01*
X161562972Y-72058699D02*
G75*
G03*
X161420000Y-71130000I-432972J408699D01*
G01*
X163514380Y-71086004D02*
G75*
G03*
X163470000Y-72050000I455620J-503996D01*
G01*
X166459829Y-71158582D02*
G75*
G03*
X163470000Y-71120000I-1519829J-1911418D01*
G01*
X163460024Y-72071534D02*
G75*
G03*
X166620000Y-72000000I1549976J1361534D01*
G01*
X166562972Y-72058699D02*
G75*
G03*
X166420000Y-71130000I-432972J408699D01*
G01*
%TO.C,J3*%
X130730000Y-66365000D02*
X131365000Y-65730000D01*
X130730000Y-70810000D02*
X130730000Y-66365000D01*
X133270000Y-70810000D02*
X130730000Y-70810000D01*
X133270000Y-65730000D02*
X133270000Y-70810000D01*
X131365000Y-65730000D02*
X133270000Y-65730000D01*
%TO.C,J4*%
X194500000Y-70000000D02*
X194500000Y-56300000D01*
X185500000Y-70800000D02*
X193750000Y-70800000D01*
X185500000Y-56300000D02*
X185500000Y-70800000D01*
X194500000Y-56300000D02*
X185500000Y-56300000D01*
X194500000Y-59800000D02*
X185500000Y-59800000D01*
X194505425Y-69996787D02*
X193750000Y-70800000D01*
%TO.C,JP1*%
X124770000Y-71635000D02*
X124135000Y-72270000D01*
X124770000Y-64650000D02*
X124770000Y-71635000D01*
X122230000Y-64650000D02*
X124770000Y-64650000D01*
X122230000Y-72270000D02*
X122230000Y-64650000D01*
X124135000Y-72270000D02*
X122230000Y-72270000D01*
%TO.C,Q1*%
X110500000Y-70140000D02*
X107250000Y-70140000D01*
X110500000Y-66940000D02*
X107250000Y-66940000D01*
X110500000Y-72540000D02*
X110500000Y-64540000D01*
X107250000Y-72540000D02*
X110500000Y-72540000D01*
X107250000Y-64540000D02*
X107250000Y-72540000D01*
X110500000Y-64540000D02*
X107250000Y-64540000D01*
%TO.C,SW1*%
X173230000Y-77635000D02*
X173230000Y-75730000D01*
X173230000Y-75730000D02*
X178310000Y-75730000D01*
X178310000Y-75730000D02*
X178310000Y-78270000D01*
X178310000Y-78270000D02*
X173865000Y-78270000D01*
X173865000Y-78270000D02*
X173230000Y-77635000D01*
%TO.C,RV1*%
X141230000Y-58390000D02*
X141230000Y-60420000D01*
X148850000Y-58390000D02*
X141230000Y-58390000D01*
X148850000Y-60420000D02*
X148850000Y-58390000D01*
X141230000Y-60420000D02*
X148850000Y-60420000D01*
X140975000Y-60420000D02*
X140975000Y-66390000D01*
X149105000Y-60420000D02*
X140975000Y-60420000D01*
X149105000Y-66390000D02*
X149105000Y-60420000D01*
X140975000Y-66390000D02*
X149105000Y-66390000D01*
%TO.C,D10*%
X160770000Y-135000000D02*
G75*
G03*
X160770000Y-135000000I-2500000J0D01*
G01*
X155770000Y-133530306D02*
X155770000Y-136469694D01*
X155769984Y-136469666D02*
G75*
G03*
X155770000Y-133530306I2500016J1469666D01*
G01*
%TO.C,D11*%
X133770000Y-133530306D02*
X133770000Y-136469694D01*
X138770000Y-135000000D02*
G75*
G03*
X138770000Y-135000000I-2500000J0D01*
G01*
X133769984Y-136469666D02*
G75*
G03*
X133770000Y-133530306I2500016J1469666D01*
G01*
%TO.C,D12*%
X113770000Y-135000000D02*
G75*
G03*
X113770000Y-135000000I-2500000J0D01*
G01*
X108770000Y-133530306D02*
X108770000Y-136469694D01*
X108769984Y-136469666D02*
G75*
G03*
X108770000Y-133530306I2500016J1469666D01*
G01*
%TO.C,R1*%
X187330000Y-117800000D02*
X187330000Y-114200000D01*
X187330000Y-114200000D02*
X177430000Y-114200000D01*
X177430000Y-114200000D02*
X177430000Y-117800000D01*
X177430000Y-117800000D02*
X187330000Y-117800000D01*
X190000000Y-116000000D02*
X187330000Y-116000000D01*
X174760000Y-116000000D02*
X177430000Y-116000000D01*
%TO.C,R2*%
X174760000Y-108000000D02*
X177430000Y-108000000D01*
X190000000Y-108000000D02*
X187330000Y-108000000D01*
X177430000Y-109800000D02*
X187330000Y-109800000D01*
X177430000Y-106200000D02*
X177430000Y-109800000D01*
X187330000Y-106200000D02*
X177430000Y-106200000D01*
X187330000Y-109800000D02*
X187330000Y-106200000D01*
%TO.C,R3*%
X174760000Y-100000000D02*
X177430000Y-100000000D01*
X190000000Y-100000000D02*
X187330000Y-100000000D01*
X177430000Y-101800000D02*
X187330000Y-101800000D01*
X177430000Y-98200000D02*
X177430000Y-101800000D01*
X187330000Y-98200000D02*
X177430000Y-98200000D01*
X187330000Y-101800000D02*
X187330000Y-98200000D01*
%TO.C,R4*%
X117000000Y-63300000D02*
X117000000Y-65150000D01*
X117000000Y-76000000D02*
X117000000Y-74150000D01*
X115400000Y-65150000D02*
X115400000Y-74150000D01*
X118600000Y-65150000D02*
X115400000Y-65150000D01*
X118600000Y-74150000D02*
X118600000Y-65150000D01*
X115400000Y-74150000D02*
X118600000Y-74150000D01*
%TO.C,R5*%
X187330000Y-125800000D02*
X187330000Y-122200000D01*
X187330000Y-122200000D02*
X177430000Y-122200000D01*
X177430000Y-122200000D02*
X177430000Y-125800000D01*
X177430000Y-125800000D02*
X187330000Y-125800000D01*
X190000000Y-124000000D02*
X187330000Y-124000000D01*
X174760000Y-124000000D02*
X177430000Y-124000000D01*
%TD*%
%TO.C,REF\u002A\u002A*%
D11*
X146809523Y-148252380D02*
X146809523Y-147252380D01*
X147142857Y-147966666D01*
X147476190Y-147252380D01*
X147476190Y-148252380D01*
X148095238Y-148252380D02*
X148000000Y-148204761D01*
X147952380Y-148157142D01*
X147904761Y-148061904D01*
X147904761Y-147776190D01*
X147952380Y-147680952D01*
X148000000Y-147633333D01*
X148095238Y-147585714D01*
X148238095Y-147585714D01*
X148333333Y-147633333D01*
X148380952Y-147680952D01*
X148428571Y-147776190D01*
X148428571Y-148061904D01*
X148380952Y-148157142D01*
X148333333Y-148204761D01*
X148238095Y-148252380D01*
X148095238Y-148252380D01*
X149285714Y-147585714D02*
X149285714Y-148252380D01*
X148857142Y-147585714D02*
X148857142Y-148109523D01*
X148904761Y-148204761D01*
X149000000Y-148252380D01*
X149142857Y-148252380D01*
X149238095Y-148204761D01*
X149285714Y-148157142D01*
X149761904Y-147585714D02*
X149761904Y-148252380D01*
X149761904Y-147680952D02*
X149809523Y-147633333D01*
X149904761Y-147585714D01*
X150047619Y-147585714D01*
X150142857Y-147633333D01*
X150190476Y-147728571D01*
X150190476Y-148252380D01*
X150523809Y-147585714D02*
X150904761Y-147585714D01*
X150666666Y-147252380D02*
X150666666Y-148109523D01*
X150714285Y-148204761D01*
X150809523Y-148252380D01*
X150904761Y-148252380D01*
X151238095Y-148252380D02*
X151238095Y-147585714D01*
X151238095Y-147252380D02*
X151190476Y-147300000D01*
X151238095Y-147347619D01*
X151285714Y-147300000D01*
X151238095Y-147252380D01*
X151238095Y-147347619D01*
X151714285Y-147585714D02*
X151714285Y-148252380D01*
X151714285Y-147680952D02*
X151761904Y-147633333D01*
X151857142Y-147585714D01*
X152000000Y-147585714D01*
X152095238Y-147633333D01*
X152142857Y-147728571D01*
X152142857Y-148252380D01*
X153047619Y-147585714D02*
X153047619Y-148395238D01*
X153000000Y-148490476D01*
X152952380Y-148538095D01*
X152857142Y-148585714D01*
X152714285Y-148585714D01*
X152619047Y-148538095D01*
X153047619Y-148204761D02*
X152952380Y-148252380D01*
X152761904Y-148252380D01*
X152666666Y-148204761D01*
X152619047Y-148157142D01*
X152571428Y-148061904D01*
X152571428Y-147776190D01*
X152619047Y-147680952D01*
X152666666Y-147633333D01*
X152761904Y-147585714D01*
X152952380Y-147585714D01*
X153047619Y-147633333D01*
X153523809Y-148252380D02*
X153523809Y-147252380D01*
X153523809Y-147728571D02*
X154095238Y-147728571D01*
X154095238Y-148252380D02*
X154095238Y-147252380D01*
X154714285Y-148252380D02*
X154619047Y-148204761D01*
X154571428Y-148157142D01*
X154523809Y-148061904D01*
X154523809Y-147776190D01*
X154571428Y-147680952D01*
X154619047Y-147633333D01*
X154714285Y-147585714D01*
X154857142Y-147585714D01*
X154952380Y-147633333D01*
X155000000Y-147680952D01*
X155047619Y-147776190D01*
X155047619Y-148061904D01*
X155000000Y-148157142D01*
X154952380Y-148204761D01*
X154857142Y-148252380D01*
X154714285Y-148252380D01*
X155619047Y-148252380D02*
X155523809Y-148204761D01*
X155476190Y-148109523D01*
X155476190Y-147252380D01*
X156380952Y-148204761D02*
X156285714Y-148252380D01*
X156095238Y-148252380D01*
X156000000Y-148204761D01*
X155952380Y-148109523D01*
X155952380Y-147728571D01*
X156000000Y-147633333D01*
X156095238Y-147585714D01*
X156285714Y-147585714D01*
X156380952Y-147633333D01*
X156428571Y-147728571D01*
X156428571Y-147823809D01*
X155952380Y-147919047D01*
X156619047Y-148347619D02*
X157380952Y-148347619D01*
X157523809Y-147252380D02*
X158142857Y-147252380D01*
X157809523Y-147633333D01*
X157952380Y-147633333D01*
X158047619Y-147680952D01*
X158095238Y-147728571D01*
X158142857Y-147823809D01*
X158142857Y-148061904D01*
X158095238Y-148157142D01*
X158047619Y-148204761D01*
X157952380Y-148252380D01*
X157666666Y-148252380D01*
X157571428Y-148204761D01*
X157523809Y-148157142D01*
X158571428Y-148157142D02*
X158619047Y-148204761D01*
X158571428Y-148252380D01*
X158523809Y-148204761D01*
X158571428Y-148157142D01*
X158571428Y-148252380D01*
X159000000Y-147347619D02*
X159047619Y-147300000D01*
X159142857Y-147252380D01*
X159380952Y-147252380D01*
X159476190Y-147300000D01*
X159523809Y-147347619D01*
X159571428Y-147442857D01*
X159571428Y-147538095D01*
X159523809Y-147680952D01*
X158952380Y-148252380D01*
X159571428Y-148252380D01*
X160000000Y-148252380D02*
X160000000Y-147585714D01*
X160000000Y-147680952D02*
X160047619Y-147633333D01*
X160142857Y-147585714D01*
X160285714Y-147585714D01*
X160380952Y-147633333D01*
X160428571Y-147728571D01*
X160428571Y-148252380D01*
X160428571Y-147728571D02*
X160476190Y-147633333D01*
X160571428Y-147585714D01*
X160714285Y-147585714D01*
X160809523Y-147633333D01*
X160857142Y-147728571D01*
X160857142Y-148252380D01*
X161333333Y-148252380D02*
X161333333Y-147585714D01*
X161333333Y-147680952D02*
X161380952Y-147633333D01*
X161476190Y-147585714D01*
X161619047Y-147585714D01*
X161714285Y-147633333D01*
X161761904Y-147728571D01*
X161761904Y-148252380D01*
X161761904Y-147728571D02*
X161809523Y-147633333D01*
X161904761Y-147585714D01*
X162047619Y-147585714D01*
X162142857Y-147633333D01*
X162190476Y-147728571D01*
X162190476Y-148252380D01*
X162428571Y-148347619D02*
X163190476Y-148347619D01*
X163428571Y-148252380D02*
X163428571Y-147252380D01*
X163761904Y-147966666D01*
X164095238Y-147252380D01*
X164095238Y-148252380D01*
X164476190Y-147252380D02*
X165095238Y-147252380D01*
X164761904Y-147633333D01*
X164904761Y-147633333D01*
X165000000Y-147680952D01*
X165047619Y-147728571D01*
X165095238Y-147823809D01*
X165095238Y-148061904D01*
X165047619Y-148157142D01*
X165000000Y-148204761D01*
X164904761Y-148252380D01*
X164619047Y-148252380D01*
X164523809Y-148204761D01*
X164476190Y-148157142D01*
X165285714Y-148347619D02*
X166047619Y-148347619D01*
X166285714Y-148252380D02*
X166285714Y-147252380D01*
X166523809Y-147252380D01*
X166666666Y-147300000D01*
X166761904Y-147395238D01*
X166809523Y-147490476D01*
X166857142Y-147680952D01*
X166857142Y-147823809D01*
X166809523Y-148014285D01*
X166761904Y-148109523D01*
X166666666Y-148204761D01*
X166523809Y-148252380D01*
X166285714Y-148252380D01*
X167285714Y-148252380D02*
X167285714Y-147252380D01*
X167761904Y-148252380D02*
X167761904Y-147252380D01*
X168333333Y-148252380D01*
X168333333Y-147252380D01*
X168857142Y-148252380D02*
X169047619Y-148252380D01*
X169142857Y-148204761D01*
X169190476Y-148157142D01*
X169285714Y-148014285D01*
X169333333Y-147823809D01*
X169333333Y-147442857D01*
X169285714Y-147347619D01*
X169238095Y-147300000D01*
X169142857Y-147252380D01*
X168952380Y-147252380D01*
X168857142Y-147300000D01*
X168809523Y-147347619D01*
X168761904Y-147442857D01*
X168761904Y-147680952D01*
X168809523Y-147776190D01*
X168857142Y-147823809D01*
X168952380Y-147871428D01*
X169142857Y-147871428D01*
X169238095Y-147823809D01*
X169285714Y-147776190D01*
X169333333Y-147680952D01*
X170190476Y-147252380D02*
X170000000Y-147252380D01*
X169904761Y-147300000D01*
X169857142Y-147347619D01*
X169761904Y-147490476D01*
X169714285Y-147680952D01*
X169714285Y-148061904D01*
X169761904Y-148157142D01*
X169809523Y-148204761D01*
X169904761Y-148252380D01*
X170095238Y-148252380D01*
X170190476Y-148204761D01*
X170238095Y-148157142D01*
X170285714Y-148061904D01*
X170285714Y-147823809D01*
X170238095Y-147728571D01*
X170190476Y-147680952D01*
X170095238Y-147633333D01*
X169904761Y-147633333D01*
X169809523Y-147680952D01*
X169761904Y-147728571D01*
X169714285Y-147823809D01*
X171190476Y-147252380D02*
X170714285Y-147252380D01*
X170666666Y-147728571D01*
X170714285Y-147680952D01*
X170809523Y-147633333D01*
X171047619Y-147633333D01*
X171142857Y-147680952D01*
X171190476Y-147728571D01*
X171238095Y-147823809D01*
X171238095Y-148061904D01*
X171190476Y-148157142D01*
X171142857Y-148204761D01*
X171047619Y-148252380D01*
X170809523Y-148252380D01*
X170714285Y-148204761D01*
X170666666Y-148157142D01*
X157966666Y-144452380D02*
X157633333Y-143976190D01*
X157395238Y-144452380D02*
X157395238Y-143452380D01*
X157776190Y-143452380D01*
X157871428Y-143500000D01*
X157919047Y-143547619D01*
X157966666Y-143642857D01*
X157966666Y-143785714D01*
X157919047Y-143880952D01*
X157871428Y-143928571D01*
X157776190Y-143976190D01*
X157395238Y-143976190D01*
X158395238Y-143928571D02*
X158728571Y-143928571D01*
X158871428Y-144452380D02*
X158395238Y-144452380D01*
X158395238Y-143452380D01*
X158871428Y-143452380D01*
X159633333Y-143928571D02*
X159300000Y-143928571D01*
X159300000Y-144452380D02*
X159300000Y-143452380D01*
X159776190Y-143452380D01*
X160300000Y-143452380D02*
X160300000Y-143690476D01*
X160061904Y-143595238D02*
X160300000Y-143690476D01*
X160538095Y-143595238D01*
X160157142Y-143880952D02*
X160300000Y-143690476D01*
X160442857Y-143880952D01*
X161061904Y-143452380D02*
X161061904Y-143690476D01*
X160823809Y-143595238D02*
X161061904Y-143690476D01*
X161300000Y-143595238D01*
X160919047Y-143880952D02*
X161061904Y-143690476D01*
X161204761Y-143880952D01*
X98809523Y-147252380D02*
X98809523Y-146252380D01*
X99142857Y-146966666D01*
X99476190Y-146252380D01*
X99476190Y-147252380D01*
X100095238Y-147252380D02*
X100000000Y-147204761D01*
X99952380Y-147157142D01*
X99904761Y-147061904D01*
X99904761Y-146776190D01*
X99952380Y-146680952D01*
X100000000Y-146633333D01*
X100095238Y-146585714D01*
X100238095Y-146585714D01*
X100333333Y-146633333D01*
X100380952Y-146680952D01*
X100428571Y-146776190D01*
X100428571Y-147061904D01*
X100380952Y-147157142D01*
X100333333Y-147204761D01*
X100238095Y-147252380D01*
X100095238Y-147252380D01*
X101285714Y-146585714D02*
X101285714Y-147252380D01*
X100857142Y-146585714D02*
X100857142Y-147109523D01*
X100904761Y-147204761D01*
X101000000Y-147252380D01*
X101142857Y-147252380D01*
X101238095Y-147204761D01*
X101285714Y-147157142D01*
X101761904Y-146585714D02*
X101761904Y-147252380D01*
X101761904Y-146680952D02*
X101809523Y-146633333D01*
X101904761Y-146585714D01*
X102047619Y-146585714D01*
X102142857Y-146633333D01*
X102190476Y-146728571D01*
X102190476Y-147252380D01*
X102523809Y-146585714D02*
X102904761Y-146585714D01*
X102666666Y-146252380D02*
X102666666Y-147109523D01*
X102714285Y-147204761D01*
X102809523Y-147252380D01*
X102904761Y-147252380D01*
X103238095Y-147252380D02*
X103238095Y-146585714D01*
X103238095Y-146252380D02*
X103190476Y-146300000D01*
X103238095Y-146347619D01*
X103285714Y-146300000D01*
X103238095Y-146252380D01*
X103238095Y-146347619D01*
X103714285Y-146585714D02*
X103714285Y-147252380D01*
X103714285Y-146680952D02*
X103761904Y-146633333D01*
X103857142Y-146585714D01*
X104000000Y-146585714D01*
X104095238Y-146633333D01*
X104142857Y-146728571D01*
X104142857Y-147252380D01*
X105047619Y-146585714D02*
X105047619Y-147395238D01*
X105000000Y-147490476D01*
X104952380Y-147538095D01*
X104857142Y-147585714D01*
X104714285Y-147585714D01*
X104619047Y-147538095D01*
X105047619Y-147204761D02*
X104952380Y-147252380D01*
X104761904Y-147252380D01*
X104666666Y-147204761D01*
X104619047Y-147157142D01*
X104571428Y-147061904D01*
X104571428Y-146776190D01*
X104619047Y-146680952D01*
X104666666Y-146633333D01*
X104761904Y-146585714D01*
X104952380Y-146585714D01*
X105047619Y-146633333D01*
X105523809Y-147252380D02*
X105523809Y-146252380D01*
X105523809Y-146728571D02*
X106095238Y-146728571D01*
X106095238Y-147252380D02*
X106095238Y-146252380D01*
X106714285Y-147252380D02*
X106619047Y-147204761D01*
X106571428Y-147157142D01*
X106523809Y-147061904D01*
X106523809Y-146776190D01*
X106571428Y-146680952D01*
X106619047Y-146633333D01*
X106714285Y-146585714D01*
X106857142Y-146585714D01*
X106952380Y-146633333D01*
X107000000Y-146680952D01*
X107047619Y-146776190D01*
X107047619Y-147061904D01*
X107000000Y-147157142D01*
X106952380Y-147204761D01*
X106857142Y-147252380D01*
X106714285Y-147252380D01*
X107619047Y-147252380D02*
X107523809Y-147204761D01*
X107476190Y-147109523D01*
X107476190Y-146252380D01*
X108380952Y-147204761D02*
X108285714Y-147252380D01*
X108095238Y-147252380D01*
X108000000Y-147204761D01*
X107952380Y-147109523D01*
X107952380Y-146728571D01*
X108000000Y-146633333D01*
X108095238Y-146585714D01*
X108285714Y-146585714D01*
X108380952Y-146633333D01*
X108428571Y-146728571D01*
X108428571Y-146823809D01*
X107952380Y-146919047D01*
X108619047Y-147347619D02*
X109380952Y-147347619D01*
X109523809Y-146252380D02*
X110142857Y-146252380D01*
X109809523Y-146633333D01*
X109952380Y-146633333D01*
X110047619Y-146680952D01*
X110095238Y-146728571D01*
X110142857Y-146823809D01*
X110142857Y-147061904D01*
X110095238Y-147157142D01*
X110047619Y-147204761D01*
X109952380Y-147252380D01*
X109666666Y-147252380D01*
X109571428Y-147204761D01*
X109523809Y-147157142D01*
X110571428Y-147157142D02*
X110619047Y-147204761D01*
X110571428Y-147252380D01*
X110523809Y-147204761D01*
X110571428Y-147157142D01*
X110571428Y-147252380D01*
X110999999Y-146347619D02*
X111047619Y-146300000D01*
X111142857Y-146252380D01*
X111380952Y-146252380D01*
X111476190Y-146300000D01*
X111523809Y-146347619D01*
X111571428Y-146442857D01*
X111571428Y-146538095D01*
X111523809Y-146680952D01*
X110952380Y-147252380D01*
X111571428Y-147252380D01*
X111999999Y-147252380D02*
X111999999Y-146585714D01*
X111999999Y-146680952D02*
X112047619Y-146633333D01*
X112142857Y-146585714D01*
X112285714Y-146585714D01*
X112380952Y-146633333D01*
X112428571Y-146728571D01*
X112428571Y-147252380D01*
X112428571Y-146728571D02*
X112476190Y-146633333D01*
X112571428Y-146585714D01*
X112714285Y-146585714D01*
X112809523Y-146633333D01*
X112857142Y-146728571D01*
X112857142Y-147252380D01*
X113333333Y-147252380D02*
X113333333Y-146585714D01*
X113333333Y-146680952D02*
X113380952Y-146633333D01*
X113476190Y-146585714D01*
X113619047Y-146585714D01*
X113714285Y-146633333D01*
X113761904Y-146728571D01*
X113761904Y-147252380D01*
X113761904Y-146728571D02*
X113809523Y-146633333D01*
X113904761Y-146585714D01*
X114047619Y-146585714D01*
X114142857Y-146633333D01*
X114190476Y-146728571D01*
X114190476Y-147252380D01*
X114428571Y-147347619D02*
X115190476Y-147347619D01*
X115428571Y-147252380D02*
X115428571Y-146252380D01*
X115761904Y-146966666D01*
X116095238Y-146252380D01*
X116095238Y-147252380D01*
X116476190Y-146252380D02*
X117095238Y-146252380D01*
X116761904Y-146633333D01*
X116904761Y-146633333D01*
X117000000Y-146680952D01*
X117047619Y-146728571D01*
X117095238Y-146823809D01*
X117095238Y-147061904D01*
X117047619Y-147157142D01*
X117000000Y-147204761D01*
X116904761Y-147252380D01*
X116619047Y-147252380D01*
X116523809Y-147204761D01*
X116476190Y-147157142D01*
X117285714Y-147347619D02*
X118047619Y-147347619D01*
X118285714Y-147252380D02*
X118285714Y-146252380D01*
X118523809Y-146252380D01*
X118666666Y-146300000D01*
X118761904Y-146395238D01*
X118809523Y-146490476D01*
X118857142Y-146680952D01*
X118857142Y-146823809D01*
X118809523Y-147014285D01*
X118761904Y-147109523D01*
X118666666Y-147204761D01*
X118523809Y-147252380D01*
X118285714Y-147252380D01*
X119285714Y-147252380D02*
X119285714Y-146252380D01*
X119761904Y-147252380D02*
X119761904Y-146252380D01*
X120333333Y-147252380D01*
X120333333Y-146252380D01*
X120857142Y-147252380D02*
X121047619Y-147252380D01*
X121142857Y-147204761D01*
X121190476Y-147157142D01*
X121285714Y-147014285D01*
X121333333Y-146823809D01*
X121333333Y-146442857D01*
X121285714Y-146347619D01*
X121238095Y-146300000D01*
X121142857Y-146252380D01*
X120952380Y-146252380D01*
X120857142Y-146300000D01*
X120809523Y-146347619D01*
X120761904Y-146442857D01*
X120761904Y-146680952D01*
X120809523Y-146776190D01*
X120857142Y-146823809D01*
X120952380Y-146871428D01*
X121142857Y-146871428D01*
X121238095Y-146823809D01*
X121285714Y-146776190D01*
X121333333Y-146680952D01*
X122190476Y-146252380D02*
X122000000Y-146252380D01*
X121904761Y-146300000D01*
X121857142Y-146347619D01*
X121761904Y-146490476D01*
X121714285Y-146680952D01*
X121714285Y-147061904D01*
X121761904Y-147157142D01*
X121809523Y-147204761D01*
X121904761Y-147252380D01*
X122095238Y-147252380D01*
X122190476Y-147204761D01*
X122238095Y-147157142D01*
X122285714Y-147061904D01*
X122285714Y-146823809D01*
X122238095Y-146728571D01*
X122190476Y-146680952D01*
X122095238Y-146633333D01*
X121904761Y-146633333D01*
X121809523Y-146680952D01*
X121761904Y-146728571D01*
X121714285Y-146823809D01*
X123190476Y-146252380D02*
X122714285Y-146252380D01*
X122666666Y-146728571D01*
X122714285Y-146680952D01*
X122809523Y-146633333D01*
X123047619Y-146633333D01*
X123142857Y-146680952D01*
X123190476Y-146728571D01*
X123238095Y-146823809D01*
X123238095Y-147061904D01*
X123190476Y-147157142D01*
X123142857Y-147204761D01*
X123047619Y-147252380D01*
X122809523Y-147252380D01*
X122714285Y-147204761D01*
X122666666Y-147157142D01*
X109966666Y-143452380D02*
X109633333Y-142976190D01*
X109395238Y-143452380D02*
X109395238Y-142452380D01*
X109776190Y-142452380D01*
X109871428Y-142500000D01*
X109919047Y-142547619D01*
X109966666Y-142642857D01*
X109966666Y-142785714D01*
X109919047Y-142880952D01*
X109871428Y-142928571D01*
X109776190Y-142976190D01*
X109395238Y-142976190D01*
X110395238Y-142928571D02*
X110728571Y-142928571D01*
X110871428Y-143452380D02*
X110395238Y-143452380D01*
X110395238Y-142452380D01*
X110871428Y-142452380D01*
X111633333Y-142928571D02*
X111300000Y-142928571D01*
X111300000Y-143452380D02*
X111300000Y-142452380D01*
X111776190Y-142452380D01*
X112300000Y-142452380D02*
X112300000Y-142690476D01*
X112061904Y-142595238D02*
X112300000Y-142690476D01*
X112538095Y-142595238D01*
X112157142Y-142880952D02*
X112300000Y-142690476D01*
X112442857Y-142880952D01*
X113061904Y-142452380D02*
X113061904Y-142690476D01*
X112823809Y-142595238D02*
X113061904Y-142690476D01*
X113300000Y-142595238D01*
X112919047Y-142880952D02*
X113061904Y-142690476D01*
X113204761Y-142880952D01*
X98809523Y-87252380D02*
X98809523Y-86252380D01*
X99142857Y-86966666D01*
X99476190Y-86252380D01*
X99476190Y-87252380D01*
X100095238Y-87252380D02*
X100000000Y-87204761D01*
X99952380Y-87157142D01*
X99904761Y-87061904D01*
X99904761Y-86776190D01*
X99952380Y-86680952D01*
X100000000Y-86633333D01*
X100095238Y-86585714D01*
X100238095Y-86585714D01*
X100333333Y-86633333D01*
X100380952Y-86680952D01*
X100428571Y-86776190D01*
X100428571Y-87061904D01*
X100380952Y-87157142D01*
X100333333Y-87204761D01*
X100238095Y-87252380D01*
X100095238Y-87252380D01*
X101285714Y-86585714D02*
X101285714Y-87252380D01*
X100857142Y-86585714D02*
X100857142Y-87109523D01*
X100904761Y-87204761D01*
X101000000Y-87252380D01*
X101142857Y-87252380D01*
X101238095Y-87204761D01*
X101285714Y-87157142D01*
X101761904Y-86585714D02*
X101761904Y-87252380D01*
X101761904Y-86680952D02*
X101809523Y-86633333D01*
X101904761Y-86585714D01*
X102047619Y-86585714D01*
X102142857Y-86633333D01*
X102190476Y-86728571D01*
X102190476Y-87252380D01*
X102523809Y-86585714D02*
X102904761Y-86585714D01*
X102666666Y-86252380D02*
X102666666Y-87109523D01*
X102714285Y-87204761D01*
X102809523Y-87252380D01*
X102904761Y-87252380D01*
X103238095Y-87252380D02*
X103238095Y-86585714D01*
X103238095Y-86252380D02*
X103190476Y-86300000D01*
X103238095Y-86347619D01*
X103285714Y-86300000D01*
X103238095Y-86252380D01*
X103238095Y-86347619D01*
X103714285Y-86585714D02*
X103714285Y-87252380D01*
X103714285Y-86680952D02*
X103761904Y-86633333D01*
X103857142Y-86585714D01*
X104000000Y-86585714D01*
X104095238Y-86633333D01*
X104142857Y-86728571D01*
X104142857Y-87252380D01*
X105047619Y-86585714D02*
X105047619Y-87395238D01*
X105000000Y-87490476D01*
X104952380Y-87538095D01*
X104857142Y-87585714D01*
X104714285Y-87585714D01*
X104619047Y-87538095D01*
X105047619Y-87204761D02*
X104952380Y-87252380D01*
X104761904Y-87252380D01*
X104666666Y-87204761D01*
X104619047Y-87157142D01*
X104571428Y-87061904D01*
X104571428Y-86776190D01*
X104619047Y-86680952D01*
X104666666Y-86633333D01*
X104761904Y-86585714D01*
X104952380Y-86585714D01*
X105047619Y-86633333D01*
X105523809Y-87252380D02*
X105523809Y-86252380D01*
X105523809Y-86728571D02*
X106095238Y-86728571D01*
X106095238Y-87252380D02*
X106095238Y-86252380D01*
X106714285Y-87252380D02*
X106619047Y-87204761D01*
X106571428Y-87157142D01*
X106523809Y-87061904D01*
X106523809Y-86776190D01*
X106571428Y-86680952D01*
X106619047Y-86633333D01*
X106714285Y-86585714D01*
X106857142Y-86585714D01*
X106952380Y-86633333D01*
X107000000Y-86680952D01*
X107047619Y-86776190D01*
X107047619Y-87061904D01*
X107000000Y-87157142D01*
X106952380Y-87204761D01*
X106857142Y-87252380D01*
X106714285Y-87252380D01*
X107619047Y-87252380D02*
X107523809Y-87204761D01*
X107476190Y-87109523D01*
X107476190Y-86252380D01*
X108380952Y-87204761D02*
X108285714Y-87252380D01*
X108095238Y-87252380D01*
X108000000Y-87204761D01*
X107952380Y-87109523D01*
X107952380Y-86728571D01*
X108000000Y-86633333D01*
X108095238Y-86585714D01*
X108285714Y-86585714D01*
X108380952Y-86633333D01*
X108428571Y-86728571D01*
X108428571Y-86823809D01*
X107952380Y-86919047D01*
X108619047Y-87347619D02*
X109380952Y-87347619D01*
X109523809Y-86252380D02*
X110142857Y-86252380D01*
X109809523Y-86633333D01*
X109952380Y-86633333D01*
X110047619Y-86680952D01*
X110095238Y-86728571D01*
X110142857Y-86823809D01*
X110142857Y-87061904D01*
X110095238Y-87157142D01*
X110047619Y-87204761D01*
X109952380Y-87252380D01*
X109666666Y-87252380D01*
X109571428Y-87204761D01*
X109523809Y-87157142D01*
X110571428Y-87157142D02*
X110619047Y-87204761D01*
X110571428Y-87252380D01*
X110523809Y-87204761D01*
X110571428Y-87157142D01*
X110571428Y-87252380D01*
X110999999Y-86347619D02*
X111047619Y-86300000D01*
X111142857Y-86252380D01*
X111380952Y-86252380D01*
X111476190Y-86300000D01*
X111523809Y-86347619D01*
X111571428Y-86442857D01*
X111571428Y-86538095D01*
X111523809Y-86680952D01*
X110952380Y-87252380D01*
X111571428Y-87252380D01*
X111999999Y-87252380D02*
X111999999Y-86585714D01*
X111999999Y-86680952D02*
X112047619Y-86633333D01*
X112142857Y-86585714D01*
X112285714Y-86585714D01*
X112380952Y-86633333D01*
X112428571Y-86728571D01*
X112428571Y-87252380D01*
X112428571Y-86728571D02*
X112476190Y-86633333D01*
X112571428Y-86585714D01*
X112714285Y-86585714D01*
X112809523Y-86633333D01*
X112857142Y-86728571D01*
X112857142Y-87252380D01*
X113333333Y-87252380D02*
X113333333Y-86585714D01*
X113333333Y-86680952D02*
X113380952Y-86633333D01*
X113476190Y-86585714D01*
X113619047Y-86585714D01*
X113714285Y-86633333D01*
X113761904Y-86728571D01*
X113761904Y-87252380D01*
X113761904Y-86728571D02*
X113809523Y-86633333D01*
X113904761Y-86585714D01*
X114047619Y-86585714D01*
X114142857Y-86633333D01*
X114190476Y-86728571D01*
X114190476Y-87252380D01*
X114428571Y-87347619D02*
X115190476Y-87347619D01*
X115428571Y-87252380D02*
X115428571Y-86252380D01*
X115761904Y-86966666D01*
X116095238Y-86252380D01*
X116095238Y-87252380D01*
X116476190Y-86252380D02*
X117095238Y-86252380D01*
X116761904Y-86633333D01*
X116904761Y-86633333D01*
X117000000Y-86680952D01*
X117047619Y-86728571D01*
X117095238Y-86823809D01*
X117095238Y-87061904D01*
X117047619Y-87157142D01*
X117000000Y-87204761D01*
X116904761Y-87252380D01*
X116619047Y-87252380D01*
X116523809Y-87204761D01*
X116476190Y-87157142D01*
X117285714Y-87347619D02*
X118047619Y-87347619D01*
X118285714Y-87252380D02*
X118285714Y-86252380D01*
X118523809Y-86252380D01*
X118666666Y-86300000D01*
X118761904Y-86395238D01*
X118809523Y-86490476D01*
X118857142Y-86680952D01*
X118857142Y-86823809D01*
X118809523Y-87014285D01*
X118761904Y-87109523D01*
X118666666Y-87204761D01*
X118523809Y-87252380D01*
X118285714Y-87252380D01*
X119285714Y-87252380D02*
X119285714Y-86252380D01*
X119761904Y-87252380D02*
X119761904Y-86252380D01*
X120333333Y-87252380D01*
X120333333Y-86252380D01*
X120857142Y-87252380D02*
X121047619Y-87252380D01*
X121142857Y-87204761D01*
X121190476Y-87157142D01*
X121285714Y-87014285D01*
X121333333Y-86823809D01*
X121333333Y-86442857D01*
X121285714Y-86347619D01*
X121238095Y-86300000D01*
X121142857Y-86252380D01*
X120952380Y-86252380D01*
X120857142Y-86300000D01*
X120809523Y-86347619D01*
X120761904Y-86442857D01*
X120761904Y-86680952D01*
X120809523Y-86776190D01*
X120857142Y-86823809D01*
X120952380Y-86871428D01*
X121142857Y-86871428D01*
X121238095Y-86823809D01*
X121285714Y-86776190D01*
X121333333Y-86680952D01*
X122190476Y-86252380D02*
X122000000Y-86252380D01*
X121904761Y-86300000D01*
X121857142Y-86347619D01*
X121761904Y-86490476D01*
X121714285Y-86680952D01*
X121714285Y-87061904D01*
X121761904Y-87157142D01*
X121809523Y-87204761D01*
X121904761Y-87252380D01*
X122095238Y-87252380D01*
X122190476Y-87204761D01*
X122238095Y-87157142D01*
X122285714Y-87061904D01*
X122285714Y-86823809D01*
X122238095Y-86728571D01*
X122190476Y-86680952D01*
X122095238Y-86633333D01*
X121904761Y-86633333D01*
X121809523Y-86680952D01*
X121761904Y-86728571D01*
X121714285Y-86823809D01*
X123190476Y-86252380D02*
X122714285Y-86252380D01*
X122666666Y-86728571D01*
X122714285Y-86680952D01*
X122809523Y-86633333D01*
X123047619Y-86633333D01*
X123142857Y-86680952D01*
X123190476Y-86728571D01*
X123238095Y-86823809D01*
X123238095Y-87061904D01*
X123190476Y-87157142D01*
X123142857Y-87204761D01*
X123047619Y-87252380D01*
X122809523Y-87252380D01*
X122714285Y-87204761D01*
X122666666Y-87157142D01*
X109966666Y-83452380D02*
X109633333Y-82976190D01*
X109395238Y-83452380D02*
X109395238Y-82452380D01*
X109776190Y-82452380D01*
X109871428Y-82500000D01*
X109919047Y-82547619D01*
X109966666Y-82642857D01*
X109966666Y-82785714D01*
X109919047Y-82880952D01*
X109871428Y-82928571D01*
X109776190Y-82976190D01*
X109395238Y-82976190D01*
X110395238Y-82928571D02*
X110728571Y-82928571D01*
X110871428Y-83452380D02*
X110395238Y-83452380D01*
X110395238Y-82452380D01*
X110871428Y-82452380D01*
X111633333Y-82928571D02*
X111300000Y-82928571D01*
X111300000Y-83452380D02*
X111300000Y-82452380D01*
X111776190Y-82452380D01*
X112300000Y-82452380D02*
X112300000Y-82690476D01*
X112061904Y-82595238D02*
X112300000Y-82690476D01*
X112538095Y-82595238D01*
X112157142Y-82880952D02*
X112300000Y-82690476D01*
X112442857Y-82880952D01*
X113061904Y-82452380D02*
X113061904Y-82690476D01*
X112823809Y-82595238D02*
X113061904Y-82690476D01*
X113300000Y-82595238D01*
X112919047Y-82880952D02*
X113061904Y-82690476D01*
X113204761Y-82880952D01*
X148809523Y-88252380D02*
X148809523Y-87252380D01*
X149142857Y-87966666D01*
X149476190Y-87252380D01*
X149476190Y-88252380D01*
X150095238Y-88252380D02*
X150000000Y-88204761D01*
X149952380Y-88157142D01*
X149904761Y-88061904D01*
X149904761Y-87776190D01*
X149952380Y-87680952D01*
X150000000Y-87633333D01*
X150095238Y-87585714D01*
X150238095Y-87585714D01*
X150333333Y-87633333D01*
X150380952Y-87680952D01*
X150428571Y-87776190D01*
X150428571Y-88061904D01*
X150380952Y-88157142D01*
X150333333Y-88204761D01*
X150238095Y-88252380D01*
X150095238Y-88252380D01*
X151285714Y-87585714D02*
X151285714Y-88252380D01*
X150857142Y-87585714D02*
X150857142Y-88109523D01*
X150904761Y-88204761D01*
X151000000Y-88252380D01*
X151142857Y-88252380D01*
X151238095Y-88204761D01*
X151285714Y-88157142D01*
X151761904Y-87585714D02*
X151761904Y-88252380D01*
X151761904Y-87680952D02*
X151809523Y-87633333D01*
X151904761Y-87585714D01*
X152047619Y-87585714D01*
X152142857Y-87633333D01*
X152190476Y-87728571D01*
X152190476Y-88252380D01*
X152523809Y-87585714D02*
X152904761Y-87585714D01*
X152666666Y-87252380D02*
X152666666Y-88109523D01*
X152714285Y-88204761D01*
X152809523Y-88252380D01*
X152904761Y-88252380D01*
X153238095Y-88252380D02*
X153238095Y-87585714D01*
X153238095Y-87252380D02*
X153190476Y-87300000D01*
X153238095Y-87347619D01*
X153285714Y-87300000D01*
X153238095Y-87252380D01*
X153238095Y-87347619D01*
X153714285Y-87585714D02*
X153714285Y-88252380D01*
X153714285Y-87680952D02*
X153761904Y-87633333D01*
X153857142Y-87585714D01*
X154000000Y-87585714D01*
X154095238Y-87633333D01*
X154142857Y-87728571D01*
X154142857Y-88252380D01*
X155047619Y-87585714D02*
X155047619Y-88395238D01*
X155000000Y-88490476D01*
X154952380Y-88538095D01*
X154857142Y-88585714D01*
X154714285Y-88585714D01*
X154619047Y-88538095D01*
X155047619Y-88204761D02*
X154952380Y-88252380D01*
X154761904Y-88252380D01*
X154666666Y-88204761D01*
X154619047Y-88157142D01*
X154571428Y-88061904D01*
X154571428Y-87776190D01*
X154619047Y-87680952D01*
X154666666Y-87633333D01*
X154761904Y-87585714D01*
X154952380Y-87585714D01*
X155047619Y-87633333D01*
X155523809Y-88252380D02*
X155523809Y-87252380D01*
X155523809Y-87728571D02*
X156095238Y-87728571D01*
X156095238Y-88252380D02*
X156095238Y-87252380D01*
X156714285Y-88252380D02*
X156619047Y-88204761D01*
X156571428Y-88157142D01*
X156523809Y-88061904D01*
X156523809Y-87776190D01*
X156571428Y-87680952D01*
X156619047Y-87633333D01*
X156714285Y-87585714D01*
X156857142Y-87585714D01*
X156952380Y-87633333D01*
X157000000Y-87680952D01*
X157047619Y-87776190D01*
X157047619Y-88061904D01*
X157000000Y-88157142D01*
X156952380Y-88204761D01*
X156857142Y-88252380D01*
X156714285Y-88252380D01*
X157619047Y-88252380D02*
X157523809Y-88204761D01*
X157476190Y-88109523D01*
X157476190Y-87252380D01*
X158380952Y-88204761D02*
X158285714Y-88252380D01*
X158095238Y-88252380D01*
X158000000Y-88204761D01*
X157952380Y-88109523D01*
X157952380Y-87728571D01*
X158000000Y-87633333D01*
X158095238Y-87585714D01*
X158285714Y-87585714D01*
X158380952Y-87633333D01*
X158428571Y-87728571D01*
X158428571Y-87823809D01*
X157952380Y-87919047D01*
X158619047Y-88347619D02*
X159380952Y-88347619D01*
X159523809Y-87252380D02*
X160142857Y-87252380D01*
X159809523Y-87633333D01*
X159952380Y-87633333D01*
X160047619Y-87680952D01*
X160095238Y-87728571D01*
X160142857Y-87823809D01*
X160142857Y-88061904D01*
X160095238Y-88157142D01*
X160047619Y-88204761D01*
X159952380Y-88252380D01*
X159666666Y-88252380D01*
X159571428Y-88204761D01*
X159523809Y-88157142D01*
X160571428Y-88157142D02*
X160619047Y-88204761D01*
X160571428Y-88252380D01*
X160523809Y-88204761D01*
X160571428Y-88157142D01*
X160571428Y-88252380D01*
X161000000Y-87347619D02*
X161047619Y-87300000D01*
X161142857Y-87252380D01*
X161380952Y-87252380D01*
X161476190Y-87300000D01*
X161523809Y-87347619D01*
X161571428Y-87442857D01*
X161571428Y-87538095D01*
X161523809Y-87680952D01*
X160952380Y-88252380D01*
X161571428Y-88252380D01*
X162000000Y-88252380D02*
X162000000Y-87585714D01*
X162000000Y-87680952D02*
X162047619Y-87633333D01*
X162142857Y-87585714D01*
X162285714Y-87585714D01*
X162380952Y-87633333D01*
X162428571Y-87728571D01*
X162428571Y-88252380D01*
X162428571Y-87728571D02*
X162476190Y-87633333D01*
X162571428Y-87585714D01*
X162714285Y-87585714D01*
X162809523Y-87633333D01*
X162857142Y-87728571D01*
X162857142Y-88252380D01*
X163333333Y-88252380D02*
X163333333Y-87585714D01*
X163333333Y-87680952D02*
X163380952Y-87633333D01*
X163476190Y-87585714D01*
X163619047Y-87585714D01*
X163714285Y-87633333D01*
X163761904Y-87728571D01*
X163761904Y-88252380D01*
X163761904Y-87728571D02*
X163809523Y-87633333D01*
X163904761Y-87585714D01*
X164047619Y-87585714D01*
X164142857Y-87633333D01*
X164190476Y-87728571D01*
X164190476Y-88252380D01*
X164428571Y-88347619D02*
X165190476Y-88347619D01*
X165428571Y-88252380D02*
X165428571Y-87252380D01*
X165761904Y-87966666D01*
X166095238Y-87252380D01*
X166095238Y-88252380D01*
X166476190Y-87252380D02*
X167095238Y-87252380D01*
X166761904Y-87633333D01*
X166904761Y-87633333D01*
X167000000Y-87680952D01*
X167047619Y-87728571D01*
X167095238Y-87823809D01*
X167095238Y-88061904D01*
X167047619Y-88157142D01*
X167000000Y-88204761D01*
X166904761Y-88252380D01*
X166619047Y-88252380D01*
X166523809Y-88204761D01*
X166476190Y-88157142D01*
X167285714Y-88347619D02*
X168047619Y-88347619D01*
X168285714Y-88252380D02*
X168285714Y-87252380D01*
X168523809Y-87252380D01*
X168666666Y-87300000D01*
X168761904Y-87395238D01*
X168809523Y-87490476D01*
X168857142Y-87680952D01*
X168857142Y-87823809D01*
X168809523Y-88014285D01*
X168761904Y-88109523D01*
X168666666Y-88204761D01*
X168523809Y-88252380D01*
X168285714Y-88252380D01*
X169285714Y-88252380D02*
X169285714Y-87252380D01*
X169761904Y-88252380D02*
X169761904Y-87252380D01*
X170333333Y-88252380D01*
X170333333Y-87252380D01*
X170857142Y-88252380D02*
X171047619Y-88252380D01*
X171142857Y-88204761D01*
X171190476Y-88157142D01*
X171285714Y-88014285D01*
X171333333Y-87823809D01*
X171333333Y-87442857D01*
X171285714Y-87347619D01*
X171238095Y-87300000D01*
X171142857Y-87252380D01*
X170952380Y-87252380D01*
X170857142Y-87300000D01*
X170809523Y-87347619D01*
X170761904Y-87442857D01*
X170761904Y-87680952D01*
X170809523Y-87776190D01*
X170857142Y-87823809D01*
X170952380Y-87871428D01*
X171142857Y-87871428D01*
X171238095Y-87823809D01*
X171285714Y-87776190D01*
X171333333Y-87680952D01*
X172190476Y-87252380D02*
X172000000Y-87252380D01*
X171904761Y-87300000D01*
X171857142Y-87347619D01*
X171761904Y-87490476D01*
X171714285Y-87680952D01*
X171714285Y-88061904D01*
X171761904Y-88157142D01*
X171809523Y-88204761D01*
X171904761Y-88252380D01*
X172095238Y-88252380D01*
X172190476Y-88204761D01*
X172238095Y-88157142D01*
X172285714Y-88061904D01*
X172285714Y-87823809D01*
X172238095Y-87728571D01*
X172190476Y-87680952D01*
X172095238Y-87633333D01*
X171904761Y-87633333D01*
X171809523Y-87680952D01*
X171761904Y-87728571D01*
X171714285Y-87823809D01*
X173190476Y-87252380D02*
X172714285Y-87252380D01*
X172666666Y-87728571D01*
X172714285Y-87680952D01*
X172809523Y-87633333D01*
X173047619Y-87633333D01*
X173142857Y-87680952D01*
X173190476Y-87728571D01*
X173238095Y-87823809D01*
X173238095Y-88061904D01*
X173190476Y-88157142D01*
X173142857Y-88204761D01*
X173047619Y-88252380D01*
X172809523Y-88252380D01*
X172714285Y-88204761D01*
X172666666Y-88157142D01*
X159966666Y-84452380D02*
X159633333Y-83976190D01*
X159395238Y-84452380D02*
X159395238Y-83452380D01*
X159776190Y-83452380D01*
X159871428Y-83500000D01*
X159919047Y-83547619D01*
X159966666Y-83642857D01*
X159966666Y-83785714D01*
X159919047Y-83880952D01*
X159871428Y-83928571D01*
X159776190Y-83976190D01*
X159395238Y-83976190D01*
X160395238Y-83928571D02*
X160728571Y-83928571D01*
X160871428Y-84452380D02*
X160395238Y-84452380D01*
X160395238Y-83452380D01*
X160871428Y-83452380D01*
X161633333Y-83928571D02*
X161300000Y-83928571D01*
X161300000Y-84452380D02*
X161300000Y-83452380D01*
X161776190Y-83452380D01*
X162300000Y-83452380D02*
X162300000Y-83690476D01*
X162061904Y-83595238D02*
X162300000Y-83690476D01*
X162538095Y-83595238D01*
X162157142Y-83880952D02*
X162300000Y-83690476D01*
X162442857Y-83880952D01*
X163061904Y-83452380D02*
X163061904Y-83690476D01*
X162823809Y-83595238D02*
X163061904Y-83690476D01*
X163300000Y-83595238D01*
X162919047Y-83880952D02*
X163061904Y-83690476D01*
X163204761Y-83880952D01*
X177809523Y-151752380D02*
X177809523Y-150752380D01*
X178142857Y-151466666D01*
X178476190Y-150752380D01*
X178476190Y-151752380D01*
X179095238Y-151752380D02*
X179000000Y-151704761D01*
X178952380Y-151657142D01*
X178904761Y-151561904D01*
X178904761Y-151276190D01*
X178952380Y-151180952D01*
X179000000Y-151133333D01*
X179095238Y-151085714D01*
X179238095Y-151085714D01*
X179333333Y-151133333D01*
X179380952Y-151180952D01*
X179428571Y-151276190D01*
X179428571Y-151561904D01*
X179380952Y-151657142D01*
X179333333Y-151704761D01*
X179238095Y-151752380D01*
X179095238Y-151752380D01*
X180285714Y-151085714D02*
X180285714Y-151752380D01*
X179857142Y-151085714D02*
X179857142Y-151609523D01*
X179904761Y-151704761D01*
X180000000Y-151752380D01*
X180142857Y-151752380D01*
X180238095Y-151704761D01*
X180285714Y-151657142D01*
X180761904Y-151085714D02*
X180761904Y-151752380D01*
X180761904Y-151180952D02*
X180809523Y-151133333D01*
X180904761Y-151085714D01*
X181047619Y-151085714D01*
X181142857Y-151133333D01*
X181190476Y-151228571D01*
X181190476Y-151752380D01*
X181523809Y-151085714D02*
X181904761Y-151085714D01*
X181666666Y-150752380D02*
X181666666Y-151609523D01*
X181714285Y-151704761D01*
X181809523Y-151752380D01*
X181904761Y-151752380D01*
X182238095Y-151752380D02*
X182238095Y-151085714D01*
X182238095Y-150752380D02*
X182190476Y-150800000D01*
X182238095Y-150847619D01*
X182285714Y-150800000D01*
X182238095Y-150752380D01*
X182238095Y-150847619D01*
X182714285Y-151085714D02*
X182714285Y-151752380D01*
X182714285Y-151180952D02*
X182761904Y-151133333D01*
X182857142Y-151085714D01*
X183000000Y-151085714D01*
X183095238Y-151133333D01*
X183142857Y-151228571D01*
X183142857Y-151752380D01*
X184047619Y-151085714D02*
X184047619Y-151895238D01*
X184000000Y-151990476D01*
X183952380Y-152038095D01*
X183857142Y-152085714D01*
X183714285Y-152085714D01*
X183619047Y-152038095D01*
X184047619Y-151704761D02*
X183952380Y-151752380D01*
X183761904Y-151752380D01*
X183666666Y-151704761D01*
X183619047Y-151657142D01*
X183571428Y-151561904D01*
X183571428Y-151276190D01*
X183619047Y-151180952D01*
X183666666Y-151133333D01*
X183761904Y-151085714D01*
X183952380Y-151085714D01*
X184047619Y-151133333D01*
X184523809Y-151752380D02*
X184523809Y-150752380D01*
X184523809Y-151228571D02*
X185095238Y-151228571D01*
X185095238Y-151752380D02*
X185095238Y-150752380D01*
X185714285Y-151752380D02*
X185619047Y-151704761D01*
X185571428Y-151657142D01*
X185523809Y-151561904D01*
X185523809Y-151276190D01*
X185571428Y-151180952D01*
X185619047Y-151133333D01*
X185714285Y-151085714D01*
X185857142Y-151085714D01*
X185952380Y-151133333D01*
X186000000Y-151180952D01*
X186047619Y-151276190D01*
X186047619Y-151561904D01*
X186000000Y-151657142D01*
X185952380Y-151704761D01*
X185857142Y-151752380D01*
X185714285Y-151752380D01*
X186619047Y-151752380D02*
X186523809Y-151704761D01*
X186476190Y-151609523D01*
X186476190Y-150752380D01*
X187380952Y-151704761D02*
X187285714Y-151752380D01*
X187095238Y-151752380D01*
X187000000Y-151704761D01*
X186952380Y-151609523D01*
X186952380Y-151228571D01*
X187000000Y-151133333D01*
X187095238Y-151085714D01*
X187285714Y-151085714D01*
X187380952Y-151133333D01*
X187428571Y-151228571D01*
X187428571Y-151323809D01*
X186952380Y-151419047D01*
X187619047Y-151847619D02*
X188380952Y-151847619D01*
X188523809Y-150752380D02*
X189142857Y-150752380D01*
X188809523Y-151133333D01*
X188952380Y-151133333D01*
X189047619Y-151180952D01*
X189095238Y-151228571D01*
X189142857Y-151323809D01*
X189142857Y-151561904D01*
X189095238Y-151657142D01*
X189047619Y-151704761D01*
X188952380Y-151752380D01*
X188666666Y-151752380D01*
X188571428Y-151704761D01*
X188523809Y-151657142D01*
X189571428Y-151657142D02*
X189619047Y-151704761D01*
X189571428Y-151752380D01*
X189523809Y-151704761D01*
X189571428Y-151657142D01*
X189571428Y-151752380D01*
X190000000Y-150847619D02*
X190047619Y-150800000D01*
X190142857Y-150752380D01*
X190380952Y-150752380D01*
X190476190Y-150800000D01*
X190523809Y-150847619D01*
X190571428Y-150942857D01*
X190571428Y-151038095D01*
X190523809Y-151180952D01*
X189952380Y-151752380D01*
X190571428Y-151752380D01*
X191000000Y-151752380D02*
X191000000Y-151085714D01*
X191000000Y-151180952D02*
X191047619Y-151133333D01*
X191142857Y-151085714D01*
X191285714Y-151085714D01*
X191380952Y-151133333D01*
X191428571Y-151228571D01*
X191428571Y-151752380D01*
X191428571Y-151228571D02*
X191476190Y-151133333D01*
X191571428Y-151085714D01*
X191714285Y-151085714D01*
X191809523Y-151133333D01*
X191857142Y-151228571D01*
X191857142Y-151752380D01*
X192333333Y-151752380D02*
X192333333Y-151085714D01*
X192333333Y-151180952D02*
X192380952Y-151133333D01*
X192476190Y-151085714D01*
X192619047Y-151085714D01*
X192714285Y-151133333D01*
X192761904Y-151228571D01*
X192761904Y-151752380D01*
X192761904Y-151228571D02*
X192809523Y-151133333D01*
X192904761Y-151085714D01*
X193047619Y-151085714D01*
X193142857Y-151133333D01*
X193190476Y-151228571D01*
X193190476Y-151752380D01*
X193428571Y-151847619D02*
X194190476Y-151847619D01*
X194428571Y-151752380D02*
X194428571Y-150752380D01*
X194761904Y-151466666D01*
X195095238Y-150752380D01*
X195095238Y-151752380D01*
X195476190Y-150752380D02*
X196095238Y-150752380D01*
X195761904Y-151133333D01*
X195904761Y-151133333D01*
X196000000Y-151180952D01*
X196047619Y-151228571D01*
X196095238Y-151323809D01*
X196095238Y-151561904D01*
X196047619Y-151657142D01*
X196000000Y-151704761D01*
X195904761Y-151752380D01*
X195619047Y-151752380D01*
X195523809Y-151704761D01*
X195476190Y-151657142D01*
X196285714Y-151847619D02*
X197047619Y-151847619D01*
X197285714Y-151752380D02*
X197285714Y-150752380D01*
X197523809Y-150752380D01*
X197666666Y-150800000D01*
X197761904Y-150895238D01*
X197809523Y-150990476D01*
X197857142Y-151180952D01*
X197857142Y-151323809D01*
X197809523Y-151514285D01*
X197761904Y-151609523D01*
X197666666Y-151704761D01*
X197523809Y-151752380D01*
X197285714Y-151752380D01*
X198285714Y-151752380D02*
X198285714Y-150752380D01*
X198761904Y-151752380D02*
X198761904Y-150752380D01*
X199333333Y-151752380D01*
X199333333Y-150752380D01*
X199857142Y-151752380D02*
X200047619Y-151752380D01*
X200142857Y-151704761D01*
X200190476Y-151657142D01*
X200285714Y-151514285D01*
X200333333Y-151323809D01*
X200333333Y-150942857D01*
X200285714Y-150847619D01*
X200238095Y-150800000D01*
X200142857Y-150752380D01*
X199952380Y-150752380D01*
X199857142Y-150800000D01*
X199809523Y-150847619D01*
X199761904Y-150942857D01*
X199761904Y-151180952D01*
X199809523Y-151276190D01*
X199857142Y-151323809D01*
X199952380Y-151371428D01*
X200142857Y-151371428D01*
X200238095Y-151323809D01*
X200285714Y-151276190D01*
X200333333Y-151180952D01*
X201190476Y-150752380D02*
X201000000Y-150752380D01*
X200904761Y-150800000D01*
X200857142Y-150847619D01*
X200761904Y-150990476D01*
X200714285Y-151180952D01*
X200714285Y-151561904D01*
X200761904Y-151657142D01*
X200809523Y-151704761D01*
X200904761Y-151752380D01*
X201095238Y-151752380D01*
X201190476Y-151704761D01*
X201238095Y-151657142D01*
X201285714Y-151561904D01*
X201285714Y-151323809D01*
X201238095Y-151228571D01*
X201190476Y-151180952D01*
X201095238Y-151133333D01*
X200904761Y-151133333D01*
X200809523Y-151180952D01*
X200761904Y-151228571D01*
X200714285Y-151323809D01*
X202190476Y-150752380D02*
X201714285Y-150752380D01*
X201666666Y-151228571D01*
X201714285Y-151180952D01*
X201809523Y-151133333D01*
X202047619Y-151133333D01*
X202142857Y-151180952D01*
X202190476Y-151228571D01*
X202238095Y-151323809D01*
X202238095Y-151561904D01*
X202190476Y-151657142D01*
X202142857Y-151704761D01*
X202047619Y-151752380D01*
X201809523Y-151752380D01*
X201714285Y-151704761D01*
X201666666Y-151657142D01*
X188966666Y-147952380D02*
X188633333Y-147476190D01*
X188395238Y-147952380D02*
X188395238Y-146952380D01*
X188776190Y-146952380D01*
X188871428Y-147000000D01*
X188919047Y-147047619D01*
X188966666Y-147142857D01*
X188966666Y-147285714D01*
X188919047Y-147380952D01*
X188871428Y-147428571D01*
X188776190Y-147476190D01*
X188395238Y-147476190D01*
X189395238Y-147428571D02*
X189728571Y-147428571D01*
X189871428Y-147952380D02*
X189395238Y-147952380D01*
X189395238Y-146952380D01*
X189871428Y-146952380D01*
X190633333Y-147428571D02*
X190300000Y-147428571D01*
X190300000Y-147952380D02*
X190300000Y-146952380D01*
X190776190Y-146952380D01*
X191300000Y-146952380D02*
X191300000Y-147190476D01*
X191061904Y-147095238D02*
X191300000Y-147190476D01*
X191538095Y-147095238D01*
X191157142Y-147380952D02*
X191300000Y-147190476D01*
X191442857Y-147380952D01*
X192061904Y-146952380D02*
X192061904Y-147190476D01*
X191823809Y-147095238D02*
X192061904Y-147190476D01*
X192300000Y-147095238D01*
X191919047Y-147380952D02*
X192061904Y-147190476D01*
X192204761Y-147380952D01*
X87809523Y-69252380D02*
X87809523Y-68252380D01*
X88142857Y-68966666D01*
X88476190Y-68252380D01*
X88476190Y-69252380D01*
X89095238Y-69252380D02*
X89000000Y-69204761D01*
X88952380Y-69157142D01*
X88904761Y-69061904D01*
X88904761Y-68776190D01*
X88952380Y-68680952D01*
X89000000Y-68633333D01*
X89095238Y-68585714D01*
X89238095Y-68585714D01*
X89333333Y-68633333D01*
X89380952Y-68680952D01*
X89428571Y-68776190D01*
X89428571Y-69061904D01*
X89380952Y-69157142D01*
X89333333Y-69204761D01*
X89238095Y-69252380D01*
X89095238Y-69252380D01*
X90285714Y-68585714D02*
X90285714Y-69252380D01*
X89857142Y-68585714D02*
X89857142Y-69109523D01*
X89904761Y-69204761D01*
X90000000Y-69252380D01*
X90142857Y-69252380D01*
X90238095Y-69204761D01*
X90285714Y-69157142D01*
X90761904Y-68585714D02*
X90761904Y-69252380D01*
X90761904Y-68680952D02*
X90809523Y-68633333D01*
X90904761Y-68585714D01*
X91047619Y-68585714D01*
X91142857Y-68633333D01*
X91190476Y-68728571D01*
X91190476Y-69252380D01*
X91523809Y-68585714D02*
X91904761Y-68585714D01*
X91666666Y-68252380D02*
X91666666Y-69109523D01*
X91714285Y-69204761D01*
X91809523Y-69252380D01*
X91904761Y-69252380D01*
X92238095Y-69252380D02*
X92238095Y-68585714D01*
X92238095Y-68252380D02*
X92190476Y-68300000D01*
X92238095Y-68347619D01*
X92285714Y-68300000D01*
X92238095Y-68252380D01*
X92238095Y-68347619D01*
X92714285Y-68585714D02*
X92714285Y-69252380D01*
X92714285Y-68680952D02*
X92761904Y-68633333D01*
X92857142Y-68585714D01*
X93000000Y-68585714D01*
X93095238Y-68633333D01*
X93142857Y-68728571D01*
X93142857Y-69252380D01*
X94047619Y-68585714D02*
X94047619Y-69395238D01*
X94000000Y-69490476D01*
X93952380Y-69538095D01*
X93857142Y-69585714D01*
X93714285Y-69585714D01*
X93619047Y-69538095D01*
X94047619Y-69204761D02*
X93952380Y-69252380D01*
X93761904Y-69252380D01*
X93666666Y-69204761D01*
X93619047Y-69157142D01*
X93571428Y-69061904D01*
X93571428Y-68776190D01*
X93619047Y-68680952D01*
X93666666Y-68633333D01*
X93761904Y-68585714D01*
X93952380Y-68585714D01*
X94047619Y-68633333D01*
X94523809Y-69252380D02*
X94523809Y-68252380D01*
X94523809Y-68728571D02*
X95095238Y-68728571D01*
X95095238Y-69252380D02*
X95095238Y-68252380D01*
X95714285Y-69252380D02*
X95619047Y-69204761D01*
X95571428Y-69157142D01*
X95523809Y-69061904D01*
X95523809Y-68776190D01*
X95571428Y-68680952D01*
X95619047Y-68633333D01*
X95714285Y-68585714D01*
X95857142Y-68585714D01*
X95952380Y-68633333D01*
X96000000Y-68680952D01*
X96047619Y-68776190D01*
X96047619Y-69061904D01*
X96000000Y-69157142D01*
X95952380Y-69204761D01*
X95857142Y-69252380D01*
X95714285Y-69252380D01*
X96619047Y-69252380D02*
X96523809Y-69204761D01*
X96476190Y-69109523D01*
X96476190Y-68252380D01*
X97380952Y-69204761D02*
X97285714Y-69252380D01*
X97095238Y-69252380D01*
X97000000Y-69204761D01*
X96952380Y-69109523D01*
X96952380Y-68728571D01*
X97000000Y-68633333D01*
X97095238Y-68585714D01*
X97285714Y-68585714D01*
X97380952Y-68633333D01*
X97428571Y-68728571D01*
X97428571Y-68823809D01*
X96952380Y-68919047D01*
X97619047Y-69347619D02*
X98380952Y-69347619D01*
X98523809Y-68252380D02*
X99142857Y-68252380D01*
X98809523Y-68633333D01*
X98952380Y-68633333D01*
X99047619Y-68680952D01*
X99095238Y-68728571D01*
X99142857Y-68823809D01*
X99142857Y-69061904D01*
X99095238Y-69157142D01*
X99047619Y-69204761D01*
X98952380Y-69252380D01*
X98666666Y-69252380D01*
X98571428Y-69204761D01*
X98523809Y-69157142D01*
X99571428Y-69157142D02*
X99619047Y-69204761D01*
X99571428Y-69252380D01*
X99523809Y-69204761D01*
X99571428Y-69157142D01*
X99571428Y-69252380D01*
X99999999Y-68347619D02*
X100047619Y-68300000D01*
X100142857Y-68252380D01*
X100380952Y-68252380D01*
X100476190Y-68300000D01*
X100523809Y-68347619D01*
X100571428Y-68442857D01*
X100571428Y-68538095D01*
X100523809Y-68680952D01*
X99952380Y-69252380D01*
X100571428Y-69252380D01*
X100999999Y-69252380D02*
X100999999Y-68585714D01*
X100999999Y-68680952D02*
X101047619Y-68633333D01*
X101142857Y-68585714D01*
X101285714Y-68585714D01*
X101380952Y-68633333D01*
X101428571Y-68728571D01*
X101428571Y-69252380D01*
X101428571Y-68728571D02*
X101476190Y-68633333D01*
X101571428Y-68585714D01*
X101714285Y-68585714D01*
X101809523Y-68633333D01*
X101857142Y-68728571D01*
X101857142Y-69252380D01*
X102333333Y-69252380D02*
X102333333Y-68585714D01*
X102333333Y-68680952D02*
X102380952Y-68633333D01*
X102476190Y-68585714D01*
X102619047Y-68585714D01*
X102714285Y-68633333D01*
X102761904Y-68728571D01*
X102761904Y-69252380D01*
X102761904Y-68728571D02*
X102809523Y-68633333D01*
X102904761Y-68585714D01*
X103047619Y-68585714D01*
X103142857Y-68633333D01*
X103190476Y-68728571D01*
X103190476Y-69252380D01*
X103428571Y-69347619D02*
X104190476Y-69347619D01*
X104428571Y-69252380D02*
X104428571Y-68252380D01*
X104761904Y-68966666D01*
X105095238Y-68252380D01*
X105095238Y-69252380D01*
X105476190Y-68252380D02*
X106095238Y-68252380D01*
X105761904Y-68633333D01*
X105904761Y-68633333D01*
X106000000Y-68680952D01*
X106047619Y-68728571D01*
X106095238Y-68823809D01*
X106095238Y-69061904D01*
X106047619Y-69157142D01*
X106000000Y-69204761D01*
X105904761Y-69252380D01*
X105619047Y-69252380D01*
X105523809Y-69204761D01*
X105476190Y-69157142D01*
X106285714Y-69347619D02*
X107047619Y-69347619D01*
X107285714Y-69252380D02*
X107285714Y-68252380D01*
X107523809Y-68252380D01*
X107666666Y-68300000D01*
X107761904Y-68395238D01*
X107809523Y-68490476D01*
X107857142Y-68680952D01*
X107857142Y-68823809D01*
X107809523Y-69014285D01*
X107761904Y-69109523D01*
X107666666Y-69204761D01*
X107523809Y-69252380D01*
X107285714Y-69252380D01*
X108285714Y-69252380D02*
X108285714Y-68252380D01*
X108761904Y-69252380D02*
X108761904Y-68252380D01*
X109333333Y-69252380D01*
X109333333Y-68252380D01*
X109857142Y-69252380D02*
X110047619Y-69252380D01*
X110142857Y-69204761D01*
X110190476Y-69157142D01*
X110285714Y-69014285D01*
X110333333Y-68823809D01*
X110333333Y-68442857D01*
X110285714Y-68347619D01*
X110238095Y-68300000D01*
X110142857Y-68252380D01*
X109952380Y-68252380D01*
X109857142Y-68300000D01*
X109809523Y-68347619D01*
X109761904Y-68442857D01*
X109761904Y-68680952D01*
X109809523Y-68776190D01*
X109857142Y-68823809D01*
X109952380Y-68871428D01*
X110142857Y-68871428D01*
X110238095Y-68823809D01*
X110285714Y-68776190D01*
X110333333Y-68680952D01*
X111190476Y-68252380D02*
X111000000Y-68252380D01*
X110904761Y-68300000D01*
X110857142Y-68347619D01*
X110761904Y-68490476D01*
X110714285Y-68680952D01*
X110714285Y-69061904D01*
X110761904Y-69157142D01*
X110809523Y-69204761D01*
X110904761Y-69252380D01*
X111095238Y-69252380D01*
X111190476Y-69204761D01*
X111238095Y-69157142D01*
X111285714Y-69061904D01*
X111285714Y-68823809D01*
X111238095Y-68728571D01*
X111190476Y-68680952D01*
X111095238Y-68633333D01*
X110904761Y-68633333D01*
X110809523Y-68680952D01*
X110761904Y-68728571D01*
X110714285Y-68823809D01*
X112190476Y-68252380D02*
X111714285Y-68252380D01*
X111666666Y-68728571D01*
X111714285Y-68680952D01*
X111809523Y-68633333D01*
X112047619Y-68633333D01*
X112142857Y-68680952D01*
X112190476Y-68728571D01*
X112238095Y-68823809D01*
X112238095Y-69061904D01*
X112190476Y-69157142D01*
X112142857Y-69204761D01*
X112047619Y-69252380D01*
X111809523Y-69252380D01*
X111714285Y-69204761D01*
X111666666Y-69157142D01*
X98966666Y-65452380D02*
X98633333Y-64976190D01*
X98395238Y-65452380D02*
X98395238Y-64452380D01*
X98776190Y-64452380D01*
X98871428Y-64500000D01*
X98919047Y-64547619D01*
X98966666Y-64642857D01*
X98966666Y-64785714D01*
X98919047Y-64880952D01*
X98871428Y-64928571D01*
X98776190Y-64976190D01*
X98395238Y-64976190D01*
X99395238Y-64928571D02*
X99728571Y-64928571D01*
X99871428Y-65452380D02*
X99395238Y-65452380D01*
X99395238Y-64452380D01*
X99871428Y-64452380D01*
X100633333Y-64928571D02*
X100300000Y-64928571D01*
X100300000Y-65452380D02*
X100300000Y-64452380D01*
X100776190Y-64452380D01*
X101300000Y-64452380D02*
X101300000Y-64690476D01*
X101061904Y-64595238D02*
X101300000Y-64690476D01*
X101538095Y-64595238D01*
X101157142Y-64880952D02*
X101300000Y-64690476D01*
X101442857Y-64880952D01*
X102061904Y-64452380D02*
X102061904Y-64690476D01*
X101823809Y-64595238D02*
X102061904Y-64690476D01*
X102300000Y-64595238D01*
X101919047Y-64880952D02*
X102061904Y-64690476D01*
X102204761Y-64880952D01*
X177809523Y-88252380D02*
X177809523Y-87252380D01*
X178142857Y-87966666D01*
X178476190Y-87252380D01*
X178476190Y-88252380D01*
X179095238Y-88252380D02*
X179000000Y-88204761D01*
X178952380Y-88157142D01*
X178904761Y-88061904D01*
X178904761Y-87776190D01*
X178952380Y-87680952D01*
X179000000Y-87633333D01*
X179095238Y-87585714D01*
X179238095Y-87585714D01*
X179333333Y-87633333D01*
X179380952Y-87680952D01*
X179428571Y-87776190D01*
X179428571Y-88061904D01*
X179380952Y-88157142D01*
X179333333Y-88204761D01*
X179238095Y-88252380D01*
X179095238Y-88252380D01*
X180285714Y-87585714D02*
X180285714Y-88252380D01*
X179857142Y-87585714D02*
X179857142Y-88109523D01*
X179904761Y-88204761D01*
X180000000Y-88252380D01*
X180142857Y-88252380D01*
X180238095Y-88204761D01*
X180285714Y-88157142D01*
X180761904Y-87585714D02*
X180761904Y-88252380D01*
X180761904Y-87680952D02*
X180809523Y-87633333D01*
X180904761Y-87585714D01*
X181047619Y-87585714D01*
X181142857Y-87633333D01*
X181190476Y-87728571D01*
X181190476Y-88252380D01*
X181523809Y-87585714D02*
X181904761Y-87585714D01*
X181666666Y-87252380D02*
X181666666Y-88109523D01*
X181714285Y-88204761D01*
X181809523Y-88252380D01*
X181904761Y-88252380D01*
X182238095Y-88252380D02*
X182238095Y-87585714D01*
X182238095Y-87252380D02*
X182190476Y-87300000D01*
X182238095Y-87347619D01*
X182285714Y-87300000D01*
X182238095Y-87252380D01*
X182238095Y-87347619D01*
X182714285Y-87585714D02*
X182714285Y-88252380D01*
X182714285Y-87680952D02*
X182761904Y-87633333D01*
X182857142Y-87585714D01*
X183000000Y-87585714D01*
X183095238Y-87633333D01*
X183142857Y-87728571D01*
X183142857Y-88252380D01*
X184047619Y-87585714D02*
X184047619Y-88395238D01*
X184000000Y-88490476D01*
X183952380Y-88538095D01*
X183857142Y-88585714D01*
X183714285Y-88585714D01*
X183619047Y-88538095D01*
X184047619Y-88204761D02*
X183952380Y-88252380D01*
X183761904Y-88252380D01*
X183666666Y-88204761D01*
X183619047Y-88157142D01*
X183571428Y-88061904D01*
X183571428Y-87776190D01*
X183619047Y-87680952D01*
X183666666Y-87633333D01*
X183761904Y-87585714D01*
X183952380Y-87585714D01*
X184047619Y-87633333D01*
X184523809Y-88252380D02*
X184523809Y-87252380D01*
X184523809Y-87728571D02*
X185095238Y-87728571D01*
X185095238Y-88252380D02*
X185095238Y-87252380D01*
X185714285Y-88252380D02*
X185619047Y-88204761D01*
X185571428Y-88157142D01*
X185523809Y-88061904D01*
X185523809Y-87776190D01*
X185571428Y-87680952D01*
X185619047Y-87633333D01*
X185714285Y-87585714D01*
X185857142Y-87585714D01*
X185952380Y-87633333D01*
X186000000Y-87680952D01*
X186047619Y-87776190D01*
X186047619Y-88061904D01*
X186000000Y-88157142D01*
X185952380Y-88204761D01*
X185857142Y-88252380D01*
X185714285Y-88252380D01*
X186619047Y-88252380D02*
X186523809Y-88204761D01*
X186476190Y-88109523D01*
X186476190Y-87252380D01*
X187380952Y-88204761D02*
X187285714Y-88252380D01*
X187095238Y-88252380D01*
X187000000Y-88204761D01*
X186952380Y-88109523D01*
X186952380Y-87728571D01*
X187000000Y-87633333D01*
X187095238Y-87585714D01*
X187285714Y-87585714D01*
X187380952Y-87633333D01*
X187428571Y-87728571D01*
X187428571Y-87823809D01*
X186952380Y-87919047D01*
X187619047Y-88347619D02*
X188380952Y-88347619D01*
X188523809Y-87252380D02*
X189142857Y-87252380D01*
X188809523Y-87633333D01*
X188952380Y-87633333D01*
X189047619Y-87680952D01*
X189095238Y-87728571D01*
X189142857Y-87823809D01*
X189142857Y-88061904D01*
X189095238Y-88157142D01*
X189047619Y-88204761D01*
X188952380Y-88252380D01*
X188666666Y-88252380D01*
X188571428Y-88204761D01*
X188523809Y-88157142D01*
X189571428Y-88157142D02*
X189619047Y-88204761D01*
X189571428Y-88252380D01*
X189523809Y-88204761D01*
X189571428Y-88157142D01*
X189571428Y-88252380D01*
X190000000Y-87347619D02*
X190047619Y-87300000D01*
X190142857Y-87252380D01*
X190380952Y-87252380D01*
X190476190Y-87300000D01*
X190523809Y-87347619D01*
X190571428Y-87442857D01*
X190571428Y-87538095D01*
X190523809Y-87680952D01*
X189952380Y-88252380D01*
X190571428Y-88252380D01*
X191000000Y-88252380D02*
X191000000Y-87585714D01*
X191000000Y-87680952D02*
X191047619Y-87633333D01*
X191142857Y-87585714D01*
X191285714Y-87585714D01*
X191380952Y-87633333D01*
X191428571Y-87728571D01*
X191428571Y-88252380D01*
X191428571Y-87728571D02*
X191476190Y-87633333D01*
X191571428Y-87585714D01*
X191714285Y-87585714D01*
X191809523Y-87633333D01*
X191857142Y-87728571D01*
X191857142Y-88252380D01*
X192333333Y-88252380D02*
X192333333Y-87585714D01*
X192333333Y-87680952D02*
X192380952Y-87633333D01*
X192476190Y-87585714D01*
X192619047Y-87585714D01*
X192714285Y-87633333D01*
X192761904Y-87728571D01*
X192761904Y-88252380D01*
X192761904Y-87728571D02*
X192809523Y-87633333D01*
X192904761Y-87585714D01*
X193047619Y-87585714D01*
X193142857Y-87633333D01*
X193190476Y-87728571D01*
X193190476Y-88252380D01*
X193428571Y-88347619D02*
X194190476Y-88347619D01*
X194428571Y-88252380D02*
X194428571Y-87252380D01*
X194761904Y-87966666D01*
X195095238Y-87252380D01*
X195095238Y-88252380D01*
X195476190Y-87252380D02*
X196095238Y-87252380D01*
X195761904Y-87633333D01*
X195904761Y-87633333D01*
X196000000Y-87680952D01*
X196047619Y-87728571D01*
X196095238Y-87823809D01*
X196095238Y-88061904D01*
X196047619Y-88157142D01*
X196000000Y-88204761D01*
X195904761Y-88252380D01*
X195619047Y-88252380D01*
X195523809Y-88204761D01*
X195476190Y-88157142D01*
X196285714Y-88347619D02*
X197047619Y-88347619D01*
X197285714Y-88252380D02*
X197285714Y-87252380D01*
X197523809Y-87252380D01*
X197666666Y-87300000D01*
X197761904Y-87395238D01*
X197809523Y-87490476D01*
X197857142Y-87680952D01*
X197857142Y-87823809D01*
X197809523Y-88014285D01*
X197761904Y-88109523D01*
X197666666Y-88204761D01*
X197523809Y-88252380D01*
X197285714Y-88252380D01*
X198285714Y-88252380D02*
X198285714Y-87252380D01*
X198761904Y-88252380D02*
X198761904Y-87252380D01*
X199333333Y-88252380D01*
X199333333Y-87252380D01*
X199857142Y-88252380D02*
X200047619Y-88252380D01*
X200142857Y-88204761D01*
X200190476Y-88157142D01*
X200285714Y-88014285D01*
X200333333Y-87823809D01*
X200333333Y-87442857D01*
X200285714Y-87347619D01*
X200238095Y-87300000D01*
X200142857Y-87252380D01*
X199952380Y-87252380D01*
X199857142Y-87300000D01*
X199809523Y-87347619D01*
X199761904Y-87442857D01*
X199761904Y-87680952D01*
X199809523Y-87776190D01*
X199857142Y-87823809D01*
X199952380Y-87871428D01*
X200142857Y-87871428D01*
X200238095Y-87823809D01*
X200285714Y-87776190D01*
X200333333Y-87680952D01*
X201190476Y-87252380D02*
X201000000Y-87252380D01*
X200904761Y-87300000D01*
X200857142Y-87347619D01*
X200761904Y-87490476D01*
X200714285Y-87680952D01*
X200714285Y-88061904D01*
X200761904Y-88157142D01*
X200809523Y-88204761D01*
X200904761Y-88252380D01*
X201095238Y-88252380D01*
X201190476Y-88204761D01*
X201238095Y-88157142D01*
X201285714Y-88061904D01*
X201285714Y-87823809D01*
X201238095Y-87728571D01*
X201190476Y-87680952D01*
X201095238Y-87633333D01*
X200904761Y-87633333D01*
X200809523Y-87680952D01*
X200761904Y-87728571D01*
X200714285Y-87823809D01*
X202190476Y-87252380D02*
X201714285Y-87252380D01*
X201666666Y-87728571D01*
X201714285Y-87680952D01*
X201809523Y-87633333D01*
X202047619Y-87633333D01*
X202142857Y-87680952D01*
X202190476Y-87728571D01*
X202238095Y-87823809D01*
X202238095Y-88061904D01*
X202190476Y-88157142D01*
X202142857Y-88204761D01*
X202047619Y-88252380D01*
X201809523Y-88252380D01*
X201714285Y-88204761D01*
X201666666Y-88157142D01*
X188966666Y-84452380D02*
X188633333Y-83976190D01*
X188395238Y-84452380D02*
X188395238Y-83452380D01*
X188776190Y-83452380D01*
X188871428Y-83500000D01*
X188919047Y-83547619D01*
X188966666Y-83642857D01*
X188966666Y-83785714D01*
X188919047Y-83880952D01*
X188871428Y-83928571D01*
X188776190Y-83976190D01*
X188395238Y-83976190D01*
X189395238Y-83928571D02*
X189728571Y-83928571D01*
X189871428Y-84452380D02*
X189395238Y-84452380D01*
X189395238Y-83452380D01*
X189871428Y-83452380D01*
X190633333Y-83928571D02*
X190300000Y-83928571D01*
X190300000Y-84452380D02*
X190300000Y-83452380D01*
X190776190Y-83452380D01*
X191300000Y-83452380D02*
X191300000Y-83690476D01*
X191061904Y-83595238D02*
X191300000Y-83690476D01*
X191538095Y-83595238D01*
X191157142Y-83880952D02*
X191300000Y-83690476D01*
X191442857Y-83880952D01*
X192061904Y-83452380D02*
X192061904Y-83690476D01*
X191823809Y-83595238D02*
X192061904Y-83690476D01*
X192300000Y-83595238D01*
X191919047Y-83880952D02*
X192061904Y-83690476D01*
X192204761Y-83880952D01*
X87809523Y-151752380D02*
X87809523Y-150752380D01*
X88142857Y-151466666D01*
X88476190Y-150752380D01*
X88476190Y-151752380D01*
X89095238Y-151752380D02*
X89000000Y-151704761D01*
X88952380Y-151657142D01*
X88904761Y-151561904D01*
X88904761Y-151276190D01*
X88952380Y-151180952D01*
X89000000Y-151133333D01*
X89095238Y-151085714D01*
X89238095Y-151085714D01*
X89333333Y-151133333D01*
X89380952Y-151180952D01*
X89428571Y-151276190D01*
X89428571Y-151561904D01*
X89380952Y-151657142D01*
X89333333Y-151704761D01*
X89238095Y-151752380D01*
X89095238Y-151752380D01*
X90285714Y-151085714D02*
X90285714Y-151752380D01*
X89857142Y-151085714D02*
X89857142Y-151609523D01*
X89904761Y-151704761D01*
X90000000Y-151752380D01*
X90142857Y-151752380D01*
X90238095Y-151704761D01*
X90285714Y-151657142D01*
X90761904Y-151085714D02*
X90761904Y-151752380D01*
X90761904Y-151180952D02*
X90809523Y-151133333D01*
X90904761Y-151085714D01*
X91047619Y-151085714D01*
X91142857Y-151133333D01*
X91190476Y-151228571D01*
X91190476Y-151752380D01*
X91523809Y-151085714D02*
X91904761Y-151085714D01*
X91666666Y-150752380D02*
X91666666Y-151609523D01*
X91714285Y-151704761D01*
X91809523Y-151752380D01*
X91904761Y-151752380D01*
X92238095Y-151752380D02*
X92238095Y-151085714D01*
X92238095Y-150752380D02*
X92190476Y-150800000D01*
X92238095Y-150847619D01*
X92285714Y-150800000D01*
X92238095Y-150752380D01*
X92238095Y-150847619D01*
X92714285Y-151085714D02*
X92714285Y-151752380D01*
X92714285Y-151180952D02*
X92761904Y-151133333D01*
X92857142Y-151085714D01*
X93000000Y-151085714D01*
X93095238Y-151133333D01*
X93142857Y-151228571D01*
X93142857Y-151752380D01*
X94047619Y-151085714D02*
X94047619Y-151895238D01*
X94000000Y-151990476D01*
X93952380Y-152038095D01*
X93857142Y-152085714D01*
X93714285Y-152085714D01*
X93619047Y-152038095D01*
X94047619Y-151704761D02*
X93952380Y-151752380D01*
X93761904Y-151752380D01*
X93666666Y-151704761D01*
X93619047Y-151657142D01*
X93571428Y-151561904D01*
X93571428Y-151276190D01*
X93619047Y-151180952D01*
X93666666Y-151133333D01*
X93761904Y-151085714D01*
X93952380Y-151085714D01*
X94047619Y-151133333D01*
X94523809Y-151752380D02*
X94523809Y-150752380D01*
X94523809Y-151228571D02*
X95095238Y-151228571D01*
X95095238Y-151752380D02*
X95095238Y-150752380D01*
X95714285Y-151752380D02*
X95619047Y-151704761D01*
X95571428Y-151657142D01*
X95523809Y-151561904D01*
X95523809Y-151276190D01*
X95571428Y-151180952D01*
X95619047Y-151133333D01*
X95714285Y-151085714D01*
X95857142Y-151085714D01*
X95952380Y-151133333D01*
X96000000Y-151180952D01*
X96047619Y-151276190D01*
X96047619Y-151561904D01*
X96000000Y-151657142D01*
X95952380Y-151704761D01*
X95857142Y-151752380D01*
X95714285Y-151752380D01*
X96619047Y-151752380D02*
X96523809Y-151704761D01*
X96476190Y-151609523D01*
X96476190Y-150752380D01*
X97380952Y-151704761D02*
X97285714Y-151752380D01*
X97095238Y-151752380D01*
X97000000Y-151704761D01*
X96952380Y-151609523D01*
X96952380Y-151228571D01*
X97000000Y-151133333D01*
X97095238Y-151085714D01*
X97285714Y-151085714D01*
X97380952Y-151133333D01*
X97428571Y-151228571D01*
X97428571Y-151323809D01*
X96952380Y-151419047D01*
X97619047Y-151847619D02*
X98380952Y-151847619D01*
X98523809Y-150752380D02*
X99142857Y-150752380D01*
X98809523Y-151133333D01*
X98952380Y-151133333D01*
X99047619Y-151180952D01*
X99095238Y-151228571D01*
X99142857Y-151323809D01*
X99142857Y-151561904D01*
X99095238Y-151657142D01*
X99047619Y-151704761D01*
X98952380Y-151752380D01*
X98666666Y-151752380D01*
X98571428Y-151704761D01*
X98523809Y-151657142D01*
X99571428Y-151657142D02*
X99619047Y-151704761D01*
X99571428Y-151752380D01*
X99523809Y-151704761D01*
X99571428Y-151657142D01*
X99571428Y-151752380D01*
X99999999Y-150847619D02*
X100047619Y-150800000D01*
X100142857Y-150752380D01*
X100380952Y-150752380D01*
X100476190Y-150800000D01*
X100523809Y-150847619D01*
X100571428Y-150942857D01*
X100571428Y-151038095D01*
X100523809Y-151180952D01*
X99952380Y-151752380D01*
X100571428Y-151752380D01*
X100999999Y-151752380D02*
X100999999Y-151085714D01*
X100999999Y-151180952D02*
X101047619Y-151133333D01*
X101142857Y-151085714D01*
X101285714Y-151085714D01*
X101380952Y-151133333D01*
X101428571Y-151228571D01*
X101428571Y-151752380D01*
X101428571Y-151228571D02*
X101476190Y-151133333D01*
X101571428Y-151085714D01*
X101714285Y-151085714D01*
X101809523Y-151133333D01*
X101857142Y-151228571D01*
X101857142Y-151752380D01*
X102333333Y-151752380D02*
X102333333Y-151085714D01*
X102333333Y-151180952D02*
X102380952Y-151133333D01*
X102476190Y-151085714D01*
X102619047Y-151085714D01*
X102714285Y-151133333D01*
X102761904Y-151228571D01*
X102761904Y-151752380D01*
X102761904Y-151228571D02*
X102809523Y-151133333D01*
X102904761Y-151085714D01*
X103047619Y-151085714D01*
X103142857Y-151133333D01*
X103190476Y-151228571D01*
X103190476Y-151752380D01*
X103428571Y-151847619D02*
X104190476Y-151847619D01*
X104428571Y-151752380D02*
X104428571Y-150752380D01*
X104761904Y-151466666D01*
X105095238Y-150752380D01*
X105095238Y-151752380D01*
X105476190Y-150752380D02*
X106095238Y-150752380D01*
X105761904Y-151133333D01*
X105904761Y-151133333D01*
X106000000Y-151180952D01*
X106047619Y-151228571D01*
X106095238Y-151323809D01*
X106095238Y-151561904D01*
X106047619Y-151657142D01*
X106000000Y-151704761D01*
X105904761Y-151752380D01*
X105619047Y-151752380D01*
X105523809Y-151704761D01*
X105476190Y-151657142D01*
X106285714Y-151847619D02*
X107047619Y-151847619D01*
X107285714Y-151752380D02*
X107285714Y-150752380D01*
X107523809Y-150752380D01*
X107666666Y-150800000D01*
X107761904Y-150895238D01*
X107809523Y-150990476D01*
X107857142Y-151180952D01*
X107857142Y-151323809D01*
X107809523Y-151514285D01*
X107761904Y-151609523D01*
X107666666Y-151704761D01*
X107523809Y-151752380D01*
X107285714Y-151752380D01*
X108285714Y-151752380D02*
X108285714Y-150752380D01*
X108761904Y-151752380D02*
X108761904Y-150752380D01*
X109333333Y-151752380D01*
X109333333Y-150752380D01*
X109857142Y-151752380D02*
X110047619Y-151752380D01*
X110142857Y-151704761D01*
X110190476Y-151657142D01*
X110285714Y-151514285D01*
X110333333Y-151323809D01*
X110333333Y-150942857D01*
X110285714Y-150847619D01*
X110238095Y-150800000D01*
X110142857Y-150752380D01*
X109952380Y-150752380D01*
X109857142Y-150800000D01*
X109809523Y-150847619D01*
X109761904Y-150942857D01*
X109761904Y-151180952D01*
X109809523Y-151276190D01*
X109857142Y-151323809D01*
X109952380Y-151371428D01*
X110142857Y-151371428D01*
X110238095Y-151323809D01*
X110285714Y-151276190D01*
X110333333Y-151180952D01*
X111190476Y-150752380D02*
X111000000Y-150752380D01*
X110904761Y-150800000D01*
X110857142Y-150847619D01*
X110761904Y-150990476D01*
X110714285Y-151180952D01*
X110714285Y-151561904D01*
X110761904Y-151657142D01*
X110809523Y-151704761D01*
X110904761Y-151752380D01*
X111095238Y-151752380D01*
X111190476Y-151704761D01*
X111238095Y-151657142D01*
X111285714Y-151561904D01*
X111285714Y-151323809D01*
X111238095Y-151228571D01*
X111190476Y-151180952D01*
X111095238Y-151133333D01*
X110904761Y-151133333D01*
X110809523Y-151180952D01*
X110761904Y-151228571D01*
X110714285Y-151323809D01*
X112190476Y-150752380D02*
X111714285Y-150752380D01*
X111666666Y-151228571D01*
X111714285Y-151180952D01*
X111809523Y-151133333D01*
X112047619Y-151133333D01*
X112142857Y-151180952D01*
X112190476Y-151228571D01*
X112238095Y-151323809D01*
X112238095Y-151561904D01*
X112190476Y-151657142D01*
X112142857Y-151704761D01*
X112047619Y-151752380D01*
X111809523Y-151752380D01*
X111714285Y-151704761D01*
X111666666Y-151657142D01*
X98966666Y-147952380D02*
X98633333Y-147476190D01*
X98395238Y-147952380D02*
X98395238Y-146952380D01*
X98776190Y-146952380D01*
X98871428Y-147000000D01*
X98919047Y-147047619D01*
X98966666Y-147142857D01*
X98966666Y-147285714D01*
X98919047Y-147380952D01*
X98871428Y-147428571D01*
X98776190Y-147476190D01*
X98395238Y-147476190D01*
X99395238Y-147428571D02*
X99728571Y-147428571D01*
X99871428Y-147952380D02*
X99395238Y-147952380D01*
X99395238Y-146952380D01*
X99871428Y-146952380D01*
X100633333Y-147428571D02*
X100300000Y-147428571D01*
X100300000Y-147952380D02*
X100300000Y-146952380D01*
X100776190Y-146952380D01*
X101300000Y-146952380D02*
X101300000Y-147190476D01*
X101061904Y-147095238D02*
X101300000Y-147190476D01*
X101538095Y-147095238D01*
X101157142Y-147380952D02*
X101300000Y-147190476D01*
X101442857Y-147380952D01*
X102061904Y-146952380D02*
X102061904Y-147190476D01*
X101823809Y-147095238D02*
X102061904Y-147190476D01*
X102300000Y-147095238D01*
X101919047Y-147380952D02*
X102061904Y-147190476D01*
X102204761Y-147380952D01*
%TO.C,D1*%
X158627142Y-125412380D02*
X158150952Y-125412380D01*
X158150952Y-124412380D01*
X158960476Y-124888571D02*
X159293809Y-124888571D01*
X159436666Y-125412380D02*
X158960476Y-125412380D01*
X158960476Y-124412380D01*
X159436666Y-124412380D01*
X159865238Y-125412380D02*
X159865238Y-124412380D01*
X160103333Y-124412380D01*
X160246190Y-124460000D01*
X160341428Y-124555238D01*
X160389047Y-124650476D01*
X160436666Y-124840952D01*
X160436666Y-124983809D01*
X160389047Y-125174285D01*
X160341428Y-125269523D01*
X160246190Y-125364761D01*
X160103333Y-125412380D01*
X159865238Y-125412380D01*
D12*
X158659523Y-121361904D02*
X158659523Y-120561904D01*
X158850000Y-120561904D01*
X158964285Y-120600000D01*
X159040476Y-120676190D01*
X159078571Y-120752380D01*
X159116666Y-120904761D01*
X159116666Y-121019047D01*
X159078571Y-121171428D01*
X159040476Y-121247619D01*
X158964285Y-121323809D01*
X158850000Y-121361904D01*
X158659523Y-121361904D01*
X159878571Y-121361904D02*
X159421428Y-121361904D01*
X159650000Y-121361904D02*
X159650000Y-120561904D01*
X159573809Y-120676190D01*
X159497619Y-120752380D01*
X159421428Y-120790476D01*
%TO.C,D2*%
D11*
X158627142Y-110412380D02*
X158150952Y-110412380D01*
X158150952Y-109412380D01*
X158960476Y-109888571D02*
X159293809Y-109888571D01*
X159436666Y-110412380D02*
X158960476Y-110412380D01*
X158960476Y-109412380D01*
X159436666Y-109412380D01*
X159865238Y-110412380D02*
X159865238Y-109412380D01*
X160103333Y-109412380D01*
X160246190Y-109460000D01*
X160341428Y-109555238D01*
X160389047Y-109650476D01*
X160436666Y-109840952D01*
X160436666Y-109983809D01*
X160389047Y-110174285D01*
X160341428Y-110269523D01*
X160246190Y-110364761D01*
X160103333Y-110412380D01*
X159865238Y-110412380D01*
D12*
X158659523Y-106361904D02*
X158659523Y-105561904D01*
X158850000Y-105561904D01*
X158964285Y-105600000D01*
X159040476Y-105676190D01*
X159078571Y-105752380D01*
X159116666Y-105904761D01*
X159116666Y-106019047D01*
X159078571Y-106171428D01*
X159040476Y-106247619D01*
X158964285Y-106323809D01*
X158850000Y-106361904D01*
X158659523Y-106361904D01*
X159421428Y-105638095D02*
X159459523Y-105600000D01*
X159535714Y-105561904D01*
X159726190Y-105561904D01*
X159802380Y-105600000D01*
X159840476Y-105638095D01*
X159878571Y-105714285D01*
X159878571Y-105790476D01*
X159840476Y-105904761D01*
X159383333Y-106361904D01*
X159878571Y-106361904D01*
%TO.C,D3*%
D11*
X158627142Y-96412380D02*
X158150952Y-96412380D01*
X158150952Y-95412380D01*
X158960476Y-95888571D02*
X159293809Y-95888571D01*
X159436666Y-96412380D02*
X158960476Y-96412380D01*
X158960476Y-95412380D01*
X159436666Y-95412380D01*
X159865238Y-96412380D02*
X159865238Y-95412380D01*
X160103333Y-95412380D01*
X160246190Y-95460000D01*
X160341428Y-95555238D01*
X160389047Y-95650476D01*
X160436666Y-95840952D01*
X160436666Y-95983809D01*
X160389047Y-96174285D01*
X160341428Y-96269523D01*
X160246190Y-96364761D01*
X160103333Y-96412380D01*
X159865238Y-96412380D01*
D12*
X158659523Y-92361904D02*
X158659523Y-91561904D01*
X158850000Y-91561904D01*
X158964285Y-91600000D01*
X159040476Y-91676190D01*
X159078571Y-91752380D01*
X159116666Y-91904761D01*
X159116666Y-92019047D01*
X159078571Y-92171428D01*
X159040476Y-92247619D01*
X158964285Y-92323809D01*
X158850000Y-92361904D01*
X158659523Y-92361904D01*
X159383333Y-91561904D02*
X159878571Y-91561904D01*
X159611904Y-91866666D01*
X159726190Y-91866666D01*
X159802380Y-91904761D01*
X159840476Y-91942857D01*
X159878571Y-92019047D01*
X159878571Y-92209523D01*
X159840476Y-92285714D01*
X159802380Y-92323809D01*
X159726190Y-92361904D01*
X159497619Y-92361904D01*
X159421428Y-92323809D01*
X159383333Y-92285714D01*
%TO.C,D4*%
D11*
X135627142Y-125412380D02*
X135150952Y-125412380D01*
X135150952Y-124412380D01*
X135960476Y-124888571D02*
X136293809Y-124888571D01*
X136436666Y-125412380D02*
X135960476Y-125412380D01*
X135960476Y-124412380D01*
X136436666Y-124412380D01*
X136865238Y-125412380D02*
X136865238Y-124412380D01*
X137103333Y-124412380D01*
X137246190Y-124460000D01*
X137341428Y-124555238D01*
X137389047Y-124650476D01*
X137436666Y-124840952D01*
X137436666Y-124983809D01*
X137389047Y-125174285D01*
X137341428Y-125269523D01*
X137246190Y-125364761D01*
X137103333Y-125412380D01*
X136865238Y-125412380D01*
D12*
X135659523Y-121361904D02*
X135659523Y-120561904D01*
X135850000Y-120561904D01*
X135964285Y-120600000D01*
X136040476Y-120676190D01*
X136078571Y-120752380D01*
X136116666Y-120904761D01*
X136116666Y-121019047D01*
X136078571Y-121171428D01*
X136040476Y-121247619D01*
X135964285Y-121323809D01*
X135850000Y-121361904D01*
X135659523Y-121361904D01*
X136802380Y-120828571D02*
X136802380Y-121361904D01*
X136611904Y-120523809D02*
X136421428Y-121095238D01*
X136916666Y-121095238D01*
%TO.C,D5*%
D11*
X135627142Y-110412380D02*
X135150952Y-110412380D01*
X135150952Y-109412380D01*
X135960476Y-109888571D02*
X136293809Y-109888571D01*
X136436666Y-110412380D02*
X135960476Y-110412380D01*
X135960476Y-109412380D01*
X136436666Y-109412380D01*
X136865238Y-110412380D02*
X136865238Y-109412380D01*
X137103333Y-109412380D01*
X137246190Y-109460000D01*
X137341428Y-109555238D01*
X137389047Y-109650476D01*
X137436666Y-109840952D01*
X137436666Y-109983809D01*
X137389047Y-110174285D01*
X137341428Y-110269523D01*
X137246190Y-110364761D01*
X137103333Y-110412380D01*
X136865238Y-110412380D01*
D12*
X135659523Y-106361904D02*
X135659523Y-105561904D01*
X135850000Y-105561904D01*
X135964285Y-105600000D01*
X136040476Y-105676190D01*
X136078571Y-105752380D01*
X136116666Y-105904761D01*
X136116666Y-106019047D01*
X136078571Y-106171428D01*
X136040476Y-106247619D01*
X135964285Y-106323809D01*
X135850000Y-106361904D01*
X135659523Y-106361904D01*
X136840476Y-105561904D02*
X136459523Y-105561904D01*
X136421428Y-105942857D01*
X136459523Y-105904761D01*
X136535714Y-105866666D01*
X136726190Y-105866666D01*
X136802380Y-105904761D01*
X136840476Y-105942857D01*
X136878571Y-106019047D01*
X136878571Y-106209523D01*
X136840476Y-106285714D01*
X136802380Y-106323809D01*
X136726190Y-106361904D01*
X136535714Y-106361904D01*
X136459523Y-106323809D01*
X136421428Y-106285714D01*
%TO.C,D6*%
D11*
X135627142Y-96412380D02*
X135150952Y-96412380D01*
X135150952Y-95412380D01*
X135960476Y-95888571D02*
X136293809Y-95888571D01*
X136436666Y-96412380D02*
X135960476Y-96412380D01*
X135960476Y-95412380D01*
X136436666Y-95412380D01*
X136865238Y-96412380D02*
X136865238Y-95412380D01*
X137103333Y-95412380D01*
X137246190Y-95460000D01*
X137341428Y-95555238D01*
X137389047Y-95650476D01*
X137436666Y-95840952D01*
X137436666Y-95983809D01*
X137389047Y-96174285D01*
X137341428Y-96269523D01*
X137246190Y-96364761D01*
X137103333Y-96412380D01*
X136865238Y-96412380D01*
D12*
X135659523Y-92361904D02*
X135659523Y-91561904D01*
X135850000Y-91561904D01*
X135964285Y-91600000D01*
X136040476Y-91676190D01*
X136078571Y-91752380D01*
X136116666Y-91904761D01*
X136116666Y-92019047D01*
X136078571Y-92171428D01*
X136040476Y-92247619D01*
X135964285Y-92323809D01*
X135850000Y-92361904D01*
X135659523Y-92361904D01*
X136802380Y-91561904D02*
X136650000Y-91561904D01*
X136573809Y-91600000D01*
X136535714Y-91638095D01*
X136459523Y-91752380D01*
X136421428Y-91904761D01*
X136421428Y-92209523D01*
X136459523Y-92285714D01*
X136497619Y-92323809D01*
X136573809Y-92361904D01*
X136726190Y-92361904D01*
X136802380Y-92323809D01*
X136840476Y-92285714D01*
X136878571Y-92209523D01*
X136878571Y-92019047D01*
X136840476Y-91942857D01*
X136802380Y-91904761D01*
X136726190Y-91866666D01*
X136573809Y-91866666D01*
X136497619Y-91904761D01*
X136459523Y-91942857D01*
X136421428Y-92019047D01*
%TO.C,D7*%
D11*
X110627142Y-125412380D02*
X110150952Y-125412380D01*
X110150952Y-124412380D01*
X110960476Y-124888571D02*
X111293809Y-124888571D01*
X111436666Y-125412380D02*
X110960476Y-125412380D01*
X110960476Y-124412380D01*
X111436666Y-124412380D01*
X111865238Y-125412380D02*
X111865238Y-124412380D01*
X112103333Y-124412380D01*
X112246190Y-124460000D01*
X112341428Y-124555238D01*
X112389047Y-124650476D01*
X112436666Y-124840952D01*
X112436666Y-124983809D01*
X112389047Y-125174285D01*
X112341428Y-125269523D01*
X112246190Y-125364761D01*
X112103333Y-125412380D01*
X111865238Y-125412380D01*
D12*
X110659523Y-121361904D02*
X110659523Y-120561904D01*
X110850000Y-120561904D01*
X110964285Y-120600000D01*
X111040476Y-120676190D01*
X111078571Y-120752380D01*
X111116666Y-120904761D01*
X111116666Y-121019047D01*
X111078571Y-121171428D01*
X111040476Y-121247619D01*
X110964285Y-121323809D01*
X110850000Y-121361904D01*
X110659523Y-121361904D01*
X111383333Y-120561904D02*
X111916666Y-120561904D01*
X111573809Y-121361904D01*
%TO.C,D8*%
D11*
X110627142Y-110412380D02*
X110150952Y-110412380D01*
X110150952Y-109412380D01*
X110960476Y-109888571D02*
X111293809Y-109888571D01*
X111436666Y-110412380D02*
X110960476Y-110412380D01*
X110960476Y-109412380D01*
X111436666Y-109412380D01*
X111865238Y-110412380D02*
X111865238Y-109412380D01*
X112103333Y-109412380D01*
X112246190Y-109460000D01*
X112341428Y-109555238D01*
X112389047Y-109650476D01*
X112436666Y-109840952D01*
X112436666Y-109983809D01*
X112389047Y-110174285D01*
X112341428Y-110269523D01*
X112246190Y-110364761D01*
X112103333Y-110412380D01*
X111865238Y-110412380D01*
D12*
X110659523Y-106361904D02*
X110659523Y-105561904D01*
X110850000Y-105561904D01*
X110964285Y-105600000D01*
X111040476Y-105676190D01*
X111078571Y-105752380D01*
X111116666Y-105904761D01*
X111116666Y-106019047D01*
X111078571Y-106171428D01*
X111040476Y-106247619D01*
X110964285Y-106323809D01*
X110850000Y-106361904D01*
X110659523Y-106361904D01*
X111573809Y-105904761D02*
X111497619Y-105866666D01*
X111459523Y-105828571D01*
X111421428Y-105752380D01*
X111421428Y-105714285D01*
X111459523Y-105638095D01*
X111497619Y-105600000D01*
X111573809Y-105561904D01*
X111726190Y-105561904D01*
X111802380Y-105600000D01*
X111840476Y-105638095D01*
X111878571Y-105714285D01*
X111878571Y-105752380D01*
X111840476Y-105828571D01*
X111802380Y-105866666D01*
X111726190Y-105904761D01*
X111573809Y-105904761D01*
X111497619Y-105942857D01*
X111459523Y-105980952D01*
X111421428Y-106057142D01*
X111421428Y-106209523D01*
X111459523Y-106285714D01*
X111497619Y-106323809D01*
X111573809Y-106361904D01*
X111726190Y-106361904D01*
X111802380Y-106323809D01*
X111840476Y-106285714D01*
X111878571Y-106209523D01*
X111878571Y-106057142D01*
X111840476Y-105980952D01*
X111802380Y-105942857D01*
X111726190Y-105904761D01*
%TO.C,D9*%
D11*
X110627142Y-96412380D02*
X110150952Y-96412380D01*
X110150952Y-95412380D01*
X110960476Y-95888571D02*
X111293809Y-95888571D01*
X111436666Y-96412380D02*
X110960476Y-96412380D01*
X110960476Y-95412380D01*
X111436666Y-95412380D01*
X111865238Y-96412380D02*
X111865238Y-95412380D01*
X112103333Y-95412380D01*
X112246190Y-95460000D01*
X112341428Y-95555238D01*
X112389047Y-95650476D01*
X112436666Y-95840952D01*
X112436666Y-95983809D01*
X112389047Y-96174285D01*
X112341428Y-96269523D01*
X112246190Y-96364761D01*
X112103333Y-96412380D01*
X111865238Y-96412380D01*
D12*
X110659523Y-92361904D02*
X110659523Y-91561904D01*
X110850000Y-91561904D01*
X110964285Y-91600000D01*
X111040476Y-91676190D01*
X111078571Y-91752380D01*
X111116666Y-91904761D01*
X111116666Y-92019047D01*
X111078571Y-92171428D01*
X111040476Y-92247619D01*
X110964285Y-92323809D01*
X110850000Y-92361904D01*
X110659523Y-92361904D01*
X111497619Y-92361904D02*
X111650000Y-92361904D01*
X111726190Y-92323809D01*
X111764285Y-92285714D01*
X111840476Y-92171428D01*
X111878571Y-92019047D01*
X111878571Y-91714285D01*
X111840476Y-91638095D01*
X111802380Y-91600000D01*
X111726190Y-91561904D01*
X111573809Y-91561904D01*
X111497619Y-91600000D01*
X111459523Y-91638095D01*
X111421428Y-91714285D01*
X111421428Y-91904761D01*
X111459523Y-91980952D01*
X111497619Y-92019047D01*
X111573809Y-92057142D01*
X111726190Y-92057142D01*
X111802380Y-92019047D01*
X111840476Y-91980952D01*
X111878571Y-91904761D01*
%TO.C,J2*%
D11*
X162166666Y-68452380D02*
X162166666Y-69166666D01*
X162119047Y-69309523D01*
X162023809Y-69404761D01*
X161880952Y-69452380D01*
X161785714Y-69452380D01*
X162595238Y-68547619D02*
X162642857Y-68500000D01*
X162738095Y-68452380D01*
X162976190Y-68452380D01*
X163071428Y-68500000D01*
X163119047Y-68547619D01*
X163166666Y-68642857D01*
X163166666Y-68738095D01*
X163119047Y-68880952D01*
X162547619Y-69452380D01*
X163166666Y-69452380D01*
%TO.C,J3*%
X131452380Y-68603333D02*
X132166666Y-68603333D01*
X132309523Y-68650952D01*
X132404761Y-68746190D01*
X132452380Y-68889047D01*
X132452380Y-68984285D01*
X131452380Y-68222380D02*
X131452380Y-67603333D01*
X131833333Y-67936666D01*
X131833333Y-67793809D01*
X131880952Y-67698571D01*
X131928571Y-67650952D01*
X132023809Y-67603333D01*
X132261904Y-67603333D01*
X132357142Y-67650952D01*
X132404761Y-67698571D01*
X132452380Y-67793809D01*
X132452380Y-68079523D01*
X132404761Y-68174761D01*
X132357142Y-68222380D01*
%TO.C,J4*%
X192402380Y-67333333D02*
X193116666Y-67333333D01*
X193259523Y-67380952D01*
X193354761Y-67476190D01*
X193402380Y-67619047D01*
X193402380Y-67714285D01*
X192735714Y-66428571D02*
X193402380Y-66428571D01*
X192354761Y-66666666D02*
X193069047Y-66904761D01*
X193069047Y-66285714D01*
%TO.C,JP1*%
X122952380Y-69293333D02*
X123666666Y-69293333D01*
X123809523Y-69340952D01*
X123904761Y-69436190D01*
X123952380Y-69579047D01*
X123952380Y-69674285D01*
X123952380Y-68817142D02*
X122952380Y-68817142D01*
X122952380Y-68436190D01*
X123000000Y-68340952D01*
X123047619Y-68293333D01*
X123142857Y-68245714D01*
X123285714Y-68245714D01*
X123380952Y-68293333D01*
X123428571Y-68340952D01*
X123476190Y-68436190D01*
X123476190Y-68817142D01*
X123952380Y-67293333D02*
X123952380Y-67864761D01*
X123952380Y-67579047D02*
X122952380Y-67579047D01*
X123095238Y-67674285D01*
X123190476Y-67769523D01*
X123238095Y-67864761D01*
%TO.C,Q1*%
X112167619Y-68635238D02*
X112120000Y-68730476D01*
X112024761Y-68825714D01*
X111881904Y-68968571D01*
X111834285Y-69063809D01*
X111834285Y-69159047D01*
X112072380Y-69111428D02*
X112024761Y-69206666D01*
X111929523Y-69301904D01*
X111739047Y-69349523D01*
X111405714Y-69349523D01*
X111215238Y-69301904D01*
X111120000Y-69206666D01*
X111072380Y-69111428D01*
X111072380Y-68920952D01*
X111120000Y-68825714D01*
X111215238Y-68730476D01*
X111405714Y-68682857D01*
X111739047Y-68682857D01*
X111929523Y-68730476D01*
X112024761Y-68825714D01*
X112072380Y-68920952D01*
X112072380Y-69111428D01*
X112072380Y-67730476D02*
X112072380Y-68301904D01*
X112072380Y-68016190D02*
X111072380Y-68016190D01*
X111215238Y-68111428D01*
X111310476Y-68206666D01*
X111358095Y-68301904D01*
%TO.C,SW1*%
X174436666Y-77404761D02*
X174579523Y-77452380D01*
X174817619Y-77452380D01*
X174912857Y-77404761D01*
X174960476Y-77357142D01*
X175008095Y-77261904D01*
X175008095Y-77166666D01*
X174960476Y-77071428D01*
X174912857Y-77023809D01*
X174817619Y-76976190D01*
X174627142Y-76928571D01*
X174531904Y-76880952D01*
X174484285Y-76833333D01*
X174436666Y-76738095D01*
X174436666Y-76642857D01*
X174484285Y-76547619D01*
X174531904Y-76500000D01*
X174627142Y-76452380D01*
X174865238Y-76452380D01*
X175008095Y-76500000D01*
X175341428Y-76452380D02*
X175579523Y-77452380D01*
X175770000Y-76738095D01*
X175960476Y-77452380D01*
X176198571Y-76452380D01*
X177103333Y-77452380D02*
X176531904Y-77452380D01*
X176817619Y-77452380D02*
X176817619Y-76452380D01*
X176722380Y-76595238D01*
X176627142Y-76690476D01*
X176531904Y-76738095D01*
%TO.C,RV1*%
X145492380Y-64000238D02*
X145016190Y-64333571D01*
X145492380Y-64571666D02*
X144492380Y-64571666D01*
X144492380Y-64190714D01*
X144540000Y-64095476D01*
X144587619Y-64047857D01*
X144682857Y-64000238D01*
X144825714Y-64000238D01*
X144920952Y-64047857D01*
X144968571Y-64095476D01*
X145016190Y-64190714D01*
X145016190Y-64571666D01*
X144492380Y-63714523D02*
X145492380Y-63381190D01*
X144492380Y-63047857D01*
X145492380Y-62190714D02*
X145492380Y-62762142D01*
X145492380Y-62476428D02*
X144492380Y-62476428D01*
X144635238Y-62571666D01*
X144730476Y-62666904D01*
X144778095Y-62762142D01*
%TO.C,D10*%
X157627142Y-139412380D02*
X157150952Y-139412380D01*
X157150952Y-138412380D01*
X157960476Y-138888571D02*
X158293809Y-138888571D01*
X158436666Y-139412380D02*
X157960476Y-139412380D01*
X157960476Y-138412380D01*
X158436666Y-138412380D01*
X158865238Y-139412380D02*
X158865238Y-138412380D01*
X159103333Y-138412380D01*
X159246190Y-138460000D01*
X159341428Y-138555238D01*
X159389047Y-138650476D01*
X159436666Y-138840952D01*
X159436666Y-138983809D01*
X159389047Y-139174285D01*
X159341428Y-139269523D01*
X159246190Y-139364761D01*
X159103333Y-139412380D01*
X158865238Y-139412380D01*
D12*
X157278571Y-135361904D02*
X157278571Y-134561904D01*
X157469047Y-134561904D01*
X157583333Y-134600000D01*
X157659523Y-134676190D01*
X157697619Y-134752380D01*
X157735714Y-134904761D01*
X157735714Y-135019047D01*
X157697619Y-135171428D01*
X157659523Y-135247619D01*
X157583333Y-135323809D01*
X157469047Y-135361904D01*
X157278571Y-135361904D01*
X158497619Y-135361904D02*
X158040476Y-135361904D01*
X158269047Y-135361904D02*
X158269047Y-134561904D01*
X158192857Y-134676190D01*
X158116666Y-134752380D01*
X158040476Y-134790476D01*
X158992857Y-134561904D02*
X159069047Y-134561904D01*
X159145238Y-134600000D01*
X159183333Y-134638095D01*
X159221428Y-134714285D01*
X159259523Y-134866666D01*
X159259523Y-135057142D01*
X159221428Y-135209523D01*
X159183333Y-135285714D01*
X159145238Y-135323809D01*
X159069047Y-135361904D01*
X158992857Y-135361904D01*
X158916666Y-135323809D01*
X158878571Y-135285714D01*
X158840476Y-135209523D01*
X158802380Y-135057142D01*
X158802380Y-134866666D01*
X158840476Y-134714285D01*
X158878571Y-134638095D01*
X158916666Y-134600000D01*
X158992857Y-134561904D01*
%TO.C,D11*%
D11*
X135627142Y-139412380D02*
X135150952Y-139412380D01*
X135150952Y-138412380D01*
X135960476Y-138888571D02*
X136293809Y-138888571D01*
X136436666Y-139412380D02*
X135960476Y-139412380D01*
X135960476Y-138412380D01*
X136436666Y-138412380D01*
X136865238Y-139412380D02*
X136865238Y-138412380D01*
X137103333Y-138412380D01*
X137246190Y-138460000D01*
X137341428Y-138555238D01*
X137389047Y-138650476D01*
X137436666Y-138840952D01*
X137436666Y-138983809D01*
X137389047Y-139174285D01*
X137341428Y-139269523D01*
X137246190Y-139364761D01*
X137103333Y-139412380D01*
X136865238Y-139412380D01*
D12*
X135278571Y-135361904D02*
X135278571Y-134561904D01*
X135469047Y-134561904D01*
X135583333Y-134600000D01*
X135659523Y-134676190D01*
X135697619Y-134752380D01*
X135735714Y-134904761D01*
X135735714Y-135019047D01*
X135697619Y-135171428D01*
X135659523Y-135247619D01*
X135583333Y-135323809D01*
X135469047Y-135361904D01*
X135278571Y-135361904D01*
X136497619Y-135361904D02*
X136040476Y-135361904D01*
X136269047Y-135361904D02*
X136269047Y-134561904D01*
X136192857Y-134676190D01*
X136116666Y-134752380D01*
X136040476Y-134790476D01*
X137259523Y-135361904D02*
X136802380Y-135361904D01*
X137030952Y-135361904D02*
X137030952Y-134561904D01*
X136954761Y-134676190D01*
X136878571Y-134752380D01*
X136802380Y-134790476D01*
%TO.C,D12*%
D11*
X110627142Y-139412380D02*
X110150952Y-139412380D01*
X110150952Y-138412380D01*
X110960476Y-138888571D02*
X111293809Y-138888571D01*
X111436666Y-139412380D02*
X110960476Y-139412380D01*
X110960476Y-138412380D01*
X111436666Y-138412380D01*
X111865238Y-139412380D02*
X111865238Y-138412380D01*
X112103333Y-138412380D01*
X112246190Y-138460000D01*
X112341428Y-138555238D01*
X112389047Y-138650476D01*
X112436666Y-138840952D01*
X112436666Y-138983809D01*
X112389047Y-139174285D01*
X112341428Y-139269523D01*
X112246190Y-139364761D01*
X112103333Y-139412380D01*
X111865238Y-139412380D01*
D12*
X110278571Y-135361904D02*
X110278571Y-134561904D01*
X110469047Y-134561904D01*
X110583333Y-134600000D01*
X110659523Y-134676190D01*
X110697619Y-134752380D01*
X110735714Y-134904761D01*
X110735714Y-135019047D01*
X110697619Y-135171428D01*
X110659523Y-135247619D01*
X110583333Y-135323809D01*
X110469047Y-135361904D01*
X110278571Y-135361904D01*
X111497619Y-135361904D02*
X111040476Y-135361904D01*
X111269047Y-135361904D02*
X111269047Y-134561904D01*
X111192857Y-134676190D01*
X111116666Y-134752380D01*
X111040476Y-134790476D01*
X111802380Y-134638095D02*
X111840476Y-134600000D01*
X111916666Y-134561904D01*
X112107142Y-134561904D01*
X112183333Y-134600000D01*
X112221428Y-134638095D01*
X112259523Y-134714285D01*
X112259523Y-134790476D01*
X112221428Y-134904761D01*
X111764285Y-135361904D01*
X112259523Y-135361904D01*
%TO.C,R1*%
D11*
X178808571Y-113532380D02*
X178237142Y-113532380D01*
X178522857Y-113532380D02*
X178522857Y-112532380D01*
X178427619Y-112675238D01*
X178332380Y-112770476D01*
X178237142Y-112818095D01*
X179665714Y-112865714D02*
X179665714Y-113532380D01*
X179427619Y-112484761D02*
X179189523Y-113199047D01*
X179808571Y-113199047D01*
X181094285Y-113532380D02*
X180999047Y-113484761D01*
X180951428Y-113437142D01*
X180903809Y-113341904D01*
X180903809Y-113056190D01*
X180951428Y-112960952D01*
X180999047Y-112913333D01*
X181094285Y-112865714D01*
X181237142Y-112865714D01*
X181332380Y-112913333D01*
X181380000Y-112960952D01*
X181427619Y-113056190D01*
X181427619Y-113341904D01*
X181380000Y-113437142D01*
X181332380Y-113484761D01*
X181237142Y-113532380D01*
X181094285Y-113532380D01*
X181856190Y-113532380D02*
X181856190Y-112532380D01*
X182284761Y-113532380D02*
X182284761Y-113008571D01*
X182237142Y-112913333D01*
X182141904Y-112865714D01*
X181999047Y-112865714D01*
X181903809Y-112913333D01*
X181856190Y-112960952D01*
X182760952Y-113532380D02*
X182760952Y-112865714D01*
X182760952Y-112960952D02*
X182808571Y-112913333D01*
X182903809Y-112865714D01*
X183046666Y-112865714D01*
X183141904Y-112913333D01*
X183189523Y-113008571D01*
X183189523Y-113532380D01*
X183189523Y-113008571D02*
X183237142Y-112913333D01*
X183332380Y-112865714D01*
X183475238Y-112865714D01*
X183570476Y-112913333D01*
X183618095Y-113008571D01*
X183618095Y-113532380D01*
X184808571Y-112627619D02*
X184856190Y-112580000D01*
X184951428Y-112532380D01*
X185189523Y-112532380D01*
X185284761Y-112580000D01*
X185332380Y-112627619D01*
X185380000Y-112722857D01*
X185380000Y-112818095D01*
X185332380Y-112960952D01*
X184760952Y-113532380D01*
X185380000Y-113532380D01*
X185713333Y-112532380D02*
X185951428Y-113532380D01*
X186141904Y-112818095D01*
X186332380Y-113532380D01*
X186570476Y-112532380D01*
X182213333Y-116452380D02*
X181880000Y-115976190D01*
X181641904Y-116452380D02*
X181641904Y-115452380D01*
X182022857Y-115452380D01*
X182118095Y-115500000D01*
X182165714Y-115547619D01*
X182213333Y-115642857D01*
X182213333Y-115785714D01*
X182165714Y-115880952D01*
X182118095Y-115928571D01*
X182022857Y-115976190D01*
X181641904Y-115976190D01*
X183165714Y-116452380D02*
X182594285Y-116452380D01*
X182880000Y-116452380D02*
X182880000Y-115452380D01*
X182784761Y-115595238D01*
X182689523Y-115690476D01*
X182594285Y-115738095D01*
%TO.C,R2*%
X178808571Y-105532380D02*
X178237142Y-105532380D01*
X178522857Y-105532380D02*
X178522857Y-104532380D01*
X178427619Y-104675238D01*
X178332380Y-104770476D01*
X178237142Y-104818095D01*
X179665714Y-104865714D02*
X179665714Y-105532380D01*
X179427619Y-104484761D02*
X179189523Y-105199047D01*
X179808571Y-105199047D01*
X181094285Y-105532380D02*
X180999047Y-105484761D01*
X180951428Y-105437142D01*
X180903809Y-105341904D01*
X180903809Y-105056190D01*
X180951428Y-104960952D01*
X180999047Y-104913333D01*
X181094285Y-104865714D01*
X181237142Y-104865714D01*
X181332380Y-104913333D01*
X181380000Y-104960952D01*
X181427619Y-105056190D01*
X181427619Y-105341904D01*
X181380000Y-105437142D01*
X181332380Y-105484761D01*
X181237142Y-105532380D01*
X181094285Y-105532380D01*
X181856190Y-105532380D02*
X181856190Y-104532380D01*
X182284761Y-105532380D02*
X182284761Y-105008571D01*
X182237142Y-104913333D01*
X182141904Y-104865714D01*
X181999047Y-104865714D01*
X181903809Y-104913333D01*
X181856190Y-104960952D01*
X182760952Y-105532380D02*
X182760952Y-104865714D01*
X182760952Y-104960952D02*
X182808571Y-104913333D01*
X182903809Y-104865714D01*
X183046666Y-104865714D01*
X183141904Y-104913333D01*
X183189523Y-105008571D01*
X183189523Y-105532380D01*
X183189523Y-105008571D02*
X183237142Y-104913333D01*
X183332380Y-104865714D01*
X183475238Y-104865714D01*
X183570476Y-104913333D01*
X183618095Y-105008571D01*
X183618095Y-105532380D01*
X184808571Y-104627619D02*
X184856190Y-104580000D01*
X184951428Y-104532380D01*
X185189523Y-104532380D01*
X185284761Y-104580000D01*
X185332380Y-104627619D01*
X185380000Y-104722857D01*
X185380000Y-104818095D01*
X185332380Y-104960952D01*
X184760952Y-105532380D01*
X185380000Y-105532380D01*
X185713333Y-104532380D02*
X185951428Y-105532380D01*
X186141904Y-104818095D01*
X186332380Y-105532380D01*
X186570476Y-104532380D01*
X182213333Y-108452380D02*
X181880000Y-107976190D01*
X181641904Y-108452380D02*
X181641904Y-107452380D01*
X182022857Y-107452380D01*
X182118095Y-107500000D01*
X182165714Y-107547619D01*
X182213333Y-107642857D01*
X182213333Y-107785714D01*
X182165714Y-107880952D01*
X182118095Y-107928571D01*
X182022857Y-107976190D01*
X181641904Y-107976190D01*
X182594285Y-107547619D02*
X182641904Y-107500000D01*
X182737142Y-107452380D01*
X182975238Y-107452380D01*
X183070476Y-107500000D01*
X183118095Y-107547619D01*
X183165714Y-107642857D01*
X183165714Y-107738095D01*
X183118095Y-107880952D01*
X182546666Y-108452380D01*
X183165714Y-108452380D01*
%TO.C,R3*%
X178808571Y-97532380D02*
X178237142Y-97532380D01*
X178522857Y-97532380D02*
X178522857Y-96532380D01*
X178427619Y-96675238D01*
X178332380Y-96770476D01*
X178237142Y-96818095D01*
X179665714Y-96865714D02*
X179665714Y-97532380D01*
X179427619Y-96484761D02*
X179189523Y-97199047D01*
X179808571Y-97199047D01*
X181094285Y-97532380D02*
X180999047Y-97484761D01*
X180951428Y-97437142D01*
X180903809Y-97341904D01*
X180903809Y-97056190D01*
X180951428Y-96960952D01*
X180999047Y-96913333D01*
X181094285Y-96865714D01*
X181237142Y-96865714D01*
X181332380Y-96913333D01*
X181380000Y-96960952D01*
X181427619Y-97056190D01*
X181427619Y-97341904D01*
X181380000Y-97437142D01*
X181332380Y-97484761D01*
X181237142Y-97532380D01*
X181094285Y-97532380D01*
X181856190Y-97532380D02*
X181856190Y-96532380D01*
X182284761Y-97532380D02*
X182284761Y-97008571D01*
X182237142Y-96913333D01*
X182141904Y-96865714D01*
X181999047Y-96865714D01*
X181903809Y-96913333D01*
X181856190Y-96960952D01*
X182760952Y-97532380D02*
X182760952Y-96865714D01*
X182760952Y-96960952D02*
X182808571Y-96913333D01*
X182903809Y-96865714D01*
X183046666Y-96865714D01*
X183141904Y-96913333D01*
X183189523Y-97008571D01*
X183189523Y-97532380D01*
X183189523Y-97008571D02*
X183237142Y-96913333D01*
X183332380Y-96865714D01*
X183475238Y-96865714D01*
X183570476Y-96913333D01*
X183618095Y-97008571D01*
X183618095Y-97532380D01*
X184808571Y-96627619D02*
X184856190Y-96580000D01*
X184951428Y-96532380D01*
X185189523Y-96532380D01*
X185284761Y-96580000D01*
X185332380Y-96627619D01*
X185380000Y-96722857D01*
X185380000Y-96818095D01*
X185332380Y-96960952D01*
X184760952Y-97532380D01*
X185380000Y-97532380D01*
X185713333Y-96532380D02*
X185951428Y-97532380D01*
X186141904Y-96818095D01*
X186332380Y-97532380D01*
X186570476Y-96532380D01*
X182213333Y-100452380D02*
X181880000Y-99976190D01*
X181641904Y-100452380D02*
X181641904Y-99452380D01*
X182022857Y-99452380D01*
X182118095Y-99500000D01*
X182165714Y-99547619D01*
X182213333Y-99642857D01*
X182213333Y-99785714D01*
X182165714Y-99880952D01*
X182118095Y-99928571D01*
X182022857Y-99976190D01*
X181641904Y-99976190D01*
X182546666Y-99452380D02*
X183165714Y-99452380D01*
X182832380Y-99833333D01*
X182975238Y-99833333D01*
X183070476Y-99880952D01*
X183118095Y-99928571D01*
X183165714Y-100023809D01*
X183165714Y-100261904D01*
X183118095Y-100357142D01*
X183070476Y-100404761D01*
X182975238Y-100452380D01*
X182689523Y-100452380D01*
X182594285Y-100404761D01*
X182546666Y-100357142D01*
%TO.C,R4*%
X119267619Y-70888095D02*
X119220000Y-70840476D01*
X119172380Y-70745238D01*
X119172380Y-70507142D01*
X119220000Y-70411904D01*
X119267619Y-70364285D01*
X119362857Y-70316666D01*
X119458095Y-70316666D01*
X119600952Y-70364285D01*
X120172380Y-70935714D01*
X120172380Y-70316666D01*
X119172380Y-69983333D02*
X119172380Y-69316666D01*
X120172380Y-69745238D01*
X119172380Y-68745238D02*
X119172380Y-68650000D01*
X119220000Y-68554761D01*
X119267619Y-68507142D01*
X119362857Y-68459523D01*
X119553333Y-68411904D01*
X119791428Y-68411904D01*
X119981904Y-68459523D01*
X120077142Y-68507142D01*
X120124761Y-68554761D01*
X120172380Y-68650000D01*
X120172380Y-68745238D01*
X120124761Y-68840476D01*
X120077142Y-68888095D01*
X119981904Y-68935714D01*
X119791428Y-68983333D01*
X119553333Y-68983333D01*
X119362857Y-68935714D01*
X119267619Y-68888095D01*
X119220000Y-68840476D01*
X119172380Y-68745238D01*
X117452380Y-69816666D02*
X116976190Y-70150000D01*
X117452380Y-70388095D02*
X116452380Y-70388095D01*
X116452380Y-70007142D01*
X116500000Y-69911904D01*
X116547619Y-69864285D01*
X116642857Y-69816666D01*
X116785714Y-69816666D01*
X116880952Y-69864285D01*
X116928571Y-69911904D01*
X116976190Y-70007142D01*
X116976190Y-70388095D01*
X116785714Y-68959523D02*
X117452380Y-68959523D01*
X116404761Y-69197619D02*
X117119047Y-69435714D01*
X117119047Y-68816666D01*
%TO.C,R5*%
X178808571Y-121532380D02*
X178237142Y-121532380D01*
X178522857Y-121532380D02*
X178522857Y-120532380D01*
X178427619Y-120675238D01*
X178332380Y-120770476D01*
X178237142Y-120818095D01*
X179665714Y-120865714D02*
X179665714Y-121532380D01*
X179427619Y-120484761D02*
X179189523Y-121199047D01*
X179808571Y-121199047D01*
X181094285Y-121532380D02*
X180999047Y-121484761D01*
X180951428Y-121437142D01*
X180903809Y-121341904D01*
X180903809Y-121056190D01*
X180951428Y-120960952D01*
X180999047Y-120913333D01*
X181094285Y-120865714D01*
X181237142Y-120865714D01*
X181332380Y-120913333D01*
X181380000Y-120960952D01*
X181427619Y-121056190D01*
X181427619Y-121341904D01*
X181380000Y-121437142D01*
X181332380Y-121484761D01*
X181237142Y-121532380D01*
X181094285Y-121532380D01*
X181856190Y-121532380D02*
X181856190Y-120532380D01*
X182284761Y-121532380D02*
X182284761Y-121008571D01*
X182237142Y-120913333D01*
X182141904Y-120865714D01*
X181999047Y-120865714D01*
X181903809Y-120913333D01*
X181856190Y-120960952D01*
X182760952Y-121532380D02*
X182760952Y-120865714D01*
X182760952Y-120960952D02*
X182808571Y-120913333D01*
X182903809Y-120865714D01*
X183046666Y-120865714D01*
X183141904Y-120913333D01*
X183189523Y-121008571D01*
X183189523Y-121532380D01*
X183189523Y-121008571D02*
X183237142Y-120913333D01*
X183332380Y-120865714D01*
X183475238Y-120865714D01*
X183570476Y-120913333D01*
X183618095Y-121008571D01*
X183618095Y-121532380D01*
X184808571Y-120627619D02*
X184856190Y-120580000D01*
X184951428Y-120532380D01*
X185189523Y-120532380D01*
X185284761Y-120580000D01*
X185332380Y-120627619D01*
X185380000Y-120722857D01*
X185380000Y-120818095D01*
X185332380Y-120960952D01*
X184760952Y-121532380D01*
X185380000Y-121532380D01*
X185713333Y-120532380D02*
X185951428Y-121532380D01*
X186141904Y-120818095D01*
X186332380Y-121532380D01*
X186570476Y-120532380D01*
X182213333Y-124452380D02*
X181880000Y-123976190D01*
X181641904Y-124452380D02*
X181641904Y-123452380D01*
X182022857Y-123452380D01*
X182118095Y-123500000D01*
X182165714Y-123547619D01*
X182213333Y-123642857D01*
X182213333Y-123785714D01*
X182165714Y-123880952D01*
X182118095Y-123928571D01*
X182022857Y-123976190D01*
X181641904Y-123976190D01*
X183118095Y-123452380D02*
X182641904Y-123452380D01*
X182594285Y-123928571D01*
X182641904Y-123880952D01*
X182737142Y-123833333D01*
X182975238Y-123833333D01*
X183070476Y-123880952D01*
X183118095Y-123928571D01*
X183165714Y-124023809D01*
X183165714Y-124261904D01*
X183118095Y-124357142D01*
X183070476Y-124404761D01*
X182975238Y-124452380D01*
X182737142Y-124452380D01*
X182641904Y-124404761D01*
X182594285Y-124357142D01*
%TD*%
M02*
