%TF.GenerationSoftware,KiCad,Pcbnew,5.1.6-c6e7f7d~87~ubuntu20.04.1*%
%TF.CreationDate,2020-08-06T11:27:34+01:00*%
%TF.ProjectId,led_matrix,6c65645f-6d61-4747-9269-782e6b696361,rev?*%
%TF.SameCoordinates,Original*%
%TF.FileFunction,Soldermask,Bot*%
%TF.FilePolarity,Negative*%
%FSLAX46Y46*%
G04 Gerber Fmt 4.6, Leading zero omitted, Abs format (unit mm)*
G04 Created by KiCad (PCBNEW 5.1.6-c6e7f7d~87~ubuntu20.04.1) date 2020-08-06 11:27:34*
%MOMM*%
%LPD*%
G01*
G04 APERTURE LIST*
%ADD10C,3.300000*%
%ADD11R,1.900000X1.900000*%
%ADD12C,1.900000*%
%ADD13C,0.800000*%
%ADD14O,1.000000X2.500000*%
%ADD15O,1.000000X1.800000*%
%ADD16R,2.080000X4.060000*%
%ADD17O,2.080000X4.060000*%
%ADD18R,1.800000X1.800000*%
%ADD19O,1.800000X1.800000*%
%ADD20R,3.600000X3.600000*%
%ADD21O,1.900000X1.900000*%
%ADD22C,1.700000*%
%ADD23O,1.700000X1.700000*%
%ADD24C,1.540000*%
G04 APERTURE END LIST*
D10*
%TO.C,REF\u002A\u002A*%
X158000000Y-143000000D03*
%TD*%
%TO.C,REF\u002A\u002A*%
X112000000Y-142500000D03*
%TD*%
%TO.C,REF\u002A\u002A*%
X112500000Y-84000000D03*
%TD*%
%TO.C,REF\u002A\u002A*%
X160500000Y-85500000D03*
%TD*%
%TO.C,REF\u002A\u002A*%
X190000000Y-147500000D03*
%TD*%
%TO.C,REF\u002A\u002A*%
X100000000Y-65000000D03*
%TD*%
%TO.C,REF\u002A\u002A*%
X190000000Y-84000000D03*
%TD*%
%TO.C,REF\u002A\u002A*%
X100000000Y-147500000D03*
%TD*%
D11*
%TO.C,D1*%
X160000000Y-129500000D03*
D12*
X162540000Y-129500000D03*
%TD*%
D11*
%TO.C,D2*%
X160000000Y-113500000D03*
D12*
X162540000Y-113500000D03*
%TD*%
D11*
%TO.C,D3*%
X160000000Y-98000000D03*
D12*
X162540000Y-98000000D03*
%TD*%
%TO.C,D4*%
X137040000Y-129500000D03*
D11*
X134500000Y-129500000D03*
%TD*%
D12*
%TO.C,D5*%
X137040000Y-113500000D03*
D11*
X134500000Y-113500000D03*
%TD*%
D12*
%TO.C,D6*%
X137040000Y-98000000D03*
D11*
X134500000Y-98000000D03*
%TD*%
D12*
%TO.C,D7*%
X111040000Y-129500000D03*
D11*
X108500000Y-129500000D03*
%TD*%
%TO.C,D8*%
X108500000Y-113500000D03*
D12*
X111040000Y-113500000D03*
%TD*%
D11*
%TO.C,D9*%
X108500000Y-98000000D03*
D12*
X111040000Y-98000000D03*
%TD*%
D13*
%TO.C,J1*%
X178500000Y-66000000D03*
X177650000Y-66000000D03*
X176800000Y-66000000D03*
X175950000Y-66000000D03*
X175100000Y-66000000D03*
X174250000Y-66000000D03*
X173400000Y-66000000D03*
X172550000Y-66000000D03*
X177650000Y-64650000D03*
X175950000Y-64650000D03*
X176800000Y-64650000D03*
X178500000Y-64650000D03*
X174250000Y-64650000D03*
X173400000Y-64650000D03*
X172550000Y-64650000D03*
X175100000Y-64650000D03*
D14*
X179850000Y-65020000D03*
X171200000Y-65020000D03*
D15*
X179850000Y-61640000D03*
X171200000Y-61640000D03*
%TD*%
D16*
%TO.C,J2*%
X165000000Y-67000000D03*
D17*
X160000000Y-67000000D03*
%TD*%
D18*
%TO.C,J3*%
X132000000Y-67000000D03*
D19*
X132000000Y-69540000D03*
%TD*%
D20*
%TO.C,J4*%
X190000000Y-70000000D03*
G36*
G01*
X188975000Y-62450000D02*
X191025000Y-62450000D01*
G75*
G02*
X191800000Y-63225000I0J-775000D01*
G01*
X191800000Y-64775000D01*
G75*
G02*
X191025000Y-65550000I-775000J0D01*
G01*
X188975000Y-65550000D01*
G75*
G02*
X188200000Y-64775000I0J775000D01*
G01*
X188200000Y-63225000D01*
G75*
G02*
X188975000Y-62450000I775000J0D01*
G01*
G37*
G36*
G01*
X184400000Y-65200000D02*
X186200000Y-65200000D01*
G75*
G02*
X187100000Y-66100000I0J-900000D01*
G01*
X187100000Y-67900000D01*
G75*
G02*
X186200000Y-68800000I-900000J0D01*
G01*
X184400000Y-68800000D01*
G75*
G02*
X183500000Y-67900000I0J900000D01*
G01*
X183500000Y-66100000D01*
G75*
G02*
X184400000Y-65200000I900000J0D01*
G01*
G37*
%TD*%
D18*
%TO.C,JP1*%
X123500000Y-71000000D03*
D19*
X123500000Y-68460000D03*
X123500000Y-65920000D03*
%TD*%
D11*
%TO.C,Q1*%
X108500000Y-66000000D03*
D21*
X108500000Y-68540000D03*
X108500000Y-71080000D03*
%TD*%
D22*
%TO.C,R1*%
X180000000Y-129500000D03*
D23*
X174920000Y-129500000D03*
%TD*%
%TO.C,R2*%
X174920000Y-113500000D03*
D22*
X180000000Y-113500000D03*
%TD*%
%TO.C,R3*%
X180000000Y-98000000D03*
D23*
X174920000Y-98000000D03*
%TD*%
%TO.C,R4*%
X115500000Y-65420000D03*
D22*
X115500000Y-70500000D03*
%TD*%
D19*
%TO.C,SW1*%
X177040000Y-77000000D03*
D18*
X174500000Y-77000000D03*
%TD*%
D24*
%TO.C,RV1*%
X147580000Y-65500000D03*
X145040000Y-62960000D03*
X142500000Y-65500000D03*
%TD*%
M02*
