%TF.GenerationSoftware,KiCad,Pcbnew,5.1.6-c6e7f7d~87~ubuntu20.04.1*%
%TF.CreationDate,2020-08-06T11:27:34+01:00*%
%TF.ProjectId,led_matrix,6c65645f-6d61-4747-9269-782e6b696361,rev?*%
%TF.SameCoordinates,Original*%
%TF.FileFunction,Other,User*%
%FSLAX46Y46*%
G04 Gerber Fmt 4.6, Leading zero omitted, Abs format (unit mm)*
G04 Created by KiCad (PCBNEW 5.1.6-c6e7f7d~87~ubuntu20.04.1) date 2020-08-06 11:27:34*
%MOMM*%
%LPD*%
G01*
G04 APERTURE LIST*
%ADD10C,0.050000*%
G04 APERTURE END LIST*
D10*
%TO.C,REF\u002A\u002A*%
X161050000Y-143000000D02*
G75*
G03*
X161050000Y-143000000I-3050000J0D01*
G01*
X115050000Y-142500000D02*
G75*
G03*
X115050000Y-142500000I-3050000J0D01*
G01*
X115550000Y-84000000D02*
G75*
G03*
X115550000Y-84000000I-3050000J0D01*
G01*
X163550000Y-85500000D02*
G75*
G03*
X163550000Y-85500000I-3050000J0D01*
G01*
X193050000Y-147500000D02*
G75*
G03*
X193050000Y-147500000I-3050000J0D01*
G01*
X103050000Y-65000000D02*
G75*
G03*
X103050000Y-65000000I-3050000J0D01*
G01*
X193050000Y-84000000D02*
G75*
G03*
X193050000Y-84000000I-3050000J0D01*
G01*
X103050000Y-147500000D02*
G75*
G03*
X103050000Y-147500000I-3050000J0D01*
G01*
%TO.C,D1*%
X164500000Y-126250000D02*
X158050000Y-126250000D01*
X164500000Y-132750000D02*
X164500000Y-126250000D01*
X158050000Y-132750000D02*
X164500000Y-132750000D01*
X158050000Y-126250000D02*
X158050000Y-132750000D01*
%TO.C,D2*%
X164500000Y-110250000D02*
X158050000Y-110250000D01*
X164500000Y-116750000D02*
X164500000Y-110250000D01*
X158050000Y-116750000D02*
X164500000Y-116750000D01*
X158050000Y-110250000D02*
X158050000Y-116750000D01*
%TO.C,D3*%
X164500000Y-94750000D02*
X158050000Y-94750000D01*
X164500000Y-101250000D02*
X164500000Y-94750000D01*
X158050000Y-101250000D02*
X164500000Y-101250000D01*
X158050000Y-94750000D02*
X158050000Y-101250000D01*
%TO.C,D4*%
X132550000Y-126250000D02*
X132550000Y-132750000D01*
X132550000Y-132750000D02*
X139000000Y-132750000D01*
X139000000Y-132750000D02*
X139000000Y-126250000D01*
X139000000Y-126250000D02*
X132550000Y-126250000D01*
%TO.C,D5*%
X132550000Y-110250000D02*
X132550000Y-116750000D01*
X132550000Y-116750000D02*
X139000000Y-116750000D01*
X139000000Y-116750000D02*
X139000000Y-110250000D01*
X139000000Y-110250000D02*
X132550000Y-110250000D01*
%TO.C,D6*%
X132550000Y-94750000D02*
X132550000Y-101250000D01*
X132550000Y-101250000D02*
X139000000Y-101250000D01*
X139000000Y-101250000D02*
X139000000Y-94750000D01*
X139000000Y-94750000D02*
X132550000Y-94750000D01*
%TO.C,D7*%
X106550000Y-126250000D02*
X106550000Y-132750000D01*
X106550000Y-132750000D02*
X113000000Y-132750000D01*
X113000000Y-132750000D02*
X113000000Y-126250000D01*
X113000000Y-126250000D02*
X106550000Y-126250000D01*
%TO.C,D8*%
X113000000Y-110250000D02*
X106550000Y-110250000D01*
X113000000Y-116750000D02*
X113000000Y-110250000D01*
X106550000Y-116750000D02*
X113000000Y-116750000D01*
X106550000Y-110250000D02*
X106550000Y-116750000D01*
%TO.C,D9*%
X113000000Y-94750000D02*
X106550000Y-94750000D01*
X113000000Y-101250000D02*
X113000000Y-94750000D01*
X106550000Y-101250000D02*
X113000000Y-101250000D01*
X106550000Y-94750000D02*
X106550000Y-101250000D01*
%TO.C,J1*%
X170250000Y-67060000D02*
X170250000Y-56890000D01*
X180800000Y-67060000D02*
X170250000Y-67060000D01*
X180800000Y-56890000D02*
X170250000Y-56890000D01*
X180800000Y-67060000D02*
X180800000Y-56890000D01*
%TO.C,J2*%
X156640000Y-60530000D02*
X167830000Y-60530000D01*
X156640000Y-60530000D02*
X156640000Y-73470000D01*
X167830000Y-73470000D02*
X167830000Y-60530000D01*
X167830000Y-73470000D02*
X156640000Y-73470000D01*
%TO.C,J3*%
X133800000Y-65200000D02*
X130200000Y-65200000D01*
X133800000Y-71350000D02*
X133800000Y-65200000D01*
X130200000Y-71350000D02*
X133800000Y-71350000D01*
X130200000Y-65200000D02*
X130200000Y-71350000D01*
%TO.C,J4*%
X185250000Y-56000000D02*
X194750000Y-56000000D01*
X185250000Y-65000000D02*
X185250000Y-56000000D01*
X183250000Y-65000000D02*
X185250000Y-65000000D01*
X183250000Y-69000000D02*
X183250000Y-65000000D01*
X185250000Y-69000000D02*
X183250000Y-69000000D01*
X185250000Y-71000000D02*
X185250000Y-69000000D01*
X188000000Y-71000000D02*
X185250000Y-71000000D01*
X188000000Y-72000000D02*
X188000000Y-71000000D01*
X192000000Y-72000000D02*
X188000000Y-72000000D01*
X192000000Y-71000000D02*
X192000000Y-72000000D01*
X194500000Y-71000000D02*
X192000000Y-71000000D01*
X194750000Y-71000000D02*
X194750000Y-56000000D01*
X194500000Y-71000000D02*
X194750000Y-71000000D01*
%TO.C,JP1*%
X121700000Y-72800000D02*
X125300000Y-72800000D01*
X121700000Y-64150000D02*
X121700000Y-72800000D01*
X125300000Y-64150000D02*
X121700000Y-64150000D01*
X125300000Y-72800000D02*
X125300000Y-64150000D01*
%TO.C,Q1*%
X110750000Y-72790000D02*
X110750000Y-64290000D01*
X107000000Y-72790000D02*
X110750000Y-72790000D01*
X107000000Y-64290000D02*
X107000000Y-72790000D01*
X110750000Y-64290000D02*
X107000000Y-64290000D01*
%TO.C,R1*%
X173870000Y-131350000D02*
X181850000Y-131350000D01*
X173870000Y-127650000D02*
X173870000Y-131350000D01*
X181850000Y-127650000D02*
X173870000Y-127650000D01*
X181850000Y-131350000D02*
X181850000Y-127650000D01*
%TO.C,R2*%
X181850000Y-115350000D02*
X181850000Y-111650000D01*
X181850000Y-111650000D02*
X173870000Y-111650000D01*
X173870000Y-111650000D02*
X173870000Y-115350000D01*
X173870000Y-115350000D02*
X181850000Y-115350000D01*
%TO.C,R3*%
X173870000Y-99850000D02*
X181850000Y-99850000D01*
X173870000Y-96150000D02*
X173870000Y-99850000D01*
X181850000Y-96150000D02*
X173870000Y-96150000D01*
X181850000Y-99850000D02*
X181850000Y-96150000D01*
%TO.C,R4*%
X113650000Y-72350000D02*
X117350000Y-72350000D01*
X117350000Y-72350000D02*
X117350000Y-64370000D01*
X117350000Y-64370000D02*
X113650000Y-64370000D01*
X113650000Y-64370000D02*
X113650000Y-72350000D01*
%TO.C,SW1*%
X172700000Y-78800000D02*
X178850000Y-78800000D01*
X178850000Y-78800000D02*
X178850000Y-75200000D01*
X178850000Y-75200000D02*
X172700000Y-75200000D01*
X172700000Y-75200000D02*
X172700000Y-78800000D01*
%TO.C,RV1*%
X140700000Y-58100000D02*
X140700000Y-66650000D01*
X149400000Y-58100000D02*
X140700000Y-58100000D01*
X149400000Y-66650000D02*
X149400000Y-58100000D01*
X140700000Y-66650000D02*
X149400000Y-66650000D01*
%TD*%
M02*
