M48
; DRILL file {KiCad 5.1.6-c6e7f7d~87~ubuntu20.04.1} date Thu Aug  6 11:27:41 2020
; FORMAT={-:-/ absolute / metric / decimal}
; #@! TF.CreationDate,2020-08-06T11:27:41+01:00
; #@! TF.GenerationSoftware,Kicad,Pcbnew,5.1.6-c6e7f7d~87~ubuntu20.04.1
; #@! TF.FileFunction,Plated,1,2,PTH
FMAT,2
METRIC
T1C0.400
T2C0.600
T3C0.800
T4C0.900
T5C1.000
T6C1.320
%
G90
G05
T1
X177.0Y-68.0
X172.55Y-64.65
X172.55Y-66.0
X173.4Y-64.65
X173.4Y-66.0
X174.25Y-64.65
X174.25Y-66.0
X175.1Y-64.65
X175.1Y-66.0
X175.95Y-64.65
X175.95Y-66.0
X176.8Y-64.65
X176.8Y-66.0
X177.65Y-64.65
X177.65Y-66.0
X178.5Y-64.65
X178.5Y-66.0
T3
X174.92Y-98.0
X180.0Y-98.0
X142.5Y-65.5
X145.04Y-62.96
X147.58Y-65.5
X115.5Y-65.42
X115.5Y-70.5
X174.92Y-113.5
X180.0Y-113.5
X174.92Y-129.5
X180.0Y-129.5
T4
X160.0Y-129.5
X162.54Y-129.5
X160.0Y-98.0
X162.54Y-98.0
X134.5Y-98.0
X137.04Y-98.0
X108.5Y-98.0
X111.04Y-98.0
X108.5Y-113.5
X111.04Y-113.5
X134.5Y-113.5
X137.04Y-113.5
X134.5Y-129.5
X137.04Y-129.5
X108.5Y-129.5
X111.04Y-129.5
X160.0Y-113.5
X162.54Y-113.5
T5
X108.5Y-66.0
X108.5Y-68.54
X108.5Y-71.08
X132.0Y-67.0
X132.0Y-69.54
X123.5Y-65.92
X123.5Y-68.46
X123.5Y-71.0
X174.5Y-77.0
X177.04Y-77.0
T6
X160.0Y-67.0
X165.0Y-67.0
T2
G00X171.2Y-62.04
M15
G01X171.2Y-61.24
M16
G05
G00X171.2Y-65.77
M15
G01X171.2Y-64.27
M16
G05
G00X179.85Y-62.04
M15
G01X179.85Y-61.24
M16
G05
G00X179.85Y-65.77
M15
G01X179.85Y-64.27
M16
G05
T5
G00X185.3Y-66.0
M15
G01X185.3Y-68.0
M16
G05
G00X191.0Y-64.0
M15
G01X189.0Y-64.0
M16
G05
G00X191.0Y-70.0
M15
G01X189.0Y-70.0
M16
G05
T0
M30
