M48
; DRILL file {KiCad 5.1.6-c6e7f7d~87~ubuntu20.04.1} date Thu Sep 17 17:53:33 2020
; FORMAT={-:-/ absolute / metric / decimal}
; #@! TF.CreationDate,2020-09-17T17:53:33+01:00
; #@! TF.GenerationSoftware,Kicad,Pcbnew,5.1.6-c6e7f7d~87~ubuntu20.04.1
; #@! TF.FileFunction,Plated,1,2,PTH
FMAT,2
METRIC
T1C0.800
T2C0.900
T3C1.000
T4C1.200
T5C1.320
%
G90
G05
T1
X117.0Y-63.3
X117.0Y-76.0
X142.5Y-65.5
X145.04Y-62.96
X147.58Y-65.5
T2
X110.0Y-135.0
X112.54Y-135.0
X135.0Y-135.0
X137.54Y-135.0
X110.0Y-121.0
X112.54Y-121.0
X110.0Y-92.0
X112.54Y-92.0
X158.0Y-106.0
X160.54Y-106.0
X135.0Y-92.0
X137.54Y-92.0
X158.0Y-121.0
X160.54Y-121.0
X157.0Y-135.0
X159.54Y-135.0
X135.0Y-106.0
X137.54Y-106.0
X158.0Y-92.0
X160.54Y-92.0
X135.0Y-121.0
X137.54Y-121.0
X110.0Y-106.0
X112.54Y-106.0
T3
X108.5Y-66.0
X108.5Y-68.54
X108.5Y-71.08
X123.5Y-65.92
X123.5Y-68.46
X123.5Y-71.0
X132.0Y-67.0
X132.0Y-69.54
X174.5Y-77.0
X177.04Y-77.0
T4
X174.76Y-108.0
X190.0Y-108.0
X174.76Y-100.0
X190.0Y-100.0
X174.76Y-116.0
X190.0Y-116.0
X174.76Y-124.0
X190.0Y-124.0
T5
X160.0Y-67.0
X165.0Y-67.0
T3
G00X185.3Y-66.0
M15
G01X185.3Y-68.0
M16
G05
G00X191.0Y-64.0
M15
G01X189.0Y-64.0
M16
G05
G00X191.0Y-70.0
M15
G01X189.0Y-70.0
M16
G05
T0
M30
