%TF.GenerationSoftware,KiCad,Pcbnew,5.1.6-c6e7f7d~87~ubuntu20.04.1*%
%TF.CreationDate,2020-09-17T17:53:29+01:00*%
%TF.ProjectId,pcb-illuminator,7063622d-696c-46c7-956d-696e61746f72,rev?*%
%TF.SameCoordinates,Original*%
%TF.FileFunction,Copper,L1,Top*%
%TF.FilePolarity,Positive*%
%FSLAX46Y46*%
G04 Gerber Fmt 4.6, Leading zero omitted, Abs format (unit mm)*
G04 Created by KiCad (PCBNEW 5.1.6-c6e7f7d~87~ubuntu20.04.1) date 2020-09-17 17:53:29*
%MOMM*%
%LPD*%
G01*
G04 APERTURE LIST*
%TA.AperFunction,ComponentPad*%
%ADD10R,1.800000X1.800000*%
%TD*%
%TA.AperFunction,ComponentPad*%
%ADD11C,1.800000*%
%TD*%
%TA.AperFunction,ComponentPad*%
%ADD12R,1.980000X3.960000*%
%TD*%
%TA.AperFunction,ComponentPad*%
%ADD13O,1.980000X3.960000*%
%TD*%
%TA.AperFunction,ComponentPad*%
%ADD14R,1.700000X1.700000*%
%TD*%
%TA.AperFunction,ComponentPad*%
%ADD15O,1.700000X1.700000*%
%TD*%
%TA.AperFunction,ComponentPad*%
%ADD16R,3.500000X3.500000*%
%TD*%
%TA.AperFunction,ComponentPad*%
%ADD17O,1.800000X1.800000*%
%TD*%
%TA.AperFunction,ComponentPad*%
%ADD18C,1.440000*%
%TD*%
%TA.AperFunction,ComponentPad*%
%ADD19O,2.400000X2.400000*%
%TD*%
%TA.AperFunction,ComponentPad*%
%ADD20C,2.400000*%
%TD*%
%TA.AperFunction,ComponentPad*%
%ADD21C,1.600000*%
%TD*%
%TA.AperFunction,ComponentPad*%
%ADD22O,1.600000X1.600000*%
%TD*%
%TA.AperFunction,Conductor*%
%ADD23C,1.000000*%
%TD*%
%TA.AperFunction,Conductor*%
%ADD24C,0.250000*%
%TD*%
%TA.AperFunction,Conductor*%
%ADD25C,0.254000*%
%TD*%
G04 APERTURE END LIST*
D10*
%TO.P,D1,1*%
%TO.N,Net-(D1-Pad1)*%
X158000000Y-121000000D03*
D11*
%TO.P,D1,2*%
%TO.N,Net-(D1-Pad2)*%
X160540000Y-121000000D03*
%TD*%
D10*
%TO.P,D2,1*%
%TO.N,Net-(D2-Pad1)*%
X158000000Y-106000000D03*
D11*
%TO.P,D2,2*%
%TO.N,Net-(D2-Pad2)*%
X160540000Y-106000000D03*
%TD*%
D10*
%TO.P,D3,1*%
%TO.N,Net-(D3-Pad1)*%
X158000000Y-92000000D03*
D11*
%TO.P,D3,2*%
%TO.N,Net-(D3-Pad2)*%
X160540000Y-92000000D03*
%TD*%
%TO.P,D4,2*%
%TO.N,Net-(D1-Pad1)*%
X137540000Y-121000000D03*
D10*
%TO.P,D4,1*%
%TO.N,Net-(D4-Pad1)*%
X135000000Y-121000000D03*
%TD*%
D11*
%TO.P,D5,2*%
%TO.N,Net-(D2-Pad1)*%
X137540000Y-106000000D03*
D10*
%TO.P,D5,1*%
%TO.N,Net-(D5-Pad1)*%
X135000000Y-106000000D03*
%TD*%
D11*
%TO.P,D6,2*%
%TO.N,Net-(D3-Pad1)*%
X137540000Y-92000000D03*
D10*
%TO.P,D6,1*%
%TO.N,Net-(D6-Pad1)*%
X135000000Y-92000000D03*
%TD*%
D11*
%TO.P,D7,2*%
%TO.N,Net-(D4-Pad1)*%
X112540000Y-121000000D03*
D10*
%TO.P,D7,1*%
%TO.N,Net-(D12-Pad1)*%
X110000000Y-121000000D03*
%TD*%
%TO.P,D8,1*%
%TO.N,Net-(D12-Pad1)*%
X110000000Y-106000000D03*
D11*
%TO.P,D8,2*%
%TO.N,Net-(D5-Pad1)*%
X112540000Y-106000000D03*
%TD*%
D10*
%TO.P,D9,1*%
%TO.N,Net-(D12-Pad1)*%
X110000000Y-92000000D03*
D11*
%TO.P,D9,2*%
%TO.N,Net-(D6-Pad1)*%
X112540000Y-92000000D03*
%TD*%
D12*
%TO.P,J2,1*%
%TO.N,+5V*%
X165000000Y-67000000D03*
D13*
%TO.P,J2,2*%
%TO.N,GND*%
X160000000Y-67000000D03*
%TD*%
D14*
%TO.P,J3,1*%
%TO.N,Net-(J3-Pad1)*%
X132000000Y-67000000D03*
D15*
%TO.P,J3,2*%
%TO.N,GND*%
X132000000Y-69540000D03*
%TD*%
D16*
%TO.P,J4,1*%
%TO.N,+5V*%
X190000000Y-70000000D03*
%TO.P,J4,2*%
%TO.N,GND*%
%TA.AperFunction,ComponentPad*%
G36*
G01*
X189000000Y-62500000D02*
X191000000Y-62500000D01*
G75*
G02*
X191750000Y-63250000I0J-750000D01*
G01*
X191750000Y-64750000D01*
G75*
G02*
X191000000Y-65500000I-750000J0D01*
G01*
X189000000Y-65500000D01*
G75*
G02*
X188250000Y-64750000I0J750000D01*
G01*
X188250000Y-63250000D01*
G75*
G02*
X189000000Y-62500000I750000J0D01*
G01*
G37*
%TD.AperFunction*%
%TO.P,J4,3*%
%TO.N,N/C*%
%TA.AperFunction,ComponentPad*%
G36*
G01*
X184425000Y-65250000D02*
X186175000Y-65250000D01*
G75*
G02*
X187050000Y-66125000I0J-875000D01*
G01*
X187050000Y-67875000D01*
G75*
G02*
X186175000Y-68750000I-875000J0D01*
G01*
X184425000Y-68750000D01*
G75*
G02*
X183550000Y-67875000I0J875000D01*
G01*
X183550000Y-66125000D01*
G75*
G02*
X184425000Y-65250000I875000J0D01*
G01*
G37*
%TD.AperFunction*%
%TD*%
D14*
%TO.P,JP1,1*%
%TO.N,Net-(J3-Pad1)*%
X123500000Y-71000000D03*
D15*
%TO.P,JP1,2*%
%TO.N,control_signal*%
X123500000Y-68460000D03*
%TO.P,JP1,3*%
%TO.N,+5V*%
X123500000Y-65920000D03*
%TD*%
D10*
%TO.P,Q1,1*%
%TO.N,GND*%
X108500000Y-66000000D03*
D17*
%TO.P,Q1,2*%
%TO.N,Net-(D12-Pad1)*%
X108500000Y-68540000D03*
%TO.P,Q1,3*%
%TO.N,Net-(Q1-Pad3)*%
X108500000Y-71080000D03*
%TD*%
D15*
%TO.P,SW1,2*%
%TO.N,+5V*%
X177040000Y-77000000D03*
D14*
%TO.P,SW1,1*%
%TO.N,Net-(RV1-Pad1)*%
X174500000Y-77000000D03*
%TD*%
D18*
%TO.P,RV1,3*%
%TO.N,GND*%
X147580000Y-65500000D03*
%TO.P,RV1,2*%
%TO.N,Net-(R1-Pad1)*%
X145040000Y-62960000D03*
%TO.P,RV1,1*%
%TO.N,Net-(RV1-Pad1)*%
X142500000Y-65500000D03*
%TD*%
D10*
%TO.P,D10,1*%
%TO.N,Net-(D10-Pad1)*%
X157000000Y-135000000D03*
D11*
%TO.P,D10,2*%
%TO.N,Net-(D10-Pad2)*%
X159540000Y-135000000D03*
%TD*%
%TO.P,D11,2*%
%TO.N,Net-(D10-Pad1)*%
X137540000Y-135000000D03*
D10*
%TO.P,D11,1*%
%TO.N,Net-(D11-Pad1)*%
X135000000Y-135000000D03*
%TD*%
%TO.P,D12,1*%
%TO.N,Net-(D12-Pad1)*%
X110000000Y-135000000D03*
D11*
%TO.P,D12,2*%
%TO.N,Net-(D11-Pad1)*%
X112540000Y-135000000D03*
%TD*%
D19*
%TO.P,R1,2*%
%TO.N,Net-(D1-Pad2)*%
X174760000Y-116000000D03*
D20*
%TO.P,R1,1*%
%TO.N,Net-(R1-Pad1)*%
X190000000Y-116000000D03*
%TD*%
%TO.P,R2,1*%
%TO.N,Net-(R1-Pad1)*%
X190000000Y-108000000D03*
D19*
%TO.P,R2,2*%
%TO.N,Net-(D2-Pad2)*%
X174760000Y-108000000D03*
%TD*%
D20*
%TO.P,R3,1*%
%TO.N,Net-(R1-Pad1)*%
X190000000Y-100000000D03*
D19*
%TO.P,R3,2*%
%TO.N,Net-(D3-Pad2)*%
X174760000Y-100000000D03*
%TD*%
D21*
%TO.P,R4,1*%
%TO.N,Net-(Q1-Pad3)*%
X117000000Y-76000000D03*
D22*
%TO.P,R4,2*%
%TO.N,control_signal*%
X117000000Y-63300000D03*
%TD*%
D19*
%TO.P,R5,2*%
%TO.N,Net-(D10-Pad2)*%
X174760000Y-124000000D03*
D20*
%TO.P,R5,1*%
%TO.N,Net-(R1-Pad1)*%
X190000000Y-124000000D03*
%TD*%
D23*
%TO.N,Net-(D1-Pad1)*%
X137540000Y-121000000D02*
X158000000Y-121000000D01*
%TO.N,Net-(D1-Pad2)*%
X169760000Y-121000000D02*
X174760000Y-116000000D01*
X160540000Y-121000000D02*
X169760000Y-121000000D01*
%TO.N,Net-(D2-Pad1)*%
X158000000Y-106000000D02*
X137540000Y-106000000D01*
%TO.N,Net-(D2-Pad2)*%
X174760000Y-108000000D02*
X162000000Y-108000000D01*
X160540000Y-106540000D02*
X160540000Y-106000000D01*
X162000000Y-108000000D02*
X160540000Y-106540000D01*
%TO.N,Net-(D3-Pad1)*%
X137540000Y-92000000D02*
X158000000Y-92000000D01*
%TO.N,Net-(D3-Pad2)*%
X160540000Y-92000000D02*
X168000000Y-92000000D01*
X174760000Y-98760000D02*
X174760000Y-100000000D01*
X168000000Y-92000000D02*
X174760000Y-98760000D01*
%TO.N,Net-(D4-Pad1)*%
X135000000Y-121000000D02*
X112540000Y-121000000D01*
%TO.N,Net-(D5-Pad1)*%
X135000000Y-106000000D02*
X112540000Y-106000000D01*
%TO.N,Net-(D6-Pad1)*%
X112540000Y-92000000D02*
X135000000Y-92000000D01*
D24*
%TO.N,Net-(J3-Pad1)*%
X127500000Y-67000000D02*
X123500000Y-71000000D01*
X132000000Y-67000000D02*
X127500000Y-67000000D01*
%TO.N,control_signal*%
X122160000Y-68460000D02*
X117000000Y-63300000D01*
X123500000Y-68460000D02*
X122160000Y-68460000D01*
%TO.N,Net-(Q1-Pad3)*%
X113420000Y-76000000D02*
X108500000Y-71080000D01*
X117000000Y-76000000D02*
X113420000Y-76000000D01*
D23*
%TO.N,Net-(RV1-Pad1)*%
X154000000Y-77000000D02*
X142500000Y-65500000D01*
X174500000Y-77000000D02*
X154000000Y-77000000D01*
%TO.N,Net-(D10-Pad1)*%
X157000000Y-135000000D02*
X137540000Y-135000000D01*
%TO.N,Net-(D10-Pad2)*%
X170540000Y-124000000D02*
X159540000Y-135000000D01*
X174760000Y-124000000D02*
X170540000Y-124000000D01*
%TO.N,Net-(D11-Pad1)*%
X135000000Y-135000000D02*
X112540000Y-135000000D01*
%TD*%
D25*
%TO.N,+5V*%
G36*
X193423474Y-78873000D02*
G01*
X185000000Y-78873000D01*
X184975224Y-78875440D01*
X184951399Y-78882667D01*
X184929443Y-78894403D01*
X184910197Y-78910197D01*
X184894403Y-78929443D01*
X184882667Y-78951399D01*
X184875440Y-78975224D01*
X184873000Y-79000000D01*
X184873000Y-89000000D01*
X184875440Y-89024776D01*
X184882667Y-89048601D01*
X184894403Y-89070557D01*
X184910197Y-89089803D01*
X184929443Y-89105597D01*
X184951399Y-89117333D01*
X184975224Y-89124560D01*
X185000000Y-89127000D01*
X193451645Y-89127000D01*
X193597925Y-142373000D01*
X185000000Y-142373000D01*
X184975224Y-142375440D01*
X184951399Y-142382667D01*
X184929443Y-142394403D01*
X184910197Y-142410197D01*
X184894403Y-142429443D01*
X184882667Y-142451399D01*
X184875440Y-142475224D01*
X184873000Y-142500000D01*
X184873000Y-151373000D01*
X105127000Y-151373000D01*
X105127000Y-142779872D01*
X108765000Y-142779872D01*
X108765000Y-143220128D01*
X108850890Y-143651925D01*
X109019369Y-144058669D01*
X109263962Y-144424729D01*
X109575271Y-144736038D01*
X109941331Y-144980631D01*
X110348075Y-145149110D01*
X110779872Y-145235000D01*
X111220128Y-145235000D01*
X111651925Y-145149110D01*
X112058669Y-144980631D01*
X112424729Y-144736038D01*
X112736038Y-144424729D01*
X112980631Y-144058669D01*
X113096112Y-143779872D01*
X156765000Y-143779872D01*
X156765000Y-144220128D01*
X156850890Y-144651925D01*
X157019369Y-145058669D01*
X157263962Y-145424729D01*
X157575271Y-145736038D01*
X157941331Y-145980631D01*
X158348075Y-146149110D01*
X158779872Y-146235000D01*
X159220128Y-146235000D01*
X159651925Y-146149110D01*
X160058669Y-145980631D01*
X160424729Y-145736038D01*
X160736038Y-145424729D01*
X160980631Y-145058669D01*
X161149110Y-144651925D01*
X161235000Y-144220128D01*
X161235000Y-143779872D01*
X161149110Y-143348075D01*
X160980631Y-142941331D01*
X160736038Y-142575271D01*
X160424729Y-142263962D01*
X160058669Y-142019369D01*
X159651925Y-141850890D01*
X159220128Y-141765000D01*
X158779872Y-141765000D01*
X158348075Y-141850890D01*
X157941331Y-142019369D01*
X157575271Y-142263962D01*
X157263962Y-142575271D01*
X157019369Y-142941331D01*
X156850890Y-143348075D01*
X156765000Y-143779872D01*
X113096112Y-143779872D01*
X113149110Y-143651925D01*
X113235000Y-143220128D01*
X113235000Y-142779872D01*
X113149110Y-142348075D01*
X112980631Y-141941331D01*
X112736038Y-141575271D01*
X112424729Y-141263962D01*
X112058669Y-141019369D01*
X111651925Y-140850890D01*
X111220128Y-140765000D01*
X110779872Y-140765000D01*
X110348075Y-140850890D01*
X109941331Y-141019369D01*
X109575271Y-141263962D01*
X109263962Y-141575271D01*
X109019369Y-141941331D01*
X108850890Y-142348075D01*
X108765000Y-142779872D01*
X105127000Y-142779872D01*
X105127000Y-142500000D01*
X105124560Y-142475224D01*
X105117333Y-142451399D01*
X105105597Y-142429443D01*
X105089803Y-142410197D01*
X105070557Y-142394403D01*
X105048601Y-142382667D01*
X105024776Y-142375440D01*
X105000000Y-142373000D01*
X96226927Y-142373000D01*
X96204199Y-134100000D01*
X108461928Y-134100000D01*
X108461928Y-135900000D01*
X108474188Y-136024482D01*
X108510498Y-136144180D01*
X108569463Y-136254494D01*
X108648815Y-136351185D01*
X108745506Y-136430537D01*
X108855820Y-136489502D01*
X108975518Y-136525812D01*
X109100000Y-136538072D01*
X110900000Y-136538072D01*
X111024482Y-136525812D01*
X111144180Y-136489502D01*
X111254494Y-136430537D01*
X111351185Y-136351185D01*
X111430537Y-136254494D01*
X111489502Y-136144180D01*
X111495056Y-136125873D01*
X111561495Y-136192312D01*
X111812905Y-136360299D01*
X112092257Y-136476011D01*
X112388816Y-136535000D01*
X112691184Y-136535000D01*
X112987743Y-136476011D01*
X113267095Y-136360299D01*
X113518505Y-136192312D01*
X113575817Y-136135000D01*
X133507713Y-136135000D01*
X133510498Y-136144180D01*
X133569463Y-136254494D01*
X133648815Y-136351185D01*
X133745506Y-136430537D01*
X133855820Y-136489502D01*
X133975518Y-136525812D01*
X134100000Y-136538072D01*
X135900000Y-136538072D01*
X136024482Y-136525812D01*
X136144180Y-136489502D01*
X136254494Y-136430537D01*
X136351185Y-136351185D01*
X136430537Y-136254494D01*
X136489502Y-136144180D01*
X136495056Y-136125873D01*
X136561495Y-136192312D01*
X136812905Y-136360299D01*
X137092257Y-136476011D01*
X137388816Y-136535000D01*
X137691184Y-136535000D01*
X137987743Y-136476011D01*
X138267095Y-136360299D01*
X138518505Y-136192312D01*
X138575817Y-136135000D01*
X155507713Y-136135000D01*
X155510498Y-136144180D01*
X155569463Y-136254494D01*
X155648815Y-136351185D01*
X155745506Y-136430537D01*
X155855820Y-136489502D01*
X155975518Y-136525812D01*
X156100000Y-136538072D01*
X157900000Y-136538072D01*
X158024482Y-136525812D01*
X158144180Y-136489502D01*
X158254494Y-136430537D01*
X158351185Y-136351185D01*
X158430537Y-136254494D01*
X158489502Y-136144180D01*
X158495056Y-136125873D01*
X158561495Y-136192312D01*
X158812905Y-136360299D01*
X159092257Y-136476011D01*
X159388816Y-136535000D01*
X159691184Y-136535000D01*
X159987743Y-136476011D01*
X160267095Y-136360299D01*
X160518505Y-136192312D01*
X160732312Y-135978505D01*
X160900299Y-135727095D01*
X161016011Y-135447743D01*
X161075000Y-135151184D01*
X161075000Y-135070131D01*
X171010132Y-125135000D01*
X173311447Y-125135000D01*
X173334662Y-125169744D01*
X173590256Y-125425338D01*
X173890801Y-125626156D01*
X174224750Y-125764482D01*
X174579268Y-125835000D01*
X174940732Y-125835000D01*
X175295250Y-125764482D01*
X175629199Y-125626156D01*
X175929744Y-125425338D01*
X176185338Y-125169744D01*
X176386156Y-124869199D01*
X176524482Y-124535250D01*
X176595000Y-124180732D01*
X176595000Y-123819268D01*
X188165000Y-123819268D01*
X188165000Y-124180732D01*
X188235518Y-124535250D01*
X188373844Y-124869199D01*
X188574662Y-125169744D01*
X188830256Y-125425338D01*
X189130801Y-125626156D01*
X189464750Y-125764482D01*
X189819268Y-125835000D01*
X190180732Y-125835000D01*
X190535250Y-125764482D01*
X190869199Y-125626156D01*
X191169744Y-125425338D01*
X191425338Y-125169744D01*
X191626156Y-124869199D01*
X191764482Y-124535250D01*
X191835000Y-124180732D01*
X191835000Y-123819268D01*
X191764482Y-123464750D01*
X191626156Y-123130801D01*
X191425338Y-122830256D01*
X191169744Y-122574662D01*
X190869199Y-122373844D01*
X190535250Y-122235518D01*
X190180732Y-122165000D01*
X189819268Y-122165000D01*
X189464750Y-122235518D01*
X189130801Y-122373844D01*
X188830256Y-122574662D01*
X188574662Y-122830256D01*
X188373844Y-123130801D01*
X188235518Y-123464750D01*
X188165000Y-123819268D01*
X176595000Y-123819268D01*
X176524482Y-123464750D01*
X176386156Y-123130801D01*
X176185338Y-122830256D01*
X175929744Y-122574662D01*
X175629199Y-122373844D01*
X175295250Y-122235518D01*
X174940732Y-122165000D01*
X174579268Y-122165000D01*
X174224750Y-122235518D01*
X173890801Y-122373844D01*
X173590256Y-122574662D01*
X173334662Y-122830256D01*
X173311447Y-122865000D01*
X170595743Y-122865000D01*
X170539999Y-122859510D01*
X170484255Y-122865000D01*
X170484248Y-122865000D01*
X170338493Y-122879356D01*
X170317500Y-122881423D01*
X170267705Y-122896529D01*
X170103553Y-122946324D01*
X169906377Y-123051716D01*
X169733551Y-123193551D01*
X169698009Y-123236859D01*
X159469869Y-133465000D01*
X159388816Y-133465000D01*
X159092257Y-133523989D01*
X158812905Y-133639701D01*
X158561495Y-133807688D01*
X158495056Y-133874127D01*
X158489502Y-133855820D01*
X158430537Y-133745506D01*
X158351185Y-133648815D01*
X158254494Y-133569463D01*
X158144180Y-133510498D01*
X158024482Y-133474188D01*
X157900000Y-133461928D01*
X156100000Y-133461928D01*
X155975518Y-133474188D01*
X155855820Y-133510498D01*
X155745506Y-133569463D01*
X155648815Y-133648815D01*
X155569463Y-133745506D01*
X155510498Y-133855820D01*
X155507713Y-133865000D01*
X138575817Y-133865000D01*
X138518505Y-133807688D01*
X138267095Y-133639701D01*
X137987743Y-133523989D01*
X137691184Y-133465000D01*
X137388816Y-133465000D01*
X137092257Y-133523989D01*
X136812905Y-133639701D01*
X136561495Y-133807688D01*
X136495056Y-133874127D01*
X136489502Y-133855820D01*
X136430537Y-133745506D01*
X136351185Y-133648815D01*
X136254494Y-133569463D01*
X136144180Y-133510498D01*
X136024482Y-133474188D01*
X135900000Y-133461928D01*
X134100000Y-133461928D01*
X133975518Y-133474188D01*
X133855820Y-133510498D01*
X133745506Y-133569463D01*
X133648815Y-133648815D01*
X133569463Y-133745506D01*
X133510498Y-133855820D01*
X133507713Y-133865000D01*
X113575817Y-133865000D01*
X113518505Y-133807688D01*
X113267095Y-133639701D01*
X112987743Y-133523989D01*
X112691184Y-133465000D01*
X112388816Y-133465000D01*
X112092257Y-133523989D01*
X111812905Y-133639701D01*
X111561495Y-133807688D01*
X111495056Y-133874127D01*
X111489502Y-133855820D01*
X111430537Y-133745506D01*
X111351185Y-133648815D01*
X111254494Y-133569463D01*
X111144180Y-133510498D01*
X111024482Y-133474188D01*
X110900000Y-133461928D01*
X109100000Y-133461928D01*
X108975518Y-133474188D01*
X108855820Y-133510498D01*
X108745506Y-133569463D01*
X108648815Y-133648815D01*
X108569463Y-133745506D01*
X108510498Y-133855820D01*
X108474188Y-133975518D01*
X108461928Y-134100000D01*
X96204199Y-134100000D01*
X96165738Y-120100000D01*
X108461928Y-120100000D01*
X108461928Y-121900000D01*
X108474188Y-122024482D01*
X108510498Y-122144180D01*
X108569463Y-122254494D01*
X108648815Y-122351185D01*
X108745506Y-122430537D01*
X108855820Y-122489502D01*
X108975518Y-122525812D01*
X109100000Y-122538072D01*
X110900000Y-122538072D01*
X111024482Y-122525812D01*
X111144180Y-122489502D01*
X111254494Y-122430537D01*
X111351185Y-122351185D01*
X111430537Y-122254494D01*
X111489502Y-122144180D01*
X111495056Y-122125873D01*
X111561495Y-122192312D01*
X111812905Y-122360299D01*
X112092257Y-122476011D01*
X112388816Y-122535000D01*
X112691184Y-122535000D01*
X112987743Y-122476011D01*
X113267095Y-122360299D01*
X113518505Y-122192312D01*
X113575817Y-122135000D01*
X133507713Y-122135000D01*
X133510498Y-122144180D01*
X133569463Y-122254494D01*
X133648815Y-122351185D01*
X133745506Y-122430537D01*
X133855820Y-122489502D01*
X133975518Y-122525812D01*
X134100000Y-122538072D01*
X135900000Y-122538072D01*
X136024482Y-122525812D01*
X136144180Y-122489502D01*
X136254494Y-122430537D01*
X136351185Y-122351185D01*
X136430537Y-122254494D01*
X136489502Y-122144180D01*
X136495056Y-122125873D01*
X136561495Y-122192312D01*
X136812905Y-122360299D01*
X137092257Y-122476011D01*
X137388816Y-122535000D01*
X137691184Y-122535000D01*
X137987743Y-122476011D01*
X138267095Y-122360299D01*
X138518505Y-122192312D01*
X138575817Y-122135000D01*
X156507713Y-122135000D01*
X156510498Y-122144180D01*
X156569463Y-122254494D01*
X156648815Y-122351185D01*
X156745506Y-122430537D01*
X156855820Y-122489502D01*
X156975518Y-122525812D01*
X157100000Y-122538072D01*
X158900000Y-122538072D01*
X159024482Y-122525812D01*
X159144180Y-122489502D01*
X159254494Y-122430537D01*
X159351185Y-122351185D01*
X159430537Y-122254494D01*
X159489502Y-122144180D01*
X159495056Y-122125873D01*
X159561495Y-122192312D01*
X159812905Y-122360299D01*
X160092257Y-122476011D01*
X160388816Y-122535000D01*
X160691184Y-122535000D01*
X160987743Y-122476011D01*
X161267095Y-122360299D01*
X161518505Y-122192312D01*
X161575817Y-122135000D01*
X169704249Y-122135000D01*
X169760000Y-122140491D01*
X169815751Y-122135000D01*
X169815752Y-122135000D01*
X169982499Y-122118577D01*
X170196447Y-122053676D01*
X170393623Y-121948284D01*
X170566449Y-121806449D01*
X170601996Y-121763135D01*
X174538284Y-117826848D01*
X174579268Y-117835000D01*
X174940732Y-117835000D01*
X175295250Y-117764482D01*
X175629199Y-117626156D01*
X175929744Y-117425338D01*
X176185338Y-117169744D01*
X176386156Y-116869199D01*
X176524482Y-116535250D01*
X176595000Y-116180732D01*
X176595000Y-115819268D01*
X188165000Y-115819268D01*
X188165000Y-116180732D01*
X188235518Y-116535250D01*
X188373844Y-116869199D01*
X188574662Y-117169744D01*
X188830256Y-117425338D01*
X189130801Y-117626156D01*
X189464750Y-117764482D01*
X189819268Y-117835000D01*
X190180732Y-117835000D01*
X190535250Y-117764482D01*
X190869199Y-117626156D01*
X191169744Y-117425338D01*
X191425338Y-117169744D01*
X191626156Y-116869199D01*
X191764482Y-116535250D01*
X191835000Y-116180732D01*
X191835000Y-115819268D01*
X191764482Y-115464750D01*
X191626156Y-115130801D01*
X191425338Y-114830256D01*
X191169744Y-114574662D01*
X190869199Y-114373844D01*
X190535250Y-114235518D01*
X190180732Y-114165000D01*
X189819268Y-114165000D01*
X189464750Y-114235518D01*
X189130801Y-114373844D01*
X188830256Y-114574662D01*
X188574662Y-114830256D01*
X188373844Y-115130801D01*
X188235518Y-115464750D01*
X188165000Y-115819268D01*
X176595000Y-115819268D01*
X176524482Y-115464750D01*
X176386156Y-115130801D01*
X176185338Y-114830256D01*
X175929744Y-114574662D01*
X175629199Y-114373844D01*
X175295250Y-114235518D01*
X174940732Y-114165000D01*
X174579268Y-114165000D01*
X174224750Y-114235518D01*
X173890801Y-114373844D01*
X173590256Y-114574662D01*
X173334662Y-114830256D01*
X173133844Y-115130801D01*
X172995518Y-115464750D01*
X172925000Y-115819268D01*
X172925000Y-116180732D01*
X172933152Y-116221716D01*
X169289869Y-119865000D01*
X161575817Y-119865000D01*
X161518505Y-119807688D01*
X161267095Y-119639701D01*
X160987743Y-119523989D01*
X160691184Y-119465000D01*
X160388816Y-119465000D01*
X160092257Y-119523989D01*
X159812905Y-119639701D01*
X159561495Y-119807688D01*
X159495056Y-119874127D01*
X159489502Y-119855820D01*
X159430537Y-119745506D01*
X159351185Y-119648815D01*
X159254494Y-119569463D01*
X159144180Y-119510498D01*
X159024482Y-119474188D01*
X158900000Y-119461928D01*
X157100000Y-119461928D01*
X156975518Y-119474188D01*
X156855820Y-119510498D01*
X156745506Y-119569463D01*
X156648815Y-119648815D01*
X156569463Y-119745506D01*
X156510498Y-119855820D01*
X156507713Y-119865000D01*
X138575817Y-119865000D01*
X138518505Y-119807688D01*
X138267095Y-119639701D01*
X137987743Y-119523989D01*
X137691184Y-119465000D01*
X137388816Y-119465000D01*
X137092257Y-119523989D01*
X136812905Y-119639701D01*
X136561495Y-119807688D01*
X136495056Y-119874127D01*
X136489502Y-119855820D01*
X136430537Y-119745506D01*
X136351185Y-119648815D01*
X136254494Y-119569463D01*
X136144180Y-119510498D01*
X136024482Y-119474188D01*
X135900000Y-119461928D01*
X134100000Y-119461928D01*
X133975518Y-119474188D01*
X133855820Y-119510498D01*
X133745506Y-119569463D01*
X133648815Y-119648815D01*
X133569463Y-119745506D01*
X133510498Y-119855820D01*
X133507713Y-119865000D01*
X113575817Y-119865000D01*
X113518505Y-119807688D01*
X113267095Y-119639701D01*
X112987743Y-119523989D01*
X112691184Y-119465000D01*
X112388816Y-119465000D01*
X112092257Y-119523989D01*
X111812905Y-119639701D01*
X111561495Y-119807688D01*
X111495056Y-119874127D01*
X111489502Y-119855820D01*
X111430537Y-119745506D01*
X111351185Y-119648815D01*
X111254494Y-119569463D01*
X111144180Y-119510498D01*
X111024482Y-119474188D01*
X110900000Y-119461928D01*
X109100000Y-119461928D01*
X108975518Y-119474188D01*
X108855820Y-119510498D01*
X108745506Y-119569463D01*
X108648815Y-119648815D01*
X108569463Y-119745506D01*
X108510498Y-119855820D01*
X108474188Y-119975518D01*
X108461928Y-120100000D01*
X96165738Y-120100000D01*
X96124530Y-105100000D01*
X108461928Y-105100000D01*
X108461928Y-106900000D01*
X108474188Y-107024482D01*
X108510498Y-107144180D01*
X108569463Y-107254494D01*
X108648815Y-107351185D01*
X108745506Y-107430537D01*
X108855820Y-107489502D01*
X108975518Y-107525812D01*
X109100000Y-107538072D01*
X110900000Y-107538072D01*
X111024482Y-107525812D01*
X111144180Y-107489502D01*
X111254494Y-107430537D01*
X111351185Y-107351185D01*
X111430537Y-107254494D01*
X111489502Y-107144180D01*
X111495056Y-107125873D01*
X111561495Y-107192312D01*
X111812905Y-107360299D01*
X112092257Y-107476011D01*
X112388816Y-107535000D01*
X112691184Y-107535000D01*
X112987743Y-107476011D01*
X113267095Y-107360299D01*
X113518505Y-107192312D01*
X113575817Y-107135000D01*
X133507713Y-107135000D01*
X133510498Y-107144180D01*
X133569463Y-107254494D01*
X133648815Y-107351185D01*
X133745506Y-107430537D01*
X133855820Y-107489502D01*
X133975518Y-107525812D01*
X134100000Y-107538072D01*
X135900000Y-107538072D01*
X136024482Y-107525812D01*
X136144180Y-107489502D01*
X136254494Y-107430537D01*
X136351185Y-107351185D01*
X136430537Y-107254494D01*
X136489502Y-107144180D01*
X136495056Y-107125873D01*
X136561495Y-107192312D01*
X136812905Y-107360299D01*
X137092257Y-107476011D01*
X137388816Y-107535000D01*
X137691184Y-107535000D01*
X137987743Y-107476011D01*
X138267095Y-107360299D01*
X138518505Y-107192312D01*
X138575817Y-107135000D01*
X156507713Y-107135000D01*
X156510498Y-107144180D01*
X156569463Y-107254494D01*
X156648815Y-107351185D01*
X156745506Y-107430537D01*
X156855820Y-107489502D01*
X156975518Y-107525812D01*
X157100000Y-107538072D01*
X158900000Y-107538072D01*
X159024482Y-107525812D01*
X159144180Y-107489502D01*
X159254494Y-107430537D01*
X159351185Y-107351185D01*
X159430537Y-107254494D01*
X159489502Y-107144180D01*
X159495056Y-107125873D01*
X159561495Y-107192312D01*
X159662369Y-107259714D01*
X159733551Y-107346449D01*
X159776865Y-107381996D01*
X161158008Y-108763140D01*
X161193551Y-108806449D01*
X161270012Y-108869199D01*
X161366377Y-108948284D01*
X161563553Y-109053676D01*
X161777501Y-109118577D01*
X162000000Y-109140491D01*
X162055752Y-109135000D01*
X173311447Y-109135000D01*
X173334662Y-109169744D01*
X173590256Y-109425338D01*
X173890801Y-109626156D01*
X174224750Y-109764482D01*
X174579268Y-109835000D01*
X174940732Y-109835000D01*
X175295250Y-109764482D01*
X175629199Y-109626156D01*
X175929744Y-109425338D01*
X176185338Y-109169744D01*
X176386156Y-108869199D01*
X176524482Y-108535250D01*
X176595000Y-108180732D01*
X176595000Y-107819268D01*
X188165000Y-107819268D01*
X188165000Y-108180732D01*
X188235518Y-108535250D01*
X188373844Y-108869199D01*
X188574662Y-109169744D01*
X188830256Y-109425338D01*
X189130801Y-109626156D01*
X189464750Y-109764482D01*
X189819268Y-109835000D01*
X190180732Y-109835000D01*
X190535250Y-109764482D01*
X190869199Y-109626156D01*
X191169744Y-109425338D01*
X191425338Y-109169744D01*
X191626156Y-108869199D01*
X191764482Y-108535250D01*
X191835000Y-108180732D01*
X191835000Y-107819268D01*
X191764482Y-107464750D01*
X191626156Y-107130801D01*
X191425338Y-106830256D01*
X191169744Y-106574662D01*
X190869199Y-106373844D01*
X190535250Y-106235518D01*
X190180732Y-106165000D01*
X189819268Y-106165000D01*
X189464750Y-106235518D01*
X189130801Y-106373844D01*
X188830256Y-106574662D01*
X188574662Y-106830256D01*
X188373844Y-107130801D01*
X188235518Y-107464750D01*
X188165000Y-107819268D01*
X176595000Y-107819268D01*
X176524482Y-107464750D01*
X176386156Y-107130801D01*
X176185338Y-106830256D01*
X175929744Y-106574662D01*
X175629199Y-106373844D01*
X175295250Y-106235518D01*
X174940732Y-106165000D01*
X174579268Y-106165000D01*
X174224750Y-106235518D01*
X173890801Y-106373844D01*
X173590256Y-106574662D01*
X173334662Y-106830256D01*
X173311447Y-106865000D01*
X162470132Y-106865000D01*
X162022127Y-106416996D01*
X162075000Y-106151184D01*
X162075000Y-105848816D01*
X162016011Y-105552257D01*
X161900299Y-105272905D01*
X161732312Y-105021495D01*
X161518505Y-104807688D01*
X161267095Y-104639701D01*
X160987743Y-104523989D01*
X160691184Y-104465000D01*
X160388816Y-104465000D01*
X160092257Y-104523989D01*
X159812905Y-104639701D01*
X159561495Y-104807688D01*
X159495056Y-104874127D01*
X159489502Y-104855820D01*
X159430537Y-104745506D01*
X159351185Y-104648815D01*
X159254494Y-104569463D01*
X159144180Y-104510498D01*
X159024482Y-104474188D01*
X158900000Y-104461928D01*
X157100000Y-104461928D01*
X156975518Y-104474188D01*
X156855820Y-104510498D01*
X156745506Y-104569463D01*
X156648815Y-104648815D01*
X156569463Y-104745506D01*
X156510498Y-104855820D01*
X156507713Y-104865000D01*
X138575817Y-104865000D01*
X138518505Y-104807688D01*
X138267095Y-104639701D01*
X137987743Y-104523989D01*
X137691184Y-104465000D01*
X137388816Y-104465000D01*
X137092257Y-104523989D01*
X136812905Y-104639701D01*
X136561495Y-104807688D01*
X136495056Y-104874127D01*
X136489502Y-104855820D01*
X136430537Y-104745506D01*
X136351185Y-104648815D01*
X136254494Y-104569463D01*
X136144180Y-104510498D01*
X136024482Y-104474188D01*
X135900000Y-104461928D01*
X134100000Y-104461928D01*
X133975518Y-104474188D01*
X133855820Y-104510498D01*
X133745506Y-104569463D01*
X133648815Y-104648815D01*
X133569463Y-104745506D01*
X133510498Y-104855820D01*
X133507713Y-104865000D01*
X113575817Y-104865000D01*
X113518505Y-104807688D01*
X113267095Y-104639701D01*
X112987743Y-104523989D01*
X112691184Y-104465000D01*
X112388816Y-104465000D01*
X112092257Y-104523989D01*
X111812905Y-104639701D01*
X111561495Y-104807688D01*
X111495056Y-104874127D01*
X111489502Y-104855820D01*
X111430537Y-104745506D01*
X111351185Y-104648815D01*
X111254494Y-104569463D01*
X111144180Y-104510498D01*
X111024482Y-104474188D01*
X110900000Y-104461928D01*
X109100000Y-104461928D01*
X108975518Y-104474188D01*
X108855820Y-104510498D01*
X108745506Y-104569463D01*
X108648815Y-104648815D01*
X108569463Y-104745506D01*
X108510498Y-104855820D01*
X108474188Y-104975518D01*
X108461928Y-105100000D01*
X96124530Y-105100000D01*
X96086068Y-91100000D01*
X108461928Y-91100000D01*
X108461928Y-92900000D01*
X108474188Y-93024482D01*
X108510498Y-93144180D01*
X108569463Y-93254494D01*
X108648815Y-93351185D01*
X108745506Y-93430537D01*
X108855820Y-93489502D01*
X108975518Y-93525812D01*
X109100000Y-93538072D01*
X110900000Y-93538072D01*
X111024482Y-93525812D01*
X111144180Y-93489502D01*
X111254494Y-93430537D01*
X111351185Y-93351185D01*
X111430537Y-93254494D01*
X111489502Y-93144180D01*
X111495056Y-93125873D01*
X111561495Y-93192312D01*
X111812905Y-93360299D01*
X112092257Y-93476011D01*
X112388816Y-93535000D01*
X112691184Y-93535000D01*
X112987743Y-93476011D01*
X113267095Y-93360299D01*
X113518505Y-93192312D01*
X113575817Y-93135000D01*
X133507713Y-93135000D01*
X133510498Y-93144180D01*
X133569463Y-93254494D01*
X133648815Y-93351185D01*
X133745506Y-93430537D01*
X133855820Y-93489502D01*
X133975518Y-93525812D01*
X134100000Y-93538072D01*
X135900000Y-93538072D01*
X136024482Y-93525812D01*
X136144180Y-93489502D01*
X136254494Y-93430537D01*
X136351185Y-93351185D01*
X136430537Y-93254494D01*
X136489502Y-93144180D01*
X136495056Y-93125873D01*
X136561495Y-93192312D01*
X136812905Y-93360299D01*
X137092257Y-93476011D01*
X137388816Y-93535000D01*
X137691184Y-93535000D01*
X137987743Y-93476011D01*
X138267095Y-93360299D01*
X138518505Y-93192312D01*
X138575817Y-93135000D01*
X156507713Y-93135000D01*
X156510498Y-93144180D01*
X156569463Y-93254494D01*
X156648815Y-93351185D01*
X156745506Y-93430537D01*
X156855820Y-93489502D01*
X156975518Y-93525812D01*
X157100000Y-93538072D01*
X158900000Y-93538072D01*
X159024482Y-93525812D01*
X159144180Y-93489502D01*
X159254494Y-93430537D01*
X159351185Y-93351185D01*
X159430537Y-93254494D01*
X159489502Y-93144180D01*
X159495056Y-93125873D01*
X159561495Y-93192312D01*
X159812905Y-93360299D01*
X160092257Y-93476011D01*
X160388816Y-93535000D01*
X160691184Y-93535000D01*
X160987743Y-93476011D01*
X161267095Y-93360299D01*
X161518505Y-93192312D01*
X161575817Y-93135000D01*
X167529869Y-93135000D01*
X173290787Y-98895920D01*
X173133844Y-99130801D01*
X172995518Y-99464750D01*
X172925000Y-99819268D01*
X172925000Y-100180732D01*
X172995518Y-100535250D01*
X173133844Y-100869199D01*
X173334662Y-101169744D01*
X173590256Y-101425338D01*
X173890801Y-101626156D01*
X174224750Y-101764482D01*
X174579268Y-101835000D01*
X174940732Y-101835000D01*
X175295250Y-101764482D01*
X175629199Y-101626156D01*
X175929744Y-101425338D01*
X176185338Y-101169744D01*
X176386156Y-100869199D01*
X176524482Y-100535250D01*
X176595000Y-100180732D01*
X176595000Y-99819268D01*
X188165000Y-99819268D01*
X188165000Y-100180732D01*
X188235518Y-100535250D01*
X188373844Y-100869199D01*
X188574662Y-101169744D01*
X188830256Y-101425338D01*
X189130801Y-101626156D01*
X189464750Y-101764482D01*
X189819268Y-101835000D01*
X190180732Y-101835000D01*
X190535250Y-101764482D01*
X190869199Y-101626156D01*
X191169744Y-101425338D01*
X191425338Y-101169744D01*
X191626156Y-100869199D01*
X191764482Y-100535250D01*
X191835000Y-100180732D01*
X191835000Y-99819268D01*
X191764482Y-99464750D01*
X191626156Y-99130801D01*
X191425338Y-98830256D01*
X191169744Y-98574662D01*
X190869199Y-98373844D01*
X190535250Y-98235518D01*
X190180732Y-98165000D01*
X189819268Y-98165000D01*
X189464750Y-98235518D01*
X189130801Y-98373844D01*
X188830256Y-98574662D01*
X188574662Y-98830256D01*
X188373844Y-99130801D01*
X188235518Y-99464750D01*
X188165000Y-99819268D01*
X176595000Y-99819268D01*
X176524482Y-99464750D01*
X176386156Y-99130801D01*
X176185338Y-98830256D01*
X175929744Y-98574662D01*
X175878890Y-98540683D01*
X175878577Y-98537501D01*
X175813676Y-98323553D01*
X175708284Y-98126377D01*
X175601989Y-97996856D01*
X175601987Y-97996854D01*
X175566449Y-97953551D01*
X175523146Y-97918013D01*
X168841996Y-91236865D01*
X168806449Y-91193551D01*
X168633623Y-91051716D01*
X168436447Y-90946324D01*
X168222499Y-90881423D01*
X168055752Y-90865000D01*
X168055751Y-90865000D01*
X168000000Y-90859509D01*
X167944249Y-90865000D01*
X161575817Y-90865000D01*
X161518505Y-90807688D01*
X161267095Y-90639701D01*
X160987743Y-90523989D01*
X160691184Y-90465000D01*
X160388816Y-90465000D01*
X160092257Y-90523989D01*
X159812905Y-90639701D01*
X159561495Y-90807688D01*
X159495056Y-90874127D01*
X159489502Y-90855820D01*
X159430537Y-90745506D01*
X159351185Y-90648815D01*
X159254494Y-90569463D01*
X159144180Y-90510498D01*
X159024482Y-90474188D01*
X158900000Y-90461928D01*
X157100000Y-90461928D01*
X156975518Y-90474188D01*
X156855820Y-90510498D01*
X156745506Y-90569463D01*
X156648815Y-90648815D01*
X156569463Y-90745506D01*
X156510498Y-90855820D01*
X156507713Y-90865000D01*
X138575817Y-90865000D01*
X138518505Y-90807688D01*
X138267095Y-90639701D01*
X137987743Y-90523989D01*
X137691184Y-90465000D01*
X137388816Y-90465000D01*
X137092257Y-90523989D01*
X136812905Y-90639701D01*
X136561495Y-90807688D01*
X136495056Y-90874127D01*
X136489502Y-90855820D01*
X136430537Y-90745506D01*
X136351185Y-90648815D01*
X136254494Y-90569463D01*
X136144180Y-90510498D01*
X136024482Y-90474188D01*
X135900000Y-90461928D01*
X134100000Y-90461928D01*
X133975518Y-90474188D01*
X133855820Y-90510498D01*
X133745506Y-90569463D01*
X133648815Y-90648815D01*
X133569463Y-90745506D01*
X133510498Y-90855820D01*
X133507713Y-90865000D01*
X113575817Y-90865000D01*
X113518505Y-90807688D01*
X113267095Y-90639701D01*
X112987743Y-90523989D01*
X112691184Y-90465000D01*
X112388816Y-90465000D01*
X112092257Y-90523989D01*
X111812905Y-90639701D01*
X111561495Y-90807688D01*
X111495056Y-90874127D01*
X111489502Y-90855820D01*
X111430537Y-90745506D01*
X111351185Y-90648815D01*
X111254494Y-90569463D01*
X111144180Y-90510498D01*
X111024482Y-90474188D01*
X110900000Y-90461928D01*
X109100000Y-90461928D01*
X108975518Y-90474188D01*
X108855820Y-90510498D01*
X108745506Y-90569463D01*
X108648815Y-90648815D01*
X108569463Y-90745506D01*
X108510498Y-90855820D01*
X108474188Y-90975518D01*
X108461928Y-91100000D01*
X96086068Y-91100000D01*
X96063211Y-82779872D01*
X108765000Y-82779872D01*
X108765000Y-83220128D01*
X108850890Y-83651925D01*
X109019369Y-84058669D01*
X109263962Y-84424729D01*
X109575271Y-84736038D01*
X109941331Y-84980631D01*
X110348075Y-85149110D01*
X110779872Y-85235000D01*
X111220128Y-85235000D01*
X111651925Y-85149110D01*
X112058669Y-84980631D01*
X112424729Y-84736038D01*
X112736038Y-84424729D01*
X112980631Y-84058669D01*
X113096112Y-83779872D01*
X158765000Y-83779872D01*
X158765000Y-84220128D01*
X158850890Y-84651925D01*
X159019369Y-85058669D01*
X159263962Y-85424729D01*
X159575271Y-85736038D01*
X159941331Y-85980631D01*
X160348075Y-86149110D01*
X160779872Y-86235000D01*
X161220128Y-86235000D01*
X161651925Y-86149110D01*
X162058669Y-85980631D01*
X162424729Y-85736038D01*
X162736038Y-85424729D01*
X162980631Y-85058669D01*
X163149110Y-84651925D01*
X163235000Y-84220128D01*
X163235000Y-83779872D01*
X163149110Y-83348075D01*
X162980631Y-82941331D01*
X162736038Y-82575271D01*
X162424729Y-82263962D01*
X162058669Y-82019369D01*
X161651925Y-81850890D01*
X161220128Y-81765000D01*
X160779872Y-81765000D01*
X160348075Y-81850890D01*
X159941331Y-82019369D01*
X159575271Y-82263962D01*
X159263962Y-82575271D01*
X159019369Y-82941331D01*
X158850890Y-83348075D01*
X158765000Y-83779872D01*
X113096112Y-83779872D01*
X113149110Y-83651925D01*
X113235000Y-83220128D01*
X113235000Y-82779872D01*
X113149110Y-82348075D01*
X112980631Y-81941331D01*
X112736038Y-81575271D01*
X112424729Y-81263962D01*
X112058669Y-81019369D01*
X111651925Y-80850890D01*
X111220128Y-80765000D01*
X110779872Y-80765000D01*
X110348075Y-80850890D01*
X109941331Y-81019369D01*
X109575271Y-81263962D01*
X109263962Y-81575271D01*
X109019369Y-81941331D01*
X108850890Y-82348075D01*
X108765000Y-82779872D01*
X96063211Y-82779872D01*
X96028449Y-70127000D01*
X105000000Y-70127000D01*
X105024776Y-70124560D01*
X105048601Y-70117333D01*
X105070557Y-70105597D01*
X105089803Y-70089803D01*
X105105597Y-70070557D01*
X105117333Y-70048601D01*
X105124560Y-70024776D01*
X105127000Y-70000000D01*
X105127000Y-65100000D01*
X106961928Y-65100000D01*
X106961928Y-66900000D01*
X106974188Y-67024482D01*
X107010498Y-67144180D01*
X107069463Y-67254494D01*
X107148815Y-67351185D01*
X107245506Y-67430537D01*
X107355820Y-67489502D01*
X107374127Y-67495056D01*
X107307688Y-67561495D01*
X107139701Y-67812905D01*
X107023989Y-68092257D01*
X106965000Y-68388816D01*
X106965000Y-68691184D01*
X107023989Y-68987743D01*
X107139701Y-69267095D01*
X107307688Y-69518505D01*
X107521495Y-69732312D01*
X107637763Y-69810000D01*
X107521495Y-69887688D01*
X107307688Y-70101495D01*
X107139701Y-70352905D01*
X107023989Y-70632257D01*
X106965000Y-70928816D01*
X106965000Y-71231184D01*
X107023989Y-71527743D01*
X107139701Y-71807095D01*
X107307688Y-72058505D01*
X107521495Y-72272312D01*
X107772905Y-72440299D01*
X108052257Y-72556011D01*
X108348816Y-72615000D01*
X108651184Y-72615000D01*
X108908930Y-72563731D01*
X112856201Y-76511003D01*
X112879999Y-76540001D01*
X112995724Y-76634974D01*
X113127753Y-76705546D01*
X113271014Y-76749003D01*
X113382667Y-76760000D01*
X113382675Y-76760000D01*
X113420000Y-76763676D01*
X113457325Y-76760000D01*
X115781957Y-76760000D01*
X115885363Y-76914759D01*
X116085241Y-77114637D01*
X116320273Y-77271680D01*
X116581426Y-77379853D01*
X116858665Y-77435000D01*
X117141335Y-77435000D01*
X117418574Y-77379853D01*
X117679727Y-77271680D01*
X117914759Y-77114637D01*
X118114637Y-76914759D01*
X118271680Y-76679727D01*
X118379853Y-76418574D01*
X118435000Y-76141335D01*
X118435000Y-75858665D01*
X118379853Y-75581426D01*
X118271680Y-75320273D01*
X118114637Y-75085241D01*
X117914759Y-74885363D01*
X117679727Y-74728320D01*
X117418574Y-74620147D01*
X117141335Y-74565000D01*
X116858665Y-74565000D01*
X116581426Y-74620147D01*
X116320273Y-74728320D01*
X116085241Y-74885363D01*
X115885363Y-75085241D01*
X115781957Y-75240000D01*
X113734802Y-75240000D01*
X109983731Y-71488930D01*
X110035000Y-71231184D01*
X110035000Y-70928816D01*
X109976011Y-70632257D01*
X109860299Y-70352905D01*
X109692312Y-70101495D01*
X109478505Y-69887688D01*
X109362237Y-69810000D01*
X109478505Y-69732312D01*
X109692312Y-69518505D01*
X109860299Y-69267095D01*
X109976011Y-68987743D01*
X110035000Y-68691184D01*
X110035000Y-68388816D01*
X109976011Y-68092257D01*
X109860299Y-67812905D01*
X109692312Y-67561495D01*
X109625873Y-67495056D01*
X109644180Y-67489502D01*
X109754494Y-67430537D01*
X109851185Y-67351185D01*
X109930537Y-67254494D01*
X109989502Y-67144180D01*
X110025812Y-67024482D01*
X110038072Y-66900000D01*
X110038072Y-65100000D01*
X110025812Y-64975518D01*
X109989502Y-64855820D01*
X109930537Y-64745506D01*
X109851185Y-64648815D01*
X109754494Y-64569463D01*
X109644180Y-64510498D01*
X109524482Y-64474188D01*
X109400000Y-64461928D01*
X107600000Y-64461928D01*
X107475518Y-64474188D01*
X107355820Y-64510498D01*
X107245506Y-64569463D01*
X107148815Y-64648815D01*
X107069463Y-64745506D01*
X107010498Y-64855820D01*
X106974188Y-64975518D01*
X106961928Y-65100000D01*
X105127000Y-65100000D01*
X105127000Y-63158665D01*
X115565000Y-63158665D01*
X115565000Y-63441335D01*
X115620147Y-63718574D01*
X115728320Y-63979727D01*
X115885363Y-64214759D01*
X116085241Y-64414637D01*
X116320273Y-64571680D01*
X116581426Y-64679853D01*
X116858665Y-64735000D01*
X117141335Y-64735000D01*
X117323887Y-64698688D01*
X121596201Y-68971003D01*
X121619999Y-69000001D01*
X121648997Y-69023799D01*
X121735723Y-69094974D01*
X121807001Y-69133073D01*
X121867753Y-69165546D01*
X122011014Y-69209003D01*
X122122667Y-69220000D01*
X122122677Y-69220000D01*
X122160000Y-69223676D01*
X122197322Y-69220000D01*
X122221822Y-69220000D01*
X122346525Y-69406632D01*
X122478380Y-69538487D01*
X122405820Y-69560498D01*
X122295506Y-69619463D01*
X122198815Y-69698815D01*
X122119463Y-69795506D01*
X122060498Y-69905820D01*
X122024188Y-70025518D01*
X122011928Y-70150000D01*
X122011928Y-71850000D01*
X122024188Y-71974482D01*
X122060498Y-72094180D01*
X122119463Y-72204494D01*
X122198815Y-72301185D01*
X122295506Y-72380537D01*
X122405820Y-72439502D01*
X122525518Y-72475812D01*
X122650000Y-72488072D01*
X124350000Y-72488072D01*
X124474482Y-72475812D01*
X124594180Y-72439502D01*
X124704494Y-72380537D01*
X124801185Y-72301185D01*
X124880537Y-72204494D01*
X124939502Y-72094180D01*
X124975812Y-71974482D01*
X124988072Y-71850000D01*
X124988072Y-70586729D01*
X127814802Y-67760000D01*
X130511928Y-67760000D01*
X130511928Y-67850000D01*
X130524188Y-67974482D01*
X130560498Y-68094180D01*
X130619463Y-68204494D01*
X130698815Y-68301185D01*
X130795506Y-68380537D01*
X130905820Y-68439502D01*
X130978380Y-68461513D01*
X130846525Y-68593368D01*
X130684010Y-68836589D01*
X130572068Y-69106842D01*
X130515000Y-69393740D01*
X130515000Y-69686260D01*
X130572068Y-69973158D01*
X130684010Y-70243411D01*
X130846525Y-70486632D01*
X131053368Y-70693475D01*
X131296589Y-70855990D01*
X131566842Y-70967932D01*
X131853740Y-71025000D01*
X132146260Y-71025000D01*
X132433158Y-70967932D01*
X132703411Y-70855990D01*
X132946632Y-70693475D01*
X133153475Y-70486632D01*
X133315990Y-70243411D01*
X133427932Y-69973158D01*
X133485000Y-69686260D01*
X133485000Y-69393740D01*
X133427932Y-69106842D01*
X133315990Y-68836589D01*
X133153475Y-68593368D01*
X133021620Y-68461513D01*
X133094180Y-68439502D01*
X133204494Y-68380537D01*
X133301185Y-68301185D01*
X133380537Y-68204494D01*
X133439502Y-68094180D01*
X133475812Y-67974482D01*
X133488072Y-67850000D01*
X133488072Y-66150000D01*
X133475812Y-66025518D01*
X133439502Y-65905820D01*
X133380537Y-65795506D01*
X133301185Y-65698815D01*
X133204494Y-65619463D01*
X133094180Y-65560498D01*
X132974482Y-65524188D01*
X132850000Y-65511928D01*
X131150000Y-65511928D01*
X131025518Y-65524188D01*
X130905820Y-65560498D01*
X130795506Y-65619463D01*
X130698815Y-65698815D01*
X130619463Y-65795506D01*
X130560498Y-65905820D01*
X130524188Y-66025518D01*
X130511928Y-66150000D01*
X130511928Y-66240000D01*
X127537322Y-66240000D01*
X127499999Y-66236324D01*
X127462676Y-66240000D01*
X127462667Y-66240000D01*
X127351014Y-66250997D01*
X127207753Y-66294454D01*
X127075724Y-66365026D01*
X126959999Y-66459999D01*
X126936201Y-66488997D01*
X124985000Y-68440198D01*
X124985000Y-68313740D01*
X124927932Y-68026842D01*
X124815990Y-67756589D01*
X124653475Y-67513368D01*
X124446632Y-67306525D01*
X124264466Y-67184805D01*
X124381355Y-67115178D01*
X124597588Y-66920269D01*
X124771641Y-66686920D01*
X124896825Y-66424099D01*
X124941476Y-66276890D01*
X124820155Y-66047000D01*
X123627000Y-66047000D01*
X123627000Y-66067000D01*
X123373000Y-66067000D01*
X123373000Y-66047000D01*
X122179845Y-66047000D01*
X122058524Y-66276890D01*
X122103175Y-66424099D01*
X122228359Y-66686920D01*
X122402412Y-66920269D01*
X122618645Y-67115178D01*
X122735534Y-67184805D01*
X122553368Y-67306525D01*
X122346525Y-67513368D01*
X122323151Y-67548349D01*
X120337912Y-65563110D01*
X122058524Y-65563110D01*
X122179845Y-65793000D01*
X123373000Y-65793000D01*
X123373000Y-64599186D01*
X123627000Y-64599186D01*
X123627000Y-65793000D01*
X124820155Y-65793000D01*
X124941476Y-65563110D01*
X124896825Y-65415901D01*
X124873316Y-65366544D01*
X141145000Y-65366544D01*
X141145000Y-65633456D01*
X141197072Y-65895239D01*
X141299215Y-66141833D01*
X141447503Y-66363762D01*
X141636238Y-66552497D01*
X141858167Y-66700785D01*
X142104761Y-66802928D01*
X142220898Y-66826029D01*
X153158009Y-77763141D01*
X153193551Y-77806449D01*
X153366377Y-77948284D01*
X153563553Y-78053676D01*
X153777501Y-78118577D01*
X154000000Y-78140491D01*
X154055751Y-78135000D01*
X173082317Y-78135000D01*
X173119463Y-78204494D01*
X173198815Y-78301185D01*
X173295506Y-78380537D01*
X173405820Y-78439502D01*
X173525518Y-78475812D01*
X173650000Y-78488072D01*
X175350000Y-78488072D01*
X175474482Y-78475812D01*
X175594180Y-78439502D01*
X175704494Y-78380537D01*
X175801185Y-78301185D01*
X175880537Y-78204494D01*
X175939502Y-78094180D01*
X175963966Y-78013534D01*
X176039731Y-78097588D01*
X176273080Y-78271641D01*
X176535901Y-78396825D01*
X176683110Y-78441476D01*
X176913000Y-78320155D01*
X176913000Y-77127000D01*
X177167000Y-77127000D01*
X177167000Y-78320155D01*
X177396890Y-78441476D01*
X177544099Y-78396825D01*
X177806920Y-78271641D01*
X178040269Y-78097588D01*
X178235178Y-77881355D01*
X178384157Y-77631252D01*
X178481481Y-77356891D01*
X178360814Y-77127000D01*
X177167000Y-77127000D01*
X176913000Y-77127000D01*
X176893000Y-77127000D01*
X176893000Y-76873000D01*
X176913000Y-76873000D01*
X176913000Y-75679845D01*
X177167000Y-75679845D01*
X177167000Y-76873000D01*
X178360814Y-76873000D01*
X178481481Y-76643109D01*
X178384157Y-76368748D01*
X178235178Y-76118645D01*
X178040269Y-75902412D01*
X177806920Y-75728359D01*
X177544099Y-75603175D01*
X177396890Y-75558524D01*
X177167000Y-75679845D01*
X176913000Y-75679845D01*
X176683110Y-75558524D01*
X176535901Y-75603175D01*
X176273080Y-75728359D01*
X176039731Y-75902412D01*
X175963966Y-75986466D01*
X175939502Y-75905820D01*
X175880537Y-75795506D01*
X175801185Y-75698815D01*
X175704494Y-75619463D01*
X175594180Y-75560498D01*
X175474482Y-75524188D01*
X175350000Y-75511928D01*
X173650000Y-75511928D01*
X173525518Y-75524188D01*
X173405820Y-75560498D01*
X173295506Y-75619463D01*
X173198815Y-75698815D01*
X173119463Y-75795506D01*
X173082317Y-75865000D01*
X154470132Y-75865000D01*
X150355132Y-71750000D01*
X187611928Y-71750000D01*
X187624188Y-71874482D01*
X187660498Y-71994180D01*
X187719463Y-72104494D01*
X187798815Y-72201185D01*
X187895506Y-72280537D01*
X188005820Y-72339502D01*
X188125518Y-72375812D01*
X188250000Y-72388072D01*
X189714250Y-72385000D01*
X189873000Y-72226250D01*
X189873000Y-70127000D01*
X190127000Y-70127000D01*
X190127000Y-72226250D01*
X190285750Y-72385000D01*
X191750000Y-72388072D01*
X191874482Y-72375812D01*
X191994180Y-72339502D01*
X192104494Y-72280537D01*
X192201185Y-72201185D01*
X192280537Y-72104494D01*
X192339502Y-71994180D01*
X192375812Y-71874482D01*
X192388072Y-71750000D01*
X192385000Y-70285750D01*
X192226250Y-70127000D01*
X190127000Y-70127000D01*
X189873000Y-70127000D01*
X187773750Y-70127000D01*
X187615000Y-70285750D01*
X187611928Y-71750000D01*
X150355132Y-71750000D01*
X146674955Y-68069823D01*
X158375000Y-68069823D01*
X158398513Y-68308555D01*
X158491432Y-68614868D01*
X158642325Y-68897169D01*
X158845392Y-69144608D01*
X159092830Y-69347675D01*
X159375131Y-69498568D01*
X159681444Y-69591487D01*
X160000000Y-69622862D01*
X160318555Y-69591487D01*
X160624868Y-69498568D01*
X160907169Y-69347675D01*
X161154608Y-69144608D01*
X161289698Y-68980000D01*
X163371928Y-68980000D01*
X163384188Y-69104482D01*
X163420498Y-69224180D01*
X163479463Y-69334494D01*
X163558815Y-69431185D01*
X163655506Y-69510537D01*
X163765820Y-69569502D01*
X163885518Y-69605812D01*
X164010000Y-69618072D01*
X164714250Y-69615000D01*
X164873000Y-69456250D01*
X164873000Y-67127000D01*
X165127000Y-67127000D01*
X165127000Y-69456250D01*
X165285750Y-69615000D01*
X165990000Y-69618072D01*
X166114482Y-69605812D01*
X166234180Y-69569502D01*
X166344494Y-69510537D01*
X166441185Y-69431185D01*
X166520537Y-69334494D01*
X166579502Y-69224180D01*
X166615812Y-69104482D01*
X166628072Y-68980000D01*
X166625000Y-67285750D01*
X166466250Y-67127000D01*
X165127000Y-67127000D01*
X164873000Y-67127000D01*
X163533750Y-67127000D01*
X163375000Y-67285750D01*
X163371928Y-68980000D01*
X161289698Y-68980000D01*
X161357675Y-68897170D01*
X161508568Y-68614869D01*
X161601487Y-68308556D01*
X161625000Y-68069824D01*
X161625000Y-65930176D01*
X161601487Y-65691444D01*
X161508568Y-65385131D01*
X161357675Y-65102830D01*
X161289699Y-65020000D01*
X163371928Y-65020000D01*
X163375000Y-66714250D01*
X163533750Y-66873000D01*
X164873000Y-66873000D01*
X164873000Y-64543750D01*
X165127000Y-64543750D01*
X165127000Y-66873000D01*
X166466250Y-66873000D01*
X166625000Y-66714250D01*
X166626068Y-66125000D01*
X182911928Y-66125000D01*
X182911928Y-67875000D01*
X182941001Y-68170186D01*
X183027104Y-68454028D01*
X183166927Y-68715618D01*
X183355097Y-68944903D01*
X183584382Y-69133073D01*
X183845972Y-69272896D01*
X184129814Y-69358999D01*
X184425000Y-69388072D01*
X186175000Y-69388072D01*
X186470186Y-69358999D01*
X186754028Y-69272896D01*
X187015618Y-69133073D01*
X187244903Y-68944903D01*
X187433073Y-68715618D01*
X187572896Y-68454028D01*
X187612085Y-68324840D01*
X187615000Y-69714250D01*
X187773750Y-69873000D01*
X189873000Y-69873000D01*
X189873000Y-67773750D01*
X190127000Y-67773750D01*
X190127000Y-69873000D01*
X192226250Y-69873000D01*
X192385000Y-69714250D01*
X192388072Y-68250000D01*
X192375812Y-68125518D01*
X192339502Y-68005820D01*
X192280537Y-67895506D01*
X192201185Y-67798815D01*
X192104494Y-67719463D01*
X191994180Y-67660498D01*
X191874482Y-67624188D01*
X191750000Y-67611928D01*
X190285750Y-67615000D01*
X190127000Y-67773750D01*
X189873000Y-67773750D01*
X189714250Y-67615000D01*
X188250000Y-67611928D01*
X188125518Y-67624188D01*
X188005820Y-67660498D01*
X187895506Y-67719463D01*
X187798815Y-67798815D01*
X187719463Y-67895506D01*
X187678506Y-67972131D01*
X187688072Y-67875000D01*
X187688072Y-66125000D01*
X187658999Y-65829814D01*
X187572896Y-65545972D01*
X187433073Y-65284382D01*
X187244903Y-65055097D01*
X187015618Y-64866927D01*
X186754028Y-64727104D01*
X186470186Y-64641001D01*
X186175000Y-64611928D01*
X184425000Y-64611928D01*
X184129814Y-64641001D01*
X183845972Y-64727104D01*
X183584382Y-64866927D01*
X183355097Y-65055097D01*
X183166927Y-65284382D01*
X183027104Y-65545972D01*
X182941001Y-65829814D01*
X182911928Y-66125000D01*
X166626068Y-66125000D01*
X166628072Y-65020000D01*
X166615812Y-64895518D01*
X166579502Y-64775820D01*
X166520537Y-64665506D01*
X166441185Y-64568815D01*
X166344494Y-64489463D01*
X166234180Y-64430498D01*
X166114482Y-64394188D01*
X165990000Y-64381928D01*
X165285750Y-64385000D01*
X165127000Y-64543750D01*
X164873000Y-64543750D01*
X164714250Y-64385000D01*
X164010000Y-64381928D01*
X163885518Y-64394188D01*
X163765820Y-64430498D01*
X163655506Y-64489463D01*
X163558815Y-64568815D01*
X163479463Y-64665506D01*
X163420498Y-64775820D01*
X163384188Y-64895518D01*
X163371928Y-65020000D01*
X161289699Y-65020000D01*
X161154608Y-64855392D01*
X160907170Y-64652325D01*
X160624869Y-64501432D01*
X160318556Y-64408513D01*
X160000000Y-64377138D01*
X159681445Y-64408513D01*
X159375132Y-64501432D01*
X159092831Y-64652325D01*
X158845393Y-64855392D01*
X158642326Y-65102830D01*
X158491433Y-65385131D01*
X158398514Y-65691444D01*
X158375001Y-65930176D01*
X158375000Y-68069823D01*
X146674955Y-68069823D01*
X143971676Y-65366544D01*
X146225000Y-65366544D01*
X146225000Y-65633456D01*
X146277072Y-65895239D01*
X146379215Y-66141833D01*
X146527503Y-66363762D01*
X146716238Y-66552497D01*
X146938167Y-66700785D01*
X147184761Y-66802928D01*
X147446544Y-66855000D01*
X147713456Y-66855000D01*
X147975239Y-66802928D01*
X148221833Y-66700785D01*
X148443762Y-66552497D01*
X148632497Y-66363762D01*
X148780785Y-66141833D01*
X148882928Y-65895239D01*
X148935000Y-65633456D01*
X148935000Y-65366544D01*
X148882928Y-65104761D01*
X148780785Y-64858167D01*
X148632497Y-64636238D01*
X148443762Y-64447503D01*
X148221833Y-64299215D01*
X147975239Y-64197072D01*
X147713456Y-64145000D01*
X147446544Y-64145000D01*
X147184761Y-64197072D01*
X146938167Y-64299215D01*
X146716238Y-64447503D01*
X146527503Y-64636238D01*
X146379215Y-64858167D01*
X146277072Y-65104761D01*
X146225000Y-65366544D01*
X143971676Y-65366544D01*
X143826029Y-65220898D01*
X143802928Y-65104761D01*
X143700785Y-64858167D01*
X143552497Y-64636238D01*
X143363762Y-64447503D01*
X143141833Y-64299215D01*
X142895239Y-64197072D01*
X142633456Y-64145000D01*
X142366544Y-64145000D01*
X142104761Y-64197072D01*
X141858167Y-64299215D01*
X141636238Y-64447503D01*
X141447503Y-64636238D01*
X141299215Y-64858167D01*
X141197072Y-65104761D01*
X141145000Y-65366544D01*
X124873316Y-65366544D01*
X124771641Y-65153080D01*
X124597588Y-64919731D01*
X124381355Y-64724822D01*
X124131252Y-64575843D01*
X123856891Y-64478519D01*
X123627000Y-64599186D01*
X123373000Y-64599186D01*
X123143109Y-64478519D01*
X122868748Y-64575843D01*
X122618645Y-64724822D01*
X122402412Y-64919731D01*
X122228359Y-65153080D01*
X122103175Y-65415901D01*
X122058524Y-65563110D01*
X120337912Y-65563110D01*
X118398688Y-63623887D01*
X118435000Y-63441335D01*
X118435000Y-63158665D01*
X118379853Y-62881426D01*
X118357121Y-62826544D01*
X143685000Y-62826544D01*
X143685000Y-63093456D01*
X143737072Y-63355239D01*
X143839215Y-63601833D01*
X143987503Y-63823762D01*
X144176238Y-64012497D01*
X144398167Y-64160785D01*
X144644761Y-64262928D01*
X144906544Y-64315000D01*
X145173456Y-64315000D01*
X145435239Y-64262928D01*
X145681833Y-64160785D01*
X145903762Y-64012497D01*
X146092497Y-63823762D01*
X146240785Y-63601833D01*
X146342928Y-63355239D01*
X146363861Y-63250000D01*
X187611928Y-63250000D01*
X187611928Y-64750000D01*
X187638599Y-65020799D01*
X187717589Y-65281192D01*
X187845860Y-65521171D01*
X188018485Y-65731515D01*
X188228829Y-65904140D01*
X188468808Y-66032411D01*
X188729201Y-66111401D01*
X189000000Y-66138072D01*
X191000000Y-66138072D01*
X191270799Y-66111401D01*
X191531192Y-66032411D01*
X191771171Y-65904140D01*
X191981515Y-65731515D01*
X192154140Y-65521171D01*
X192282411Y-65281192D01*
X192361401Y-65020799D01*
X192388072Y-64750000D01*
X192388072Y-63250000D01*
X192361401Y-62979201D01*
X192282411Y-62718808D01*
X192154140Y-62478829D01*
X191981515Y-62268485D01*
X191771171Y-62095860D01*
X191531192Y-61967589D01*
X191270799Y-61888599D01*
X191000000Y-61861928D01*
X189000000Y-61861928D01*
X188729201Y-61888599D01*
X188468808Y-61967589D01*
X188228829Y-62095860D01*
X188018485Y-62268485D01*
X187845860Y-62478829D01*
X187717589Y-62718808D01*
X187638599Y-62979201D01*
X187611928Y-63250000D01*
X146363861Y-63250000D01*
X146395000Y-63093456D01*
X146395000Y-62826544D01*
X146342928Y-62564761D01*
X146240785Y-62318167D01*
X146092497Y-62096238D01*
X145903762Y-61907503D01*
X145681833Y-61759215D01*
X145435239Y-61657072D01*
X145173456Y-61605000D01*
X144906544Y-61605000D01*
X144644761Y-61657072D01*
X144398167Y-61759215D01*
X144176238Y-61907503D01*
X143987503Y-62096238D01*
X143839215Y-62318167D01*
X143737072Y-62564761D01*
X143685000Y-62826544D01*
X118357121Y-62826544D01*
X118271680Y-62620273D01*
X118114637Y-62385241D01*
X117914759Y-62185363D01*
X117679727Y-62028320D01*
X117418574Y-61920147D01*
X117141335Y-61865000D01*
X116858665Y-61865000D01*
X116581426Y-61920147D01*
X116320273Y-62028320D01*
X116085241Y-62185363D01*
X115885363Y-62385241D01*
X115728320Y-62620273D01*
X115620147Y-62881426D01*
X115565000Y-63158665D01*
X105127000Y-63158665D01*
X105127000Y-60660000D01*
X193373439Y-60660000D01*
X193423474Y-78873000D01*
G37*
X193423474Y-78873000D02*
X185000000Y-78873000D01*
X184975224Y-78875440D01*
X184951399Y-78882667D01*
X184929443Y-78894403D01*
X184910197Y-78910197D01*
X184894403Y-78929443D01*
X184882667Y-78951399D01*
X184875440Y-78975224D01*
X184873000Y-79000000D01*
X184873000Y-89000000D01*
X184875440Y-89024776D01*
X184882667Y-89048601D01*
X184894403Y-89070557D01*
X184910197Y-89089803D01*
X184929443Y-89105597D01*
X184951399Y-89117333D01*
X184975224Y-89124560D01*
X185000000Y-89127000D01*
X193451645Y-89127000D01*
X193597925Y-142373000D01*
X185000000Y-142373000D01*
X184975224Y-142375440D01*
X184951399Y-142382667D01*
X184929443Y-142394403D01*
X184910197Y-142410197D01*
X184894403Y-142429443D01*
X184882667Y-142451399D01*
X184875440Y-142475224D01*
X184873000Y-142500000D01*
X184873000Y-151373000D01*
X105127000Y-151373000D01*
X105127000Y-142779872D01*
X108765000Y-142779872D01*
X108765000Y-143220128D01*
X108850890Y-143651925D01*
X109019369Y-144058669D01*
X109263962Y-144424729D01*
X109575271Y-144736038D01*
X109941331Y-144980631D01*
X110348075Y-145149110D01*
X110779872Y-145235000D01*
X111220128Y-145235000D01*
X111651925Y-145149110D01*
X112058669Y-144980631D01*
X112424729Y-144736038D01*
X112736038Y-144424729D01*
X112980631Y-144058669D01*
X113096112Y-143779872D01*
X156765000Y-143779872D01*
X156765000Y-144220128D01*
X156850890Y-144651925D01*
X157019369Y-145058669D01*
X157263962Y-145424729D01*
X157575271Y-145736038D01*
X157941331Y-145980631D01*
X158348075Y-146149110D01*
X158779872Y-146235000D01*
X159220128Y-146235000D01*
X159651925Y-146149110D01*
X160058669Y-145980631D01*
X160424729Y-145736038D01*
X160736038Y-145424729D01*
X160980631Y-145058669D01*
X161149110Y-144651925D01*
X161235000Y-144220128D01*
X161235000Y-143779872D01*
X161149110Y-143348075D01*
X160980631Y-142941331D01*
X160736038Y-142575271D01*
X160424729Y-142263962D01*
X160058669Y-142019369D01*
X159651925Y-141850890D01*
X159220128Y-141765000D01*
X158779872Y-141765000D01*
X158348075Y-141850890D01*
X157941331Y-142019369D01*
X157575271Y-142263962D01*
X157263962Y-142575271D01*
X157019369Y-142941331D01*
X156850890Y-143348075D01*
X156765000Y-143779872D01*
X113096112Y-143779872D01*
X113149110Y-143651925D01*
X113235000Y-143220128D01*
X113235000Y-142779872D01*
X113149110Y-142348075D01*
X112980631Y-141941331D01*
X112736038Y-141575271D01*
X112424729Y-141263962D01*
X112058669Y-141019369D01*
X111651925Y-140850890D01*
X111220128Y-140765000D01*
X110779872Y-140765000D01*
X110348075Y-140850890D01*
X109941331Y-141019369D01*
X109575271Y-141263962D01*
X109263962Y-141575271D01*
X109019369Y-141941331D01*
X108850890Y-142348075D01*
X108765000Y-142779872D01*
X105127000Y-142779872D01*
X105127000Y-142500000D01*
X105124560Y-142475224D01*
X105117333Y-142451399D01*
X105105597Y-142429443D01*
X105089803Y-142410197D01*
X105070557Y-142394403D01*
X105048601Y-142382667D01*
X105024776Y-142375440D01*
X105000000Y-142373000D01*
X96226927Y-142373000D01*
X96204199Y-134100000D01*
X108461928Y-134100000D01*
X108461928Y-135900000D01*
X108474188Y-136024482D01*
X108510498Y-136144180D01*
X108569463Y-136254494D01*
X108648815Y-136351185D01*
X108745506Y-136430537D01*
X108855820Y-136489502D01*
X108975518Y-136525812D01*
X109100000Y-136538072D01*
X110900000Y-136538072D01*
X111024482Y-136525812D01*
X111144180Y-136489502D01*
X111254494Y-136430537D01*
X111351185Y-136351185D01*
X111430537Y-136254494D01*
X111489502Y-136144180D01*
X111495056Y-136125873D01*
X111561495Y-136192312D01*
X111812905Y-136360299D01*
X112092257Y-136476011D01*
X112388816Y-136535000D01*
X112691184Y-136535000D01*
X112987743Y-136476011D01*
X113267095Y-136360299D01*
X113518505Y-136192312D01*
X113575817Y-136135000D01*
X133507713Y-136135000D01*
X133510498Y-136144180D01*
X133569463Y-136254494D01*
X133648815Y-136351185D01*
X133745506Y-136430537D01*
X133855820Y-136489502D01*
X133975518Y-136525812D01*
X134100000Y-136538072D01*
X135900000Y-136538072D01*
X136024482Y-136525812D01*
X136144180Y-136489502D01*
X136254494Y-136430537D01*
X136351185Y-136351185D01*
X136430537Y-136254494D01*
X136489502Y-136144180D01*
X136495056Y-136125873D01*
X136561495Y-136192312D01*
X136812905Y-136360299D01*
X137092257Y-136476011D01*
X137388816Y-136535000D01*
X137691184Y-136535000D01*
X137987743Y-136476011D01*
X138267095Y-136360299D01*
X138518505Y-136192312D01*
X138575817Y-136135000D01*
X155507713Y-136135000D01*
X155510498Y-136144180D01*
X155569463Y-136254494D01*
X155648815Y-136351185D01*
X155745506Y-136430537D01*
X155855820Y-136489502D01*
X155975518Y-136525812D01*
X156100000Y-136538072D01*
X157900000Y-136538072D01*
X158024482Y-136525812D01*
X158144180Y-136489502D01*
X158254494Y-136430537D01*
X158351185Y-136351185D01*
X158430537Y-136254494D01*
X158489502Y-136144180D01*
X158495056Y-136125873D01*
X158561495Y-136192312D01*
X158812905Y-136360299D01*
X159092257Y-136476011D01*
X159388816Y-136535000D01*
X159691184Y-136535000D01*
X159987743Y-136476011D01*
X160267095Y-136360299D01*
X160518505Y-136192312D01*
X160732312Y-135978505D01*
X160900299Y-135727095D01*
X161016011Y-135447743D01*
X161075000Y-135151184D01*
X161075000Y-135070131D01*
X171010132Y-125135000D01*
X173311447Y-125135000D01*
X173334662Y-125169744D01*
X173590256Y-125425338D01*
X173890801Y-125626156D01*
X174224750Y-125764482D01*
X174579268Y-125835000D01*
X174940732Y-125835000D01*
X175295250Y-125764482D01*
X175629199Y-125626156D01*
X175929744Y-125425338D01*
X176185338Y-125169744D01*
X176386156Y-124869199D01*
X176524482Y-124535250D01*
X176595000Y-124180732D01*
X176595000Y-123819268D01*
X188165000Y-123819268D01*
X188165000Y-124180732D01*
X188235518Y-124535250D01*
X188373844Y-124869199D01*
X188574662Y-125169744D01*
X188830256Y-125425338D01*
X189130801Y-125626156D01*
X189464750Y-125764482D01*
X189819268Y-125835000D01*
X190180732Y-125835000D01*
X190535250Y-125764482D01*
X190869199Y-125626156D01*
X191169744Y-125425338D01*
X191425338Y-125169744D01*
X191626156Y-124869199D01*
X191764482Y-124535250D01*
X191835000Y-124180732D01*
X191835000Y-123819268D01*
X191764482Y-123464750D01*
X191626156Y-123130801D01*
X191425338Y-122830256D01*
X191169744Y-122574662D01*
X190869199Y-122373844D01*
X190535250Y-122235518D01*
X190180732Y-122165000D01*
X189819268Y-122165000D01*
X189464750Y-122235518D01*
X189130801Y-122373844D01*
X188830256Y-122574662D01*
X188574662Y-122830256D01*
X188373844Y-123130801D01*
X188235518Y-123464750D01*
X188165000Y-123819268D01*
X176595000Y-123819268D01*
X176524482Y-123464750D01*
X176386156Y-123130801D01*
X176185338Y-122830256D01*
X175929744Y-122574662D01*
X175629199Y-122373844D01*
X175295250Y-122235518D01*
X174940732Y-122165000D01*
X174579268Y-122165000D01*
X174224750Y-122235518D01*
X173890801Y-122373844D01*
X173590256Y-122574662D01*
X173334662Y-122830256D01*
X173311447Y-122865000D01*
X170595743Y-122865000D01*
X170539999Y-122859510D01*
X170484255Y-122865000D01*
X170484248Y-122865000D01*
X170338493Y-122879356D01*
X170317500Y-122881423D01*
X170267705Y-122896529D01*
X170103553Y-122946324D01*
X169906377Y-123051716D01*
X169733551Y-123193551D01*
X169698009Y-123236859D01*
X159469869Y-133465000D01*
X159388816Y-133465000D01*
X159092257Y-133523989D01*
X158812905Y-133639701D01*
X158561495Y-133807688D01*
X158495056Y-133874127D01*
X158489502Y-133855820D01*
X158430537Y-133745506D01*
X158351185Y-133648815D01*
X158254494Y-133569463D01*
X158144180Y-133510498D01*
X158024482Y-133474188D01*
X157900000Y-133461928D01*
X156100000Y-133461928D01*
X155975518Y-133474188D01*
X155855820Y-133510498D01*
X155745506Y-133569463D01*
X155648815Y-133648815D01*
X155569463Y-133745506D01*
X155510498Y-133855820D01*
X155507713Y-133865000D01*
X138575817Y-133865000D01*
X138518505Y-133807688D01*
X138267095Y-133639701D01*
X137987743Y-133523989D01*
X137691184Y-133465000D01*
X137388816Y-133465000D01*
X137092257Y-133523989D01*
X136812905Y-133639701D01*
X136561495Y-133807688D01*
X136495056Y-133874127D01*
X136489502Y-133855820D01*
X136430537Y-133745506D01*
X136351185Y-133648815D01*
X136254494Y-133569463D01*
X136144180Y-133510498D01*
X136024482Y-133474188D01*
X135900000Y-133461928D01*
X134100000Y-133461928D01*
X133975518Y-133474188D01*
X133855820Y-133510498D01*
X133745506Y-133569463D01*
X133648815Y-133648815D01*
X133569463Y-133745506D01*
X133510498Y-133855820D01*
X133507713Y-133865000D01*
X113575817Y-133865000D01*
X113518505Y-133807688D01*
X113267095Y-133639701D01*
X112987743Y-133523989D01*
X112691184Y-133465000D01*
X112388816Y-133465000D01*
X112092257Y-133523989D01*
X111812905Y-133639701D01*
X111561495Y-133807688D01*
X111495056Y-133874127D01*
X111489502Y-133855820D01*
X111430537Y-133745506D01*
X111351185Y-133648815D01*
X111254494Y-133569463D01*
X111144180Y-133510498D01*
X111024482Y-133474188D01*
X110900000Y-133461928D01*
X109100000Y-133461928D01*
X108975518Y-133474188D01*
X108855820Y-133510498D01*
X108745506Y-133569463D01*
X108648815Y-133648815D01*
X108569463Y-133745506D01*
X108510498Y-133855820D01*
X108474188Y-133975518D01*
X108461928Y-134100000D01*
X96204199Y-134100000D01*
X96165738Y-120100000D01*
X108461928Y-120100000D01*
X108461928Y-121900000D01*
X108474188Y-122024482D01*
X108510498Y-122144180D01*
X108569463Y-122254494D01*
X108648815Y-122351185D01*
X108745506Y-122430537D01*
X108855820Y-122489502D01*
X108975518Y-122525812D01*
X109100000Y-122538072D01*
X110900000Y-122538072D01*
X111024482Y-122525812D01*
X111144180Y-122489502D01*
X111254494Y-122430537D01*
X111351185Y-122351185D01*
X111430537Y-122254494D01*
X111489502Y-122144180D01*
X111495056Y-122125873D01*
X111561495Y-122192312D01*
X111812905Y-122360299D01*
X112092257Y-122476011D01*
X112388816Y-122535000D01*
X112691184Y-122535000D01*
X112987743Y-122476011D01*
X113267095Y-122360299D01*
X113518505Y-122192312D01*
X113575817Y-122135000D01*
X133507713Y-122135000D01*
X133510498Y-122144180D01*
X133569463Y-122254494D01*
X133648815Y-122351185D01*
X133745506Y-122430537D01*
X133855820Y-122489502D01*
X133975518Y-122525812D01*
X134100000Y-122538072D01*
X135900000Y-122538072D01*
X136024482Y-122525812D01*
X136144180Y-122489502D01*
X136254494Y-122430537D01*
X136351185Y-122351185D01*
X136430537Y-122254494D01*
X136489502Y-122144180D01*
X136495056Y-122125873D01*
X136561495Y-122192312D01*
X136812905Y-122360299D01*
X137092257Y-122476011D01*
X137388816Y-122535000D01*
X137691184Y-122535000D01*
X137987743Y-122476011D01*
X138267095Y-122360299D01*
X138518505Y-122192312D01*
X138575817Y-122135000D01*
X156507713Y-122135000D01*
X156510498Y-122144180D01*
X156569463Y-122254494D01*
X156648815Y-122351185D01*
X156745506Y-122430537D01*
X156855820Y-122489502D01*
X156975518Y-122525812D01*
X157100000Y-122538072D01*
X158900000Y-122538072D01*
X159024482Y-122525812D01*
X159144180Y-122489502D01*
X159254494Y-122430537D01*
X159351185Y-122351185D01*
X159430537Y-122254494D01*
X159489502Y-122144180D01*
X159495056Y-122125873D01*
X159561495Y-122192312D01*
X159812905Y-122360299D01*
X160092257Y-122476011D01*
X160388816Y-122535000D01*
X160691184Y-122535000D01*
X160987743Y-122476011D01*
X161267095Y-122360299D01*
X161518505Y-122192312D01*
X161575817Y-122135000D01*
X169704249Y-122135000D01*
X169760000Y-122140491D01*
X169815751Y-122135000D01*
X169815752Y-122135000D01*
X169982499Y-122118577D01*
X170196447Y-122053676D01*
X170393623Y-121948284D01*
X170566449Y-121806449D01*
X170601996Y-121763135D01*
X174538284Y-117826848D01*
X174579268Y-117835000D01*
X174940732Y-117835000D01*
X175295250Y-117764482D01*
X175629199Y-117626156D01*
X175929744Y-117425338D01*
X176185338Y-117169744D01*
X176386156Y-116869199D01*
X176524482Y-116535250D01*
X176595000Y-116180732D01*
X176595000Y-115819268D01*
X188165000Y-115819268D01*
X188165000Y-116180732D01*
X188235518Y-116535250D01*
X188373844Y-116869199D01*
X188574662Y-117169744D01*
X188830256Y-117425338D01*
X189130801Y-117626156D01*
X189464750Y-117764482D01*
X189819268Y-117835000D01*
X190180732Y-117835000D01*
X190535250Y-117764482D01*
X190869199Y-117626156D01*
X191169744Y-117425338D01*
X191425338Y-117169744D01*
X191626156Y-116869199D01*
X191764482Y-116535250D01*
X191835000Y-116180732D01*
X191835000Y-115819268D01*
X191764482Y-115464750D01*
X191626156Y-115130801D01*
X191425338Y-114830256D01*
X191169744Y-114574662D01*
X190869199Y-114373844D01*
X190535250Y-114235518D01*
X190180732Y-114165000D01*
X189819268Y-114165000D01*
X189464750Y-114235518D01*
X189130801Y-114373844D01*
X188830256Y-114574662D01*
X188574662Y-114830256D01*
X188373844Y-115130801D01*
X188235518Y-115464750D01*
X188165000Y-115819268D01*
X176595000Y-115819268D01*
X176524482Y-115464750D01*
X176386156Y-115130801D01*
X176185338Y-114830256D01*
X175929744Y-114574662D01*
X175629199Y-114373844D01*
X175295250Y-114235518D01*
X174940732Y-114165000D01*
X174579268Y-114165000D01*
X174224750Y-114235518D01*
X173890801Y-114373844D01*
X173590256Y-114574662D01*
X173334662Y-114830256D01*
X173133844Y-115130801D01*
X172995518Y-115464750D01*
X172925000Y-115819268D01*
X172925000Y-116180732D01*
X172933152Y-116221716D01*
X169289869Y-119865000D01*
X161575817Y-119865000D01*
X161518505Y-119807688D01*
X161267095Y-119639701D01*
X160987743Y-119523989D01*
X160691184Y-119465000D01*
X160388816Y-119465000D01*
X160092257Y-119523989D01*
X159812905Y-119639701D01*
X159561495Y-119807688D01*
X159495056Y-119874127D01*
X159489502Y-119855820D01*
X159430537Y-119745506D01*
X159351185Y-119648815D01*
X159254494Y-119569463D01*
X159144180Y-119510498D01*
X159024482Y-119474188D01*
X158900000Y-119461928D01*
X157100000Y-119461928D01*
X156975518Y-119474188D01*
X156855820Y-119510498D01*
X156745506Y-119569463D01*
X156648815Y-119648815D01*
X156569463Y-119745506D01*
X156510498Y-119855820D01*
X156507713Y-119865000D01*
X138575817Y-119865000D01*
X138518505Y-119807688D01*
X138267095Y-119639701D01*
X137987743Y-119523989D01*
X137691184Y-119465000D01*
X137388816Y-119465000D01*
X137092257Y-119523989D01*
X136812905Y-119639701D01*
X136561495Y-119807688D01*
X136495056Y-119874127D01*
X136489502Y-119855820D01*
X136430537Y-119745506D01*
X136351185Y-119648815D01*
X136254494Y-119569463D01*
X136144180Y-119510498D01*
X136024482Y-119474188D01*
X135900000Y-119461928D01*
X134100000Y-119461928D01*
X133975518Y-119474188D01*
X133855820Y-119510498D01*
X133745506Y-119569463D01*
X133648815Y-119648815D01*
X133569463Y-119745506D01*
X133510498Y-119855820D01*
X133507713Y-119865000D01*
X113575817Y-119865000D01*
X113518505Y-119807688D01*
X113267095Y-119639701D01*
X112987743Y-119523989D01*
X112691184Y-119465000D01*
X112388816Y-119465000D01*
X112092257Y-119523989D01*
X111812905Y-119639701D01*
X111561495Y-119807688D01*
X111495056Y-119874127D01*
X111489502Y-119855820D01*
X111430537Y-119745506D01*
X111351185Y-119648815D01*
X111254494Y-119569463D01*
X111144180Y-119510498D01*
X111024482Y-119474188D01*
X110900000Y-119461928D01*
X109100000Y-119461928D01*
X108975518Y-119474188D01*
X108855820Y-119510498D01*
X108745506Y-119569463D01*
X108648815Y-119648815D01*
X108569463Y-119745506D01*
X108510498Y-119855820D01*
X108474188Y-119975518D01*
X108461928Y-120100000D01*
X96165738Y-120100000D01*
X96124530Y-105100000D01*
X108461928Y-105100000D01*
X108461928Y-106900000D01*
X108474188Y-107024482D01*
X108510498Y-107144180D01*
X108569463Y-107254494D01*
X108648815Y-107351185D01*
X108745506Y-107430537D01*
X108855820Y-107489502D01*
X108975518Y-107525812D01*
X109100000Y-107538072D01*
X110900000Y-107538072D01*
X111024482Y-107525812D01*
X111144180Y-107489502D01*
X111254494Y-107430537D01*
X111351185Y-107351185D01*
X111430537Y-107254494D01*
X111489502Y-107144180D01*
X111495056Y-107125873D01*
X111561495Y-107192312D01*
X111812905Y-107360299D01*
X112092257Y-107476011D01*
X112388816Y-107535000D01*
X112691184Y-107535000D01*
X112987743Y-107476011D01*
X113267095Y-107360299D01*
X113518505Y-107192312D01*
X113575817Y-107135000D01*
X133507713Y-107135000D01*
X133510498Y-107144180D01*
X133569463Y-107254494D01*
X133648815Y-107351185D01*
X133745506Y-107430537D01*
X133855820Y-107489502D01*
X133975518Y-107525812D01*
X134100000Y-107538072D01*
X135900000Y-107538072D01*
X136024482Y-107525812D01*
X136144180Y-107489502D01*
X136254494Y-107430537D01*
X136351185Y-107351185D01*
X136430537Y-107254494D01*
X136489502Y-107144180D01*
X136495056Y-107125873D01*
X136561495Y-107192312D01*
X136812905Y-107360299D01*
X137092257Y-107476011D01*
X137388816Y-107535000D01*
X137691184Y-107535000D01*
X137987743Y-107476011D01*
X138267095Y-107360299D01*
X138518505Y-107192312D01*
X138575817Y-107135000D01*
X156507713Y-107135000D01*
X156510498Y-107144180D01*
X156569463Y-107254494D01*
X156648815Y-107351185D01*
X156745506Y-107430537D01*
X156855820Y-107489502D01*
X156975518Y-107525812D01*
X157100000Y-107538072D01*
X158900000Y-107538072D01*
X159024482Y-107525812D01*
X159144180Y-107489502D01*
X159254494Y-107430537D01*
X159351185Y-107351185D01*
X159430537Y-107254494D01*
X159489502Y-107144180D01*
X159495056Y-107125873D01*
X159561495Y-107192312D01*
X159662369Y-107259714D01*
X159733551Y-107346449D01*
X159776865Y-107381996D01*
X161158008Y-108763140D01*
X161193551Y-108806449D01*
X161270012Y-108869199D01*
X161366377Y-108948284D01*
X161563553Y-109053676D01*
X161777501Y-109118577D01*
X162000000Y-109140491D01*
X162055752Y-109135000D01*
X173311447Y-109135000D01*
X173334662Y-109169744D01*
X173590256Y-109425338D01*
X173890801Y-109626156D01*
X174224750Y-109764482D01*
X174579268Y-109835000D01*
X174940732Y-109835000D01*
X175295250Y-109764482D01*
X175629199Y-109626156D01*
X175929744Y-109425338D01*
X176185338Y-109169744D01*
X176386156Y-108869199D01*
X176524482Y-108535250D01*
X176595000Y-108180732D01*
X176595000Y-107819268D01*
X188165000Y-107819268D01*
X188165000Y-108180732D01*
X188235518Y-108535250D01*
X188373844Y-108869199D01*
X188574662Y-109169744D01*
X188830256Y-109425338D01*
X189130801Y-109626156D01*
X189464750Y-109764482D01*
X189819268Y-109835000D01*
X190180732Y-109835000D01*
X190535250Y-109764482D01*
X190869199Y-109626156D01*
X191169744Y-109425338D01*
X191425338Y-109169744D01*
X191626156Y-108869199D01*
X191764482Y-108535250D01*
X191835000Y-108180732D01*
X191835000Y-107819268D01*
X191764482Y-107464750D01*
X191626156Y-107130801D01*
X191425338Y-106830256D01*
X191169744Y-106574662D01*
X190869199Y-106373844D01*
X190535250Y-106235518D01*
X190180732Y-106165000D01*
X189819268Y-106165000D01*
X189464750Y-106235518D01*
X189130801Y-106373844D01*
X188830256Y-106574662D01*
X188574662Y-106830256D01*
X188373844Y-107130801D01*
X188235518Y-107464750D01*
X188165000Y-107819268D01*
X176595000Y-107819268D01*
X176524482Y-107464750D01*
X176386156Y-107130801D01*
X176185338Y-106830256D01*
X175929744Y-106574662D01*
X175629199Y-106373844D01*
X175295250Y-106235518D01*
X174940732Y-106165000D01*
X174579268Y-106165000D01*
X174224750Y-106235518D01*
X173890801Y-106373844D01*
X173590256Y-106574662D01*
X173334662Y-106830256D01*
X173311447Y-106865000D01*
X162470132Y-106865000D01*
X162022127Y-106416996D01*
X162075000Y-106151184D01*
X162075000Y-105848816D01*
X162016011Y-105552257D01*
X161900299Y-105272905D01*
X161732312Y-105021495D01*
X161518505Y-104807688D01*
X161267095Y-104639701D01*
X160987743Y-104523989D01*
X160691184Y-104465000D01*
X160388816Y-104465000D01*
X160092257Y-104523989D01*
X159812905Y-104639701D01*
X159561495Y-104807688D01*
X159495056Y-104874127D01*
X159489502Y-104855820D01*
X159430537Y-104745506D01*
X159351185Y-104648815D01*
X159254494Y-104569463D01*
X159144180Y-104510498D01*
X159024482Y-104474188D01*
X158900000Y-104461928D01*
X157100000Y-104461928D01*
X156975518Y-104474188D01*
X156855820Y-104510498D01*
X156745506Y-104569463D01*
X156648815Y-104648815D01*
X156569463Y-104745506D01*
X156510498Y-104855820D01*
X156507713Y-104865000D01*
X138575817Y-104865000D01*
X138518505Y-104807688D01*
X138267095Y-104639701D01*
X137987743Y-104523989D01*
X137691184Y-104465000D01*
X137388816Y-104465000D01*
X137092257Y-104523989D01*
X136812905Y-104639701D01*
X136561495Y-104807688D01*
X136495056Y-104874127D01*
X136489502Y-104855820D01*
X136430537Y-104745506D01*
X136351185Y-104648815D01*
X136254494Y-104569463D01*
X136144180Y-104510498D01*
X136024482Y-104474188D01*
X135900000Y-104461928D01*
X134100000Y-104461928D01*
X133975518Y-104474188D01*
X133855820Y-104510498D01*
X133745506Y-104569463D01*
X133648815Y-104648815D01*
X133569463Y-104745506D01*
X133510498Y-104855820D01*
X133507713Y-104865000D01*
X113575817Y-104865000D01*
X113518505Y-104807688D01*
X113267095Y-104639701D01*
X112987743Y-104523989D01*
X112691184Y-104465000D01*
X112388816Y-104465000D01*
X112092257Y-104523989D01*
X111812905Y-104639701D01*
X111561495Y-104807688D01*
X111495056Y-104874127D01*
X111489502Y-104855820D01*
X111430537Y-104745506D01*
X111351185Y-104648815D01*
X111254494Y-104569463D01*
X111144180Y-104510498D01*
X111024482Y-104474188D01*
X110900000Y-104461928D01*
X109100000Y-104461928D01*
X108975518Y-104474188D01*
X108855820Y-104510498D01*
X108745506Y-104569463D01*
X108648815Y-104648815D01*
X108569463Y-104745506D01*
X108510498Y-104855820D01*
X108474188Y-104975518D01*
X108461928Y-105100000D01*
X96124530Y-105100000D01*
X96086068Y-91100000D01*
X108461928Y-91100000D01*
X108461928Y-92900000D01*
X108474188Y-93024482D01*
X108510498Y-93144180D01*
X108569463Y-93254494D01*
X108648815Y-93351185D01*
X108745506Y-93430537D01*
X108855820Y-93489502D01*
X108975518Y-93525812D01*
X109100000Y-93538072D01*
X110900000Y-93538072D01*
X111024482Y-93525812D01*
X111144180Y-93489502D01*
X111254494Y-93430537D01*
X111351185Y-93351185D01*
X111430537Y-93254494D01*
X111489502Y-93144180D01*
X111495056Y-93125873D01*
X111561495Y-93192312D01*
X111812905Y-93360299D01*
X112092257Y-93476011D01*
X112388816Y-93535000D01*
X112691184Y-93535000D01*
X112987743Y-93476011D01*
X113267095Y-93360299D01*
X113518505Y-93192312D01*
X113575817Y-93135000D01*
X133507713Y-93135000D01*
X133510498Y-93144180D01*
X133569463Y-93254494D01*
X133648815Y-93351185D01*
X133745506Y-93430537D01*
X133855820Y-93489502D01*
X133975518Y-93525812D01*
X134100000Y-93538072D01*
X135900000Y-93538072D01*
X136024482Y-93525812D01*
X136144180Y-93489502D01*
X136254494Y-93430537D01*
X136351185Y-93351185D01*
X136430537Y-93254494D01*
X136489502Y-93144180D01*
X136495056Y-93125873D01*
X136561495Y-93192312D01*
X136812905Y-93360299D01*
X137092257Y-93476011D01*
X137388816Y-93535000D01*
X137691184Y-93535000D01*
X137987743Y-93476011D01*
X138267095Y-93360299D01*
X138518505Y-93192312D01*
X138575817Y-93135000D01*
X156507713Y-93135000D01*
X156510498Y-93144180D01*
X156569463Y-93254494D01*
X156648815Y-93351185D01*
X156745506Y-93430537D01*
X156855820Y-93489502D01*
X156975518Y-93525812D01*
X157100000Y-93538072D01*
X158900000Y-93538072D01*
X159024482Y-93525812D01*
X159144180Y-93489502D01*
X159254494Y-93430537D01*
X159351185Y-93351185D01*
X159430537Y-93254494D01*
X159489502Y-93144180D01*
X159495056Y-93125873D01*
X159561495Y-93192312D01*
X159812905Y-93360299D01*
X160092257Y-93476011D01*
X160388816Y-93535000D01*
X160691184Y-93535000D01*
X160987743Y-93476011D01*
X161267095Y-93360299D01*
X161518505Y-93192312D01*
X161575817Y-93135000D01*
X167529869Y-93135000D01*
X173290787Y-98895920D01*
X173133844Y-99130801D01*
X172995518Y-99464750D01*
X172925000Y-99819268D01*
X172925000Y-100180732D01*
X172995518Y-100535250D01*
X173133844Y-100869199D01*
X173334662Y-101169744D01*
X173590256Y-101425338D01*
X173890801Y-101626156D01*
X174224750Y-101764482D01*
X174579268Y-101835000D01*
X174940732Y-101835000D01*
X175295250Y-101764482D01*
X175629199Y-101626156D01*
X175929744Y-101425338D01*
X176185338Y-101169744D01*
X176386156Y-100869199D01*
X176524482Y-100535250D01*
X176595000Y-100180732D01*
X176595000Y-99819268D01*
X188165000Y-99819268D01*
X188165000Y-100180732D01*
X188235518Y-100535250D01*
X188373844Y-100869199D01*
X188574662Y-101169744D01*
X188830256Y-101425338D01*
X189130801Y-101626156D01*
X189464750Y-101764482D01*
X189819268Y-101835000D01*
X190180732Y-101835000D01*
X190535250Y-101764482D01*
X190869199Y-101626156D01*
X191169744Y-101425338D01*
X191425338Y-101169744D01*
X191626156Y-100869199D01*
X191764482Y-100535250D01*
X191835000Y-100180732D01*
X191835000Y-99819268D01*
X191764482Y-99464750D01*
X191626156Y-99130801D01*
X191425338Y-98830256D01*
X191169744Y-98574662D01*
X190869199Y-98373844D01*
X190535250Y-98235518D01*
X190180732Y-98165000D01*
X189819268Y-98165000D01*
X189464750Y-98235518D01*
X189130801Y-98373844D01*
X188830256Y-98574662D01*
X188574662Y-98830256D01*
X188373844Y-99130801D01*
X188235518Y-99464750D01*
X188165000Y-99819268D01*
X176595000Y-99819268D01*
X176524482Y-99464750D01*
X176386156Y-99130801D01*
X176185338Y-98830256D01*
X175929744Y-98574662D01*
X175878890Y-98540683D01*
X175878577Y-98537501D01*
X175813676Y-98323553D01*
X175708284Y-98126377D01*
X175601989Y-97996856D01*
X175601987Y-97996854D01*
X175566449Y-97953551D01*
X175523146Y-97918013D01*
X168841996Y-91236865D01*
X168806449Y-91193551D01*
X168633623Y-91051716D01*
X168436447Y-90946324D01*
X168222499Y-90881423D01*
X168055752Y-90865000D01*
X168055751Y-90865000D01*
X168000000Y-90859509D01*
X167944249Y-90865000D01*
X161575817Y-90865000D01*
X161518505Y-90807688D01*
X161267095Y-90639701D01*
X160987743Y-90523989D01*
X160691184Y-90465000D01*
X160388816Y-90465000D01*
X160092257Y-90523989D01*
X159812905Y-90639701D01*
X159561495Y-90807688D01*
X159495056Y-90874127D01*
X159489502Y-90855820D01*
X159430537Y-90745506D01*
X159351185Y-90648815D01*
X159254494Y-90569463D01*
X159144180Y-90510498D01*
X159024482Y-90474188D01*
X158900000Y-90461928D01*
X157100000Y-90461928D01*
X156975518Y-90474188D01*
X156855820Y-90510498D01*
X156745506Y-90569463D01*
X156648815Y-90648815D01*
X156569463Y-90745506D01*
X156510498Y-90855820D01*
X156507713Y-90865000D01*
X138575817Y-90865000D01*
X138518505Y-90807688D01*
X138267095Y-90639701D01*
X137987743Y-90523989D01*
X137691184Y-90465000D01*
X137388816Y-90465000D01*
X137092257Y-90523989D01*
X136812905Y-90639701D01*
X136561495Y-90807688D01*
X136495056Y-90874127D01*
X136489502Y-90855820D01*
X136430537Y-90745506D01*
X136351185Y-90648815D01*
X136254494Y-90569463D01*
X136144180Y-90510498D01*
X136024482Y-90474188D01*
X135900000Y-90461928D01*
X134100000Y-90461928D01*
X133975518Y-90474188D01*
X133855820Y-90510498D01*
X133745506Y-90569463D01*
X133648815Y-90648815D01*
X133569463Y-90745506D01*
X133510498Y-90855820D01*
X133507713Y-90865000D01*
X113575817Y-90865000D01*
X113518505Y-90807688D01*
X113267095Y-90639701D01*
X112987743Y-90523989D01*
X112691184Y-90465000D01*
X112388816Y-90465000D01*
X112092257Y-90523989D01*
X111812905Y-90639701D01*
X111561495Y-90807688D01*
X111495056Y-90874127D01*
X111489502Y-90855820D01*
X111430537Y-90745506D01*
X111351185Y-90648815D01*
X111254494Y-90569463D01*
X111144180Y-90510498D01*
X111024482Y-90474188D01*
X110900000Y-90461928D01*
X109100000Y-90461928D01*
X108975518Y-90474188D01*
X108855820Y-90510498D01*
X108745506Y-90569463D01*
X108648815Y-90648815D01*
X108569463Y-90745506D01*
X108510498Y-90855820D01*
X108474188Y-90975518D01*
X108461928Y-91100000D01*
X96086068Y-91100000D01*
X96063211Y-82779872D01*
X108765000Y-82779872D01*
X108765000Y-83220128D01*
X108850890Y-83651925D01*
X109019369Y-84058669D01*
X109263962Y-84424729D01*
X109575271Y-84736038D01*
X109941331Y-84980631D01*
X110348075Y-85149110D01*
X110779872Y-85235000D01*
X111220128Y-85235000D01*
X111651925Y-85149110D01*
X112058669Y-84980631D01*
X112424729Y-84736038D01*
X112736038Y-84424729D01*
X112980631Y-84058669D01*
X113096112Y-83779872D01*
X158765000Y-83779872D01*
X158765000Y-84220128D01*
X158850890Y-84651925D01*
X159019369Y-85058669D01*
X159263962Y-85424729D01*
X159575271Y-85736038D01*
X159941331Y-85980631D01*
X160348075Y-86149110D01*
X160779872Y-86235000D01*
X161220128Y-86235000D01*
X161651925Y-86149110D01*
X162058669Y-85980631D01*
X162424729Y-85736038D01*
X162736038Y-85424729D01*
X162980631Y-85058669D01*
X163149110Y-84651925D01*
X163235000Y-84220128D01*
X163235000Y-83779872D01*
X163149110Y-83348075D01*
X162980631Y-82941331D01*
X162736038Y-82575271D01*
X162424729Y-82263962D01*
X162058669Y-82019369D01*
X161651925Y-81850890D01*
X161220128Y-81765000D01*
X160779872Y-81765000D01*
X160348075Y-81850890D01*
X159941331Y-82019369D01*
X159575271Y-82263962D01*
X159263962Y-82575271D01*
X159019369Y-82941331D01*
X158850890Y-83348075D01*
X158765000Y-83779872D01*
X113096112Y-83779872D01*
X113149110Y-83651925D01*
X113235000Y-83220128D01*
X113235000Y-82779872D01*
X113149110Y-82348075D01*
X112980631Y-81941331D01*
X112736038Y-81575271D01*
X112424729Y-81263962D01*
X112058669Y-81019369D01*
X111651925Y-80850890D01*
X111220128Y-80765000D01*
X110779872Y-80765000D01*
X110348075Y-80850890D01*
X109941331Y-81019369D01*
X109575271Y-81263962D01*
X109263962Y-81575271D01*
X109019369Y-81941331D01*
X108850890Y-82348075D01*
X108765000Y-82779872D01*
X96063211Y-82779872D01*
X96028449Y-70127000D01*
X105000000Y-70127000D01*
X105024776Y-70124560D01*
X105048601Y-70117333D01*
X105070557Y-70105597D01*
X105089803Y-70089803D01*
X105105597Y-70070557D01*
X105117333Y-70048601D01*
X105124560Y-70024776D01*
X105127000Y-70000000D01*
X105127000Y-65100000D01*
X106961928Y-65100000D01*
X106961928Y-66900000D01*
X106974188Y-67024482D01*
X107010498Y-67144180D01*
X107069463Y-67254494D01*
X107148815Y-67351185D01*
X107245506Y-67430537D01*
X107355820Y-67489502D01*
X107374127Y-67495056D01*
X107307688Y-67561495D01*
X107139701Y-67812905D01*
X107023989Y-68092257D01*
X106965000Y-68388816D01*
X106965000Y-68691184D01*
X107023989Y-68987743D01*
X107139701Y-69267095D01*
X107307688Y-69518505D01*
X107521495Y-69732312D01*
X107637763Y-69810000D01*
X107521495Y-69887688D01*
X107307688Y-70101495D01*
X107139701Y-70352905D01*
X107023989Y-70632257D01*
X106965000Y-70928816D01*
X106965000Y-71231184D01*
X107023989Y-71527743D01*
X107139701Y-71807095D01*
X107307688Y-72058505D01*
X107521495Y-72272312D01*
X107772905Y-72440299D01*
X108052257Y-72556011D01*
X108348816Y-72615000D01*
X108651184Y-72615000D01*
X108908930Y-72563731D01*
X112856201Y-76511003D01*
X112879999Y-76540001D01*
X112995724Y-76634974D01*
X113127753Y-76705546D01*
X113271014Y-76749003D01*
X113382667Y-76760000D01*
X113382675Y-76760000D01*
X113420000Y-76763676D01*
X113457325Y-76760000D01*
X115781957Y-76760000D01*
X115885363Y-76914759D01*
X116085241Y-77114637D01*
X116320273Y-77271680D01*
X116581426Y-77379853D01*
X116858665Y-77435000D01*
X117141335Y-77435000D01*
X117418574Y-77379853D01*
X117679727Y-77271680D01*
X117914759Y-77114637D01*
X118114637Y-76914759D01*
X118271680Y-76679727D01*
X118379853Y-76418574D01*
X118435000Y-76141335D01*
X118435000Y-75858665D01*
X118379853Y-75581426D01*
X118271680Y-75320273D01*
X118114637Y-75085241D01*
X117914759Y-74885363D01*
X117679727Y-74728320D01*
X117418574Y-74620147D01*
X117141335Y-74565000D01*
X116858665Y-74565000D01*
X116581426Y-74620147D01*
X116320273Y-74728320D01*
X116085241Y-74885363D01*
X115885363Y-75085241D01*
X115781957Y-75240000D01*
X113734802Y-75240000D01*
X109983731Y-71488930D01*
X110035000Y-71231184D01*
X110035000Y-70928816D01*
X109976011Y-70632257D01*
X109860299Y-70352905D01*
X109692312Y-70101495D01*
X109478505Y-69887688D01*
X109362237Y-69810000D01*
X109478505Y-69732312D01*
X109692312Y-69518505D01*
X109860299Y-69267095D01*
X109976011Y-68987743D01*
X110035000Y-68691184D01*
X110035000Y-68388816D01*
X109976011Y-68092257D01*
X109860299Y-67812905D01*
X109692312Y-67561495D01*
X109625873Y-67495056D01*
X109644180Y-67489502D01*
X109754494Y-67430537D01*
X109851185Y-67351185D01*
X109930537Y-67254494D01*
X109989502Y-67144180D01*
X110025812Y-67024482D01*
X110038072Y-66900000D01*
X110038072Y-65100000D01*
X110025812Y-64975518D01*
X109989502Y-64855820D01*
X109930537Y-64745506D01*
X109851185Y-64648815D01*
X109754494Y-64569463D01*
X109644180Y-64510498D01*
X109524482Y-64474188D01*
X109400000Y-64461928D01*
X107600000Y-64461928D01*
X107475518Y-64474188D01*
X107355820Y-64510498D01*
X107245506Y-64569463D01*
X107148815Y-64648815D01*
X107069463Y-64745506D01*
X107010498Y-64855820D01*
X106974188Y-64975518D01*
X106961928Y-65100000D01*
X105127000Y-65100000D01*
X105127000Y-63158665D01*
X115565000Y-63158665D01*
X115565000Y-63441335D01*
X115620147Y-63718574D01*
X115728320Y-63979727D01*
X115885363Y-64214759D01*
X116085241Y-64414637D01*
X116320273Y-64571680D01*
X116581426Y-64679853D01*
X116858665Y-64735000D01*
X117141335Y-64735000D01*
X117323887Y-64698688D01*
X121596201Y-68971003D01*
X121619999Y-69000001D01*
X121648997Y-69023799D01*
X121735723Y-69094974D01*
X121807001Y-69133073D01*
X121867753Y-69165546D01*
X122011014Y-69209003D01*
X122122667Y-69220000D01*
X122122677Y-69220000D01*
X122160000Y-69223676D01*
X122197322Y-69220000D01*
X122221822Y-69220000D01*
X122346525Y-69406632D01*
X122478380Y-69538487D01*
X122405820Y-69560498D01*
X122295506Y-69619463D01*
X122198815Y-69698815D01*
X122119463Y-69795506D01*
X122060498Y-69905820D01*
X122024188Y-70025518D01*
X122011928Y-70150000D01*
X122011928Y-71850000D01*
X122024188Y-71974482D01*
X122060498Y-72094180D01*
X122119463Y-72204494D01*
X122198815Y-72301185D01*
X122295506Y-72380537D01*
X122405820Y-72439502D01*
X122525518Y-72475812D01*
X122650000Y-72488072D01*
X124350000Y-72488072D01*
X124474482Y-72475812D01*
X124594180Y-72439502D01*
X124704494Y-72380537D01*
X124801185Y-72301185D01*
X124880537Y-72204494D01*
X124939502Y-72094180D01*
X124975812Y-71974482D01*
X124988072Y-71850000D01*
X124988072Y-70586729D01*
X127814802Y-67760000D01*
X130511928Y-67760000D01*
X130511928Y-67850000D01*
X130524188Y-67974482D01*
X130560498Y-68094180D01*
X130619463Y-68204494D01*
X130698815Y-68301185D01*
X130795506Y-68380537D01*
X130905820Y-68439502D01*
X130978380Y-68461513D01*
X130846525Y-68593368D01*
X130684010Y-68836589D01*
X130572068Y-69106842D01*
X130515000Y-69393740D01*
X130515000Y-69686260D01*
X130572068Y-69973158D01*
X130684010Y-70243411D01*
X130846525Y-70486632D01*
X131053368Y-70693475D01*
X131296589Y-70855990D01*
X131566842Y-70967932D01*
X131853740Y-71025000D01*
X132146260Y-71025000D01*
X132433158Y-70967932D01*
X132703411Y-70855990D01*
X132946632Y-70693475D01*
X133153475Y-70486632D01*
X133315990Y-70243411D01*
X133427932Y-69973158D01*
X133485000Y-69686260D01*
X133485000Y-69393740D01*
X133427932Y-69106842D01*
X133315990Y-68836589D01*
X133153475Y-68593368D01*
X133021620Y-68461513D01*
X133094180Y-68439502D01*
X133204494Y-68380537D01*
X133301185Y-68301185D01*
X133380537Y-68204494D01*
X133439502Y-68094180D01*
X133475812Y-67974482D01*
X133488072Y-67850000D01*
X133488072Y-66150000D01*
X133475812Y-66025518D01*
X133439502Y-65905820D01*
X133380537Y-65795506D01*
X133301185Y-65698815D01*
X133204494Y-65619463D01*
X133094180Y-65560498D01*
X132974482Y-65524188D01*
X132850000Y-65511928D01*
X131150000Y-65511928D01*
X131025518Y-65524188D01*
X130905820Y-65560498D01*
X130795506Y-65619463D01*
X130698815Y-65698815D01*
X130619463Y-65795506D01*
X130560498Y-65905820D01*
X130524188Y-66025518D01*
X130511928Y-66150000D01*
X130511928Y-66240000D01*
X127537322Y-66240000D01*
X127499999Y-66236324D01*
X127462676Y-66240000D01*
X127462667Y-66240000D01*
X127351014Y-66250997D01*
X127207753Y-66294454D01*
X127075724Y-66365026D01*
X126959999Y-66459999D01*
X126936201Y-66488997D01*
X124985000Y-68440198D01*
X124985000Y-68313740D01*
X124927932Y-68026842D01*
X124815990Y-67756589D01*
X124653475Y-67513368D01*
X124446632Y-67306525D01*
X124264466Y-67184805D01*
X124381355Y-67115178D01*
X124597588Y-66920269D01*
X124771641Y-66686920D01*
X124896825Y-66424099D01*
X124941476Y-66276890D01*
X124820155Y-66047000D01*
X123627000Y-66047000D01*
X123627000Y-66067000D01*
X123373000Y-66067000D01*
X123373000Y-66047000D01*
X122179845Y-66047000D01*
X122058524Y-66276890D01*
X122103175Y-66424099D01*
X122228359Y-66686920D01*
X122402412Y-66920269D01*
X122618645Y-67115178D01*
X122735534Y-67184805D01*
X122553368Y-67306525D01*
X122346525Y-67513368D01*
X122323151Y-67548349D01*
X120337912Y-65563110D01*
X122058524Y-65563110D01*
X122179845Y-65793000D01*
X123373000Y-65793000D01*
X123373000Y-64599186D01*
X123627000Y-64599186D01*
X123627000Y-65793000D01*
X124820155Y-65793000D01*
X124941476Y-65563110D01*
X124896825Y-65415901D01*
X124873316Y-65366544D01*
X141145000Y-65366544D01*
X141145000Y-65633456D01*
X141197072Y-65895239D01*
X141299215Y-66141833D01*
X141447503Y-66363762D01*
X141636238Y-66552497D01*
X141858167Y-66700785D01*
X142104761Y-66802928D01*
X142220898Y-66826029D01*
X153158009Y-77763141D01*
X153193551Y-77806449D01*
X153366377Y-77948284D01*
X153563553Y-78053676D01*
X153777501Y-78118577D01*
X154000000Y-78140491D01*
X154055751Y-78135000D01*
X173082317Y-78135000D01*
X173119463Y-78204494D01*
X173198815Y-78301185D01*
X173295506Y-78380537D01*
X173405820Y-78439502D01*
X173525518Y-78475812D01*
X173650000Y-78488072D01*
X175350000Y-78488072D01*
X175474482Y-78475812D01*
X175594180Y-78439502D01*
X175704494Y-78380537D01*
X175801185Y-78301185D01*
X175880537Y-78204494D01*
X175939502Y-78094180D01*
X175963966Y-78013534D01*
X176039731Y-78097588D01*
X176273080Y-78271641D01*
X176535901Y-78396825D01*
X176683110Y-78441476D01*
X176913000Y-78320155D01*
X176913000Y-77127000D01*
X177167000Y-77127000D01*
X177167000Y-78320155D01*
X177396890Y-78441476D01*
X177544099Y-78396825D01*
X177806920Y-78271641D01*
X178040269Y-78097588D01*
X178235178Y-77881355D01*
X178384157Y-77631252D01*
X178481481Y-77356891D01*
X178360814Y-77127000D01*
X177167000Y-77127000D01*
X176913000Y-77127000D01*
X176893000Y-77127000D01*
X176893000Y-76873000D01*
X176913000Y-76873000D01*
X176913000Y-75679845D01*
X177167000Y-75679845D01*
X177167000Y-76873000D01*
X178360814Y-76873000D01*
X178481481Y-76643109D01*
X178384157Y-76368748D01*
X178235178Y-76118645D01*
X178040269Y-75902412D01*
X177806920Y-75728359D01*
X177544099Y-75603175D01*
X177396890Y-75558524D01*
X177167000Y-75679845D01*
X176913000Y-75679845D01*
X176683110Y-75558524D01*
X176535901Y-75603175D01*
X176273080Y-75728359D01*
X176039731Y-75902412D01*
X175963966Y-75986466D01*
X175939502Y-75905820D01*
X175880537Y-75795506D01*
X175801185Y-75698815D01*
X175704494Y-75619463D01*
X175594180Y-75560498D01*
X175474482Y-75524188D01*
X175350000Y-75511928D01*
X173650000Y-75511928D01*
X173525518Y-75524188D01*
X173405820Y-75560498D01*
X173295506Y-75619463D01*
X173198815Y-75698815D01*
X173119463Y-75795506D01*
X173082317Y-75865000D01*
X154470132Y-75865000D01*
X150355132Y-71750000D01*
X187611928Y-71750000D01*
X187624188Y-71874482D01*
X187660498Y-71994180D01*
X187719463Y-72104494D01*
X187798815Y-72201185D01*
X187895506Y-72280537D01*
X188005820Y-72339502D01*
X188125518Y-72375812D01*
X188250000Y-72388072D01*
X189714250Y-72385000D01*
X189873000Y-72226250D01*
X189873000Y-70127000D01*
X190127000Y-70127000D01*
X190127000Y-72226250D01*
X190285750Y-72385000D01*
X191750000Y-72388072D01*
X191874482Y-72375812D01*
X191994180Y-72339502D01*
X192104494Y-72280537D01*
X192201185Y-72201185D01*
X192280537Y-72104494D01*
X192339502Y-71994180D01*
X192375812Y-71874482D01*
X192388072Y-71750000D01*
X192385000Y-70285750D01*
X192226250Y-70127000D01*
X190127000Y-70127000D01*
X189873000Y-70127000D01*
X187773750Y-70127000D01*
X187615000Y-70285750D01*
X187611928Y-71750000D01*
X150355132Y-71750000D01*
X146674955Y-68069823D01*
X158375000Y-68069823D01*
X158398513Y-68308555D01*
X158491432Y-68614868D01*
X158642325Y-68897169D01*
X158845392Y-69144608D01*
X159092830Y-69347675D01*
X159375131Y-69498568D01*
X159681444Y-69591487D01*
X160000000Y-69622862D01*
X160318555Y-69591487D01*
X160624868Y-69498568D01*
X160907169Y-69347675D01*
X161154608Y-69144608D01*
X161289698Y-68980000D01*
X163371928Y-68980000D01*
X163384188Y-69104482D01*
X163420498Y-69224180D01*
X163479463Y-69334494D01*
X163558815Y-69431185D01*
X163655506Y-69510537D01*
X163765820Y-69569502D01*
X163885518Y-69605812D01*
X164010000Y-69618072D01*
X164714250Y-69615000D01*
X164873000Y-69456250D01*
X164873000Y-67127000D01*
X165127000Y-67127000D01*
X165127000Y-69456250D01*
X165285750Y-69615000D01*
X165990000Y-69618072D01*
X166114482Y-69605812D01*
X166234180Y-69569502D01*
X166344494Y-69510537D01*
X166441185Y-69431185D01*
X166520537Y-69334494D01*
X166579502Y-69224180D01*
X166615812Y-69104482D01*
X166628072Y-68980000D01*
X166625000Y-67285750D01*
X166466250Y-67127000D01*
X165127000Y-67127000D01*
X164873000Y-67127000D01*
X163533750Y-67127000D01*
X163375000Y-67285750D01*
X163371928Y-68980000D01*
X161289698Y-68980000D01*
X161357675Y-68897170D01*
X161508568Y-68614869D01*
X161601487Y-68308556D01*
X161625000Y-68069824D01*
X161625000Y-65930176D01*
X161601487Y-65691444D01*
X161508568Y-65385131D01*
X161357675Y-65102830D01*
X161289699Y-65020000D01*
X163371928Y-65020000D01*
X163375000Y-66714250D01*
X163533750Y-66873000D01*
X164873000Y-66873000D01*
X164873000Y-64543750D01*
X165127000Y-64543750D01*
X165127000Y-66873000D01*
X166466250Y-66873000D01*
X166625000Y-66714250D01*
X166626068Y-66125000D01*
X182911928Y-66125000D01*
X182911928Y-67875000D01*
X182941001Y-68170186D01*
X183027104Y-68454028D01*
X183166927Y-68715618D01*
X183355097Y-68944903D01*
X183584382Y-69133073D01*
X183845972Y-69272896D01*
X184129814Y-69358999D01*
X184425000Y-69388072D01*
X186175000Y-69388072D01*
X186470186Y-69358999D01*
X186754028Y-69272896D01*
X187015618Y-69133073D01*
X187244903Y-68944903D01*
X187433073Y-68715618D01*
X187572896Y-68454028D01*
X187612085Y-68324840D01*
X187615000Y-69714250D01*
X187773750Y-69873000D01*
X189873000Y-69873000D01*
X189873000Y-67773750D01*
X190127000Y-67773750D01*
X190127000Y-69873000D01*
X192226250Y-69873000D01*
X192385000Y-69714250D01*
X192388072Y-68250000D01*
X192375812Y-68125518D01*
X192339502Y-68005820D01*
X192280537Y-67895506D01*
X192201185Y-67798815D01*
X192104494Y-67719463D01*
X191994180Y-67660498D01*
X191874482Y-67624188D01*
X191750000Y-67611928D01*
X190285750Y-67615000D01*
X190127000Y-67773750D01*
X189873000Y-67773750D01*
X189714250Y-67615000D01*
X188250000Y-67611928D01*
X188125518Y-67624188D01*
X188005820Y-67660498D01*
X187895506Y-67719463D01*
X187798815Y-67798815D01*
X187719463Y-67895506D01*
X187678506Y-67972131D01*
X187688072Y-67875000D01*
X187688072Y-66125000D01*
X187658999Y-65829814D01*
X187572896Y-65545972D01*
X187433073Y-65284382D01*
X187244903Y-65055097D01*
X187015618Y-64866927D01*
X186754028Y-64727104D01*
X186470186Y-64641001D01*
X186175000Y-64611928D01*
X184425000Y-64611928D01*
X184129814Y-64641001D01*
X183845972Y-64727104D01*
X183584382Y-64866927D01*
X183355097Y-65055097D01*
X183166927Y-65284382D01*
X183027104Y-65545972D01*
X182941001Y-65829814D01*
X182911928Y-66125000D01*
X166626068Y-66125000D01*
X166628072Y-65020000D01*
X166615812Y-64895518D01*
X166579502Y-64775820D01*
X166520537Y-64665506D01*
X166441185Y-64568815D01*
X166344494Y-64489463D01*
X166234180Y-64430498D01*
X166114482Y-64394188D01*
X165990000Y-64381928D01*
X165285750Y-64385000D01*
X165127000Y-64543750D01*
X164873000Y-64543750D01*
X164714250Y-64385000D01*
X164010000Y-64381928D01*
X163885518Y-64394188D01*
X163765820Y-64430498D01*
X163655506Y-64489463D01*
X163558815Y-64568815D01*
X163479463Y-64665506D01*
X163420498Y-64775820D01*
X163384188Y-64895518D01*
X163371928Y-65020000D01*
X161289699Y-65020000D01*
X161154608Y-64855392D01*
X160907170Y-64652325D01*
X160624869Y-64501432D01*
X160318556Y-64408513D01*
X160000000Y-64377138D01*
X159681445Y-64408513D01*
X159375132Y-64501432D01*
X159092831Y-64652325D01*
X158845393Y-64855392D01*
X158642326Y-65102830D01*
X158491433Y-65385131D01*
X158398514Y-65691444D01*
X158375001Y-65930176D01*
X158375000Y-68069823D01*
X146674955Y-68069823D01*
X143971676Y-65366544D01*
X146225000Y-65366544D01*
X146225000Y-65633456D01*
X146277072Y-65895239D01*
X146379215Y-66141833D01*
X146527503Y-66363762D01*
X146716238Y-66552497D01*
X146938167Y-66700785D01*
X147184761Y-66802928D01*
X147446544Y-66855000D01*
X147713456Y-66855000D01*
X147975239Y-66802928D01*
X148221833Y-66700785D01*
X148443762Y-66552497D01*
X148632497Y-66363762D01*
X148780785Y-66141833D01*
X148882928Y-65895239D01*
X148935000Y-65633456D01*
X148935000Y-65366544D01*
X148882928Y-65104761D01*
X148780785Y-64858167D01*
X148632497Y-64636238D01*
X148443762Y-64447503D01*
X148221833Y-64299215D01*
X147975239Y-64197072D01*
X147713456Y-64145000D01*
X147446544Y-64145000D01*
X147184761Y-64197072D01*
X146938167Y-64299215D01*
X146716238Y-64447503D01*
X146527503Y-64636238D01*
X146379215Y-64858167D01*
X146277072Y-65104761D01*
X146225000Y-65366544D01*
X143971676Y-65366544D01*
X143826029Y-65220898D01*
X143802928Y-65104761D01*
X143700785Y-64858167D01*
X143552497Y-64636238D01*
X143363762Y-64447503D01*
X143141833Y-64299215D01*
X142895239Y-64197072D01*
X142633456Y-64145000D01*
X142366544Y-64145000D01*
X142104761Y-64197072D01*
X141858167Y-64299215D01*
X141636238Y-64447503D01*
X141447503Y-64636238D01*
X141299215Y-64858167D01*
X141197072Y-65104761D01*
X141145000Y-65366544D01*
X124873316Y-65366544D01*
X124771641Y-65153080D01*
X124597588Y-64919731D01*
X124381355Y-64724822D01*
X124131252Y-64575843D01*
X123856891Y-64478519D01*
X123627000Y-64599186D01*
X123373000Y-64599186D01*
X123143109Y-64478519D01*
X122868748Y-64575843D01*
X122618645Y-64724822D01*
X122402412Y-64919731D01*
X122228359Y-65153080D01*
X122103175Y-65415901D01*
X122058524Y-65563110D01*
X120337912Y-65563110D01*
X118398688Y-63623887D01*
X118435000Y-63441335D01*
X118435000Y-63158665D01*
X118379853Y-62881426D01*
X118357121Y-62826544D01*
X143685000Y-62826544D01*
X143685000Y-63093456D01*
X143737072Y-63355239D01*
X143839215Y-63601833D01*
X143987503Y-63823762D01*
X144176238Y-64012497D01*
X144398167Y-64160785D01*
X144644761Y-64262928D01*
X144906544Y-64315000D01*
X145173456Y-64315000D01*
X145435239Y-64262928D01*
X145681833Y-64160785D01*
X145903762Y-64012497D01*
X146092497Y-63823762D01*
X146240785Y-63601833D01*
X146342928Y-63355239D01*
X146363861Y-63250000D01*
X187611928Y-63250000D01*
X187611928Y-64750000D01*
X187638599Y-65020799D01*
X187717589Y-65281192D01*
X187845860Y-65521171D01*
X188018485Y-65731515D01*
X188228829Y-65904140D01*
X188468808Y-66032411D01*
X188729201Y-66111401D01*
X189000000Y-66138072D01*
X191000000Y-66138072D01*
X191270799Y-66111401D01*
X191531192Y-66032411D01*
X191771171Y-65904140D01*
X191981515Y-65731515D01*
X192154140Y-65521171D01*
X192282411Y-65281192D01*
X192361401Y-65020799D01*
X192388072Y-64750000D01*
X192388072Y-63250000D01*
X192361401Y-62979201D01*
X192282411Y-62718808D01*
X192154140Y-62478829D01*
X191981515Y-62268485D01*
X191771171Y-62095860D01*
X191531192Y-61967589D01*
X191270799Y-61888599D01*
X191000000Y-61861928D01*
X189000000Y-61861928D01*
X188729201Y-61888599D01*
X188468808Y-61967589D01*
X188228829Y-62095860D01*
X188018485Y-62268485D01*
X187845860Y-62478829D01*
X187717589Y-62718808D01*
X187638599Y-62979201D01*
X187611928Y-63250000D01*
X146363861Y-63250000D01*
X146395000Y-63093456D01*
X146395000Y-62826544D01*
X146342928Y-62564761D01*
X146240785Y-62318167D01*
X146092497Y-62096238D01*
X145903762Y-61907503D01*
X145681833Y-61759215D01*
X145435239Y-61657072D01*
X145173456Y-61605000D01*
X144906544Y-61605000D01*
X144644761Y-61657072D01*
X144398167Y-61759215D01*
X144176238Y-61907503D01*
X143987503Y-62096238D01*
X143839215Y-62318167D01*
X143737072Y-62564761D01*
X143685000Y-62826544D01*
X118357121Y-62826544D01*
X118271680Y-62620273D01*
X118114637Y-62385241D01*
X117914759Y-62185363D01*
X117679727Y-62028320D01*
X117418574Y-61920147D01*
X117141335Y-61865000D01*
X116858665Y-61865000D01*
X116581426Y-61920147D01*
X116320273Y-62028320D01*
X116085241Y-62185363D01*
X115885363Y-62385241D01*
X115728320Y-62620273D01*
X115620147Y-62881426D01*
X115565000Y-63158665D01*
X105127000Y-63158665D01*
X105127000Y-60660000D01*
X193373439Y-60660000D01*
X193423474Y-78873000D01*
%TD*%
M02*
