%TF.GenerationSoftware,KiCad,Pcbnew,5.1.6-c6e7f7d~87~ubuntu20.04.1*%
%TF.CreationDate,2020-08-06T11:27:34+01:00*%
%TF.ProjectId,led_matrix,6c65645f-6d61-4747-9269-782e6b696361,rev?*%
%TF.SameCoordinates,Original*%
%TF.FileFunction,Copper,L2,Bot*%
%TF.FilePolarity,Positive*%
%FSLAX46Y46*%
G04 Gerber Fmt 4.6, Leading zero omitted, Abs format (unit mm)*
G04 Created by KiCad (PCBNEW 5.1.6-c6e7f7d~87~ubuntu20.04.1) date 2020-08-06 11:27:34*
%MOMM*%
%LPD*%
G01*
G04 APERTURE LIST*
%TA.AperFunction,ComponentPad*%
%ADD10R,1.800000X1.800000*%
%TD*%
%TA.AperFunction,ComponentPad*%
%ADD11C,1.800000*%
%TD*%
%TA.AperFunction,ComponentPad*%
%ADD12C,0.700000*%
%TD*%
%TA.AperFunction,ComponentPad*%
%ADD13O,0.900000X2.400000*%
%TD*%
%TA.AperFunction,ComponentPad*%
%ADD14O,0.900000X1.700000*%
%TD*%
%TA.AperFunction,ComponentPad*%
%ADD15R,1.980000X3.960000*%
%TD*%
%TA.AperFunction,ComponentPad*%
%ADD16O,1.980000X3.960000*%
%TD*%
%TA.AperFunction,ComponentPad*%
%ADD17R,1.700000X1.700000*%
%TD*%
%TA.AperFunction,ComponentPad*%
%ADD18O,1.700000X1.700000*%
%TD*%
%TA.AperFunction,ComponentPad*%
%ADD19R,3.500000X3.500000*%
%TD*%
%TA.AperFunction,ComponentPad*%
%ADD20O,1.800000X1.800000*%
%TD*%
%TA.AperFunction,ComponentPad*%
%ADD21C,1.600000*%
%TD*%
%TA.AperFunction,ComponentPad*%
%ADD22O,1.600000X1.600000*%
%TD*%
%TA.AperFunction,ComponentPad*%
%ADD23C,1.440000*%
%TD*%
%TA.AperFunction,ViaPad*%
%ADD24C,0.800000*%
%TD*%
%TA.AperFunction,Conductor*%
%ADD25C,0.250000*%
%TD*%
%TA.AperFunction,Conductor*%
%ADD26C,0.500000*%
%TD*%
%TA.AperFunction,Conductor*%
%ADD27C,1.000000*%
%TD*%
%TA.AperFunction,Conductor*%
%ADD28C,0.254000*%
%TD*%
G04 APERTURE END LIST*
D10*
%TO.P,D1,1*%
%TO.N,Net-(D1-Pad1)*%
X160000000Y-129500000D03*
D11*
%TO.P,D1,2*%
%TO.N,Net-(D1-Pad2)*%
X162540000Y-129500000D03*
%TD*%
D10*
%TO.P,D2,1*%
%TO.N,Net-(D2-Pad1)*%
X160000000Y-113500000D03*
D11*
%TO.P,D2,2*%
%TO.N,Net-(D2-Pad2)*%
X162540000Y-113500000D03*
%TD*%
D10*
%TO.P,D3,1*%
%TO.N,Net-(D3-Pad1)*%
X160000000Y-98000000D03*
D11*
%TO.P,D3,2*%
%TO.N,Net-(D3-Pad2)*%
X162540000Y-98000000D03*
%TD*%
%TO.P,D4,2*%
%TO.N,Net-(D1-Pad1)*%
X137040000Y-129500000D03*
D10*
%TO.P,D4,1*%
%TO.N,Net-(D4-Pad1)*%
X134500000Y-129500000D03*
%TD*%
D11*
%TO.P,D5,2*%
%TO.N,Net-(D2-Pad1)*%
X137040000Y-113500000D03*
D10*
%TO.P,D5,1*%
%TO.N,Net-(D5-Pad1)*%
X134500000Y-113500000D03*
%TD*%
D11*
%TO.P,D6,2*%
%TO.N,Net-(D3-Pad1)*%
X137040000Y-98000000D03*
D10*
%TO.P,D6,1*%
%TO.N,Net-(D6-Pad1)*%
X134500000Y-98000000D03*
%TD*%
D11*
%TO.P,D7,2*%
%TO.N,Net-(D4-Pad1)*%
X111040000Y-129500000D03*
D10*
%TO.P,D7,1*%
%TO.N,Net-(D7-Pad1)*%
X108500000Y-129500000D03*
%TD*%
%TO.P,D8,1*%
%TO.N,Net-(D7-Pad1)*%
X108500000Y-113500000D03*
D11*
%TO.P,D8,2*%
%TO.N,Net-(D5-Pad1)*%
X111040000Y-113500000D03*
%TD*%
D10*
%TO.P,D9,1*%
%TO.N,Net-(D7-Pad1)*%
X108500000Y-98000000D03*
D11*
%TO.P,D9,2*%
%TO.N,Net-(D6-Pad1)*%
X111040000Y-98000000D03*
%TD*%
D12*
%TO.P,J1,A1*%
%TO.N,GND*%
X178500000Y-66000000D03*
%TO.P,J1,A4*%
%TO.N,Net-(J1-PadA4)*%
X177650000Y-66000000D03*
%TO.P,J1,A5*%
%TO.N,+5V*%
X176800000Y-66000000D03*
%TO.P,J1,A6*%
%TO.N,Net-(J1-PadA6)*%
X175950000Y-66000000D03*
%TO.P,J1,A7*%
%TO.N,Net-(J1-PadA7)*%
X175100000Y-66000000D03*
%TO.P,J1,A8*%
%TO.N,Net-(J1-PadA8)*%
X174250000Y-66000000D03*
%TO.P,J1,A9*%
%TO.N,Net-(J1-PadA4)*%
X173400000Y-66000000D03*
%TO.P,J1,A12*%
%TO.N,GND*%
X172550000Y-66000000D03*
%TO.P,J1,B9*%
%TO.N,Net-(J1-PadA4)*%
X177650000Y-64650000D03*
%TO.P,J1,B7*%
%TO.N,Net-(J1-PadB7)*%
X175950000Y-64650000D03*
%TO.P,J1,B8*%
%TO.N,Net-(J1-PadB8)*%
X176800000Y-64650000D03*
%TO.P,J1,B12*%
%TO.N,GND*%
X178500000Y-64650000D03*
%TO.P,J1,B5*%
%TO.N,Net-(J1-PadB5)*%
X174250000Y-64650000D03*
%TO.P,J1,B4*%
%TO.N,Net-(J1-PadA4)*%
X173400000Y-64650000D03*
%TO.P,J1,B1*%
%TO.N,GND*%
X172550000Y-64650000D03*
%TO.P,J1,B6*%
%TO.N,Net-(J1-PadB6)*%
X175100000Y-64650000D03*
D13*
%TO.P,J1,S1*%
%TO.N,GND*%
X179850000Y-65020000D03*
X171200000Y-65020000D03*
D14*
X179850000Y-61640000D03*
X171200000Y-61640000D03*
%TD*%
D15*
%TO.P,J2,1*%
%TO.N,+5V*%
X165000000Y-67000000D03*
D16*
%TO.P,J2,2*%
%TO.N,GND*%
X160000000Y-67000000D03*
%TD*%
D17*
%TO.P,J3,1*%
%TO.N,Net-(J3-Pad1)*%
X132000000Y-67000000D03*
D18*
%TO.P,J3,2*%
%TO.N,GND*%
X132000000Y-69540000D03*
%TD*%
D19*
%TO.P,J4,1*%
%TO.N,+5V*%
X190000000Y-70000000D03*
%TO.P,J4,2*%
%TO.N,GND*%
%TA.AperFunction,ComponentPad*%
G36*
G01*
X189000000Y-62500000D02*
X191000000Y-62500000D01*
G75*
G02*
X191750000Y-63250000I0J-750000D01*
G01*
X191750000Y-64750000D01*
G75*
G02*
X191000000Y-65500000I-750000J0D01*
G01*
X189000000Y-65500000D01*
G75*
G02*
X188250000Y-64750000I0J750000D01*
G01*
X188250000Y-63250000D01*
G75*
G02*
X189000000Y-62500000I750000J0D01*
G01*
G37*
%TD.AperFunction*%
%TO.P,J4,3*%
%TO.N,N/C*%
%TA.AperFunction,ComponentPad*%
G36*
G01*
X184425000Y-65250000D02*
X186175000Y-65250000D01*
G75*
G02*
X187050000Y-66125000I0J-875000D01*
G01*
X187050000Y-67875000D01*
G75*
G02*
X186175000Y-68750000I-875000J0D01*
G01*
X184425000Y-68750000D01*
G75*
G02*
X183550000Y-67875000I0J875000D01*
G01*
X183550000Y-66125000D01*
G75*
G02*
X184425000Y-65250000I875000J0D01*
G01*
G37*
%TD.AperFunction*%
%TD*%
D17*
%TO.P,JP1,1*%
%TO.N,Net-(J3-Pad1)*%
X123500000Y-71000000D03*
D18*
%TO.P,JP1,2*%
%TO.N,control_signal*%
X123500000Y-68460000D03*
%TO.P,JP1,3*%
%TO.N,+5V*%
X123500000Y-65920000D03*
%TD*%
D10*
%TO.P,Q1,1*%
%TO.N,GND*%
X108500000Y-66000000D03*
D20*
%TO.P,Q1,2*%
%TO.N,Net-(D7-Pad1)*%
X108500000Y-68540000D03*
%TO.P,Q1,3*%
%TO.N,Net-(Q1-Pad3)*%
X108500000Y-71080000D03*
%TD*%
D21*
%TO.P,R1,1*%
%TO.N,Net-(R1-Pad1)*%
X180000000Y-129500000D03*
D22*
%TO.P,R1,2*%
%TO.N,Net-(D1-Pad2)*%
X174920000Y-129500000D03*
%TD*%
%TO.P,R2,2*%
%TO.N,Net-(D2-Pad2)*%
X174920000Y-113500000D03*
D21*
%TO.P,R2,1*%
%TO.N,Net-(R1-Pad1)*%
X180000000Y-113500000D03*
%TD*%
%TO.P,R3,1*%
%TO.N,Net-(R1-Pad1)*%
X180000000Y-98000000D03*
D22*
%TO.P,R3,2*%
%TO.N,Net-(D3-Pad2)*%
X174920000Y-98000000D03*
%TD*%
%TO.P,R4,2*%
%TO.N,control_signal*%
X115500000Y-65420000D03*
D21*
%TO.P,R4,1*%
%TO.N,Net-(Q1-Pad3)*%
X115500000Y-70500000D03*
%TD*%
D18*
%TO.P,SW1,2*%
%TO.N,+5V*%
X177040000Y-77000000D03*
D17*
%TO.P,SW1,1*%
%TO.N,Net-(RV1-Pad1)*%
X174500000Y-77000000D03*
%TD*%
D23*
%TO.P,RV1,3*%
%TO.N,GND*%
X147580000Y-65500000D03*
%TO.P,RV1,2*%
%TO.N,Net-(R1-Pad1)*%
X145040000Y-62960000D03*
%TO.P,RV1,1*%
%TO.N,Net-(RV1-Pad1)*%
X142500000Y-65500000D03*
%TD*%
D24*
%TO.N,+5V*%
X177000000Y-68000000D03*
%TD*%
D25*
%TO.N,GND*%
X172180000Y-65020000D02*
X172550000Y-64650000D01*
X171200000Y-65020000D02*
X172180000Y-65020000D01*
X172550000Y-65390000D02*
X172180000Y-65020000D01*
X172550000Y-66000000D02*
X172550000Y-65390000D01*
D26*
X178870000Y-66000000D02*
X179850000Y-65020000D01*
X178500000Y-66000000D02*
X178870000Y-66000000D01*
X179480000Y-64650000D02*
X179850000Y-65020000D01*
X178500000Y-64650000D02*
X179480000Y-64650000D01*
X171570000Y-64650000D02*
X171200000Y-65020000D01*
X172550000Y-64650000D02*
X171570000Y-64650000D01*
X172180000Y-66000000D02*
X171200000Y-65020000D01*
X172550000Y-66000000D02*
X172180000Y-66000000D01*
%TO.N,Net-(J1-PadA4)*%
X173400000Y-64650000D02*
X173400000Y-66000000D01*
X177650000Y-64650000D02*
X177650000Y-66000000D01*
X177650000Y-64315998D02*
X177650000Y-64650000D01*
X177184001Y-63849999D02*
X177650000Y-64315998D01*
X173865999Y-63849999D02*
X177184001Y-63849999D01*
X173400000Y-64315998D02*
X173865999Y-63849999D01*
X173400000Y-64650000D02*
X173400000Y-64315998D01*
D27*
%TO.N,Net-(R1-Pad1)*%
X145040000Y-62960000D02*
X149960000Y-62960000D01*
X149960000Y-62960000D02*
X180000000Y-93000000D01*
X180000000Y-98000000D02*
X180000000Y-113500000D01*
X180000000Y-113500000D02*
X180000000Y-129500000D01*
X180000000Y-93000000D02*
X184000000Y-93000000D01*
X184000000Y-93000000D02*
X187500000Y-96500000D01*
X187500000Y-106000000D02*
X180000000Y-113500000D01*
X187500000Y-96500000D02*
X187500000Y-106000000D01*
%TD*%
D28*
%TO.N,GND*%
G36*
X170246191Y-60707455D02*
G01*
X170160624Y-60903767D01*
X170115000Y-61113000D01*
X170115000Y-61513000D01*
X171073000Y-61513000D01*
X171073000Y-61493000D01*
X171327000Y-61493000D01*
X171327000Y-61513000D01*
X172285000Y-61513000D01*
X172285000Y-61113000D01*
X172239376Y-60903767D01*
X172153809Y-60707455D01*
X172120825Y-60660000D01*
X178929175Y-60660000D01*
X178896191Y-60707455D01*
X178810624Y-60903767D01*
X178765000Y-61113000D01*
X178765000Y-61513000D01*
X179723000Y-61513000D01*
X179723000Y-61493000D01*
X179977000Y-61493000D01*
X179977000Y-61513000D01*
X180935000Y-61513000D01*
X180935000Y-61113000D01*
X180889376Y-60903767D01*
X180803809Y-60707455D01*
X180770825Y-60660000D01*
X193873000Y-60660000D01*
X193873000Y-78873000D01*
X185000000Y-78873000D01*
X184975224Y-78875440D01*
X184951399Y-78882667D01*
X184929443Y-78894403D01*
X184910197Y-78910197D01*
X184894403Y-78929443D01*
X184882667Y-78951399D01*
X184875440Y-78975224D01*
X184873000Y-79000000D01*
X184873000Y-89000000D01*
X184875440Y-89024776D01*
X184882667Y-89048601D01*
X184894403Y-89070557D01*
X184910197Y-89089803D01*
X184929443Y-89105597D01*
X184951399Y-89117333D01*
X184975224Y-89124560D01*
X185000000Y-89127000D01*
X193873000Y-89127000D01*
X193873000Y-142373000D01*
X185000000Y-142373000D01*
X184975224Y-142375440D01*
X184951399Y-142382667D01*
X184929443Y-142394403D01*
X184910197Y-142410197D01*
X184894403Y-142429443D01*
X184882667Y-142451399D01*
X184875440Y-142475224D01*
X184873000Y-142500000D01*
X184873000Y-151373000D01*
X105127000Y-151373000D01*
X105127000Y-142500000D01*
X105124560Y-142475224D01*
X105117333Y-142451399D01*
X105105597Y-142429443D01*
X105089803Y-142410197D01*
X105070557Y-142394403D01*
X105048601Y-142382667D01*
X105024776Y-142375440D01*
X105000000Y-142373000D01*
X95660000Y-142373000D01*
X95660000Y-142279872D01*
X109765000Y-142279872D01*
X109765000Y-142720128D01*
X109850890Y-143151925D01*
X110019369Y-143558669D01*
X110263962Y-143924729D01*
X110575271Y-144236038D01*
X110941331Y-144480631D01*
X111348075Y-144649110D01*
X111779872Y-144735000D01*
X112220128Y-144735000D01*
X112651925Y-144649110D01*
X113058669Y-144480631D01*
X113424729Y-144236038D01*
X113736038Y-143924729D01*
X113980631Y-143558669D01*
X114149110Y-143151925D01*
X114223116Y-142779872D01*
X155765000Y-142779872D01*
X155765000Y-143220128D01*
X155850890Y-143651925D01*
X156019369Y-144058669D01*
X156263962Y-144424729D01*
X156575271Y-144736038D01*
X156941331Y-144980631D01*
X157348075Y-145149110D01*
X157779872Y-145235000D01*
X158220128Y-145235000D01*
X158651925Y-145149110D01*
X159058669Y-144980631D01*
X159424729Y-144736038D01*
X159736038Y-144424729D01*
X159980631Y-144058669D01*
X160149110Y-143651925D01*
X160235000Y-143220128D01*
X160235000Y-142779872D01*
X160149110Y-142348075D01*
X159980631Y-141941331D01*
X159736038Y-141575271D01*
X159424729Y-141263962D01*
X159058669Y-141019369D01*
X158651925Y-140850890D01*
X158220128Y-140765000D01*
X157779872Y-140765000D01*
X157348075Y-140850890D01*
X156941331Y-141019369D01*
X156575271Y-141263962D01*
X156263962Y-141575271D01*
X156019369Y-141941331D01*
X155850890Y-142348075D01*
X155765000Y-142779872D01*
X114223116Y-142779872D01*
X114235000Y-142720128D01*
X114235000Y-142279872D01*
X114149110Y-141848075D01*
X113980631Y-141441331D01*
X113736038Y-141075271D01*
X113424729Y-140763962D01*
X113058669Y-140519369D01*
X112651925Y-140350890D01*
X112220128Y-140265000D01*
X111779872Y-140265000D01*
X111348075Y-140350890D01*
X110941331Y-140519369D01*
X110575271Y-140763962D01*
X110263962Y-141075271D01*
X110019369Y-141441331D01*
X109850890Y-141848075D01*
X109765000Y-142279872D01*
X95660000Y-142279872D01*
X95660000Y-128600000D01*
X106961928Y-128600000D01*
X106961928Y-130400000D01*
X106974188Y-130524482D01*
X107010498Y-130644180D01*
X107069463Y-130754494D01*
X107148815Y-130851185D01*
X107245506Y-130930537D01*
X107355820Y-130989502D01*
X107475518Y-131025812D01*
X107600000Y-131038072D01*
X109400000Y-131038072D01*
X109524482Y-131025812D01*
X109644180Y-130989502D01*
X109754494Y-130930537D01*
X109851185Y-130851185D01*
X109930537Y-130754494D01*
X109989502Y-130644180D01*
X109995056Y-130625873D01*
X110061495Y-130692312D01*
X110312905Y-130860299D01*
X110592257Y-130976011D01*
X110888816Y-131035000D01*
X111191184Y-131035000D01*
X111487743Y-130976011D01*
X111767095Y-130860299D01*
X112018505Y-130692312D01*
X112232312Y-130478505D01*
X112400299Y-130227095D01*
X112516011Y-129947743D01*
X112575000Y-129651184D01*
X112575000Y-129348816D01*
X112516011Y-129052257D01*
X112400299Y-128772905D01*
X112284768Y-128600000D01*
X132961928Y-128600000D01*
X132961928Y-130400000D01*
X132974188Y-130524482D01*
X133010498Y-130644180D01*
X133069463Y-130754494D01*
X133148815Y-130851185D01*
X133245506Y-130930537D01*
X133355820Y-130989502D01*
X133475518Y-131025812D01*
X133600000Y-131038072D01*
X135400000Y-131038072D01*
X135524482Y-131025812D01*
X135644180Y-130989502D01*
X135754494Y-130930537D01*
X135851185Y-130851185D01*
X135930537Y-130754494D01*
X135989502Y-130644180D01*
X135995056Y-130625873D01*
X136061495Y-130692312D01*
X136312905Y-130860299D01*
X136592257Y-130976011D01*
X136888816Y-131035000D01*
X137191184Y-131035000D01*
X137487743Y-130976011D01*
X137767095Y-130860299D01*
X138018505Y-130692312D01*
X138232312Y-130478505D01*
X138400299Y-130227095D01*
X138516011Y-129947743D01*
X138575000Y-129651184D01*
X138575000Y-129348816D01*
X138516011Y-129052257D01*
X138400299Y-128772905D01*
X138284768Y-128600000D01*
X158461928Y-128600000D01*
X158461928Y-130400000D01*
X158474188Y-130524482D01*
X158510498Y-130644180D01*
X158569463Y-130754494D01*
X158648815Y-130851185D01*
X158745506Y-130930537D01*
X158855820Y-130989502D01*
X158975518Y-131025812D01*
X159100000Y-131038072D01*
X160900000Y-131038072D01*
X161024482Y-131025812D01*
X161144180Y-130989502D01*
X161254494Y-130930537D01*
X161351185Y-130851185D01*
X161430537Y-130754494D01*
X161489502Y-130644180D01*
X161495056Y-130625873D01*
X161561495Y-130692312D01*
X161812905Y-130860299D01*
X162092257Y-130976011D01*
X162388816Y-131035000D01*
X162691184Y-131035000D01*
X162987743Y-130976011D01*
X163267095Y-130860299D01*
X163518505Y-130692312D01*
X163732312Y-130478505D01*
X163900299Y-130227095D01*
X164016011Y-129947743D01*
X164075000Y-129651184D01*
X164075000Y-129358665D01*
X173485000Y-129358665D01*
X173485000Y-129641335D01*
X173540147Y-129918574D01*
X173648320Y-130179727D01*
X173805363Y-130414759D01*
X174005241Y-130614637D01*
X174240273Y-130771680D01*
X174501426Y-130879853D01*
X174778665Y-130935000D01*
X175061335Y-130935000D01*
X175338574Y-130879853D01*
X175599727Y-130771680D01*
X175834759Y-130614637D01*
X176034637Y-130414759D01*
X176191680Y-130179727D01*
X176299853Y-129918574D01*
X176355000Y-129641335D01*
X176355000Y-129358665D01*
X176299853Y-129081426D01*
X176191680Y-128820273D01*
X176034637Y-128585241D01*
X175834759Y-128385363D01*
X175599727Y-128228320D01*
X175338574Y-128120147D01*
X175061335Y-128065000D01*
X174778665Y-128065000D01*
X174501426Y-128120147D01*
X174240273Y-128228320D01*
X174005241Y-128385363D01*
X173805363Y-128585241D01*
X173648320Y-128820273D01*
X173540147Y-129081426D01*
X173485000Y-129358665D01*
X164075000Y-129358665D01*
X164075000Y-129348816D01*
X164016011Y-129052257D01*
X163900299Y-128772905D01*
X163732312Y-128521495D01*
X163518505Y-128307688D01*
X163267095Y-128139701D01*
X162987743Y-128023989D01*
X162691184Y-127965000D01*
X162388816Y-127965000D01*
X162092257Y-128023989D01*
X161812905Y-128139701D01*
X161561495Y-128307688D01*
X161495056Y-128374127D01*
X161489502Y-128355820D01*
X161430537Y-128245506D01*
X161351185Y-128148815D01*
X161254494Y-128069463D01*
X161144180Y-128010498D01*
X161024482Y-127974188D01*
X160900000Y-127961928D01*
X159100000Y-127961928D01*
X158975518Y-127974188D01*
X158855820Y-128010498D01*
X158745506Y-128069463D01*
X158648815Y-128148815D01*
X158569463Y-128245506D01*
X158510498Y-128355820D01*
X158474188Y-128475518D01*
X158461928Y-128600000D01*
X138284768Y-128600000D01*
X138232312Y-128521495D01*
X138018505Y-128307688D01*
X137767095Y-128139701D01*
X137487743Y-128023989D01*
X137191184Y-127965000D01*
X136888816Y-127965000D01*
X136592257Y-128023989D01*
X136312905Y-128139701D01*
X136061495Y-128307688D01*
X135995056Y-128374127D01*
X135989502Y-128355820D01*
X135930537Y-128245506D01*
X135851185Y-128148815D01*
X135754494Y-128069463D01*
X135644180Y-128010498D01*
X135524482Y-127974188D01*
X135400000Y-127961928D01*
X133600000Y-127961928D01*
X133475518Y-127974188D01*
X133355820Y-128010498D01*
X133245506Y-128069463D01*
X133148815Y-128148815D01*
X133069463Y-128245506D01*
X133010498Y-128355820D01*
X132974188Y-128475518D01*
X132961928Y-128600000D01*
X112284768Y-128600000D01*
X112232312Y-128521495D01*
X112018505Y-128307688D01*
X111767095Y-128139701D01*
X111487743Y-128023989D01*
X111191184Y-127965000D01*
X110888816Y-127965000D01*
X110592257Y-128023989D01*
X110312905Y-128139701D01*
X110061495Y-128307688D01*
X109995056Y-128374127D01*
X109989502Y-128355820D01*
X109930537Y-128245506D01*
X109851185Y-128148815D01*
X109754494Y-128069463D01*
X109644180Y-128010498D01*
X109524482Y-127974188D01*
X109400000Y-127961928D01*
X107600000Y-127961928D01*
X107475518Y-127974188D01*
X107355820Y-128010498D01*
X107245506Y-128069463D01*
X107148815Y-128148815D01*
X107069463Y-128245506D01*
X107010498Y-128355820D01*
X106974188Y-128475518D01*
X106961928Y-128600000D01*
X95660000Y-128600000D01*
X95660000Y-112600000D01*
X106961928Y-112600000D01*
X106961928Y-114400000D01*
X106974188Y-114524482D01*
X107010498Y-114644180D01*
X107069463Y-114754494D01*
X107148815Y-114851185D01*
X107245506Y-114930537D01*
X107355820Y-114989502D01*
X107475518Y-115025812D01*
X107600000Y-115038072D01*
X109400000Y-115038072D01*
X109524482Y-115025812D01*
X109644180Y-114989502D01*
X109754494Y-114930537D01*
X109851185Y-114851185D01*
X109930537Y-114754494D01*
X109989502Y-114644180D01*
X109995056Y-114625873D01*
X110061495Y-114692312D01*
X110312905Y-114860299D01*
X110592257Y-114976011D01*
X110888816Y-115035000D01*
X111191184Y-115035000D01*
X111487743Y-114976011D01*
X111767095Y-114860299D01*
X112018505Y-114692312D01*
X112232312Y-114478505D01*
X112400299Y-114227095D01*
X112516011Y-113947743D01*
X112575000Y-113651184D01*
X112575000Y-113348816D01*
X112516011Y-113052257D01*
X112400299Y-112772905D01*
X112284768Y-112600000D01*
X132961928Y-112600000D01*
X132961928Y-114400000D01*
X132974188Y-114524482D01*
X133010498Y-114644180D01*
X133069463Y-114754494D01*
X133148815Y-114851185D01*
X133245506Y-114930537D01*
X133355820Y-114989502D01*
X133475518Y-115025812D01*
X133600000Y-115038072D01*
X135400000Y-115038072D01*
X135524482Y-115025812D01*
X135644180Y-114989502D01*
X135754494Y-114930537D01*
X135851185Y-114851185D01*
X135930537Y-114754494D01*
X135989502Y-114644180D01*
X135995056Y-114625873D01*
X136061495Y-114692312D01*
X136312905Y-114860299D01*
X136592257Y-114976011D01*
X136888816Y-115035000D01*
X137191184Y-115035000D01*
X137487743Y-114976011D01*
X137767095Y-114860299D01*
X138018505Y-114692312D01*
X138232312Y-114478505D01*
X138400299Y-114227095D01*
X138516011Y-113947743D01*
X138575000Y-113651184D01*
X138575000Y-113348816D01*
X138516011Y-113052257D01*
X138400299Y-112772905D01*
X138284768Y-112600000D01*
X158461928Y-112600000D01*
X158461928Y-114400000D01*
X158474188Y-114524482D01*
X158510498Y-114644180D01*
X158569463Y-114754494D01*
X158648815Y-114851185D01*
X158745506Y-114930537D01*
X158855820Y-114989502D01*
X158975518Y-115025812D01*
X159100000Y-115038072D01*
X160900000Y-115038072D01*
X161024482Y-115025812D01*
X161144180Y-114989502D01*
X161254494Y-114930537D01*
X161351185Y-114851185D01*
X161430537Y-114754494D01*
X161489502Y-114644180D01*
X161495056Y-114625873D01*
X161561495Y-114692312D01*
X161812905Y-114860299D01*
X162092257Y-114976011D01*
X162388816Y-115035000D01*
X162691184Y-115035000D01*
X162987743Y-114976011D01*
X163267095Y-114860299D01*
X163518505Y-114692312D01*
X163732312Y-114478505D01*
X163900299Y-114227095D01*
X164016011Y-113947743D01*
X164075000Y-113651184D01*
X164075000Y-113358665D01*
X173485000Y-113358665D01*
X173485000Y-113641335D01*
X173540147Y-113918574D01*
X173648320Y-114179727D01*
X173805363Y-114414759D01*
X174005241Y-114614637D01*
X174240273Y-114771680D01*
X174501426Y-114879853D01*
X174778665Y-114935000D01*
X175061335Y-114935000D01*
X175338574Y-114879853D01*
X175599727Y-114771680D01*
X175834759Y-114614637D01*
X176034637Y-114414759D01*
X176191680Y-114179727D01*
X176299853Y-113918574D01*
X176355000Y-113641335D01*
X176355000Y-113358665D01*
X176299853Y-113081426D01*
X176191680Y-112820273D01*
X176034637Y-112585241D01*
X175834759Y-112385363D01*
X175599727Y-112228320D01*
X175338574Y-112120147D01*
X175061335Y-112065000D01*
X174778665Y-112065000D01*
X174501426Y-112120147D01*
X174240273Y-112228320D01*
X174005241Y-112385363D01*
X173805363Y-112585241D01*
X173648320Y-112820273D01*
X173540147Y-113081426D01*
X173485000Y-113358665D01*
X164075000Y-113358665D01*
X164075000Y-113348816D01*
X164016011Y-113052257D01*
X163900299Y-112772905D01*
X163732312Y-112521495D01*
X163518505Y-112307688D01*
X163267095Y-112139701D01*
X162987743Y-112023989D01*
X162691184Y-111965000D01*
X162388816Y-111965000D01*
X162092257Y-112023989D01*
X161812905Y-112139701D01*
X161561495Y-112307688D01*
X161495056Y-112374127D01*
X161489502Y-112355820D01*
X161430537Y-112245506D01*
X161351185Y-112148815D01*
X161254494Y-112069463D01*
X161144180Y-112010498D01*
X161024482Y-111974188D01*
X160900000Y-111961928D01*
X159100000Y-111961928D01*
X158975518Y-111974188D01*
X158855820Y-112010498D01*
X158745506Y-112069463D01*
X158648815Y-112148815D01*
X158569463Y-112245506D01*
X158510498Y-112355820D01*
X158474188Y-112475518D01*
X158461928Y-112600000D01*
X138284768Y-112600000D01*
X138232312Y-112521495D01*
X138018505Y-112307688D01*
X137767095Y-112139701D01*
X137487743Y-112023989D01*
X137191184Y-111965000D01*
X136888816Y-111965000D01*
X136592257Y-112023989D01*
X136312905Y-112139701D01*
X136061495Y-112307688D01*
X135995056Y-112374127D01*
X135989502Y-112355820D01*
X135930537Y-112245506D01*
X135851185Y-112148815D01*
X135754494Y-112069463D01*
X135644180Y-112010498D01*
X135524482Y-111974188D01*
X135400000Y-111961928D01*
X133600000Y-111961928D01*
X133475518Y-111974188D01*
X133355820Y-112010498D01*
X133245506Y-112069463D01*
X133148815Y-112148815D01*
X133069463Y-112245506D01*
X133010498Y-112355820D01*
X132974188Y-112475518D01*
X132961928Y-112600000D01*
X112284768Y-112600000D01*
X112232312Y-112521495D01*
X112018505Y-112307688D01*
X111767095Y-112139701D01*
X111487743Y-112023989D01*
X111191184Y-111965000D01*
X110888816Y-111965000D01*
X110592257Y-112023989D01*
X110312905Y-112139701D01*
X110061495Y-112307688D01*
X109995056Y-112374127D01*
X109989502Y-112355820D01*
X109930537Y-112245506D01*
X109851185Y-112148815D01*
X109754494Y-112069463D01*
X109644180Y-112010498D01*
X109524482Y-111974188D01*
X109400000Y-111961928D01*
X107600000Y-111961928D01*
X107475518Y-111974188D01*
X107355820Y-112010498D01*
X107245506Y-112069463D01*
X107148815Y-112148815D01*
X107069463Y-112245506D01*
X107010498Y-112355820D01*
X106974188Y-112475518D01*
X106961928Y-112600000D01*
X95660000Y-112600000D01*
X95660000Y-97100000D01*
X106961928Y-97100000D01*
X106961928Y-98900000D01*
X106974188Y-99024482D01*
X107010498Y-99144180D01*
X107069463Y-99254494D01*
X107148815Y-99351185D01*
X107245506Y-99430537D01*
X107355820Y-99489502D01*
X107475518Y-99525812D01*
X107600000Y-99538072D01*
X109400000Y-99538072D01*
X109524482Y-99525812D01*
X109644180Y-99489502D01*
X109754494Y-99430537D01*
X109851185Y-99351185D01*
X109930537Y-99254494D01*
X109989502Y-99144180D01*
X109995056Y-99125873D01*
X110061495Y-99192312D01*
X110312905Y-99360299D01*
X110592257Y-99476011D01*
X110888816Y-99535000D01*
X111191184Y-99535000D01*
X111487743Y-99476011D01*
X111767095Y-99360299D01*
X112018505Y-99192312D01*
X112232312Y-98978505D01*
X112400299Y-98727095D01*
X112516011Y-98447743D01*
X112575000Y-98151184D01*
X112575000Y-97848816D01*
X112516011Y-97552257D01*
X112400299Y-97272905D01*
X112284768Y-97100000D01*
X132961928Y-97100000D01*
X132961928Y-98900000D01*
X132974188Y-99024482D01*
X133010498Y-99144180D01*
X133069463Y-99254494D01*
X133148815Y-99351185D01*
X133245506Y-99430537D01*
X133355820Y-99489502D01*
X133475518Y-99525812D01*
X133600000Y-99538072D01*
X135400000Y-99538072D01*
X135524482Y-99525812D01*
X135644180Y-99489502D01*
X135754494Y-99430537D01*
X135851185Y-99351185D01*
X135930537Y-99254494D01*
X135989502Y-99144180D01*
X135995056Y-99125873D01*
X136061495Y-99192312D01*
X136312905Y-99360299D01*
X136592257Y-99476011D01*
X136888816Y-99535000D01*
X137191184Y-99535000D01*
X137487743Y-99476011D01*
X137767095Y-99360299D01*
X138018505Y-99192312D01*
X138232312Y-98978505D01*
X138400299Y-98727095D01*
X138516011Y-98447743D01*
X138575000Y-98151184D01*
X138575000Y-97848816D01*
X138516011Y-97552257D01*
X138400299Y-97272905D01*
X138284768Y-97100000D01*
X158461928Y-97100000D01*
X158461928Y-98900000D01*
X158474188Y-99024482D01*
X158510498Y-99144180D01*
X158569463Y-99254494D01*
X158648815Y-99351185D01*
X158745506Y-99430537D01*
X158855820Y-99489502D01*
X158975518Y-99525812D01*
X159100000Y-99538072D01*
X160900000Y-99538072D01*
X161024482Y-99525812D01*
X161144180Y-99489502D01*
X161254494Y-99430537D01*
X161351185Y-99351185D01*
X161430537Y-99254494D01*
X161489502Y-99144180D01*
X161495056Y-99125873D01*
X161561495Y-99192312D01*
X161812905Y-99360299D01*
X162092257Y-99476011D01*
X162388816Y-99535000D01*
X162691184Y-99535000D01*
X162987743Y-99476011D01*
X163267095Y-99360299D01*
X163518505Y-99192312D01*
X163732312Y-98978505D01*
X163900299Y-98727095D01*
X164016011Y-98447743D01*
X164075000Y-98151184D01*
X164075000Y-97858665D01*
X173485000Y-97858665D01*
X173485000Y-98141335D01*
X173540147Y-98418574D01*
X173648320Y-98679727D01*
X173805363Y-98914759D01*
X174005241Y-99114637D01*
X174240273Y-99271680D01*
X174501426Y-99379853D01*
X174778665Y-99435000D01*
X175061335Y-99435000D01*
X175338574Y-99379853D01*
X175599727Y-99271680D01*
X175834759Y-99114637D01*
X176034637Y-98914759D01*
X176191680Y-98679727D01*
X176299853Y-98418574D01*
X176355000Y-98141335D01*
X176355000Y-97858665D01*
X176299853Y-97581426D01*
X176191680Y-97320273D01*
X176034637Y-97085241D01*
X175834759Y-96885363D01*
X175599727Y-96728320D01*
X175338574Y-96620147D01*
X175061335Y-96565000D01*
X174778665Y-96565000D01*
X174501426Y-96620147D01*
X174240273Y-96728320D01*
X174005241Y-96885363D01*
X173805363Y-97085241D01*
X173648320Y-97320273D01*
X173540147Y-97581426D01*
X173485000Y-97858665D01*
X164075000Y-97858665D01*
X164075000Y-97848816D01*
X164016011Y-97552257D01*
X163900299Y-97272905D01*
X163732312Y-97021495D01*
X163518505Y-96807688D01*
X163267095Y-96639701D01*
X162987743Y-96523989D01*
X162691184Y-96465000D01*
X162388816Y-96465000D01*
X162092257Y-96523989D01*
X161812905Y-96639701D01*
X161561495Y-96807688D01*
X161495056Y-96874127D01*
X161489502Y-96855820D01*
X161430537Y-96745506D01*
X161351185Y-96648815D01*
X161254494Y-96569463D01*
X161144180Y-96510498D01*
X161024482Y-96474188D01*
X160900000Y-96461928D01*
X159100000Y-96461928D01*
X158975518Y-96474188D01*
X158855820Y-96510498D01*
X158745506Y-96569463D01*
X158648815Y-96648815D01*
X158569463Y-96745506D01*
X158510498Y-96855820D01*
X158474188Y-96975518D01*
X158461928Y-97100000D01*
X138284768Y-97100000D01*
X138232312Y-97021495D01*
X138018505Y-96807688D01*
X137767095Y-96639701D01*
X137487743Y-96523989D01*
X137191184Y-96465000D01*
X136888816Y-96465000D01*
X136592257Y-96523989D01*
X136312905Y-96639701D01*
X136061495Y-96807688D01*
X135995056Y-96874127D01*
X135989502Y-96855820D01*
X135930537Y-96745506D01*
X135851185Y-96648815D01*
X135754494Y-96569463D01*
X135644180Y-96510498D01*
X135524482Y-96474188D01*
X135400000Y-96461928D01*
X133600000Y-96461928D01*
X133475518Y-96474188D01*
X133355820Y-96510498D01*
X133245506Y-96569463D01*
X133148815Y-96648815D01*
X133069463Y-96745506D01*
X133010498Y-96855820D01*
X132974188Y-96975518D01*
X132961928Y-97100000D01*
X112284768Y-97100000D01*
X112232312Y-97021495D01*
X112018505Y-96807688D01*
X111767095Y-96639701D01*
X111487743Y-96523989D01*
X111191184Y-96465000D01*
X110888816Y-96465000D01*
X110592257Y-96523989D01*
X110312905Y-96639701D01*
X110061495Y-96807688D01*
X109995056Y-96874127D01*
X109989502Y-96855820D01*
X109930537Y-96745506D01*
X109851185Y-96648815D01*
X109754494Y-96569463D01*
X109644180Y-96510498D01*
X109524482Y-96474188D01*
X109400000Y-96461928D01*
X107600000Y-96461928D01*
X107475518Y-96474188D01*
X107355820Y-96510498D01*
X107245506Y-96569463D01*
X107148815Y-96648815D01*
X107069463Y-96745506D01*
X107010498Y-96855820D01*
X106974188Y-96975518D01*
X106961928Y-97100000D01*
X95660000Y-97100000D01*
X95660000Y-83779872D01*
X110265000Y-83779872D01*
X110265000Y-84220128D01*
X110350890Y-84651925D01*
X110519369Y-85058669D01*
X110763962Y-85424729D01*
X111075271Y-85736038D01*
X111441331Y-85980631D01*
X111848075Y-86149110D01*
X112279872Y-86235000D01*
X112720128Y-86235000D01*
X113151925Y-86149110D01*
X113558669Y-85980631D01*
X113924729Y-85736038D01*
X114236038Y-85424729D01*
X114332828Y-85279872D01*
X158265000Y-85279872D01*
X158265000Y-85720128D01*
X158350890Y-86151925D01*
X158519369Y-86558669D01*
X158763962Y-86924729D01*
X159075271Y-87236038D01*
X159441331Y-87480631D01*
X159848075Y-87649110D01*
X160279872Y-87735000D01*
X160720128Y-87735000D01*
X161151925Y-87649110D01*
X161558669Y-87480631D01*
X161924729Y-87236038D01*
X162236038Y-86924729D01*
X162480631Y-86558669D01*
X162649110Y-86151925D01*
X162735000Y-85720128D01*
X162735000Y-85279872D01*
X162649110Y-84848075D01*
X162480631Y-84441331D01*
X162236038Y-84075271D01*
X161924729Y-83763962D01*
X161558669Y-83519369D01*
X161151925Y-83350890D01*
X160720128Y-83265000D01*
X160279872Y-83265000D01*
X159848075Y-83350890D01*
X159441331Y-83519369D01*
X159075271Y-83763962D01*
X158763962Y-84075271D01*
X158519369Y-84441331D01*
X158350890Y-84848075D01*
X158265000Y-85279872D01*
X114332828Y-85279872D01*
X114480631Y-85058669D01*
X114649110Y-84651925D01*
X114735000Y-84220128D01*
X114735000Y-83779872D01*
X114649110Y-83348075D01*
X114480631Y-82941331D01*
X114236038Y-82575271D01*
X113924729Y-82263962D01*
X113558669Y-82019369D01*
X113151925Y-81850890D01*
X112720128Y-81765000D01*
X112279872Y-81765000D01*
X111848075Y-81850890D01*
X111441331Y-82019369D01*
X111075271Y-82263962D01*
X110763962Y-82575271D01*
X110519369Y-82941331D01*
X110350890Y-83348075D01*
X110265000Y-83779872D01*
X95660000Y-83779872D01*
X95660000Y-70127000D01*
X105000000Y-70127000D01*
X105024776Y-70124560D01*
X105048601Y-70117333D01*
X105070557Y-70105597D01*
X105089803Y-70089803D01*
X105105597Y-70070557D01*
X105117333Y-70048601D01*
X105124560Y-70024776D01*
X105127000Y-70000000D01*
X105127000Y-66900000D01*
X106961928Y-66900000D01*
X106974188Y-67024482D01*
X107010498Y-67144180D01*
X107069463Y-67254494D01*
X107148815Y-67351185D01*
X107245506Y-67430537D01*
X107355820Y-67489502D01*
X107374127Y-67495056D01*
X107307688Y-67561495D01*
X107139701Y-67812905D01*
X107023989Y-68092257D01*
X106965000Y-68388816D01*
X106965000Y-68691184D01*
X107023989Y-68987743D01*
X107139701Y-69267095D01*
X107307688Y-69518505D01*
X107521495Y-69732312D01*
X107637763Y-69810000D01*
X107521495Y-69887688D01*
X107307688Y-70101495D01*
X107139701Y-70352905D01*
X107023989Y-70632257D01*
X106965000Y-70928816D01*
X106965000Y-71231184D01*
X107023989Y-71527743D01*
X107139701Y-71807095D01*
X107307688Y-72058505D01*
X107521495Y-72272312D01*
X107772905Y-72440299D01*
X108052257Y-72556011D01*
X108348816Y-72615000D01*
X108651184Y-72615000D01*
X108947743Y-72556011D01*
X109227095Y-72440299D01*
X109478505Y-72272312D01*
X109692312Y-72058505D01*
X109860299Y-71807095D01*
X109976011Y-71527743D01*
X110035000Y-71231184D01*
X110035000Y-70928816D01*
X109976011Y-70632257D01*
X109862685Y-70358665D01*
X114065000Y-70358665D01*
X114065000Y-70641335D01*
X114120147Y-70918574D01*
X114228320Y-71179727D01*
X114385363Y-71414759D01*
X114585241Y-71614637D01*
X114820273Y-71771680D01*
X115081426Y-71879853D01*
X115358665Y-71935000D01*
X115641335Y-71935000D01*
X115918574Y-71879853D01*
X116179727Y-71771680D01*
X116414759Y-71614637D01*
X116614637Y-71414759D01*
X116771680Y-71179727D01*
X116879853Y-70918574D01*
X116935000Y-70641335D01*
X116935000Y-70358665D01*
X116893494Y-70150000D01*
X122011928Y-70150000D01*
X122011928Y-71850000D01*
X122024188Y-71974482D01*
X122060498Y-72094180D01*
X122119463Y-72204494D01*
X122198815Y-72301185D01*
X122295506Y-72380537D01*
X122405820Y-72439502D01*
X122525518Y-72475812D01*
X122650000Y-72488072D01*
X124350000Y-72488072D01*
X124474482Y-72475812D01*
X124594180Y-72439502D01*
X124704494Y-72380537D01*
X124801185Y-72301185D01*
X124880537Y-72204494D01*
X124939502Y-72094180D01*
X124975812Y-71974482D01*
X124988072Y-71850000D01*
X124988072Y-70150000D01*
X124975812Y-70025518D01*
X124939502Y-69905820D01*
X124934729Y-69896890D01*
X130558524Y-69896890D01*
X130603175Y-70044099D01*
X130728359Y-70306920D01*
X130902412Y-70540269D01*
X131118645Y-70735178D01*
X131368748Y-70884157D01*
X131643109Y-70981481D01*
X131873000Y-70860814D01*
X131873000Y-69667000D01*
X132127000Y-69667000D01*
X132127000Y-70860814D01*
X132356891Y-70981481D01*
X132631252Y-70884157D01*
X132881355Y-70735178D01*
X133097588Y-70540269D01*
X133271641Y-70306920D01*
X133396825Y-70044099D01*
X133441476Y-69896890D01*
X133320155Y-69667000D01*
X132127000Y-69667000D01*
X131873000Y-69667000D01*
X130679845Y-69667000D01*
X130558524Y-69896890D01*
X124934729Y-69896890D01*
X124880537Y-69795506D01*
X124801185Y-69698815D01*
X124704494Y-69619463D01*
X124594180Y-69560498D01*
X124521620Y-69538487D01*
X124653475Y-69406632D01*
X124815990Y-69163411D01*
X124927932Y-68893158D01*
X124985000Y-68606260D01*
X124985000Y-68313740D01*
X124927932Y-68026842D01*
X124815990Y-67756589D01*
X124653475Y-67513368D01*
X124446632Y-67306525D01*
X124272240Y-67190000D01*
X124446632Y-67073475D01*
X124653475Y-66866632D01*
X124815990Y-66623411D01*
X124927932Y-66353158D01*
X124968342Y-66150000D01*
X130511928Y-66150000D01*
X130511928Y-67850000D01*
X130524188Y-67974482D01*
X130560498Y-68094180D01*
X130619463Y-68204494D01*
X130698815Y-68301185D01*
X130795506Y-68380537D01*
X130905820Y-68439502D01*
X130986466Y-68463966D01*
X130902412Y-68539731D01*
X130728359Y-68773080D01*
X130603175Y-69035901D01*
X130558524Y-69183110D01*
X130679845Y-69413000D01*
X131873000Y-69413000D01*
X131873000Y-69393000D01*
X132127000Y-69393000D01*
X132127000Y-69413000D01*
X133320155Y-69413000D01*
X133441476Y-69183110D01*
X133396825Y-69035901D01*
X133271641Y-68773080D01*
X133097588Y-68539731D01*
X133013534Y-68463966D01*
X133094180Y-68439502D01*
X133204494Y-68380537D01*
X133301185Y-68301185D01*
X133380537Y-68204494D01*
X133439502Y-68094180D01*
X133475812Y-67974482D01*
X133488072Y-67850000D01*
X133488072Y-66150000D01*
X133475812Y-66025518D01*
X133439502Y-65905820D01*
X133380537Y-65795506D01*
X133301185Y-65698815D01*
X133204494Y-65619463D01*
X133094180Y-65560498D01*
X132974482Y-65524188D01*
X132850000Y-65511928D01*
X131150000Y-65511928D01*
X131025518Y-65524188D01*
X130905820Y-65560498D01*
X130795506Y-65619463D01*
X130698815Y-65698815D01*
X130619463Y-65795506D01*
X130560498Y-65905820D01*
X130524188Y-66025518D01*
X130511928Y-66150000D01*
X124968342Y-66150000D01*
X124985000Y-66066260D01*
X124985000Y-65773740D01*
X124927932Y-65486842D01*
X124878104Y-65366544D01*
X141145000Y-65366544D01*
X141145000Y-65633456D01*
X141197072Y-65895239D01*
X141299215Y-66141833D01*
X141447503Y-66363762D01*
X141636238Y-66552497D01*
X141858167Y-66700785D01*
X142104761Y-66802928D01*
X142366544Y-66855000D01*
X142633456Y-66855000D01*
X142895239Y-66802928D01*
X143141833Y-66700785D01*
X143363762Y-66552497D01*
X143480699Y-66435560D01*
X146824045Y-66435560D01*
X146885932Y-66671368D01*
X147127790Y-66784266D01*
X147387027Y-66847811D01*
X147653680Y-66859561D01*
X147917501Y-66819063D01*
X148168353Y-66727875D01*
X148274068Y-66671368D01*
X148335955Y-66435560D01*
X147580000Y-65679605D01*
X146824045Y-66435560D01*
X143480699Y-66435560D01*
X143552497Y-66363762D01*
X143700785Y-66141833D01*
X143802928Y-65895239D01*
X143855000Y-65633456D01*
X143855000Y-65573680D01*
X146220439Y-65573680D01*
X146260937Y-65837501D01*
X146352125Y-66088353D01*
X146408632Y-66194068D01*
X146644440Y-66255955D01*
X147400395Y-65500000D01*
X147759605Y-65500000D01*
X148515560Y-66255955D01*
X148751368Y-66194068D01*
X148864266Y-65952210D01*
X148927811Y-65692973D01*
X148939561Y-65426320D01*
X148899063Y-65162499D01*
X148807875Y-64911647D01*
X148751368Y-64805932D01*
X148515560Y-64744045D01*
X147759605Y-65500000D01*
X147400395Y-65500000D01*
X146644440Y-64744045D01*
X146408632Y-64805932D01*
X146295734Y-65047790D01*
X146232189Y-65307027D01*
X146220439Y-65573680D01*
X143855000Y-65573680D01*
X143855000Y-65366544D01*
X143802928Y-65104761D01*
X143700785Y-64858167D01*
X143552497Y-64636238D01*
X143480699Y-64564440D01*
X146824045Y-64564440D01*
X147580000Y-65320395D01*
X148335955Y-64564440D01*
X148274068Y-64328632D01*
X148032210Y-64215734D01*
X147772973Y-64152189D01*
X147506320Y-64140439D01*
X147242499Y-64180937D01*
X146991647Y-64272125D01*
X146885932Y-64328632D01*
X146824045Y-64564440D01*
X143480699Y-64564440D01*
X143363762Y-64447503D01*
X143141833Y-64299215D01*
X142895239Y-64197072D01*
X142633456Y-64145000D01*
X142366544Y-64145000D01*
X142104761Y-64197072D01*
X141858167Y-64299215D01*
X141636238Y-64447503D01*
X141447503Y-64636238D01*
X141299215Y-64858167D01*
X141197072Y-65104761D01*
X141145000Y-65366544D01*
X124878104Y-65366544D01*
X124815990Y-65216589D01*
X124653475Y-64973368D01*
X124446632Y-64766525D01*
X124203411Y-64604010D01*
X123933158Y-64492068D01*
X123646260Y-64435000D01*
X123353740Y-64435000D01*
X123066842Y-64492068D01*
X122796589Y-64604010D01*
X122553368Y-64766525D01*
X122346525Y-64973368D01*
X122184010Y-65216589D01*
X122072068Y-65486842D01*
X122015000Y-65773740D01*
X122015000Y-66066260D01*
X122072068Y-66353158D01*
X122184010Y-66623411D01*
X122346525Y-66866632D01*
X122553368Y-67073475D01*
X122727760Y-67190000D01*
X122553368Y-67306525D01*
X122346525Y-67513368D01*
X122184010Y-67756589D01*
X122072068Y-68026842D01*
X122015000Y-68313740D01*
X122015000Y-68606260D01*
X122072068Y-68893158D01*
X122184010Y-69163411D01*
X122346525Y-69406632D01*
X122478380Y-69538487D01*
X122405820Y-69560498D01*
X122295506Y-69619463D01*
X122198815Y-69698815D01*
X122119463Y-69795506D01*
X122060498Y-69905820D01*
X122024188Y-70025518D01*
X122011928Y-70150000D01*
X116893494Y-70150000D01*
X116879853Y-70081426D01*
X116771680Y-69820273D01*
X116614637Y-69585241D01*
X116414759Y-69385363D01*
X116179727Y-69228320D01*
X115918574Y-69120147D01*
X115641335Y-69065000D01*
X115358665Y-69065000D01*
X115081426Y-69120147D01*
X114820273Y-69228320D01*
X114585241Y-69385363D01*
X114385363Y-69585241D01*
X114228320Y-69820273D01*
X114120147Y-70081426D01*
X114065000Y-70358665D01*
X109862685Y-70358665D01*
X109860299Y-70352905D01*
X109692312Y-70101495D01*
X109478505Y-69887688D01*
X109362237Y-69810000D01*
X109478505Y-69732312D01*
X109692312Y-69518505D01*
X109860299Y-69267095D01*
X109976011Y-68987743D01*
X110035000Y-68691184D01*
X110035000Y-68388816D01*
X109976011Y-68092257D01*
X109860299Y-67812905D01*
X109692312Y-67561495D01*
X109625873Y-67495056D01*
X109644180Y-67489502D01*
X109754494Y-67430537D01*
X109851185Y-67351185D01*
X109930537Y-67254494D01*
X109989502Y-67144180D01*
X110025812Y-67024482D01*
X110038072Y-66900000D01*
X110035000Y-66285750D01*
X109876250Y-66127000D01*
X108627000Y-66127000D01*
X108627000Y-66147000D01*
X108373000Y-66147000D01*
X108373000Y-66127000D01*
X107123750Y-66127000D01*
X106965000Y-66285750D01*
X106961928Y-66900000D01*
X105127000Y-66900000D01*
X105127000Y-65100000D01*
X106961928Y-65100000D01*
X106965000Y-65714250D01*
X107123750Y-65873000D01*
X108373000Y-65873000D01*
X108373000Y-64623750D01*
X108627000Y-64623750D01*
X108627000Y-65873000D01*
X109876250Y-65873000D01*
X110035000Y-65714250D01*
X110037178Y-65278665D01*
X114065000Y-65278665D01*
X114065000Y-65561335D01*
X114120147Y-65838574D01*
X114228320Y-66099727D01*
X114385363Y-66334759D01*
X114585241Y-66534637D01*
X114820273Y-66691680D01*
X115081426Y-66799853D01*
X115358665Y-66855000D01*
X115641335Y-66855000D01*
X115918574Y-66799853D01*
X116179727Y-66691680D01*
X116414759Y-66534637D01*
X116614637Y-66334759D01*
X116771680Y-66099727D01*
X116879853Y-65838574D01*
X116935000Y-65561335D01*
X116935000Y-65278665D01*
X116879853Y-65001426D01*
X116771680Y-64740273D01*
X116614637Y-64505241D01*
X116414759Y-64305363D01*
X116179727Y-64148320D01*
X115918574Y-64040147D01*
X115641335Y-63985000D01*
X115358665Y-63985000D01*
X115081426Y-64040147D01*
X114820273Y-64148320D01*
X114585241Y-64305363D01*
X114385363Y-64505241D01*
X114228320Y-64740273D01*
X114120147Y-65001426D01*
X114065000Y-65278665D01*
X110037178Y-65278665D01*
X110038072Y-65100000D01*
X110025812Y-64975518D01*
X109989502Y-64855820D01*
X109930537Y-64745506D01*
X109851185Y-64648815D01*
X109754494Y-64569463D01*
X109644180Y-64510498D01*
X109524482Y-64474188D01*
X109400000Y-64461928D01*
X108785750Y-64465000D01*
X108627000Y-64623750D01*
X108373000Y-64623750D01*
X108214250Y-64465000D01*
X107600000Y-64461928D01*
X107475518Y-64474188D01*
X107355820Y-64510498D01*
X107245506Y-64569463D01*
X107148815Y-64648815D01*
X107069463Y-64745506D01*
X107010498Y-64855820D01*
X106974188Y-64975518D01*
X106961928Y-65100000D01*
X105127000Y-65100000D01*
X105127000Y-62826544D01*
X143685000Y-62826544D01*
X143685000Y-63093456D01*
X143737072Y-63355239D01*
X143839215Y-63601833D01*
X143987503Y-63823762D01*
X144176238Y-64012497D01*
X144398167Y-64160785D01*
X144644761Y-64262928D01*
X144906544Y-64315000D01*
X145173456Y-64315000D01*
X145435239Y-64262928D01*
X145681833Y-64160785D01*
X145780287Y-64095000D01*
X149489869Y-64095000D01*
X179158009Y-93763141D01*
X179193551Y-93806449D01*
X179366377Y-93948284D01*
X179563553Y-94053676D01*
X179777501Y-94118577D01*
X179944248Y-94135000D01*
X179944257Y-94135000D01*
X179999999Y-94140490D01*
X180055741Y-94135000D01*
X183529869Y-94135000D01*
X186365000Y-96970132D01*
X186365001Y-105529866D01*
X181135000Y-110759868D01*
X181135000Y-98884284D01*
X181271680Y-98679727D01*
X181379853Y-98418574D01*
X181435000Y-98141335D01*
X181435000Y-97858665D01*
X181379853Y-97581426D01*
X181271680Y-97320273D01*
X181114637Y-97085241D01*
X180914759Y-96885363D01*
X180679727Y-96728320D01*
X180418574Y-96620147D01*
X180141335Y-96565000D01*
X179858665Y-96565000D01*
X179581426Y-96620147D01*
X179320273Y-96728320D01*
X179085241Y-96885363D01*
X178885363Y-97085241D01*
X178728320Y-97320273D01*
X178620147Y-97581426D01*
X178565000Y-97858665D01*
X178565000Y-98141335D01*
X178620147Y-98418574D01*
X178728320Y-98679727D01*
X178865000Y-98884284D01*
X178865001Y-112615715D01*
X178728320Y-112820273D01*
X178620147Y-113081426D01*
X178565000Y-113358665D01*
X178565000Y-113641335D01*
X178620147Y-113918574D01*
X178728320Y-114179727D01*
X178865000Y-114384284D01*
X178865001Y-128615715D01*
X178728320Y-128820273D01*
X178620147Y-129081426D01*
X178565000Y-129358665D01*
X178565000Y-129641335D01*
X178620147Y-129918574D01*
X178728320Y-130179727D01*
X178885363Y-130414759D01*
X179085241Y-130614637D01*
X179320273Y-130771680D01*
X179581426Y-130879853D01*
X179858665Y-130935000D01*
X180141335Y-130935000D01*
X180418574Y-130879853D01*
X180679727Y-130771680D01*
X180914759Y-130614637D01*
X181114637Y-130414759D01*
X181271680Y-130179727D01*
X181379853Y-129918574D01*
X181435000Y-129641335D01*
X181435000Y-129358665D01*
X181379853Y-129081426D01*
X181271680Y-128820273D01*
X181135000Y-128615716D01*
X181135000Y-114384284D01*
X181271680Y-114179727D01*
X181379853Y-113918574D01*
X181427850Y-113677281D01*
X188263146Y-106841987D01*
X188306449Y-106806449D01*
X188448284Y-106633623D01*
X188553676Y-106436447D01*
X188618577Y-106222499D01*
X188635000Y-106055752D01*
X188640491Y-106000000D01*
X188635000Y-105944248D01*
X188635000Y-96555741D01*
X188640490Y-96499999D01*
X188635000Y-96444257D01*
X188635000Y-96444248D01*
X188618577Y-96277501D01*
X188553676Y-96063553D01*
X188448284Y-95866377D01*
X188306449Y-95693551D01*
X188263141Y-95658009D01*
X184841996Y-92236865D01*
X184806449Y-92193551D01*
X184633623Y-92051716D01*
X184436447Y-91946324D01*
X184222499Y-91881423D01*
X184055752Y-91865000D01*
X184055751Y-91865000D01*
X184000000Y-91859509D01*
X183944249Y-91865000D01*
X180470132Y-91865000D01*
X164755132Y-76150000D01*
X173011928Y-76150000D01*
X173011928Y-77850000D01*
X173024188Y-77974482D01*
X173060498Y-78094180D01*
X173119463Y-78204494D01*
X173198815Y-78301185D01*
X173295506Y-78380537D01*
X173405820Y-78439502D01*
X173525518Y-78475812D01*
X173650000Y-78488072D01*
X175350000Y-78488072D01*
X175474482Y-78475812D01*
X175594180Y-78439502D01*
X175704494Y-78380537D01*
X175801185Y-78301185D01*
X175880537Y-78204494D01*
X175939502Y-78094180D01*
X175961513Y-78021620D01*
X176093368Y-78153475D01*
X176336589Y-78315990D01*
X176606842Y-78427932D01*
X176893740Y-78485000D01*
X177186260Y-78485000D01*
X177473158Y-78427932D01*
X177743411Y-78315990D01*
X177986632Y-78153475D01*
X178193475Y-77946632D01*
X178355990Y-77703411D01*
X178467932Y-77433158D01*
X178525000Y-77146260D01*
X178525000Y-76853740D01*
X178467932Y-76566842D01*
X178355990Y-76296589D01*
X178193475Y-76053368D01*
X177986632Y-75846525D01*
X177743411Y-75684010D01*
X177473158Y-75572068D01*
X177186260Y-75515000D01*
X176893740Y-75515000D01*
X176606842Y-75572068D01*
X176336589Y-75684010D01*
X176093368Y-75846525D01*
X175961513Y-75978380D01*
X175939502Y-75905820D01*
X175880537Y-75795506D01*
X175801185Y-75698815D01*
X175704494Y-75619463D01*
X175594180Y-75560498D01*
X175474482Y-75524188D01*
X175350000Y-75511928D01*
X173650000Y-75511928D01*
X173525518Y-75524188D01*
X173405820Y-75560498D01*
X173295506Y-75619463D01*
X173198815Y-75698815D01*
X173119463Y-75795506D01*
X173060498Y-75905820D01*
X173024188Y-76025518D01*
X173011928Y-76150000D01*
X164755132Y-76150000D01*
X155732132Y-67127000D01*
X158375000Y-67127000D01*
X158375000Y-68117000D01*
X158431000Y-68431582D01*
X158547296Y-68729194D01*
X158719419Y-68998399D01*
X158940754Y-69228852D01*
X159202795Y-69411696D01*
X159495472Y-69539905D01*
X159621135Y-69570218D01*
X159873000Y-69450740D01*
X159873000Y-67127000D01*
X160127000Y-67127000D01*
X160127000Y-69450740D01*
X160378865Y-69570218D01*
X160504528Y-69539905D01*
X160797205Y-69411696D01*
X161059246Y-69228852D01*
X161280581Y-68998399D01*
X161452704Y-68729194D01*
X161569000Y-68431582D01*
X161625000Y-68117000D01*
X161625000Y-67127000D01*
X160127000Y-67127000D01*
X159873000Y-67127000D01*
X158375000Y-67127000D01*
X155732132Y-67127000D01*
X154488132Y-65883000D01*
X158375000Y-65883000D01*
X158375000Y-66873000D01*
X159873000Y-66873000D01*
X159873000Y-64549260D01*
X160127000Y-64549260D01*
X160127000Y-66873000D01*
X161625000Y-66873000D01*
X161625000Y-65883000D01*
X161569000Y-65568418D01*
X161452704Y-65270806D01*
X161292345Y-65020000D01*
X163371928Y-65020000D01*
X163371928Y-68980000D01*
X163384188Y-69104482D01*
X163420498Y-69224180D01*
X163479463Y-69334494D01*
X163558815Y-69431185D01*
X163655506Y-69510537D01*
X163765820Y-69569502D01*
X163885518Y-69605812D01*
X164010000Y-69618072D01*
X165990000Y-69618072D01*
X166114482Y-69605812D01*
X166234180Y-69569502D01*
X166344494Y-69510537D01*
X166441185Y-69431185D01*
X166520537Y-69334494D01*
X166579502Y-69224180D01*
X166615812Y-69104482D01*
X166628072Y-68980000D01*
X166628072Y-65147000D01*
X170115000Y-65147000D01*
X170115000Y-65897000D01*
X170160624Y-66106233D01*
X170246191Y-66302545D01*
X170368413Y-66478391D01*
X170522592Y-66627014D01*
X170702803Y-66742702D01*
X170905999Y-66814408D01*
X171073000Y-66687502D01*
X171073000Y-65147000D01*
X170115000Y-65147000D01*
X166628072Y-65147000D01*
X166628072Y-65020000D01*
X166615812Y-64895518D01*
X166579502Y-64775820D01*
X166520537Y-64665506D01*
X166441185Y-64568815D01*
X166344494Y-64489463D01*
X166234180Y-64430498D01*
X166114482Y-64394188D01*
X165990000Y-64381928D01*
X164010000Y-64381928D01*
X163885518Y-64394188D01*
X163765820Y-64430498D01*
X163655506Y-64489463D01*
X163558815Y-64568815D01*
X163479463Y-64665506D01*
X163420498Y-64775820D01*
X163384188Y-64895518D01*
X163371928Y-65020000D01*
X161292345Y-65020000D01*
X161280581Y-65001601D01*
X161059246Y-64771148D01*
X160797205Y-64588304D01*
X160504528Y-64460095D01*
X160378865Y-64429782D01*
X160127000Y-64549260D01*
X159873000Y-64549260D01*
X159621135Y-64429782D01*
X159495472Y-64460095D01*
X159202795Y-64588304D01*
X158940754Y-64771148D01*
X158719419Y-65001601D01*
X158547296Y-65270806D01*
X158431000Y-65568418D01*
X158375000Y-65883000D01*
X154488132Y-65883000D01*
X152748132Y-64143000D01*
X170115000Y-64143000D01*
X170115000Y-64893000D01*
X171073000Y-64893000D01*
X171073000Y-63352498D01*
X171327000Y-63352498D01*
X171327000Y-64893000D01*
X171593537Y-64893000D01*
X171600368Y-64928989D01*
X171673043Y-65108893D01*
X171681233Y-65124216D01*
X171879480Y-65140912D01*
X171873392Y-65147000D01*
X171327000Y-65147000D01*
X171327000Y-66687502D01*
X171494001Y-66814408D01*
X171697197Y-66742702D01*
X171877408Y-66627014D01*
X172031587Y-66478391D01*
X172153809Y-66302545D01*
X172220225Y-66150170D01*
X172370395Y-66000000D01*
X172356253Y-65985858D01*
X172415000Y-65927110D01*
X172415000Y-66097014D01*
X172451101Y-66278504D01*
X172059088Y-66670517D01*
X172075784Y-66868767D01*
X172254384Y-66944589D01*
X172444344Y-66984110D01*
X172638364Y-66985813D01*
X172828989Y-66949632D01*
X172975651Y-66890385D01*
X173112686Y-66947147D01*
X173302986Y-66985000D01*
X173497014Y-66985000D01*
X173687314Y-66947147D01*
X173825000Y-66890116D01*
X173962686Y-66947147D01*
X174152986Y-66985000D01*
X174347014Y-66985000D01*
X174537314Y-66947147D01*
X174675000Y-66890116D01*
X174812686Y-66947147D01*
X175002986Y-66985000D01*
X175197014Y-66985000D01*
X175387314Y-66947147D01*
X175525000Y-66890116D01*
X175662686Y-66947147D01*
X175852986Y-66985000D01*
X176047014Y-66985000D01*
X176237314Y-66947147D01*
X176375000Y-66890116D01*
X176512686Y-66947147D01*
X176702986Y-66985000D01*
X176797513Y-66985000D01*
X176698102Y-67004774D01*
X176509744Y-67082795D01*
X176340226Y-67196063D01*
X176196063Y-67340226D01*
X176082795Y-67509744D01*
X176004774Y-67698102D01*
X175965000Y-67898061D01*
X175965000Y-68101939D01*
X176004774Y-68301898D01*
X176082795Y-68490256D01*
X176196063Y-68659774D01*
X176340226Y-68803937D01*
X176509744Y-68917205D01*
X176698102Y-68995226D01*
X176898061Y-69035000D01*
X177101939Y-69035000D01*
X177301898Y-68995226D01*
X177490256Y-68917205D01*
X177659774Y-68803937D01*
X177803937Y-68659774D01*
X177917205Y-68490256D01*
X177995226Y-68301898D01*
X178035000Y-68101939D01*
X178035000Y-67898061D01*
X177995226Y-67698102D01*
X177917205Y-67509744D01*
X177803937Y-67340226D01*
X177659774Y-67196063D01*
X177490256Y-67082795D01*
X177301898Y-67004774D01*
X177101939Y-66965000D01*
X176997561Y-66965000D01*
X177087314Y-66947147D01*
X177225000Y-66890116D01*
X177362686Y-66947147D01*
X177552986Y-66985000D01*
X177747014Y-66985000D01*
X177937314Y-66947147D01*
X178075542Y-66889891D01*
X178204384Y-66944589D01*
X178394344Y-66984110D01*
X178588364Y-66985813D01*
X178778989Y-66949632D01*
X178958893Y-66876957D01*
X178974216Y-66868767D01*
X178990912Y-66670517D01*
X178598899Y-66278504D01*
X178635000Y-66097014D01*
X178635000Y-65927110D01*
X178693748Y-65985858D01*
X178679605Y-66000000D01*
X178829775Y-66150170D01*
X178896191Y-66302545D01*
X179018413Y-66478391D01*
X179172592Y-66627014D01*
X179352803Y-66742702D01*
X179555999Y-66814408D01*
X179723000Y-66687502D01*
X179723000Y-65147000D01*
X179977000Y-65147000D01*
X179977000Y-66687502D01*
X180144001Y-66814408D01*
X180347197Y-66742702D01*
X180527408Y-66627014D01*
X180681587Y-66478391D01*
X180803809Y-66302545D01*
X180881195Y-66125000D01*
X182911928Y-66125000D01*
X182911928Y-67875000D01*
X182941001Y-68170186D01*
X183027104Y-68454028D01*
X183166927Y-68715618D01*
X183355097Y-68944903D01*
X183584382Y-69133073D01*
X183845972Y-69272896D01*
X184129814Y-69358999D01*
X184425000Y-69388072D01*
X186175000Y-69388072D01*
X186470186Y-69358999D01*
X186754028Y-69272896D01*
X187015618Y-69133073D01*
X187244903Y-68944903D01*
X187433073Y-68715618D01*
X187572896Y-68454028D01*
X187611928Y-68325357D01*
X187611928Y-71750000D01*
X187624188Y-71874482D01*
X187660498Y-71994180D01*
X187719463Y-72104494D01*
X187798815Y-72201185D01*
X187895506Y-72280537D01*
X188005820Y-72339502D01*
X188125518Y-72375812D01*
X188250000Y-72388072D01*
X191750000Y-72388072D01*
X191874482Y-72375812D01*
X191994180Y-72339502D01*
X192104494Y-72280537D01*
X192201185Y-72201185D01*
X192280537Y-72104494D01*
X192339502Y-71994180D01*
X192375812Y-71874482D01*
X192388072Y-71750000D01*
X192388072Y-68250000D01*
X192375812Y-68125518D01*
X192339502Y-68005820D01*
X192280537Y-67895506D01*
X192201185Y-67798815D01*
X192104494Y-67719463D01*
X191994180Y-67660498D01*
X191874482Y-67624188D01*
X191750000Y-67611928D01*
X188250000Y-67611928D01*
X188125518Y-67624188D01*
X188005820Y-67660498D01*
X187895506Y-67719463D01*
X187798815Y-67798815D01*
X187719463Y-67895506D01*
X187678506Y-67972131D01*
X187688072Y-67875000D01*
X187688072Y-66125000D01*
X187658999Y-65829814D01*
X187572896Y-65545972D01*
X187548324Y-65500000D01*
X187611928Y-65500000D01*
X187624188Y-65624482D01*
X187660498Y-65744180D01*
X187719463Y-65854494D01*
X187798815Y-65951185D01*
X187895506Y-66030537D01*
X188005820Y-66089502D01*
X188125518Y-66125812D01*
X188250000Y-66138072D01*
X189714250Y-66135000D01*
X189873000Y-65976250D01*
X189873000Y-64127000D01*
X190127000Y-64127000D01*
X190127000Y-65976250D01*
X190285750Y-66135000D01*
X191750000Y-66138072D01*
X191874482Y-66125812D01*
X191994180Y-66089502D01*
X192104494Y-66030537D01*
X192201185Y-65951185D01*
X192280537Y-65854494D01*
X192339502Y-65744180D01*
X192375812Y-65624482D01*
X192388072Y-65500000D01*
X192385000Y-64285750D01*
X192226250Y-64127000D01*
X190127000Y-64127000D01*
X189873000Y-64127000D01*
X187773750Y-64127000D01*
X187615000Y-64285750D01*
X187611928Y-65500000D01*
X187548324Y-65500000D01*
X187433073Y-65284382D01*
X187244903Y-65055097D01*
X187015618Y-64866927D01*
X186754028Y-64727104D01*
X186470186Y-64641001D01*
X186175000Y-64611928D01*
X184425000Y-64611928D01*
X184129814Y-64641001D01*
X183845972Y-64727104D01*
X183584382Y-64866927D01*
X183355097Y-65055097D01*
X183166927Y-65284382D01*
X183027104Y-65545972D01*
X182941001Y-65829814D01*
X182911928Y-66125000D01*
X180881195Y-66125000D01*
X180889376Y-66106233D01*
X180935000Y-65897000D01*
X180935000Y-65147000D01*
X179977000Y-65147000D01*
X179723000Y-65147000D01*
X179176608Y-65147000D01*
X179170520Y-65140912D01*
X179368767Y-65124216D01*
X179444589Y-64945616D01*
X179455536Y-64893000D01*
X179723000Y-64893000D01*
X179723000Y-63352498D01*
X179977000Y-63352498D01*
X179977000Y-64893000D01*
X180935000Y-64893000D01*
X180935000Y-64143000D01*
X180889376Y-63933767D01*
X180803809Y-63737455D01*
X180681587Y-63561609D01*
X180527408Y-63412986D01*
X180347197Y-63297298D01*
X180144001Y-63225592D01*
X179977000Y-63352498D01*
X179723000Y-63352498D01*
X179555999Y-63225592D01*
X179352803Y-63297298D01*
X179172592Y-63412986D01*
X179018413Y-63561609D01*
X178896191Y-63737455D01*
X178892272Y-63746445D01*
X178795616Y-63705411D01*
X178605656Y-63665890D01*
X178411636Y-63664187D01*
X178280390Y-63689098D01*
X178278817Y-63687181D01*
X178245045Y-63659465D01*
X177840535Y-63254955D01*
X177812818Y-63221182D01*
X177678060Y-63110588D01*
X177524314Y-63028410D01*
X177357491Y-62977804D01*
X177227478Y-62964999D01*
X177227470Y-62964999D01*
X177184001Y-62960718D01*
X177140532Y-62964999D01*
X173909464Y-62964999D01*
X173865998Y-62960718D01*
X173822532Y-62964999D01*
X173822522Y-62964999D01*
X173692509Y-62977804D01*
X173525686Y-63028410D01*
X173371940Y-63110588D01*
X173237182Y-63221182D01*
X173209465Y-63254955D01*
X172804952Y-63659468D01*
X172771184Y-63687181D01*
X172769260Y-63689525D01*
X172655656Y-63665890D01*
X172461636Y-63664187D01*
X172271011Y-63700368D01*
X172157611Y-63746178D01*
X172153809Y-63737455D01*
X172031587Y-63561609D01*
X171877408Y-63412986D01*
X171697197Y-63297298D01*
X171494001Y-63225592D01*
X171327000Y-63352498D01*
X171073000Y-63352498D01*
X170905999Y-63225592D01*
X170702803Y-63297298D01*
X170522592Y-63412986D01*
X170368413Y-63561609D01*
X170246191Y-63737455D01*
X170160624Y-63933767D01*
X170115000Y-64143000D01*
X152748132Y-64143000D01*
X150801996Y-62196865D01*
X150766449Y-62153551D01*
X150593623Y-62011716D01*
X150396447Y-61906324D01*
X150182499Y-61841423D01*
X150015752Y-61825000D01*
X150015751Y-61825000D01*
X149960000Y-61819509D01*
X149904249Y-61825000D01*
X145780287Y-61825000D01*
X145693485Y-61767000D01*
X170115000Y-61767000D01*
X170115000Y-62167000D01*
X170160624Y-62376233D01*
X170246191Y-62572545D01*
X170368413Y-62748391D01*
X170522592Y-62897014D01*
X170702803Y-63012702D01*
X170905999Y-63084408D01*
X171073000Y-62957502D01*
X171073000Y-61767000D01*
X171327000Y-61767000D01*
X171327000Y-62957502D01*
X171494001Y-63084408D01*
X171697197Y-63012702D01*
X171877408Y-62897014D01*
X172031587Y-62748391D01*
X172153809Y-62572545D01*
X172239376Y-62376233D01*
X172285000Y-62167000D01*
X172285000Y-61767000D01*
X178765000Y-61767000D01*
X178765000Y-62167000D01*
X178810624Y-62376233D01*
X178896191Y-62572545D01*
X179018413Y-62748391D01*
X179172592Y-62897014D01*
X179352803Y-63012702D01*
X179555999Y-63084408D01*
X179723000Y-62957502D01*
X179723000Y-61767000D01*
X179977000Y-61767000D01*
X179977000Y-62957502D01*
X180144001Y-63084408D01*
X180347197Y-63012702D01*
X180527408Y-62897014D01*
X180681587Y-62748391D01*
X180803809Y-62572545D01*
X180835429Y-62500000D01*
X187611928Y-62500000D01*
X187615000Y-63714250D01*
X187773750Y-63873000D01*
X189873000Y-63873000D01*
X189873000Y-62023750D01*
X190127000Y-62023750D01*
X190127000Y-63873000D01*
X192226250Y-63873000D01*
X192385000Y-63714250D01*
X192388072Y-62500000D01*
X192375812Y-62375518D01*
X192339502Y-62255820D01*
X192280537Y-62145506D01*
X192201185Y-62048815D01*
X192104494Y-61969463D01*
X191994180Y-61910498D01*
X191874482Y-61874188D01*
X191750000Y-61861928D01*
X190285750Y-61865000D01*
X190127000Y-62023750D01*
X189873000Y-62023750D01*
X189714250Y-61865000D01*
X188250000Y-61861928D01*
X188125518Y-61874188D01*
X188005820Y-61910498D01*
X187895506Y-61969463D01*
X187798815Y-62048815D01*
X187719463Y-62145506D01*
X187660498Y-62255820D01*
X187624188Y-62375518D01*
X187611928Y-62500000D01*
X180835429Y-62500000D01*
X180889376Y-62376233D01*
X180935000Y-62167000D01*
X180935000Y-61767000D01*
X179977000Y-61767000D01*
X179723000Y-61767000D01*
X178765000Y-61767000D01*
X172285000Y-61767000D01*
X171327000Y-61767000D01*
X171073000Y-61767000D01*
X170115000Y-61767000D01*
X145693485Y-61767000D01*
X145681833Y-61759215D01*
X145435239Y-61657072D01*
X145173456Y-61605000D01*
X144906544Y-61605000D01*
X144644761Y-61657072D01*
X144398167Y-61759215D01*
X144176238Y-61907503D01*
X143987503Y-62096238D01*
X143839215Y-62318167D01*
X143737072Y-62564761D01*
X143685000Y-62826544D01*
X105127000Y-62826544D01*
X105127000Y-60660000D01*
X170279175Y-60660000D01*
X170246191Y-60707455D01*
G37*
X170246191Y-60707455D02*
X170160624Y-60903767D01*
X170115000Y-61113000D01*
X170115000Y-61513000D01*
X171073000Y-61513000D01*
X171073000Y-61493000D01*
X171327000Y-61493000D01*
X171327000Y-61513000D01*
X172285000Y-61513000D01*
X172285000Y-61113000D01*
X172239376Y-60903767D01*
X172153809Y-60707455D01*
X172120825Y-60660000D01*
X178929175Y-60660000D01*
X178896191Y-60707455D01*
X178810624Y-60903767D01*
X178765000Y-61113000D01*
X178765000Y-61513000D01*
X179723000Y-61513000D01*
X179723000Y-61493000D01*
X179977000Y-61493000D01*
X179977000Y-61513000D01*
X180935000Y-61513000D01*
X180935000Y-61113000D01*
X180889376Y-60903767D01*
X180803809Y-60707455D01*
X180770825Y-60660000D01*
X193873000Y-60660000D01*
X193873000Y-78873000D01*
X185000000Y-78873000D01*
X184975224Y-78875440D01*
X184951399Y-78882667D01*
X184929443Y-78894403D01*
X184910197Y-78910197D01*
X184894403Y-78929443D01*
X184882667Y-78951399D01*
X184875440Y-78975224D01*
X184873000Y-79000000D01*
X184873000Y-89000000D01*
X184875440Y-89024776D01*
X184882667Y-89048601D01*
X184894403Y-89070557D01*
X184910197Y-89089803D01*
X184929443Y-89105597D01*
X184951399Y-89117333D01*
X184975224Y-89124560D01*
X185000000Y-89127000D01*
X193873000Y-89127000D01*
X193873000Y-142373000D01*
X185000000Y-142373000D01*
X184975224Y-142375440D01*
X184951399Y-142382667D01*
X184929443Y-142394403D01*
X184910197Y-142410197D01*
X184894403Y-142429443D01*
X184882667Y-142451399D01*
X184875440Y-142475224D01*
X184873000Y-142500000D01*
X184873000Y-151373000D01*
X105127000Y-151373000D01*
X105127000Y-142500000D01*
X105124560Y-142475224D01*
X105117333Y-142451399D01*
X105105597Y-142429443D01*
X105089803Y-142410197D01*
X105070557Y-142394403D01*
X105048601Y-142382667D01*
X105024776Y-142375440D01*
X105000000Y-142373000D01*
X95660000Y-142373000D01*
X95660000Y-142279872D01*
X109765000Y-142279872D01*
X109765000Y-142720128D01*
X109850890Y-143151925D01*
X110019369Y-143558669D01*
X110263962Y-143924729D01*
X110575271Y-144236038D01*
X110941331Y-144480631D01*
X111348075Y-144649110D01*
X111779872Y-144735000D01*
X112220128Y-144735000D01*
X112651925Y-144649110D01*
X113058669Y-144480631D01*
X113424729Y-144236038D01*
X113736038Y-143924729D01*
X113980631Y-143558669D01*
X114149110Y-143151925D01*
X114223116Y-142779872D01*
X155765000Y-142779872D01*
X155765000Y-143220128D01*
X155850890Y-143651925D01*
X156019369Y-144058669D01*
X156263962Y-144424729D01*
X156575271Y-144736038D01*
X156941331Y-144980631D01*
X157348075Y-145149110D01*
X157779872Y-145235000D01*
X158220128Y-145235000D01*
X158651925Y-145149110D01*
X159058669Y-144980631D01*
X159424729Y-144736038D01*
X159736038Y-144424729D01*
X159980631Y-144058669D01*
X160149110Y-143651925D01*
X160235000Y-143220128D01*
X160235000Y-142779872D01*
X160149110Y-142348075D01*
X159980631Y-141941331D01*
X159736038Y-141575271D01*
X159424729Y-141263962D01*
X159058669Y-141019369D01*
X158651925Y-140850890D01*
X158220128Y-140765000D01*
X157779872Y-140765000D01*
X157348075Y-140850890D01*
X156941331Y-141019369D01*
X156575271Y-141263962D01*
X156263962Y-141575271D01*
X156019369Y-141941331D01*
X155850890Y-142348075D01*
X155765000Y-142779872D01*
X114223116Y-142779872D01*
X114235000Y-142720128D01*
X114235000Y-142279872D01*
X114149110Y-141848075D01*
X113980631Y-141441331D01*
X113736038Y-141075271D01*
X113424729Y-140763962D01*
X113058669Y-140519369D01*
X112651925Y-140350890D01*
X112220128Y-140265000D01*
X111779872Y-140265000D01*
X111348075Y-140350890D01*
X110941331Y-140519369D01*
X110575271Y-140763962D01*
X110263962Y-141075271D01*
X110019369Y-141441331D01*
X109850890Y-141848075D01*
X109765000Y-142279872D01*
X95660000Y-142279872D01*
X95660000Y-128600000D01*
X106961928Y-128600000D01*
X106961928Y-130400000D01*
X106974188Y-130524482D01*
X107010498Y-130644180D01*
X107069463Y-130754494D01*
X107148815Y-130851185D01*
X107245506Y-130930537D01*
X107355820Y-130989502D01*
X107475518Y-131025812D01*
X107600000Y-131038072D01*
X109400000Y-131038072D01*
X109524482Y-131025812D01*
X109644180Y-130989502D01*
X109754494Y-130930537D01*
X109851185Y-130851185D01*
X109930537Y-130754494D01*
X109989502Y-130644180D01*
X109995056Y-130625873D01*
X110061495Y-130692312D01*
X110312905Y-130860299D01*
X110592257Y-130976011D01*
X110888816Y-131035000D01*
X111191184Y-131035000D01*
X111487743Y-130976011D01*
X111767095Y-130860299D01*
X112018505Y-130692312D01*
X112232312Y-130478505D01*
X112400299Y-130227095D01*
X112516011Y-129947743D01*
X112575000Y-129651184D01*
X112575000Y-129348816D01*
X112516011Y-129052257D01*
X112400299Y-128772905D01*
X112284768Y-128600000D01*
X132961928Y-128600000D01*
X132961928Y-130400000D01*
X132974188Y-130524482D01*
X133010498Y-130644180D01*
X133069463Y-130754494D01*
X133148815Y-130851185D01*
X133245506Y-130930537D01*
X133355820Y-130989502D01*
X133475518Y-131025812D01*
X133600000Y-131038072D01*
X135400000Y-131038072D01*
X135524482Y-131025812D01*
X135644180Y-130989502D01*
X135754494Y-130930537D01*
X135851185Y-130851185D01*
X135930537Y-130754494D01*
X135989502Y-130644180D01*
X135995056Y-130625873D01*
X136061495Y-130692312D01*
X136312905Y-130860299D01*
X136592257Y-130976011D01*
X136888816Y-131035000D01*
X137191184Y-131035000D01*
X137487743Y-130976011D01*
X137767095Y-130860299D01*
X138018505Y-130692312D01*
X138232312Y-130478505D01*
X138400299Y-130227095D01*
X138516011Y-129947743D01*
X138575000Y-129651184D01*
X138575000Y-129348816D01*
X138516011Y-129052257D01*
X138400299Y-128772905D01*
X138284768Y-128600000D01*
X158461928Y-128600000D01*
X158461928Y-130400000D01*
X158474188Y-130524482D01*
X158510498Y-130644180D01*
X158569463Y-130754494D01*
X158648815Y-130851185D01*
X158745506Y-130930537D01*
X158855820Y-130989502D01*
X158975518Y-131025812D01*
X159100000Y-131038072D01*
X160900000Y-131038072D01*
X161024482Y-131025812D01*
X161144180Y-130989502D01*
X161254494Y-130930537D01*
X161351185Y-130851185D01*
X161430537Y-130754494D01*
X161489502Y-130644180D01*
X161495056Y-130625873D01*
X161561495Y-130692312D01*
X161812905Y-130860299D01*
X162092257Y-130976011D01*
X162388816Y-131035000D01*
X162691184Y-131035000D01*
X162987743Y-130976011D01*
X163267095Y-130860299D01*
X163518505Y-130692312D01*
X163732312Y-130478505D01*
X163900299Y-130227095D01*
X164016011Y-129947743D01*
X164075000Y-129651184D01*
X164075000Y-129358665D01*
X173485000Y-129358665D01*
X173485000Y-129641335D01*
X173540147Y-129918574D01*
X173648320Y-130179727D01*
X173805363Y-130414759D01*
X174005241Y-130614637D01*
X174240273Y-130771680D01*
X174501426Y-130879853D01*
X174778665Y-130935000D01*
X175061335Y-130935000D01*
X175338574Y-130879853D01*
X175599727Y-130771680D01*
X175834759Y-130614637D01*
X176034637Y-130414759D01*
X176191680Y-130179727D01*
X176299853Y-129918574D01*
X176355000Y-129641335D01*
X176355000Y-129358665D01*
X176299853Y-129081426D01*
X176191680Y-128820273D01*
X176034637Y-128585241D01*
X175834759Y-128385363D01*
X175599727Y-128228320D01*
X175338574Y-128120147D01*
X175061335Y-128065000D01*
X174778665Y-128065000D01*
X174501426Y-128120147D01*
X174240273Y-128228320D01*
X174005241Y-128385363D01*
X173805363Y-128585241D01*
X173648320Y-128820273D01*
X173540147Y-129081426D01*
X173485000Y-129358665D01*
X164075000Y-129358665D01*
X164075000Y-129348816D01*
X164016011Y-129052257D01*
X163900299Y-128772905D01*
X163732312Y-128521495D01*
X163518505Y-128307688D01*
X163267095Y-128139701D01*
X162987743Y-128023989D01*
X162691184Y-127965000D01*
X162388816Y-127965000D01*
X162092257Y-128023989D01*
X161812905Y-128139701D01*
X161561495Y-128307688D01*
X161495056Y-128374127D01*
X161489502Y-128355820D01*
X161430537Y-128245506D01*
X161351185Y-128148815D01*
X161254494Y-128069463D01*
X161144180Y-128010498D01*
X161024482Y-127974188D01*
X160900000Y-127961928D01*
X159100000Y-127961928D01*
X158975518Y-127974188D01*
X158855820Y-128010498D01*
X158745506Y-128069463D01*
X158648815Y-128148815D01*
X158569463Y-128245506D01*
X158510498Y-128355820D01*
X158474188Y-128475518D01*
X158461928Y-128600000D01*
X138284768Y-128600000D01*
X138232312Y-128521495D01*
X138018505Y-128307688D01*
X137767095Y-128139701D01*
X137487743Y-128023989D01*
X137191184Y-127965000D01*
X136888816Y-127965000D01*
X136592257Y-128023989D01*
X136312905Y-128139701D01*
X136061495Y-128307688D01*
X135995056Y-128374127D01*
X135989502Y-128355820D01*
X135930537Y-128245506D01*
X135851185Y-128148815D01*
X135754494Y-128069463D01*
X135644180Y-128010498D01*
X135524482Y-127974188D01*
X135400000Y-127961928D01*
X133600000Y-127961928D01*
X133475518Y-127974188D01*
X133355820Y-128010498D01*
X133245506Y-128069463D01*
X133148815Y-128148815D01*
X133069463Y-128245506D01*
X133010498Y-128355820D01*
X132974188Y-128475518D01*
X132961928Y-128600000D01*
X112284768Y-128600000D01*
X112232312Y-128521495D01*
X112018505Y-128307688D01*
X111767095Y-128139701D01*
X111487743Y-128023989D01*
X111191184Y-127965000D01*
X110888816Y-127965000D01*
X110592257Y-128023989D01*
X110312905Y-128139701D01*
X110061495Y-128307688D01*
X109995056Y-128374127D01*
X109989502Y-128355820D01*
X109930537Y-128245506D01*
X109851185Y-128148815D01*
X109754494Y-128069463D01*
X109644180Y-128010498D01*
X109524482Y-127974188D01*
X109400000Y-127961928D01*
X107600000Y-127961928D01*
X107475518Y-127974188D01*
X107355820Y-128010498D01*
X107245506Y-128069463D01*
X107148815Y-128148815D01*
X107069463Y-128245506D01*
X107010498Y-128355820D01*
X106974188Y-128475518D01*
X106961928Y-128600000D01*
X95660000Y-128600000D01*
X95660000Y-112600000D01*
X106961928Y-112600000D01*
X106961928Y-114400000D01*
X106974188Y-114524482D01*
X107010498Y-114644180D01*
X107069463Y-114754494D01*
X107148815Y-114851185D01*
X107245506Y-114930537D01*
X107355820Y-114989502D01*
X107475518Y-115025812D01*
X107600000Y-115038072D01*
X109400000Y-115038072D01*
X109524482Y-115025812D01*
X109644180Y-114989502D01*
X109754494Y-114930537D01*
X109851185Y-114851185D01*
X109930537Y-114754494D01*
X109989502Y-114644180D01*
X109995056Y-114625873D01*
X110061495Y-114692312D01*
X110312905Y-114860299D01*
X110592257Y-114976011D01*
X110888816Y-115035000D01*
X111191184Y-115035000D01*
X111487743Y-114976011D01*
X111767095Y-114860299D01*
X112018505Y-114692312D01*
X112232312Y-114478505D01*
X112400299Y-114227095D01*
X112516011Y-113947743D01*
X112575000Y-113651184D01*
X112575000Y-113348816D01*
X112516011Y-113052257D01*
X112400299Y-112772905D01*
X112284768Y-112600000D01*
X132961928Y-112600000D01*
X132961928Y-114400000D01*
X132974188Y-114524482D01*
X133010498Y-114644180D01*
X133069463Y-114754494D01*
X133148815Y-114851185D01*
X133245506Y-114930537D01*
X133355820Y-114989502D01*
X133475518Y-115025812D01*
X133600000Y-115038072D01*
X135400000Y-115038072D01*
X135524482Y-115025812D01*
X135644180Y-114989502D01*
X135754494Y-114930537D01*
X135851185Y-114851185D01*
X135930537Y-114754494D01*
X135989502Y-114644180D01*
X135995056Y-114625873D01*
X136061495Y-114692312D01*
X136312905Y-114860299D01*
X136592257Y-114976011D01*
X136888816Y-115035000D01*
X137191184Y-115035000D01*
X137487743Y-114976011D01*
X137767095Y-114860299D01*
X138018505Y-114692312D01*
X138232312Y-114478505D01*
X138400299Y-114227095D01*
X138516011Y-113947743D01*
X138575000Y-113651184D01*
X138575000Y-113348816D01*
X138516011Y-113052257D01*
X138400299Y-112772905D01*
X138284768Y-112600000D01*
X158461928Y-112600000D01*
X158461928Y-114400000D01*
X158474188Y-114524482D01*
X158510498Y-114644180D01*
X158569463Y-114754494D01*
X158648815Y-114851185D01*
X158745506Y-114930537D01*
X158855820Y-114989502D01*
X158975518Y-115025812D01*
X159100000Y-115038072D01*
X160900000Y-115038072D01*
X161024482Y-115025812D01*
X161144180Y-114989502D01*
X161254494Y-114930537D01*
X161351185Y-114851185D01*
X161430537Y-114754494D01*
X161489502Y-114644180D01*
X161495056Y-114625873D01*
X161561495Y-114692312D01*
X161812905Y-114860299D01*
X162092257Y-114976011D01*
X162388816Y-115035000D01*
X162691184Y-115035000D01*
X162987743Y-114976011D01*
X163267095Y-114860299D01*
X163518505Y-114692312D01*
X163732312Y-114478505D01*
X163900299Y-114227095D01*
X164016011Y-113947743D01*
X164075000Y-113651184D01*
X164075000Y-113358665D01*
X173485000Y-113358665D01*
X173485000Y-113641335D01*
X173540147Y-113918574D01*
X173648320Y-114179727D01*
X173805363Y-114414759D01*
X174005241Y-114614637D01*
X174240273Y-114771680D01*
X174501426Y-114879853D01*
X174778665Y-114935000D01*
X175061335Y-114935000D01*
X175338574Y-114879853D01*
X175599727Y-114771680D01*
X175834759Y-114614637D01*
X176034637Y-114414759D01*
X176191680Y-114179727D01*
X176299853Y-113918574D01*
X176355000Y-113641335D01*
X176355000Y-113358665D01*
X176299853Y-113081426D01*
X176191680Y-112820273D01*
X176034637Y-112585241D01*
X175834759Y-112385363D01*
X175599727Y-112228320D01*
X175338574Y-112120147D01*
X175061335Y-112065000D01*
X174778665Y-112065000D01*
X174501426Y-112120147D01*
X174240273Y-112228320D01*
X174005241Y-112385363D01*
X173805363Y-112585241D01*
X173648320Y-112820273D01*
X173540147Y-113081426D01*
X173485000Y-113358665D01*
X164075000Y-113358665D01*
X164075000Y-113348816D01*
X164016011Y-113052257D01*
X163900299Y-112772905D01*
X163732312Y-112521495D01*
X163518505Y-112307688D01*
X163267095Y-112139701D01*
X162987743Y-112023989D01*
X162691184Y-111965000D01*
X162388816Y-111965000D01*
X162092257Y-112023989D01*
X161812905Y-112139701D01*
X161561495Y-112307688D01*
X161495056Y-112374127D01*
X161489502Y-112355820D01*
X161430537Y-112245506D01*
X161351185Y-112148815D01*
X161254494Y-112069463D01*
X161144180Y-112010498D01*
X161024482Y-111974188D01*
X160900000Y-111961928D01*
X159100000Y-111961928D01*
X158975518Y-111974188D01*
X158855820Y-112010498D01*
X158745506Y-112069463D01*
X158648815Y-112148815D01*
X158569463Y-112245506D01*
X158510498Y-112355820D01*
X158474188Y-112475518D01*
X158461928Y-112600000D01*
X138284768Y-112600000D01*
X138232312Y-112521495D01*
X138018505Y-112307688D01*
X137767095Y-112139701D01*
X137487743Y-112023989D01*
X137191184Y-111965000D01*
X136888816Y-111965000D01*
X136592257Y-112023989D01*
X136312905Y-112139701D01*
X136061495Y-112307688D01*
X135995056Y-112374127D01*
X135989502Y-112355820D01*
X135930537Y-112245506D01*
X135851185Y-112148815D01*
X135754494Y-112069463D01*
X135644180Y-112010498D01*
X135524482Y-111974188D01*
X135400000Y-111961928D01*
X133600000Y-111961928D01*
X133475518Y-111974188D01*
X133355820Y-112010498D01*
X133245506Y-112069463D01*
X133148815Y-112148815D01*
X133069463Y-112245506D01*
X133010498Y-112355820D01*
X132974188Y-112475518D01*
X132961928Y-112600000D01*
X112284768Y-112600000D01*
X112232312Y-112521495D01*
X112018505Y-112307688D01*
X111767095Y-112139701D01*
X111487743Y-112023989D01*
X111191184Y-111965000D01*
X110888816Y-111965000D01*
X110592257Y-112023989D01*
X110312905Y-112139701D01*
X110061495Y-112307688D01*
X109995056Y-112374127D01*
X109989502Y-112355820D01*
X109930537Y-112245506D01*
X109851185Y-112148815D01*
X109754494Y-112069463D01*
X109644180Y-112010498D01*
X109524482Y-111974188D01*
X109400000Y-111961928D01*
X107600000Y-111961928D01*
X107475518Y-111974188D01*
X107355820Y-112010498D01*
X107245506Y-112069463D01*
X107148815Y-112148815D01*
X107069463Y-112245506D01*
X107010498Y-112355820D01*
X106974188Y-112475518D01*
X106961928Y-112600000D01*
X95660000Y-112600000D01*
X95660000Y-97100000D01*
X106961928Y-97100000D01*
X106961928Y-98900000D01*
X106974188Y-99024482D01*
X107010498Y-99144180D01*
X107069463Y-99254494D01*
X107148815Y-99351185D01*
X107245506Y-99430537D01*
X107355820Y-99489502D01*
X107475518Y-99525812D01*
X107600000Y-99538072D01*
X109400000Y-99538072D01*
X109524482Y-99525812D01*
X109644180Y-99489502D01*
X109754494Y-99430537D01*
X109851185Y-99351185D01*
X109930537Y-99254494D01*
X109989502Y-99144180D01*
X109995056Y-99125873D01*
X110061495Y-99192312D01*
X110312905Y-99360299D01*
X110592257Y-99476011D01*
X110888816Y-99535000D01*
X111191184Y-99535000D01*
X111487743Y-99476011D01*
X111767095Y-99360299D01*
X112018505Y-99192312D01*
X112232312Y-98978505D01*
X112400299Y-98727095D01*
X112516011Y-98447743D01*
X112575000Y-98151184D01*
X112575000Y-97848816D01*
X112516011Y-97552257D01*
X112400299Y-97272905D01*
X112284768Y-97100000D01*
X132961928Y-97100000D01*
X132961928Y-98900000D01*
X132974188Y-99024482D01*
X133010498Y-99144180D01*
X133069463Y-99254494D01*
X133148815Y-99351185D01*
X133245506Y-99430537D01*
X133355820Y-99489502D01*
X133475518Y-99525812D01*
X133600000Y-99538072D01*
X135400000Y-99538072D01*
X135524482Y-99525812D01*
X135644180Y-99489502D01*
X135754494Y-99430537D01*
X135851185Y-99351185D01*
X135930537Y-99254494D01*
X135989502Y-99144180D01*
X135995056Y-99125873D01*
X136061495Y-99192312D01*
X136312905Y-99360299D01*
X136592257Y-99476011D01*
X136888816Y-99535000D01*
X137191184Y-99535000D01*
X137487743Y-99476011D01*
X137767095Y-99360299D01*
X138018505Y-99192312D01*
X138232312Y-98978505D01*
X138400299Y-98727095D01*
X138516011Y-98447743D01*
X138575000Y-98151184D01*
X138575000Y-97848816D01*
X138516011Y-97552257D01*
X138400299Y-97272905D01*
X138284768Y-97100000D01*
X158461928Y-97100000D01*
X158461928Y-98900000D01*
X158474188Y-99024482D01*
X158510498Y-99144180D01*
X158569463Y-99254494D01*
X158648815Y-99351185D01*
X158745506Y-99430537D01*
X158855820Y-99489502D01*
X158975518Y-99525812D01*
X159100000Y-99538072D01*
X160900000Y-99538072D01*
X161024482Y-99525812D01*
X161144180Y-99489502D01*
X161254494Y-99430537D01*
X161351185Y-99351185D01*
X161430537Y-99254494D01*
X161489502Y-99144180D01*
X161495056Y-99125873D01*
X161561495Y-99192312D01*
X161812905Y-99360299D01*
X162092257Y-99476011D01*
X162388816Y-99535000D01*
X162691184Y-99535000D01*
X162987743Y-99476011D01*
X163267095Y-99360299D01*
X163518505Y-99192312D01*
X163732312Y-98978505D01*
X163900299Y-98727095D01*
X164016011Y-98447743D01*
X164075000Y-98151184D01*
X164075000Y-97858665D01*
X173485000Y-97858665D01*
X173485000Y-98141335D01*
X173540147Y-98418574D01*
X173648320Y-98679727D01*
X173805363Y-98914759D01*
X174005241Y-99114637D01*
X174240273Y-99271680D01*
X174501426Y-99379853D01*
X174778665Y-99435000D01*
X175061335Y-99435000D01*
X175338574Y-99379853D01*
X175599727Y-99271680D01*
X175834759Y-99114637D01*
X176034637Y-98914759D01*
X176191680Y-98679727D01*
X176299853Y-98418574D01*
X176355000Y-98141335D01*
X176355000Y-97858665D01*
X176299853Y-97581426D01*
X176191680Y-97320273D01*
X176034637Y-97085241D01*
X175834759Y-96885363D01*
X175599727Y-96728320D01*
X175338574Y-96620147D01*
X175061335Y-96565000D01*
X174778665Y-96565000D01*
X174501426Y-96620147D01*
X174240273Y-96728320D01*
X174005241Y-96885363D01*
X173805363Y-97085241D01*
X173648320Y-97320273D01*
X173540147Y-97581426D01*
X173485000Y-97858665D01*
X164075000Y-97858665D01*
X164075000Y-97848816D01*
X164016011Y-97552257D01*
X163900299Y-97272905D01*
X163732312Y-97021495D01*
X163518505Y-96807688D01*
X163267095Y-96639701D01*
X162987743Y-96523989D01*
X162691184Y-96465000D01*
X162388816Y-96465000D01*
X162092257Y-96523989D01*
X161812905Y-96639701D01*
X161561495Y-96807688D01*
X161495056Y-96874127D01*
X161489502Y-96855820D01*
X161430537Y-96745506D01*
X161351185Y-96648815D01*
X161254494Y-96569463D01*
X161144180Y-96510498D01*
X161024482Y-96474188D01*
X160900000Y-96461928D01*
X159100000Y-96461928D01*
X158975518Y-96474188D01*
X158855820Y-96510498D01*
X158745506Y-96569463D01*
X158648815Y-96648815D01*
X158569463Y-96745506D01*
X158510498Y-96855820D01*
X158474188Y-96975518D01*
X158461928Y-97100000D01*
X138284768Y-97100000D01*
X138232312Y-97021495D01*
X138018505Y-96807688D01*
X137767095Y-96639701D01*
X137487743Y-96523989D01*
X137191184Y-96465000D01*
X136888816Y-96465000D01*
X136592257Y-96523989D01*
X136312905Y-96639701D01*
X136061495Y-96807688D01*
X135995056Y-96874127D01*
X135989502Y-96855820D01*
X135930537Y-96745506D01*
X135851185Y-96648815D01*
X135754494Y-96569463D01*
X135644180Y-96510498D01*
X135524482Y-96474188D01*
X135400000Y-96461928D01*
X133600000Y-96461928D01*
X133475518Y-96474188D01*
X133355820Y-96510498D01*
X133245506Y-96569463D01*
X133148815Y-96648815D01*
X133069463Y-96745506D01*
X133010498Y-96855820D01*
X132974188Y-96975518D01*
X132961928Y-97100000D01*
X112284768Y-97100000D01*
X112232312Y-97021495D01*
X112018505Y-96807688D01*
X111767095Y-96639701D01*
X111487743Y-96523989D01*
X111191184Y-96465000D01*
X110888816Y-96465000D01*
X110592257Y-96523989D01*
X110312905Y-96639701D01*
X110061495Y-96807688D01*
X109995056Y-96874127D01*
X109989502Y-96855820D01*
X109930537Y-96745506D01*
X109851185Y-96648815D01*
X109754494Y-96569463D01*
X109644180Y-96510498D01*
X109524482Y-96474188D01*
X109400000Y-96461928D01*
X107600000Y-96461928D01*
X107475518Y-96474188D01*
X107355820Y-96510498D01*
X107245506Y-96569463D01*
X107148815Y-96648815D01*
X107069463Y-96745506D01*
X107010498Y-96855820D01*
X106974188Y-96975518D01*
X106961928Y-97100000D01*
X95660000Y-97100000D01*
X95660000Y-83779872D01*
X110265000Y-83779872D01*
X110265000Y-84220128D01*
X110350890Y-84651925D01*
X110519369Y-85058669D01*
X110763962Y-85424729D01*
X111075271Y-85736038D01*
X111441331Y-85980631D01*
X111848075Y-86149110D01*
X112279872Y-86235000D01*
X112720128Y-86235000D01*
X113151925Y-86149110D01*
X113558669Y-85980631D01*
X113924729Y-85736038D01*
X114236038Y-85424729D01*
X114332828Y-85279872D01*
X158265000Y-85279872D01*
X158265000Y-85720128D01*
X158350890Y-86151925D01*
X158519369Y-86558669D01*
X158763962Y-86924729D01*
X159075271Y-87236038D01*
X159441331Y-87480631D01*
X159848075Y-87649110D01*
X160279872Y-87735000D01*
X160720128Y-87735000D01*
X161151925Y-87649110D01*
X161558669Y-87480631D01*
X161924729Y-87236038D01*
X162236038Y-86924729D01*
X162480631Y-86558669D01*
X162649110Y-86151925D01*
X162735000Y-85720128D01*
X162735000Y-85279872D01*
X162649110Y-84848075D01*
X162480631Y-84441331D01*
X162236038Y-84075271D01*
X161924729Y-83763962D01*
X161558669Y-83519369D01*
X161151925Y-83350890D01*
X160720128Y-83265000D01*
X160279872Y-83265000D01*
X159848075Y-83350890D01*
X159441331Y-83519369D01*
X159075271Y-83763962D01*
X158763962Y-84075271D01*
X158519369Y-84441331D01*
X158350890Y-84848075D01*
X158265000Y-85279872D01*
X114332828Y-85279872D01*
X114480631Y-85058669D01*
X114649110Y-84651925D01*
X114735000Y-84220128D01*
X114735000Y-83779872D01*
X114649110Y-83348075D01*
X114480631Y-82941331D01*
X114236038Y-82575271D01*
X113924729Y-82263962D01*
X113558669Y-82019369D01*
X113151925Y-81850890D01*
X112720128Y-81765000D01*
X112279872Y-81765000D01*
X111848075Y-81850890D01*
X111441331Y-82019369D01*
X111075271Y-82263962D01*
X110763962Y-82575271D01*
X110519369Y-82941331D01*
X110350890Y-83348075D01*
X110265000Y-83779872D01*
X95660000Y-83779872D01*
X95660000Y-70127000D01*
X105000000Y-70127000D01*
X105024776Y-70124560D01*
X105048601Y-70117333D01*
X105070557Y-70105597D01*
X105089803Y-70089803D01*
X105105597Y-70070557D01*
X105117333Y-70048601D01*
X105124560Y-70024776D01*
X105127000Y-70000000D01*
X105127000Y-66900000D01*
X106961928Y-66900000D01*
X106974188Y-67024482D01*
X107010498Y-67144180D01*
X107069463Y-67254494D01*
X107148815Y-67351185D01*
X107245506Y-67430537D01*
X107355820Y-67489502D01*
X107374127Y-67495056D01*
X107307688Y-67561495D01*
X107139701Y-67812905D01*
X107023989Y-68092257D01*
X106965000Y-68388816D01*
X106965000Y-68691184D01*
X107023989Y-68987743D01*
X107139701Y-69267095D01*
X107307688Y-69518505D01*
X107521495Y-69732312D01*
X107637763Y-69810000D01*
X107521495Y-69887688D01*
X107307688Y-70101495D01*
X107139701Y-70352905D01*
X107023989Y-70632257D01*
X106965000Y-70928816D01*
X106965000Y-71231184D01*
X107023989Y-71527743D01*
X107139701Y-71807095D01*
X107307688Y-72058505D01*
X107521495Y-72272312D01*
X107772905Y-72440299D01*
X108052257Y-72556011D01*
X108348816Y-72615000D01*
X108651184Y-72615000D01*
X108947743Y-72556011D01*
X109227095Y-72440299D01*
X109478505Y-72272312D01*
X109692312Y-72058505D01*
X109860299Y-71807095D01*
X109976011Y-71527743D01*
X110035000Y-71231184D01*
X110035000Y-70928816D01*
X109976011Y-70632257D01*
X109862685Y-70358665D01*
X114065000Y-70358665D01*
X114065000Y-70641335D01*
X114120147Y-70918574D01*
X114228320Y-71179727D01*
X114385363Y-71414759D01*
X114585241Y-71614637D01*
X114820273Y-71771680D01*
X115081426Y-71879853D01*
X115358665Y-71935000D01*
X115641335Y-71935000D01*
X115918574Y-71879853D01*
X116179727Y-71771680D01*
X116414759Y-71614637D01*
X116614637Y-71414759D01*
X116771680Y-71179727D01*
X116879853Y-70918574D01*
X116935000Y-70641335D01*
X116935000Y-70358665D01*
X116893494Y-70150000D01*
X122011928Y-70150000D01*
X122011928Y-71850000D01*
X122024188Y-71974482D01*
X122060498Y-72094180D01*
X122119463Y-72204494D01*
X122198815Y-72301185D01*
X122295506Y-72380537D01*
X122405820Y-72439502D01*
X122525518Y-72475812D01*
X122650000Y-72488072D01*
X124350000Y-72488072D01*
X124474482Y-72475812D01*
X124594180Y-72439502D01*
X124704494Y-72380537D01*
X124801185Y-72301185D01*
X124880537Y-72204494D01*
X124939502Y-72094180D01*
X124975812Y-71974482D01*
X124988072Y-71850000D01*
X124988072Y-70150000D01*
X124975812Y-70025518D01*
X124939502Y-69905820D01*
X124934729Y-69896890D01*
X130558524Y-69896890D01*
X130603175Y-70044099D01*
X130728359Y-70306920D01*
X130902412Y-70540269D01*
X131118645Y-70735178D01*
X131368748Y-70884157D01*
X131643109Y-70981481D01*
X131873000Y-70860814D01*
X131873000Y-69667000D01*
X132127000Y-69667000D01*
X132127000Y-70860814D01*
X132356891Y-70981481D01*
X132631252Y-70884157D01*
X132881355Y-70735178D01*
X133097588Y-70540269D01*
X133271641Y-70306920D01*
X133396825Y-70044099D01*
X133441476Y-69896890D01*
X133320155Y-69667000D01*
X132127000Y-69667000D01*
X131873000Y-69667000D01*
X130679845Y-69667000D01*
X130558524Y-69896890D01*
X124934729Y-69896890D01*
X124880537Y-69795506D01*
X124801185Y-69698815D01*
X124704494Y-69619463D01*
X124594180Y-69560498D01*
X124521620Y-69538487D01*
X124653475Y-69406632D01*
X124815990Y-69163411D01*
X124927932Y-68893158D01*
X124985000Y-68606260D01*
X124985000Y-68313740D01*
X124927932Y-68026842D01*
X124815990Y-67756589D01*
X124653475Y-67513368D01*
X124446632Y-67306525D01*
X124272240Y-67190000D01*
X124446632Y-67073475D01*
X124653475Y-66866632D01*
X124815990Y-66623411D01*
X124927932Y-66353158D01*
X124968342Y-66150000D01*
X130511928Y-66150000D01*
X130511928Y-67850000D01*
X130524188Y-67974482D01*
X130560498Y-68094180D01*
X130619463Y-68204494D01*
X130698815Y-68301185D01*
X130795506Y-68380537D01*
X130905820Y-68439502D01*
X130986466Y-68463966D01*
X130902412Y-68539731D01*
X130728359Y-68773080D01*
X130603175Y-69035901D01*
X130558524Y-69183110D01*
X130679845Y-69413000D01*
X131873000Y-69413000D01*
X131873000Y-69393000D01*
X132127000Y-69393000D01*
X132127000Y-69413000D01*
X133320155Y-69413000D01*
X133441476Y-69183110D01*
X133396825Y-69035901D01*
X133271641Y-68773080D01*
X133097588Y-68539731D01*
X133013534Y-68463966D01*
X133094180Y-68439502D01*
X133204494Y-68380537D01*
X133301185Y-68301185D01*
X133380537Y-68204494D01*
X133439502Y-68094180D01*
X133475812Y-67974482D01*
X133488072Y-67850000D01*
X133488072Y-66150000D01*
X133475812Y-66025518D01*
X133439502Y-65905820D01*
X133380537Y-65795506D01*
X133301185Y-65698815D01*
X133204494Y-65619463D01*
X133094180Y-65560498D01*
X132974482Y-65524188D01*
X132850000Y-65511928D01*
X131150000Y-65511928D01*
X131025518Y-65524188D01*
X130905820Y-65560498D01*
X130795506Y-65619463D01*
X130698815Y-65698815D01*
X130619463Y-65795506D01*
X130560498Y-65905820D01*
X130524188Y-66025518D01*
X130511928Y-66150000D01*
X124968342Y-66150000D01*
X124985000Y-66066260D01*
X124985000Y-65773740D01*
X124927932Y-65486842D01*
X124878104Y-65366544D01*
X141145000Y-65366544D01*
X141145000Y-65633456D01*
X141197072Y-65895239D01*
X141299215Y-66141833D01*
X141447503Y-66363762D01*
X141636238Y-66552497D01*
X141858167Y-66700785D01*
X142104761Y-66802928D01*
X142366544Y-66855000D01*
X142633456Y-66855000D01*
X142895239Y-66802928D01*
X143141833Y-66700785D01*
X143363762Y-66552497D01*
X143480699Y-66435560D01*
X146824045Y-66435560D01*
X146885932Y-66671368D01*
X147127790Y-66784266D01*
X147387027Y-66847811D01*
X147653680Y-66859561D01*
X147917501Y-66819063D01*
X148168353Y-66727875D01*
X148274068Y-66671368D01*
X148335955Y-66435560D01*
X147580000Y-65679605D01*
X146824045Y-66435560D01*
X143480699Y-66435560D01*
X143552497Y-66363762D01*
X143700785Y-66141833D01*
X143802928Y-65895239D01*
X143855000Y-65633456D01*
X143855000Y-65573680D01*
X146220439Y-65573680D01*
X146260937Y-65837501D01*
X146352125Y-66088353D01*
X146408632Y-66194068D01*
X146644440Y-66255955D01*
X147400395Y-65500000D01*
X147759605Y-65500000D01*
X148515560Y-66255955D01*
X148751368Y-66194068D01*
X148864266Y-65952210D01*
X148927811Y-65692973D01*
X148939561Y-65426320D01*
X148899063Y-65162499D01*
X148807875Y-64911647D01*
X148751368Y-64805932D01*
X148515560Y-64744045D01*
X147759605Y-65500000D01*
X147400395Y-65500000D01*
X146644440Y-64744045D01*
X146408632Y-64805932D01*
X146295734Y-65047790D01*
X146232189Y-65307027D01*
X146220439Y-65573680D01*
X143855000Y-65573680D01*
X143855000Y-65366544D01*
X143802928Y-65104761D01*
X143700785Y-64858167D01*
X143552497Y-64636238D01*
X143480699Y-64564440D01*
X146824045Y-64564440D01*
X147580000Y-65320395D01*
X148335955Y-64564440D01*
X148274068Y-64328632D01*
X148032210Y-64215734D01*
X147772973Y-64152189D01*
X147506320Y-64140439D01*
X147242499Y-64180937D01*
X146991647Y-64272125D01*
X146885932Y-64328632D01*
X146824045Y-64564440D01*
X143480699Y-64564440D01*
X143363762Y-64447503D01*
X143141833Y-64299215D01*
X142895239Y-64197072D01*
X142633456Y-64145000D01*
X142366544Y-64145000D01*
X142104761Y-64197072D01*
X141858167Y-64299215D01*
X141636238Y-64447503D01*
X141447503Y-64636238D01*
X141299215Y-64858167D01*
X141197072Y-65104761D01*
X141145000Y-65366544D01*
X124878104Y-65366544D01*
X124815990Y-65216589D01*
X124653475Y-64973368D01*
X124446632Y-64766525D01*
X124203411Y-64604010D01*
X123933158Y-64492068D01*
X123646260Y-64435000D01*
X123353740Y-64435000D01*
X123066842Y-64492068D01*
X122796589Y-64604010D01*
X122553368Y-64766525D01*
X122346525Y-64973368D01*
X122184010Y-65216589D01*
X122072068Y-65486842D01*
X122015000Y-65773740D01*
X122015000Y-66066260D01*
X122072068Y-66353158D01*
X122184010Y-66623411D01*
X122346525Y-66866632D01*
X122553368Y-67073475D01*
X122727760Y-67190000D01*
X122553368Y-67306525D01*
X122346525Y-67513368D01*
X122184010Y-67756589D01*
X122072068Y-68026842D01*
X122015000Y-68313740D01*
X122015000Y-68606260D01*
X122072068Y-68893158D01*
X122184010Y-69163411D01*
X122346525Y-69406632D01*
X122478380Y-69538487D01*
X122405820Y-69560498D01*
X122295506Y-69619463D01*
X122198815Y-69698815D01*
X122119463Y-69795506D01*
X122060498Y-69905820D01*
X122024188Y-70025518D01*
X122011928Y-70150000D01*
X116893494Y-70150000D01*
X116879853Y-70081426D01*
X116771680Y-69820273D01*
X116614637Y-69585241D01*
X116414759Y-69385363D01*
X116179727Y-69228320D01*
X115918574Y-69120147D01*
X115641335Y-69065000D01*
X115358665Y-69065000D01*
X115081426Y-69120147D01*
X114820273Y-69228320D01*
X114585241Y-69385363D01*
X114385363Y-69585241D01*
X114228320Y-69820273D01*
X114120147Y-70081426D01*
X114065000Y-70358665D01*
X109862685Y-70358665D01*
X109860299Y-70352905D01*
X109692312Y-70101495D01*
X109478505Y-69887688D01*
X109362237Y-69810000D01*
X109478505Y-69732312D01*
X109692312Y-69518505D01*
X109860299Y-69267095D01*
X109976011Y-68987743D01*
X110035000Y-68691184D01*
X110035000Y-68388816D01*
X109976011Y-68092257D01*
X109860299Y-67812905D01*
X109692312Y-67561495D01*
X109625873Y-67495056D01*
X109644180Y-67489502D01*
X109754494Y-67430537D01*
X109851185Y-67351185D01*
X109930537Y-67254494D01*
X109989502Y-67144180D01*
X110025812Y-67024482D01*
X110038072Y-66900000D01*
X110035000Y-66285750D01*
X109876250Y-66127000D01*
X108627000Y-66127000D01*
X108627000Y-66147000D01*
X108373000Y-66147000D01*
X108373000Y-66127000D01*
X107123750Y-66127000D01*
X106965000Y-66285750D01*
X106961928Y-66900000D01*
X105127000Y-66900000D01*
X105127000Y-65100000D01*
X106961928Y-65100000D01*
X106965000Y-65714250D01*
X107123750Y-65873000D01*
X108373000Y-65873000D01*
X108373000Y-64623750D01*
X108627000Y-64623750D01*
X108627000Y-65873000D01*
X109876250Y-65873000D01*
X110035000Y-65714250D01*
X110037178Y-65278665D01*
X114065000Y-65278665D01*
X114065000Y-65561335D01*
X114120147Y-65838574D01*
X114228320Y-66099727D01*
X114385363Y-66334759D01*
X114585241Y-66534637D01*
X114820273Y-66691680D01*
X115081426Y-66799853D01*
X115358665Y-66855000D01*
X115641335Y-66855000D01*
X115918574Y-66799853D01*
X116179727Y-66691680D01*
X116414759Y-66534637D01*
X116614637Y-66334759D01*
X116771680Y-66099727D01*
X116879853Y-65838574D01*
X116935000Y-65561335D01*
X116935000Y-65278665D01*
X116879853Y-65001426D01*
X116771680Y-64740273D01*
X116614637Y-64505241D01*
X116414759Y-64305363D01*
X116179727Y-64148320D01*
X115918574Y-64040147D01*
X115641335Y-63985000D01*
X115358665Y-63985000D01*
X115081426Y-64040147D01*
X114820273Y-64148320D01*
X114585241Y-64305363D01*
X114385363Y-64505241D01*
X114228320Y-64740273D01*
X114120147Y-65001426D01*
X114065000Y-65278665D01*
X110037178Y-65278665D01*
X110038072Y-65100000D01*
X110025812Y-64975518D01*
X109989502Y-64855820D01*
X109930537Y-64745506D01*
X109851185Y-64648815D01*
X109754494Y-64569463D01*
X109644180Y-64510498D01*
X109524482Y-64474188D01*
X109400000Y-64461928D01*
X108785750Y-64465000D01*
X108627000Y-64623750D01*
X108373000Y-64623750D01*
X108214250Y-64465000D01*
X107600000Y-64461928D01*
X107475518Y-64474188D01*
X107355820Y-64510498D01*
X107245506Y-64569463D01*
X107148815Y-64648815D01*
X107069463Y-64745506D01*
X107010498Y-64855820D01*
X106974188Y-64975518D01*
X106961928Y-65100000D01*
X105127000Y-65100000D01*
X105127000Y-62826544D01*
X143685000Y-62826544D01*
X143685000Y-63093456D01*
X143737072Y-63355239D01*
X143839215Y-63601833D01*
X143987503Y-63823762D01*
X144176238Y-64012497D01*
X144398167Y-64160785D01*
X144644761Y-64262928D01*
X144906544Y-64315000D01*
X145173456Y-64315000D01*
X145435239Y-64262928D01*
X145681833Y-64160785D01*
X145780287Y-64095000D01*
X149489869Y-64095000D01*
X179158009Y-93763141D01*
X179193551Y-93806449D01*
X179366377Y-93948284D01*
X179563553Y-94053676D01*
X179777501Y-94118577D01*
X179944248Y-94135000D01*
X179944257Y-94135000D01*
X179999999Y-94140490D01*
X180055741Y-94135000D01*
X183529869Y-94135000D01*
X186365000Y-96970132D01*
X186365001Y-105529866D01*
X181135000Y-110759868D01*
X181135000Y-98884284D01*
X181271680Y-98679727D01*
X181379853Y-98418574D01*
X181435000Y-98141335D01*
X181435000Y-97858665D01*
X181379853Y-97581426D01*
X181271680Y-97320273D01*
X181114637Y-97085241D01*
X180914759Y-96885363D01*
X180679727Y-96728320D01*
X180418574Y-96620147D01*
X180141335Y-96565000D01*
X179858665Y-96565000D01*
X179581426Y-96620147D01*
X179320273Y-96728320D01*
X179085241Y-96885363D01*
X178885363Y-97085241D01*
X178728320Y-97320273D01*
X178620147Y-97581426D01*
X178565000Y-97858665D01*
X178565000Y-98141335D01*
X178620147Y-98418574D01*
X178728320Y-98679727D01*
X178865000Y-98884284D01*
X178865001Y-112615715D01*
X178728320Y-112820273D01*
X178620147Y-113081426D01*
X178565000Y-113358665D01*
X178565000Y-113641335D01*
X178620147Y-113918574D01*
X178728320Y-114179727D01*
X178865000Y-114384284D01*
X178865001Y-128615715D01*
X178728320Y-128820273D01*
X178620147Y-129081426D01*
X178565000Y-129358665D01*
X178565000Y-129641335D01*
X178620147Y-129918574D01*
X178728320Y-130179727D01*
X178885363Y-130414759D01*
X179085241Y-130614637D01*
X179320273Y-130771680D01*
X179581426Y-130879853D01*
X179858665Y-130935000D01*
X180141335Y-130935000D01*
X180418574Y-130879853D01*
X180679727Y-130771680D01*
X180914759Y-130614637D01*
X181114637Y-130414759D01*
X181271680Y-130179727D01*
X181379853Y-129918574D01*
X181435000Y-129641335D01*
X181435000Y-129358665D01*
X181379853Y-129081426D01*
X181271680Y-128820273D01*
X181135000Y-128615716D01*
X181135000Y-114384284D01*
X181271680Y-114179727D01*
X181379853Y-113918574D01*
X181427850Y-113677281D01*
X188263146Y-106841987D01*
X188306449Y-106806449D01*
X188448284Y-106633623D01*
X188553676Y-106436447D01*
X188618577Y-106222499D01*
X188635000Y-106055752D01*
X188640491Y-106000000D01*
X188635000Y-105944248D01*
X188635000Y-96555741D01*
X188640490Y-96499999D01*
X188635000Y-96444257D01*
X188635000Y-96444248D01*
X188618577Y-96277501D01*
X188553676Y-96063553D01*
X188448284Y-95866377D01*
X188306449Y-95693551D01*
X188263141Y-95658009D01*
X184841996Y-92236865D01*
X184806449Y-92193551D01*
X184633623Y-92051716D01*
X184436447Y-91946324D01*
X184222499Y-91881423D01*
X184055752Y-91865000D01*
X184055751Y-91865000D01*
X184000000Y-91859509D01*
X183944249Y-91865000D01*
X180470132Y-91865000D01*
X164755132Y-76150000D01*
X173011928Y-76150000D01*
X173011928Y-77850000D01*
X173024188Y-77974482D01*
X173060498Y-78094180D01*
X173119463Y-78204494D01*
X173198815Y-78301185D01*
X173295506Y-78380537D01*
X173405820Y-78439502D01*
X173525518Y-78475812D01*
X173650000Y-78488072D01*
X175350000Y-78488072D01*
X175474482Y-78475812D01*
X175594180Y-78439502D01*
X175704494Y-78380537D01*
X175801185Y-78301185D01*
X175880537Y-78204494D01*
X175939502Y-78094180D01*
X175961513Y-78021620D01*
X176093368Y-78153475D01*
X176336589Y-78315990D01*
X176606842Y-78427932D01*
X176893740Y-78485000D01*
X177186260Y-78485000D01*
X177473158Y-78427932D01*
X177743411Y-78315990D01*
X177986632Y-78153475D01*
X178193475Y-77946632D01*
X178355990Y-77703411D01*
X178467932Y-77433158D01*
X178525000Y-77146260D01*
X178525000Y-76853740D01*
X178467932Y-76566842D01*
X178355990Y-76296589D01*
X178193475Y-76053368D01*
X177986632Y-75846525D01*
X177743411Y-75684010D01*
X177473158Y-75572068D01*
X177186260Y-75515000D01*
X176893740Y-75515000D01*
X176606842Y-75572068D01*
X176336589Y-75684010D01*
X176093368Y-75846525D01*
X175961513Y-75978380D01*
X175939502Y-75905820D01*
X175880537Y-75795506D01*
X175801185Y-75698815D01*
X175704494Y-75619463D01*
X175594180Y-75560498D01*
X175474482Y-75524188D01*
X175350000Y-75511928D01*
X173650000Y-75511928D01*
X173525518Y-75524188D01*
X173405820Y-75560498D01*
X173295506Y-75619463D01*
X173198815Y-75698815D01*
X173119463Y-75795506D01*
X173060498Y-75905820D01*
X173024188Y-76025518D01*
X173011928Y-76150000D01*
X164755132Y-76150000D01*
X155732132Y-67127000D01*
X158375000Y-67127000D01*
X158375000Y-68117000D01*
X158431000Y-68431582D01*
X158547296Y-68729194D01*
X158719419Y-68998399D01*
X158940754Y-69228852D01*
X159202795Y-69411696D01*
X159495472Y-69539905D01*
X159621135Y-69570218D01*
X159873000Y-69450740D01*
X159873000Y-67127000D01*
X160127000Y-67127000D01*
X160127000Y-69450740D01*
X160378865Y-69570218D01*
X160504528Y-69539905D01*
X160797205Y-69411696D01*
X161059246Y-69228852D01*
X161280581Y-68998399D01*
X161452704Y-68729194D01*
X161569000Y-68431582D01*
X161625000Y-68117000D01*
X161625000Y-67127000D01*
X160127000Y-67127000D01*
X159873000Y-67127000D01*
X158375000Y-67127000D01*
X155732132Y-67127000D01*
X154488132Y-65883000D01*
X158375000Y-65883000D01*
X158375000Y-66873000D01*
X159873000Y-66873000D01*
X159873000Y-64549260D01*
X160127000Y-64549260D01*
X160127000Y-66873000D01*
X161625000Y-66873000D01*
X161625000Y-65883000D01*
X161569000Y-65568418D01*
X161452704Y-65270806D01*
X161292345Y-65020000D01*
X163371928Y-65020000D01*
X163371928Y-68980000D01*
X163384188Y-69104482D01*
X163420498Y-69224180D01*
X163479463Y-69334494D01*
X163558815Y-69431185D01*
X163655506Y-69510537D01*
X163765820Y-69569502D01*
X163885518Y-69605812D01*
X164010000Y-69618072D01*
X165990000Y-69618072D01*
X166114482Y-69605812D01*
X166234180Y-69569502D01*
X166344494Y-69510537D01*
X166441185Y-69431185D01*
X166520537Y-69334494D01*
X166579502Y-69224180D01*
X166615812Y-69104482D01*
X166628072Y-68980000D01*
X166628072Y-65147000D01*
X170115000Y-65147000D01*
X170115000Y-65897000D01*
X170160624Y-66106233D01*
X170246191Y-66302545D01*
X170368413Y-66478391D01*
X170522592Y-66627014D01*
X170702803Y-66742702D01*
X170905999Y-66814408D01*
X171073000Y-66687502D01*
X171073000Y-65147000D01*
X170115000Y-65147000D01*
X166628072Y-65147000D01*
X166628072Y-65020000D01*
X166615812Y-64895518D01*
X166579502Y-64775820D01*
X166520537Y-64665506D01*
X166441185Y-64568815D01*
X166344494Y-64489463D01*
X166234180Y-64430498D01*
X166114482Y-64394188D01*
X165990000Y-64381928D01*
X164010000Y-64381928D01*
X163885518Y-64394188D01*
X163765820Y-64430498D01*
X163655506Y-64489463D01*
X163558815Y-64568815D01*
X163479463Y-64665506D01*
X163420498Y-64775820D01*
X163384188Y-64895518D01*
X163371928Y-65020000D01*
X161292345Y-65020000D01*
X161280581Y-65001601D01*
X161059246Y-64771148D01*
X160797205Y-64588304D01*
X160504528Y-64460095D01*
X160378865Y-64429782D01*
X160127000Y-64549260D01*
X159873000Y-64549260D01*
X159621135Y-64429782D01*
X159495472Y-64460095D01*
X159202795Y-64588304D01*
X158940754Y-64771148D01*
X158719419Y-65001601D01*
X158547296Y-65270806D01*
X158431000Y-65568418D01*
X158375000Y-65883000D01*
X154488132Y-65883000D01*
X152748132Y-64143000D01*
X170115000Y-64143000D01*
X170115000Y-64893000D01*
X171073000Y-64893000D01*
X171073000Y-63352498D01*
X171327000Y-63352498D01*
X171327000Y-64893000D01*
X171593537Y-64893000D01*
X171600368Y-64928989D01*
X171673043Y-65108893D01*
X171681233Y-65124216D01*
X171879480Y-65140912D01*
X171873392Y-65147000D01*
X171327000Y-65147000D01*
X171327000Y-66687502D01*
X171494001Y-66814408D01*
X171697197Y-66742702D01*
X171877408Y-66627014D01*
X172031587Y-66478391D01*
X172153809Y-66302545D01*
X172220225Y-66150170D01*
X172370395Y-66000000D01*
X172356253Y-65985858D01*
X172415000Y-65927110D01*
X172415000Y-66097014D01*
X172451101Y-66278504D01*
X172059088Y-66670517D01*
X172075784Y-66868767D01*
X172254384Y-66944589D01*
X172444344Y-66984110D01*
X172638364Y-66985813D01*
X172828989Y-66949632D01*
X172975651Y-66890385D01*
X173112686Y-66947147D01*
X173302986Y-66985000D01*
X173497014Y-66985000D01*
X173687314Y-66947147D01*
X173825000Y-66890116D01*
X173962686Y-66947147D01*
X174152986Y-66985000D01*
X174347014Y-66985000D01*
X174537314Y-66947147D01*
X174675000Y-66890116D01*
X174812686Y-66947147D01*
X175002986Y-66985000D01*
X175197014Y-66985000D01*
X175387314Y-66947147D01*
X175525000Y-66890116D01*
X175662686Y-66947147D01*
X175852986Y-66985000D01*
X176047014Y-66985000D01*
X176237314Y-66947147D01*
X176375000Y-66890116D01*
X176512686Y-66947147D01*
X176702986Y-66985000D01*
X176797513Y-66985000D01*
X176698102Y-67004774D01*
X176509744Y-67082795D01*
X176340226Y-67196063D01*
X176196063Y-67340226D01*
X176082795Y-67509744D01*
X176004774Y-67698102D01*
X175965000Y-67898061D01*
X175965000Y-68101939D01*
X176004774Y-68301898D01*
X176082795Y-68490256D01*
X176196063Y-68659774D01*
X176340226Y-68803937D01*
X176509744Y-68917205D01*
X176698102Y-68995226D01*
X176898061Y-69035000D01*
X177101939Y-69035000D01*
X177301898Y-68995226D01*
X177490256Y-68917205D01*
X177659774Y-68803937D01*
X177803937Y-68659774D01*
X177917205Y-68490256D01*
X177995226Y-68301898D01*
X178035000Y-68101939D01*
X178035000Y-67898061D01*
X177995226Y-67698102D01*
X177917205Y-67509744D01*
X177803937Y-67340226D01*
X177659774Y-67196063D01*
X177490256Y-67082795D01*
X177301898Y-67004774D01*
X177101939Y-66965000D01*
X176997561Y-66965000D01*
X177087314Y-66947147D01*
X177225000Y-66890116D01*
X177362686Y-66947147D01*
X177552986Y-66985000D01*
X177747014Y-66985000D01*
X177937314Y-66947147D01*
X178075542Y-66889891D01*
X178204384Y-66944589D01*
X178394344Y-66984110D01*
X178588364Y-66985813D01*
X178778989Y-66949632D01*
X178958893Y-66876957D01*
X178974216Y-66868767D01*
X178990912Y-66670517D01*
X178598899Y-66278504D01*
X178635000Y-66097014D01*
X178635000Y-65927110D01*
X178693748Y-65985858D01*
X178679605Y-66000000D01*
X178829775Y-66150170D01*
X178896191Y-66302545D01*
X179018413Y-66478391D01*
X179172592Y-66627014D01*
X179352803Y-66742702D01*
X179555999Y-66814408D01*
X179723000Y-66687502D01*
X179723000Y-65147000D01*
X179977000Y-65147000D01*
X179977000Y-66687502D01*
X180144001Y-66814408D01*
X180347197Y-66742702D01*
X180527408Y-66627014D01*
X180681587Y-66478391D01*
X180803809Y-66302545D01*
X180881195Y-66125000D01*
X182911928Y-66125000D01*
X182911928Y-67875000D01*
X182941001Y-68170186D01*
X183027104Y-68454028D01*
X183166927Y-68715618D01*
X183355097Y-68944903D01*
X183584382Y-69133073D01*
X183845972Y-69272896D01*
X184129814Y-69358999D01*
X184425000Y-69388072D01*
X186175000Y-69388072D01*
X186470186Y-69358999D01*
X186754028Y-69272896D01*
X187015618Y-69133073D01*
X187244903Y-68944903D01*
X187433073Y-68715618D01*
X187572896Y-68454028D01*
X187611928Y-68325357D01*
X187611928Y-71750000D01*
X187624188Y-71874482D01*
X187660498Y-71994180D01*
X187719463Y-72104494D01*
X187798815Y-72201185D01*
X187895506Y-72280537D01*
X188005820Y-72339502D01*
X188125518Y-72375812D01*
X188250000Y-72388072D01*
X191750000Y-72388072D01*
X191874482Y-72375812D01*
X191994180Y-72339502D01*
X192104494Y-72280537D01*
X192201185Y-72201185D01*
X192280537Y-72104494D01*
X192339502Y-71994180D01*
X192375812Y-71874482D01*
X192388072Y-71750000D01*
X192388072Y-68250000D01*
X192375812Y-68125518D01*
X192339502Y-68005820D01*
X192280537Y-67895506D01*
X192201185Y-67798815D01*
X192104494Y-67719463D01*
X191994180Y-67660498D01*
X191874482Y-67624188D01*
X191750000Y-67611928D01*
X188250000Y-67611928D01*
X188125518Y-67624188D01*
X188005820Y-67660498D01*
X187895506Y-67719463D01*
X187798815Y-67798815D01*
X187719463Y-67895506D01*
X187678506Y-67972131D01*
X187688072Y-67875000D01*
X187688072Y-66125000D01*
X187658999Y-65829814D01*
X187572896Y-65545972D01*
X187548324Y-65500000D01*
X187611928Y-65500000D01*
X187624188Y-65624482D01*
X187660498Y-65744180D01*
X187719463Y-65854494D01*
X187798815Y-65951185D01*
X187895506Y-66030537D01*
X188005820Y-66089502D01*
X188125518Y-66125812D01*
X188250000Y-66138072D01*
X189714250Y-66135000D01*
X189873000Y-65976250D01*
X189873000Y-64127000D01*
X190127000Y-64127000D01*
X190127000Y-65976250D01*
X190285750Y-66135000D01*
X191750000Y-66138072D01*
X191874482Y-66125812D01*
X191994180Y-66089502D01*
X192104494Y-66030537D01*
X192201185Y-65951185D01*
X192280537Y-65854494D01*
X192339502Y-65744180D01*
X192375812Y-65624482D01*
X192388072Y-65500000D01*
X192385000Y-64285750D01*
X192226250Y-64127000D01*
X190127000Y-64127000D01*
X189873000Y-64127000D01*
X187773750Y-64127000D01*
X187615000Y-64285750D01*
X187611928Y-65500000D01*
X187548324Y-65500000D01*
X187433073Y-65284382D01*
X187244903Y-65055097D01*
X187015618Y-64866927D01*
X186754028Y-64727104D01*
X186470186Y-64641001D01*
X186175000Y-64611928D01*
X184425000Y-64611928D01*
X184129814Y-64641001D01*
X183845972Y-64727104D01*
X183584382Y-64866927D01*
X183355097Y-65055097D01*
X183166927Y-65284382D01*
X183027104Y-65545972D01*
X182941001Y-65829814D01*
X182911928Y-66125000D01*
X180881195Y-66125000D01*
X180889376Y-66106233D01*
X180935000Y-65897000D01*
X180935000Y-65147000D01*
X179977000Y-65147000D01*
X179723000Y-65147000D01*
X179176608Y-65147000D01*
X179170520Y-65140912D01*
X179368767Y-65124216D01*
X179444589Y-64945616D01*
X179455536Y-64893000D01*
X179723000Y-64893000D01*
X179723000Y-63352498D01*
X179977000Y-63352498D01*
X179977000Y-64893000D01*
X180935000Y-64893000D01*
X180935000Y-64143000D01*
X180889376Y-63933767D01*
X180803809Y-63737455D01*
X180681587Y-63561609D01*
X180527408Y-63412986D01*
X180347197Y-63297298D01*
X180144001Y-63225592D01*
X179977000Y-63352498D01*
X179723000Y-63352498D01*
X179555999Y-63225592D01*
X179352803Y-63297298D01*
X179172592Y-63412986D01*
X179018413Y-63561609D01*
X178896191Y-63737455D01*
X178892272Y-63746445D01*
X178795616Y-63705411D01*
X178605656Y-63665890D01*
X178411636Y-63664187D01*
X178280390Y-63689098D01*
X178278817Y-63687181D01*
X178245045Y-63659465D01*
X177840535Y-63254955D01*
X177812818Y-63221182D01*
X177678060Y-63110588D01*
X177524314Y-63028410D01*
X177357491Y-62977804D01*
X177227478Y-62964999D01*
X177227470Y-62964999D01*
X177184001Y-62960718D01*
X177140532Y-62964999D01*
X173909464Y-62964999D01*
X173865998Y-62960718D01*
X173822532Y-62964999D01*
X173822522Y-62964999D01*
X173692509Y-62977804D01*
X173525686Y-63028410D01*
X173371940Y-63110588D01*
X173237182Y-63221182D01*
X173209465Y-63254955D01*
X172804952Y-63659468D01*
X172771184Y-63687181D01*
X172769260Y-63689525D01*
X172655656Y-63665890D01*
X172461636Y-63664187D01*
X172271011Y-63700368D01*
X172157611Y-63746178D01*
X172153809Y-63737455D01*
X172031587Y-63561609D01*
X171877408Y-63412986D01*
X171697197Y-63297298D01*
X171494001Y-63225592D01*
X171327000Y-63352498D01*
X171073000Y-63352498D01*
X170905999Y-63225592D01*
X170702803Y-63297298D01*
X170522592Y-63412986D01*
X170368413Y-63561609D01*
X170246191Y-63737455D01*
X170160624Y-63933767D01*
X170115000Y-64143000D01*
X152748132Y-64143000D01*
X150801996Y-62196865D01*
X150766449Y-62153551D01*
X150593623Y-62011716D01*
X150396447Y-61906324D01*
X150182499Y-61841423D01*
X150015752Y-61825000D01*
X150015751Y-61825000D01*
X149960000Y-61819509D01*
X149904249Y-61825000D01*
X145780287Y-61825000D01*
X145693485Y-61767000D01*
X170115000Y-61767000D01*
X170115000Y-62167000D01*
X170160624Y-62376233D01*
X170246191Y-62572545D01*
X170368413Y-62748391D01*
X170522592Y-62897014D01*
X170702803Y-63012702D01*
X170905999Y-63084408D01*
X171073000Y-62957502D01*
X171073000Y-61767000D01*
X171327000Y-61767000D01*
X171327000Y-62957502D01*
X171494001Y-63084408D01*
X171697197Y-63012702D01*
X171877408Y-62897014D01*
X172031587Y-62748391D01*
X172153809Y-62572545D01*
X172239376Y-62376233D01*
X172285000Y-62167000D01*
X172285000Y-61767000D01*
X178765000Y-61767000D01*
X178765000Y-62167000D01*
X178810624Y-62376233D01*
X178896191Y-62572545D01*
X179018413Y-62748391D01*
X179172592Y-62897014D01*
X179352803Y-63012702D01*
X179555999Y-63084408D01*
X179723000Y-62957502D01*
X179723000Y-61767000D01*
X179977000Y-61767000D01*
X179977000Y-62957502D01*
X180144001Y-63084408D01*
X180347197Y-63012702D01*
X180527408Y-62897014D01*
X180681587Y-62748391D01*
X180803809Y-62572545D01*
X180835429Y-62500000D01*
X187611928Y-62500000D01*
X187615000Y-63714250D01*
X187773750Y-63873000D01*
X189873000Y-63873000D01*
X189873000Y-62023750D01*
X190127000Y-62023750D01*
X190127000Y-63873000D01*
X192226250Y-63873000D01*
X192385000Y-63714250D01*
X192388072Y-62500000D01*
X192375812Y-62375518D01*
X192339502Y-62255820D01*
X192280537Y-62145506D01*
X192201185Y-62048815D01*
X192104494Y-61969463D01*
X191994180Y-61910498D01*
X191874482Y-61874188D01*
X191750000Y-61861928D01*
X190285750Y-61865000D01*
X190127000Y-62023750D01*
X189873000Y-62023750D01*
X189714250Y-61865000D01*
X188250000Y-61861928D01*
X188125518Y-61874188D01*
X188005820Y-61910498D01*
X187895506Y-61969463D01*
X187798815Y-62048815D01*
X187719463Y-62145506D01*
X187660498Y-62255820D01*
X187624188Y-62375518D01*
X187611928Y-62500000D01*
X180835429Y-62500000D01*
X180889376Y-62376233D01*
X180935000Y-62167000D01*
X180935000Y-61767000D01*
X179977000Y-61767000D01*
X179723000Y-61767000D01*
X178765000Y-61767000D01*
X172285000Y-61767000D01*
X171327000Y-61767000D01*
X171073000Y-61767000D01*
X170115000Y-61767000D01*
X145693485Y-61767000D01*
X145681833Y-61759215D01*
X145435239Y-61657072D01*
X145173456Y-61605000D01*
X144906544Y-61605000D01*
X144644761Y-61657072D01*
X144398167Y-61759215D01*
X144176238Y-61907503D01*
X143987503Y-62096238D01*
X143839215Y-62318167D01*
X143737072Y-62564761D01*
X143685000Y-62826544D01*
X105127000Y-62826544D01*
X105127000Y-60660000D01*
X170279175Y-60660000D01*
X170246191Y-60707455D01*
%TD*%
M02*
