%TF.GenerationSoftware,KiCad,Pcbnew,5.1.6-c6e7f7d~87~ubuntu20.04.1*%
%TF.CreationDate,2020-08-06T11:27:34+01:00*%
%TF.ProjectId,led_matrix,6c65645f-6d61-4747-9269-782e6b696361,rev?*%
%TF.SameCoordinates,Original*%
%TF.FileFunction,Copper,L1,Top*%
%TF.FilePolarity,Positive*%
%FSLAX46Y46*%
G04 Gerber Fmt 4.6, Leading zero omitted, Abs format (unit mm)*
G04 Created by KiCad (PCBNEW 5.1.6-c6e7f7d~87~ubuntu20.04.1) date 2020-08-06 11:27:34*
%MOMM*%
%LPD*%
G01*
G04 APERTURE LIST*
%TA.AperFunction,ComponentPad*%
%ADD10R,1.800000X1.800000*%
%TD*%
%TA.AperFunction,ComponentPad*%
%ADD11C,1.800000*%
%TD*%
%TA.AperFunction,ComponentPad*%
%ADD12C,0.700000*%
%TD*%
%TA.AperFunction,ComponentPad*%
%ADD13O,0.900000X2.400000*%
%TD*%
%TA.AperFunction,ComponentPad*%
%ADD14O,0.900000X1.700000*%
%TD*%
%TA.AperFunction,ComponentPad*%
%ADD15R,1.980000X3.960000*%
%TD*%
%TA.AperFunction,ComponentPad*%
%ADD16O,1.980000X3.960000*%
%TD*%
%TA.AperFunction,ComponentPad*%
%ADD17R,1.700000X1.700000*%
%TD*%
%TA.AperFunction,ComponentPad*%
%ADD18O,1.700000X1.700000*%
%TD*%
%TA.AperFunction,ComponentPad*%
%ADD19R,3.500000X3.500000*%
%TD*%
%TA.AperFunction,ComponentPad*%
%ADD20O,1.800000X1.800000*%
%TD*%
%TA.AperFunction,ComponentPad*%
%ADD21C,1.600000*%
%TD*%
%TA.AperFunction,ComponentPad*%
%ADD22O,1.600000X1.600000*%
%TD*%
%TA.AperFunction,ComponentPad*%
%ADD23C,1.440000*%
%TD*%
%TA.AperFunction,ViaPad*%
%ADD24C,0.800000*%
%TD*%
%TA.AperFunction,Conductor*%
%ADD25C,1.000000*%
%TD*%
%TA.AperFunction,Conductor*%
%ADD26C,0.500000*%
%TD*%
%TA.AperFunction,Conductor*%
%ADD27C,0.250000*%
%TD*%
%TA.AperFunction,Conductor*%
%ADD28C,0.254000*%
%TD*%
G04 APERTURE END LIST*
D10*
%TO.P,D1,1*%
%TO.N,Net-(D1-Pad1)*%
X160000000Y-129500000D03*
D11*
%TO.P,D1,2*%
%TO.N,Net-(D1-Pad2)*%
X162540000Y-129500000D03*
%TD*%
D10*
%TO.P,D2,1*%
%TO.N,Net-(D2-Pad1)*%
X160000000Y-113500000D03*
D11*
%TO.P,D2,2*%
%TO.N,Net-(D2-Pad2)*%
X162540000Y-113500000D03*
%TD*%
D10*
%TO.P,D3,1*%
%TO.N,Net-(D3-Pad1)*%
X160000000Y-98000000D03*
D11*
%TO.P,D3,2*%
%TO.N,Net-(D3-Pad2)*%
X162540000Y-98000000D03*
%TD*%
%TO.P,D4,2*%
%TO.N,Net-(D1-Pad1)*%
X137040000Y-129500000D03*
D10*
%TO.P,D4,1*%
%TO.N,Net-(D4-Pad1)*%
X134500000Y-129500000D03*
%TD*%
D11*
%TO.P,D5,2*%
%TO.N,Net-(D2-Pad1)*%
X137040000Y-113500000D03*
D10*
%TO.P,D5,1*%
%TO.N,Net-(D5-Pad1)*%
X134500000Y-113500000D03*
%TD*%
D11*
%TO.P,D6,2*%
%TO.N,Net-(D3-Pad1)*%
X137040000Y-98000000D03*
D10*
%TO.P,D6,1*%
%TO.N,Net-(D6-Pad1)*%
X134500000Y-98000000D03*
%TD*%
D11*
%TO.P,D7,2*%
%TO.N,Net-(D4-Pad1)*%
X111040000Y-129500000D03*
D10*
%TO.P,D7,1*%
%TO.N,Net-(D7-Pad1)*%
X108500000Y-129500000D03*
%TD*%
%TO.P,D8,1*%
%TO.N,Net-(D7-Pad1)*%
X108500000Y-113500000D03*
D11*
%TO.P,D8,2*%
%TO.N,Net-(D5-Pad1)*%
X111040000Y-113500000D03*
%TD*%
D10*
%TO.P,D9,1*%
%TO.N,Net-(D7-Pad1)*%
X108500000Y-98000000D03*
D11*
%TO.P,D9,2*%
%TO.N,Net-(D6-Pad1)*%
X111040000Y-98000000D03*
%TD*%
D12*
%TO.P,J1,A1*%
%TO.N,GND*%
X178500000Y-66000000D03*
%TO.P,J1,A4*%
%TO.N,Net-(J1-PadA4)*%
X177650000Y-66000000D03*
%TO.P,J1,A5*%
%TO.N,+5V*%
X176800000Y-66000000D03*
%TO.P,J1,A6*%
%TO.N,Net-(J1-PadA6)*%
X175950000Y-66000000D03*
%TO.P,J1,A7*%
%TO.N,Net-(J1-PadA7)*%
X175100000Y-66000000D03*
%TO.P,J1,A8*%
%TO.N,Net-(J1-PadA8)*%
X174250000Y-66000000D03*
%TO.P,J1,A9*%
%TO.N,Net-(J1-PadA4)*%
X173400000Y-66000000D03*
%TO.P,J1,A12*%
%TO.N,GND*%
X172550000Y-66000000D03*
%TO.P,J1,B9*%
%TO.N,Net-(J1-PadA4)*%
X177650000Y-64650000D03*
%TO.P,J1,B7*%
%TO.N,Net-(J1-PadB7)*%
X175950000Y-64650000D03*
%TO.P,J1,B8*%
%TO.N,Net-(J1-PadB8)*%
X176800000Y-64650000D03*
%TO.P,J1,B12*%
%TO.N,GND*%
X178500000Y-64650000D03*
%TO.P,J1,B5*%
%TO.N,Net-(J1-PadB5)*%
X174250000Y-64650000D03*
%TO.P,J1,B4*%
%TO.N,Net-(J1-PadA4)*%
X173400000Y-64650000D03*
%TO.P,J1,B1*%
%TO.N,GND*%
X172550000Y-64650000D03*
%TO.P,J1,B6*%
%TO.N,Net-(J1-PadB6)*%
X175100000Y-64650000D03*
D13*
%TO.P,J1,S1*%
%TO.N,GND*%
X179850000Y-65020000D03*
X171200000Y-65020000D03*
D14*
X179850000Y-61640000D03*
X171200000Y-61640000D03*
%TD*%
D15*
%TO.P,J2,1*%
%TO.N,+5V*%
X165000000Y-67000000D03*
D16*
%TO.P,J2,2*%
%TO.N,GND*%
X160000000Y-67000000D03*
%TD*%
D17*
%TO.P,J3,1*%
%TO.N,Net-(J3-Pad1)*%
X132000000Y-67000000D03*
D18*
%TO.P,J3,2*%
%TO.N,GND*%
X132000000Y-69540000D03*
%TD*%
D19*
%TO.P,J4,1*%
%TO.N,+5V*%
X190000000Y-70000000D03*
%TO.P,J4,2*%
%TO.N,GND*%
%TA.AperFunction,ComponentPad*%
G36*
G01*
X189000000Y-62500000D02*
X191000000Y-62500000D01*
G75*
G02*
X191750000Y-63250000I0J-750000D01*
G01*
X191750000Y-64750000D01*
G75*
G02*
X191000000Y-65500000I-750000J0D01*
G01*
X189000000Y-65500000D01*
G75*
G02*
X188250000Y-64750000I0J750000D01*
G01*
X188250000Y-63250000D01*
G75*
G02*
X189000000Y-62500000I750000J0D01*
G01*
G37*
%TD.AperFunction*%
%TO.P,J4,3*%
%TO.N,N/C*%
%TA.AperFunction,ComponentPad*%
G36*
G01*
X184425000Y-65250000D02*
X186175000Y-65250000D01*
G75*
G02*
X187050000Y-66125000I0J-875000D01*
G01*
X187050000Y-67875000D01*
G75*
G02*
X186175000Y-68750000I-875000J0D01*
G01*
X184425000Y-68750000D01*
G75*
G02*
X183550000Y-67875000I0J875000D01*
G01*
X183550000Y-66125000D01*
G75*
G02*
X184425000Y-65250000I875000J0D01*
G01*
G37*
%TD.AperFunction*%
%TD*%
D17*
%TO.P,JP1,1*%
%TO.N,Net-(J3-Pad1)*%
X123500000Y-71000000D03*
D18*
%TO.P,JP1,2*%
%TO.N,control_signal*%
X123500000Y-68460000D03*
%TO.P,JP1,3*%
%TO.N,+5V*%
X123500000Y-65920000D03*
%TD*%
D10*
%TO.P,Q1,1*%
%TO.N,GND*%
X108500000Y-66000000D03*
D20*
%TO.P,Q1,2*%
%TO.N,Net-(D7-Pad1)*%
X108500000Y-68540000D03*
%TO.P,Q1,3*%
%TO.N,Net-(Q1-Pad3)*%
X108500000Y-71080000D03*
%TD*%
D21*
%TO.P,R1,1*%
%TO.N,Net-(R1-Pad1)*%
X180000000Y-129500000D03*
D22*
%TO.P,R1,2*%
%TO.N,Net-(D1-Pad2)*%
X174920000Y-129500000D03*
%TD*%
%TO.P,R2,2*%
%TO.N,Net-(D2-Pad2)*%
X174920000Y-113500000D03*
D21*
%TO.P,R2,1*%
%TO.N,Net-(R1-Pad1)*%
X180000000Y-113500000D03*
%TD*%
%TO.P,R3,1*%
%TO.N,Net-(R1-Pad1)*%
X180000000Y-98000000D03*
D22*
%TO.P,R3,2*%
%TO.N,Net-(D3-Pad2)*%
X174920000Y-98000000D03*
%TD*%
%TO.P,R4,2*%
%TO.N,control_signal*%
X115500000Y-65420000D03*
D21*
%TO.P,R4,1*%
%TO.N,Net-(Q1-Pad3)*%
X115500000Y-70500000D03*
%TD*%
D18*
%TO.P,SW1,2*%
%TO.N,+5V*%
X177040000Y-77000000D03*
D17*
%TO.P,SW1,1*%
%TO.N,Net-(RV1-Pad1)*%
X174500000Y-77000000D03*
%TD*%
D23*
%TO.P,RV1,3*%
%TO.N,GND*%
X147580000Y-65500000D03*
%TO.P,RV1,2*%
%TO.N,Net-(R1-Pad1)*%
X145040000Y-62960000D03*
%TO.P,RV1,1*%
%TO.N,Net-(RV1-Pad1)*%
X142500000Y-65500000D03*
%TD*%
D24*
%TO.N,+5V*%
X177000000Y-68000000D03*
%TD*%
D25*
%TO.N,Net-(D1-Pad1)*%
X137040000Y-129500000D02*
X160000000Y-129500000D01*
%TO.N,Net-(D1-Pad2)*%
X162540000Y-129500000D02*
X174920000Y-129500000D01*
%TO.N,Net-(D2-Pad1)*%
X137040000Y-113500000D02*
X160000000Y-113500000D01*
%TO.N,Net-(D2-Pad2)*%
X162540000Y-113500000D02*
X174920000Y-113500000D01*
%TO.N,Net-(D3-Pad1)*%
X160000000Y-98000000D02*
X140000000Y-98000000D01*
X140000000Y-98000000D02*
X137040000Y-98000000D01*
%TO.N,Net-(D3-Pad2)*%
X174920000Y-98000000D02*
X162540000Y-98000000D01*
%TO.N,Net-(D4-Pad1)*%
X134500000Y-129500000D02*
X111040000Y-129500000D01*
%TO.N,Net-(D5-Pad1)*%
X134500000Y-113500000D02*
X111040000Y-113500000D01*
%TO.N,Net-(D6-Pad1)*%
X111040000Y-98000000D02*
X134500000Y-98000000D01*
%TO.N,Net-(D7-Pad1)*%
X108500000Y-98000000D02*
X108500000Y-113500000D01*
X108500000Y-113500000D02*
X108500000Y-129500000D01*
X102000000Y-107000000D02*
X108500000Y-113500000D01*
X102000000Y-76500000D02*
X102000000Y-107000000D01*
X102000000Y-75040000D02*
X108500000Y-68540000D01*
X102000000Y-76500000D02*
X102000000Y-75040000D01*
D26*
%TO.N,+5V*%
X176800000Y-67800000D02*
X177000000Y-68000000D01*
X176800000Y-66000000D02*
X176800000Y-67800000D01*
D27*
%TO.N,Net-(J3-Pad1)*%
X127500000Y-67000000D02*
X123500000Y-71000000D01*
X132000000Y-67000000D02*
X127500000Y-67000000D01*
%TO.N,control_signal*%
X118540000Y-68460000D02*
X115500000Y-65420000D01*
X123500000Y-68460000D02*
X118540000Y-68460000D01*
%TO.N,Net-(Q1-Pad3)*%
X109080000Y-70500000D02*
X108500000Y-71080000D01*
X115500000Y-70500000D02*
X109080000Y-70500000D01*
D25*
%TO.N,Net-(RV1-Pad1)*%
X154000000Y-77000000D02*
X142500000Y-65500000D01*
X174500000Y-77000000D02*
X154000000Y-77000000D01*
%TD*%
D28*
%TO.N,+5V*%
G36*
X170192742Y-60822780D02*
G01*
X170130700Y-61027303D01*
X170115000Y-61186706D01*
X170115000Y-62093293D01*
X170130700Y-62252696D01*
X170192741Y-62457219D01*
X170293491Y-62645710D01*
X170429078Y-62810922D01*
X170594290Y-62946509D01*
X170782780Y-63047259D01*
X170987303Y-63109300D01*
X171200000Y-63130249D01*
X171412696Y-63109300D01*
X171617219Y-63047259D01*
X171805710Y-62946509D01*
X171970922Y-62810922D01*
X172106509Y-62645710D01*
X172207259Y-62457220D01*
X172269300Y-62252697D01*
X172285000Y-62093294D01*
X172285000Y-61186707D01*
X172269300Y-61027304D01*
X172207259Y-60822780D01*
X172120251Y-60660000D01*
X178929750Y-60660000D01*
X178842742Y-60822780D01*
X178780700Y-61027303D01*
X178765000Y-61186706D01*
X178765000Y-62093293D01*
X178780700Y-62252696D01*
X178842741Y-62457219D01*
X178943491Y-62645710D01*
X179079078Y-62810922D01*
X179244290Y-62946509D01*
X179432780Y-63047259D01*
X179637303Y-63109300D01*
X179850000Y-63130249D01*
X180062696Y-63109300D01*
X180267219Y-63047259D01*
X180455710Y-62946509D01*
X180620922Y-62810922D01*
X180756509Y-62645710D01*
X180857259Y-62457220D01*
X180919300Y-62252697D01*
X180935000Y-62093294D01*
X180935000Y-61186707D01*
X180919300Y-61027304D01*
X180857259Y-60822780D01*
X180770251Y-60660000D01*
X193373439Y-60660000D01*
X193423474Y-78873000D01*
X185000000Y-78873000D01*
X184975224Y-78875440D01*
X184951399Y-78882667D01*
X184929443Y-78894403D01*
X184910197Y-78910197D01*
X184894403Y-78929443D01*
X184882667Y-78951399D01*
X184875440Y-78975224D01*
X184873000Y-79000000D01*
X184873000Y-89000000D01*
X184875440Y-89024776D01*
X184882667Y-89048601D01*
X184894403Y-89070557D01*
X184910197Y-89089803D01*
X184929443Y-89105597D01*
X184951399Y-89117333D01*
X184975224Y-89124560D01*
X185000000Y-89127000D01*
X193451645Y-89127000D01*
X193597925Y-142373000D01*
X185000000Y-142373000D01*
X184975224Y-142375440D01*
X184951399Y-142382667D01*
X184929443Y-142394403D01*
X184910197Y-142410197D01*
X184894403Y-142429443D01*
X184882667Y-142451399D01*
X184875440Y-142475224D01*
X184873000Y-142500000D01*
X184873000Y-151373000D01*
X105127000Y-151373000D01*
X105127000Y-142500000D01*
X105124560Y-142475224D01*
X105117333Y-142451399D01*
X105105597Y-142429443D01*
X105089803Y-142410197D01*
X105070557Y-142394403D01*
X105048601Y-142382667D01*
X105024776Y-142375440D01*
X105000000Y-142373000D01*
X96226927Y-142373000D01*
X96226672Y-142279872D01*
X109765000Y-142279872D01*
X109765000Y-142720128D01*
X109850890Y-143151925D01*
X110019369Y-143558669D01*
X110263962Y-143924729D01*
X110575271Y-144236038D01*
X110941331Y-144480631D01*
X111348075Y-144649110D01*
X111779872Y-144735000D01*
X112220128Y-144735000D01*
X112651925Y-144649110D01*
X113058669Y-144480631D01*
X113424729Y-144236038D01*
X113736038Y-143924729D01*
X113980631Y-143558669D01*
X114149110Y-143151925D01*
X114223116Y-142779872D01*
X155765000Y-142779872D01*
X155765000Y-143220128D01*
X155850890Y-143651925D01*
X156019369Y-144058669D01*
X156263962Y-144424729D01*
X156575271Y-144736038D01*
X156941331Y-144980631D01*
X157348075Y-145149110D01*
X157779872Y-145235000D01*
X158220128Y-145235000D01*
X158651925Y-145149110D01*
X159058669Y-144980631D01*
X159424729Y-144736038D01*
X159736038Y-144424729D01*
X159980631Y-144058669D01*
X160149110Y-143651925D01*
X160235000Y-143220128D01*
X160235000Y-142779872D01*
X160149110Y-142348075D01*
X159980631Y-141941331D01*
X159736038Y-141575271D01*
X159424729Y-141263962D01*
X159058669Y-141019369D01*
X158651925Y-140850890D01*
X158220128Y-140765000D01*
X157779872Y-140765000D01*
X157348075Y-140850890D01*
X156941331Y-141019369D01*
X156575271Y-141263962D01*
X156263962Y-141575271D01*
X156019369Y-141941331D01*
X155850890Y-142348075D01*
X155765000Y-142779872D01*
X114223116Y-142779872D01*
X114235000Y-142720128D01*
X114235000Y-142279872D01*
X114149110Y-141848075D01*
X113980631Y-141441331D01*
X113736038Y-141075271D01*
X113424729Y-140763962D01*
X113058669Y-140519369D01*
X112651925Y-140350890D01*
X112220128Y-140265000D01*
X111779872Y-140265000D01*
X111348075Y-140350890D01*
X110941331Y-140519369D01*
X110575271Y-140763962D01*
X110263962Y-141075271D01*
X110019369Y-141441331D01*
X109850890Y-141848075D01*
X109765000Y-142279872D01*
X96226672Y-142279872D01*
X96041947Y-75040000D01*
X100859509Y-75040000D01*
X100865000Y-75095751D01*
X100865000Y-76444249D01*
X100865001Y-106944238D01*
X100859509Y-107000000D01*
X100881423Y-107222498D01*
X100946324Y-107436446D01*
X100946325Y-107436447D01*
X101051717Y-107633623D01*
X101193552Y-107806449D01*
X101236860Y-107841991D01*
X106961928Y-113567060D01*
X106961928Y-114400000D01*
X106974188Y-114524482D01*
X107010498Y-114644180D01*
X107069463Y-114754494D01*
X107148815Y-114851185D01*
X107245506Y-114930537D01*
X107355820Y-114989502D01*
X107365000Y-114992287D01*
X107365001Y-128007713D01*
X107355820Y-128010498D01*
X107245506Y-128069463D01*
X107148815Y-128148815D01*
X107069463Y-128245506D01*
X107010498Y-128355820D01*
X106974188Y-128475518D01*
X106961928Y-128600000D01*
X106961928Y-130400000D01*
X106974188Y-130524482D01*
X107010498Y-130644180D01*
X107069463Y-130754494D01*
X107148815Y-130851185D01*
X107245506Y-130930537D01*
X107355820Y-130989502D01*
X107475518Y-131025812D01*
X107600000Y-131038072D01*
X109400000Y-131038072D01*
X109524482Y-131025812D01*
X109644180Y-130989502D01*
X109754494Y-130930537D01*
X109851185Y-130851185D01*
X109930537Y-130754494D01*
X109989502Y-130644180D01*
X109995056Y-130625873D01*
X110061495Y-130692312D01*
X110312905Y-130860299D01*
X110592257Y-130976011D01*
X110888816Y-131035000D01*
X111191184Y-131035000D01*
X111487743Y-130976011D01*
X111767095Y-130860299D01*
X112018505Y-130692312D01*
X112075817Y-130635000D01*
X133007713Y-130635000D01*
X133010498Y-130644180D01*
X133069463Y-130754494D01*
X133148815Y-130851185D01*
X133245506Y-130930537D01*
X133355820Y-130989502D01*
X133475518Y-131025812D01*
X133600000Y-131038072D01*
X135400000Y-131038072D01*
X135524482Y-131025812D01*
X135644180Y-130989502D01*
X135754494Y-130930537D01*
X135851185Y-130851185D01*
X135930537Y-130754494D01*
X135989502Y-130644180D01*
X135995056Y-130625873D01*
X136061495Y-130692312D01*
X136312905Y-130860299D01*
X136592257Y-130976011D01*
X136888816Y-131035000D01*
X137191184Y-131035000D01*
X137487743Y-130976011D01*
X137767095Y-130860299D01*
X138018505Y-130692312D01*
X138075817Y-130635000D01*
X158507713Y-130635000D01*
X158510498Y-130644180D01*
X158569463Y-130754494D01*
X158648815Y-130851185D01*
X158745506Y-130930537D01*
X158855820Y-130989502D01*
X158975518Y-131025812D01*
X159100000Y-131038072D01*
X160900000Y-131038072D01*
X161024482Y-131025812D01*
X161144180Y-130989502D01*
X161254494Y-130930537D01*
X161351185Y-130851185D01*
X161430537Y-130754494D01*
X161489502Y-130644180D01*
X161495056Y-130625873D01*
X161561495Y-130692312D01*
X161812905Y-130860299D01*
X162092257Y-130976011D01*
X162388816Y-131035000D01*
X162691184Y-131035000D01*
X162987743Y-130976011D01*
X163267095Y-130860299D01*
X163518505Y-130692312D01*
X163575817Y-130635000D01*
X174035716Y-130635000D01*
X174240273Y-130771680D01*
X174501426Y-130879853D01*
X174778665Y-130935000D01*
X175061335Y-130935000D01*
X175338574Y-130879853D01*
X175599727Y-130771680D01*
X175834759Y-130614637D01*
X176034637Y-130414759D01*
X176191680Y-130179727D01*
X176299853Y-129918574D01*
X176355000Y-129641335D01*
X176355000Y-129358665D01*
X178565000Y-129358665D01*
X178565000Y-129641335D01*
X178620147Y-129918574D01*
X178728320Y-130179727D01*
X178885363Y-130414759D01*
X179085241Y-130614637D01*
X179320273Y-130771680D01*
X179581426Y-130879853D01*
X179858665Y-130935000D01*
X180141335Y-130935000D01*
X180418574Y-130879853D01*
X180679727Y-130771680D01*
X180914759Y-130614637D01*
X181114637Y-130414759D01*
X181271680Y-130179727D01*
X181379853Y-129918574D01*
X181435000Y-129641335D01*
X181435000Y-129358665D01*
X181379853Y-129081426D01*
X181271680Y-128820273D01*
X181114637Y-128585241D01*
X180914759Y-128385363D01*
X180679727Y-128228320D01*
X180418574Y-128120147D01*
X180141335Y-128065000D01*
X179858665Y-128065000D01*
X179581426Y-128120147D01*
X179320273Y-128228320D01*
X179085241Y-128385363D01*
X178885363Y-128585241D01*
X178728320Y-128820273D01*
X178620147Y-129081426D01*
X178565000Y-129358665D01*
X176355000Y-129358665D01*
X176299853Y-129081426D01*
X176191680Y-128820273D01*
X176034637Y-128585241D01*
X175834759Y-128385363D01*
X175599727Y-128228320D01*
X175338574Y-128120147D01*
X175061335Y-128065000D01*
X174778665Y-128065000D01*
X174501426Y-128120147D01*
X174240273Y-128228320D01*
X174035716Y-128365000D01*
X163575817Y-128365000D01*
X163518505Y-128307688D01*
X163267095Y-128139701D01*
X162987743Y-128023989D01*
X162691184Y-127965000D01*
X162388816Y-127965000D01*
X162092257Y-128023989D01*
X161812905Y-128139701D01*
X161561495Y-128307688D01*
X161495056Y-128374127D01*
X161489502Y-128355820D01*
X161430537Y-128245506D01*
X161351185Y-128148815D01*
X161254494Y-128069463D01*
X161144180Y-128010498D01*
X161024482Y-127974188D01*
X160900000Y-127961928D01*
X159100000Y-127961928D01*
X158975518Y-127974188D01*
X158855820Y-128010498D01*
X158745506Y-128069463D01*
X158648815Y-128148815D01*
X158569463Y-128245506D01*
X158510498Y-128355820D01*
X158507713Y-128365000D01*
X138075817Y-128365000D01*
X138018505Y-128307688D01*
X137767095Y-128139701D01*
X137487743Y-128023989D01*
X137191184Y-127965000D01*
X136888816Y-127965000D01*
X136592257Y-128023989D01*
X136312905Y-128139701D01*
X136061495Y-128307688D01*
X135995056Y-128374127D01*
X135989502Y-128355820D01*
X135930537Y-128245506D01*
X135851185Y-128148815D01*
X135754494Y-128069463D01*
X135644180Y-128010498D01*
X135524482Y-127974188D01*
X135400000Y-127961928D01*
X133600000Y-127961928D01*
X133475518Y-127974188D01*
X133355820Y-128010498D01*
X133245506Y-128069463D01*
X133148815Y-128148815D01*
X133069463Y-128245506D01*
X133010498Y-128355820D01*
X133007713Y-128365000D01*
X112075817Y-128365000D01*
X112018505Y-128307688D01*
X111767095Y-128139701D01*
X111487743Y-128023989D01*
X111191184Y-127965000D01*
X110888816Y-127965000D01*
X110592257Y-128023989D01*
X110312905Y-128139701D01*
X110061495Y-128307688D01*
X109995056Y-128374127D01*
X109989502Y-128355820D01*
X109930537Y-128245506D01*
X109851185Y-128148815D01*
X109754494Y-128069463D01*
X109644180Y-128010498D01*
X109635000Y-128007713D01*
X109635000Y-114992287D01*
X109644180Y-114989502D01*
X109754494Y-114930537D01*
X109851185Y-114851185D01*
X109930537Y-114754494D01*
X109989502Y-114644180D01*
X109995056Y-114625873D01*
X110061495Y-114692312D01*
X110312905Y-114860299D01*
X110592257Y-114976011D01*
X110888816Y-115035000D01*
X111191184Y-115035000D01*
X111487743Y-114976011D01*
X111767095Y-114860299D01*
X112018505Y-114692312D01*
X112075817Y-114635000D01*
X133007713Y-114635000D01*
X133010498Y-114644180D01*
X133069463Y-114754494D01*
X133148815Y-114851185D01*
X133245506Y-114930537D01*
X133355820Y-114989502D01*
X133475518Y-115025812D01*
X133600000Y-115038072D01*
X135400000Y-115038072D01*
X135524482Y-115025812D01*
X135644180Y-114989502D01*
X135754494Y-114930537D01*
X135851185Y-114851185D01*
X135930537Y-114754494D01*
X135989502Y-114644180D01*
X135995056Y-114625873D01*
X136061495Y-114692312D01*
X136312905Y-114860299D01*
X136592257Y-114976011D01*
X136888816Y-115035000D01*
X137191184Y-115035000D01*
X137487743Y-114976011D01*
X137767095Y-114860299D01*
X138018505Y-114692312D01*
X138075817Y-114635000D01*
X158507713Y-114635000D01*
X158510498Y-114644180D01*
X158569463Y-114754494D01*
X158648815Y-114851185D01*
X158745506Y-114930537D01*
X158855820Y-114989502D01*
X158975518Y-115025812D01*
X159100000Y-115038072D01*
X160900000Y-115038072D01*
X161024482Y-115025812D01*
X161144180Y-114989502D01*
X161254494Y-114930537D01*
X161351185Y-114851185D01*
X161430537Y-114754494D01*
X161489502Y-114644180D01*
X161495056Y-114625873D01*
X161561495Y-114692312D01*
X161812905Y-114860299D01*
X162092257Y-114976011D01*
X162388816Y-115035000D01*
X162691184Y-115035000D01*
X162987743Y-114976011D01*
X163267095Y-114860299D01*
X163518505Y-114692312D01*
X163575817Y-114635000D01*
X174035716Y-114635000D01*
X174240273Y-114771680D01*
X174501426Y-114879853D01*
X174778665Y-114935000D01*
X175061335Y-114935000D01*
X175338574Y-114879853D01*
X175599727Y-114771680D01*
X175834759Y-114614637D01*
X176034637Y-114414759D01*
X176191680Y-114179727D01*
X176299853Y-113918574D01*
X176355000Y-113641335D01*
X176355000Y-113358665D01*
X178565000Y-113358665D01*
X178565000Y-113641335D01*
X178620147Y-113918574D01*
X178728320Y-114179727D01*
X178885363Y-114414759D01*
X179085241Y-114614637D01*
X179320273Y-114771680D01*
X179581426Y-114879853D01*
X179858665Y-114935000D01*
X180141335Y-114935000D01*
X180418574Y-114879853D01*
X180679727Y-114771680D01*
X180914759Y-114614637D01*
X181114637Y-114414759D01*
X181271680Y-114179727D01*
X181379853Y-113918574D01*
X181435000Y-113641335D01*
X181435000Y-113358665D01*
X181379853Y-113081426D01*
X181271680Y-112820273D01*
X181114637Y-112585241D01*
X180914759Y-112385363D01*
X180679727Y-112228320D01*
X180418574Y-112120147D01*
X180141335Y-112065000D01*
X179858665Y-112065000D01*
X179581426Y-112120147D01*
X179320273Y-112228320D01*
X179085241Y-112385363D01*
X178885363Y-112585241D01*
X178728320Y-112820273D01*
X178620147Y-113081426D01*
X178565000Y-113358665D01*
X176355000Y-113358665D01*
X176299853Y-113081426D01*
X176191680Y-112820273D01*
X176034637Y-112585241D01*
X175834759Y-112385363D01*
X175599727Y-112228320D01*
X175338574Y-112120147D01*
X175061335Y-112065000D01*
X174778665Y-112065000D01*
X174501426Y-112120147D01*
X174240273Y-112228320D01*
X174035716Y-112365000D01*
X163575817Y-112365000D01*
X163518505Y-112307688D01*
X163267095Y-112139701D01*
X162987743Y-112023989D01*
X162691184Y-111965000D01*
X162388816Y-111965000D01*
X162092257Y-112023989D01*
X161812905Y-112139701D01*
X161561495Y-112307688D01*
X161495056Y-112374127D01*
X161489502Y-112355820D01*
X161430537Y-112245506D01*
X161351185Y-112148815D01*
X161254494Y-112069463D01*
X161144180Y-112010498D01*
X161024482Y-111974188D01*
X160900000Y-111961928D01*
X159100000Y-111961928D01*
X158975518Y-111974188D01*
X158855820Y-112010498D01*
X158745506Y-112069463D01*
X158648815Y-112148815D01*
X158569463Y-112245506D01*
X158510498Y-112355820D01*
X158507713Y-112365000D01*
X138075817Y-112365000D01*
X138018505Y-112307688D01*
X137767095Y-112139701D01*
X137487743Y-112023989D01*
X137191184Y-111965000D01*
X136888816Y-111965000D01*
X136592257Y-112023989D01*
X136312905Y-112139701D01*
X136061495Y-112307688D01*
X135995056Y-112374127D01*
X135989502Y-112355820D01*
X135930537Y-112245506D01*
X135851185Y-112148815D01*
X135754494Y-112069463D01*
X135644180Y-112010498D01*
X135524482Y-111974188D01*
X135400000Y-111961928D01*
X133600000Y-111961928D01*
X133475518Y-111974188D01*
X133355820Y-112010498D01*
X133245506Y-112069463D01*
X133148815Y-112148815D01*
X133069463Y-112245506D01*
X133010498Y-112355820D01*
X133007713Y-112365000D01*
X112075817Y-112365000D01*
X112018505Y-112307688D01*
X111767095Y-112139701D01*
X111487743Y-112023989D01*
X111191184Y-111965000D01*
X110888816Y-111965000D01*
X110592257Y-112023989D01*
X110312905Y-112139701D01*
X110061495Y-112307688D01*
X109995056Y-112374127D01*
X109989502Y-112355820D01*
X109930537Y-112245506D01*
X109851185Y-112148815D01*
X109754494Y-112069463D01*
X109644180Y-112010498D01*
X109635000Y-112007713D01*
X109635000Y-99492287D01*
X109644180Y-99489502D01*
X109754494Y-99430537D01*
X109851185Y-99351185D01*
X109930537Y-99254494D01*
X109989502Y-99144180D01*
X109995056Y-99125873D01*
X110061495Y-99192312D01*
X110312905Y-99360299D01*
X110592257Y-99476011D01*
X110888816Y-99535000D01*
X111191184Y-99535000D01*
X111487743Y-99476011D01*
X111767095Y-99360299D01*
X112018505Y-99192312D01*
X112075817Y-99135000D01*
X133007713Y-99135000D01*
X133010498Y-99144180D01*
X133069463Y-99254494D01*
X133148815Y-99351185D01*
X133245506Y-99430537D01*
X133355820Y-99489502D01*
X133475518Y-99525812D01*
X133600000Y-99538072D01*
X135400000Y-99538072D01*
X135524482Y-99525812D01*
X135644180Y-99489502D01*
X135754494Y-99430537D01*
X135851185Y-99351185D01*
X135930537Y-99254494D01*
X135989502Y-99144180D01*
X135995056Y-99125873D01*
X136061495Y-99192312D01*
X136312905Y-99360299D01*
X136592257Y-99476011D01*
X136888816Y-99535000D01*
X137191184Y-99535000D01*
X137487743Y-99476011D01*
X137767095Y-99360299D01*
X138018505Y-99192312D01*
X138075817Y-99135000D01*
X158507713Y-99135000D01*
X158510498Y-99144180D01*
X158569463Y-99254494D01*
X158648815Y-99351185D01*
X158745506Y-99430537D01*
X158855820Y-99489502D01*
X158975518Y-99525812D01*
X159100000Y-99538072D01*
X160900000Y-99538072D01*
X161024482Y-99525812D01*
X161144180Y-99489502D01*
X161254494Y-99430537D01*
X161351185Y-99351185D01*
X161430537Y-99254494D01*
X161489502Y-99144180D01*
X161495056Y-99125873D01*
X161561495Y-99192312D01*
X161812905Y-99360299D01*
X162092257Y-99476011D01*
X162388816Y-99535000D01*
X162691184Y-99535000D01*
X162987743Y-99476011D01*
X163267095Y-99360299D01*
X163518505Y-99192312D01*
X163575817Y-99135000D01*
X174035716Y-99135000D01*
X174240273Y-99271680D01*
X174501426Y-99379853D01*
X174778665Y-99435000D01*
X175061335Y-99435000D01*
X175338574Y-99379853D01*
X175599727Y-99271680D01*
X175834759Y-99114637D01*
X176034637Y-98914759D01*
X176191680Y-98679727D01*
X176299853Y-98418574D01*
X176355000Y-98141335D01*
X176355000Y-97858665D01*
X178565000Y-97858665D01*
X178565000Y-98141335D01*
X178620147Y-98418574D01*
X178728320Y-98679727D01*
X178885363Y-98914759D01*
X179085241Y-99114637D01*
X179320273Y-99271680D01*
X179581426Y-99379853D01*
X179858665Y-99435000D01*
X180141335Y-99435000D01*
X180418574Y-99379853D01*
X180679727Y-99271680D01*
X180914759Y-99114637D01*
X181114637Y-98914759D01*
X181271680Y-98679727D01*
X181379853Y-98418574D01*
X181435000Y-98141335D01*
X181435000Y-97858665D01*
X181379853Y-97581426D01*
X181271680Y-97320273D01*
X181114637Y-97085241D01*
X180914759Y-96885363D01*
X180679727Y-96728320D01*
X180418574Y-96620147D01*
X180141335Y-96565000D01*
X179858665Y-96565000D01*
X179581426Y-96620147D01*
X179320273Y-96728320D01*
X179085241Y-96885363D01*
X178885363Y-97085241D01*
X178728320Y-97320273D01*
X178620147Y-97581426D01*
X178565000Y-97858665D01*
X176355000Y-97858665D01*
X176299853Y-97581426D01*
X176191680Y-97320273D01*
X176034637Y-97085241D01*
X175834759Y-96885363D01*
X175599727Y-96728320D01*
X175338574Y-96620147D01*
X175061335Y-96565000D01*
X174778665Y-96565000D01*
X174501426Y-96620147D01*
X174240273Y-96728320D01*
X174035716Y-96865000D01*
X163575817Y-96865000D01*
X163518505Y-96807688D01*
X163267095Y-96639701D01*
X162987743Y-96523989D01*
X162691184Y-96465000D01*
X162388816Y-96465000D01*
X162092257Y-96523989D01*
X161812905Y-96639701D01*
X161561495Y-96807688D01*
X161495056Y-96874127D01*
X161489502Y-96855820D01*
X161430537Y-96745506D01*
X161351185Y-96648815D01*
X161254494Y-96569463D01*
X161144180Y-96510498D01*
X161024482Y-96474188D01*
X160900000Y-96461928D01*
X159100000Y-96461928D01*
X158975518Y-96474188D01*
X158855820Y-96510498D01*
X158745506Y-96569463D01*
X158648815Y-96648815D01*
X158569463Y-96745506D01*
X158510498Y-96855820D01*
X158507713Y-96865000D01*
X138075817Y-96865000D01*
X138018505Y-96807688D01*
X137767095Y-96639701D01*
X137487743Y-96523989D01*
X137191184Y-96465000D01*
X136888816Y-96465000D01*
X136592257Y-96523989D01*
X136312905Y-96639701D01*
X136061495Y-96807688D01*
X135995056Y-96874127D01*
X135989502Y-96855820D01*
X135930537Y-96745506D01*
X135851185Y-96648815D01*
X135754494Y-96569463D01*
X135644180Y-96510498D01*
X135524482Y-96474188D01*
X135400000Y-96461928D01*
X133600000Y-96461928D01*
X133475518Y-96474188D01*
X133355820Y-96510498D01*
X133245506Y-96569463D01*
X133148815Y-96648815D01*
X133069463Y-96745506D01*
X133010498Y-96855820D01*
X133007713Y-96865000D01*
X112075817Y-96865000D01*
X112018505Y-96807688D01*
X111767095Y-96639701D01*
X111487743Y-96523989D01*
X111191184Y-96465000D01*
X110888816Y-96465000D01*
X110592257Y-96523989D01*
X110312905Y-96639701D01*
X110061495Y-96807688D01*
X109995056Y-96874127D01*
X109989502Y-96855820D01*
X109930537Y-96745506D01*
X109851185Y-96648815D01*
X109754494Y-96569463D01*
X109644180Y-96510498D01*
X109524482Y-96474188D01*
X109400000Y-96461928D01*
X107600000Y-96461928D01*
X107475518Y-96474188D01*
X107355820Y-96510498D01*
X107245506Y-96569463D01*
X107148815Y-96648815D01*
X107069463Y-96745506D01*
X107010498Y-96855820D01*
X106974188Y-96975518D01*
X106961928Y-97100000D01*
X106961928Y-98900000D01*
X106974188Y-99024482D01*
X107010498Y-99144180D01*
X107069463Y-99254494D01*
X107148815Y-99351185D01*
X107245506Y-99430537D01*
X107355820Y-99489502D01*
X107365000Y-99492287D01*
X107365001Y-110759869D01*
X103135000Y-106529869D01*
X103135000Y-83779872D01*
X110265000Y-83779872D01*
X110265000Y-84220128D01*
X110350890Y-84651925D01*
X110519369Y-85058669D01*
X110763962Y-85424729D01*
X111075271Y-85736038D01*
X111441331Y-85980631D01*
X111848075Y-86149110D01*
X112279872Y-86235000D01*
X112720128Y-86235000D01*
X113151925Y-86149110D01*
X113558669Y-85980631D01*
X113924729Y-85736038D01*
X114236038Y-85424729D01*
X114332828Y-85279872D01*
X158265000Y-85279872D01*
X158265000Y-85720128D01*
X158350890Y-86151925D01*
X158519369Y-86558669D01*
X158763962Y-86924729D01*
X159075271Y-87236038D01*
X159441331Y-87480631D01*
X159848075Y-87649110D01*
X160279872Y-87735000D01*
X160720128Y-87735000D01*
X161151925Y-87649110D01*
X161558669Y-87480631D01*
X161924729Y-87236038D01*
X162236038Y-86924729D01*
X162480631Y-86558669D01*
X162649110Y-86151925D01*
X162735000Y-85720128D01*
X162735000Y-85279872D01*
X162649110Y-84848075D01*
X162480631Y-84441331D01*
X162236038Y-84075271D01*
X161924729Y-83763962D01*
X161558669Y-83519369D01*
X161151925Y-83350890D01*
X160720128Y-83265000D01*
X160279872Y-83265000D01*
X159848075Y-83350890D01*
X159441331Y-83519369D01*
X159075271Y-83763962D01*
X158763962Y-84075271D01*
X158519369Y-84441331D01*
X158350890Y-84848075D01*
X158265000Y-85279872D01*
X114332828Y-85279872D01*
X114480631Y-85058669D01*
X114649110Y-84651925D01*
X114735000Y-84220128D01*
X114735000Y-83779872D01*
X114649110Y-83348075D01*
X114480631Y-82941331D01*
X114236038Y-82575271D01*
X113924729Y-82263962D01*
X113558669Y-82019369D01*
X113151925Y-81850890D01*
X112720128Y-81765000D01*
X112279872Y-81765000D01*
X111848075Y-81850890D01*
X111441331Y-82019369D01*
X111075271Y-82263962D01*
X110763962Y-82575271D01*
X110519369Y-82941331D01*
X110350890Y-83348075D01*
X110265000Y-83779872D01*
X103135000Y-83779872D01*
X103135000Y-75510131D01*
X107051345Y-71593786D01*
X107139701Y-71807095D01*
X107307688Y-72058505D01*
X107521495Y-72272312D01*
X107772905Y-72440299D01*
X108052257Y-72556011D01*
X108348816Y-72615000D01*
X108651184Y-72615000D01*
X108947743Y-72556011D01*
X109227095Y-72440299D01*
X109478505Y-72272312D01*
X109692312Y-72058505D01*
X109860299Y-71807095D01*
X109976011Y-71527743D01*
X110029268Y-71260000D01*
X114281957Y-71260000D01*
X114385363Y-71414759D01*
X114585241Y-71614637D01*
X114820273Y-71771680D01*
X115081426Y-71879853D01*
X115358665Y-71935000D01*
X115641335Y-71935000D01*
X115918574Y-71879853D01*
X116179727Y-71771680D01*
X116414759Y-71614637D01*
X116614637Y-71414759D01*
X116771680Y-71179727D01*
X116879853Y-70918574D01*
X116935000Y-70641335D01*
X116935000Y-70358665D01*
X116879853Y-70081426D01*
X116771680Y-69820273D01*
X116614637Y-69585241D01*
X116414759Y-69385363D01*
X116179727Y-69228320D01*
X115918574Y-69120147D01*
X115641335Y-69065000D01*
X115358665Y-69065000D01*
X115081426Y-69120147D01*
X114820273Y-69228320D01*
X114585241Y-69385363D01*
X114385363Y-69585241D01*
X114281957Y-69740000D01*
X109466999Y-69740000D01*
X109478505Y-69732312D01*
X109692312Y-69518505D01*
X109860299Y-69267095D01*
X109976011Y-68987743D01*
X110035000Y-68691184D01*
X110035000Y-68388816D01*
X109976011Y-68092257D01*
X109860299Y-67812905D01*
X109692312Y-67561495D01*
X109625873Y-67495056D01*
X109644180Y-67489502D01*
X109754494Y-67430537D01*
X109851185Y-67351185D01*
X109930537Y-67254494D01*
X109989502Y-67144180D01*
X110025812Y-67024482D01*
X110038072Y-66900000D01*
X110038072Y-65278665D01*
X114065000Y-65278665D01*
X114065000Y-65561335D01*
X114120147Y-65838574D01*
X114228320Y-66099727D01*
X114385363Y-66334759D01*
X114585241Y-66534637D01*
X114820273Y-66691680D01*
X115081426Y-66799853D01*
X115358665Y-66855000D01*
X115641335Y-66855000D01*
X115823886Y-66818688D01*
X117976201Y-68971003D01*
X117999999Y-69000001D01*
X118115724Y-69094974D01*
X118247753Y-69165546D01*
X118391014Y-69209003D01*
X118502667Y-69220000D01*
X118502676Y-69220000D01*
X118539999Y-69223676D01*
X118577322Y-69220000D01*
X122221822Y-69220000D01*
X122346525Y-69406632D01*
X122478380Y-69538487D01*
X122405820Y-69560498D01*
X122295506Y-69619463D01*
X122198815Y-69698815D01*
X122119463Y-69795506D01*
X122060498Y-69905820D01*
X122024188Y-70025518D01*
X122011928Y-70150000D01*
X122011928Y-71850000D01*
X122024188Y-71974482D01*
X122060498Y-72094180D01*
X122119463Y-72204494D01*
X122198815Y-72301185D01*
X122295506Y-72380537D01*
X122405820Y-72439502D01*
X122525518Y-72475812D01*
X122650000Y-72488072D01*
X124350000Y-72488072D01*
X124474482Y-72475812D01*
X124594180Y-72439502D01*
X124704494Y-72380537D01*
X124801185Y-72301185D01*
X124880537Y-72204494D01*
X124939502Y-72094180D01*
X124975812Y-71974482D01*
X124988072Y-71850000D01*
X124988072Y-70586729D01*
X127814802Y-67760000D01*
X130511928Y-67760000D01*
X130511928Y-67850000D01*
X130524188Y-67974482D01*
X130560498Y-68094180D01*
X130619463Y-68204494D01*
X130698815Y-68301185D01*
X130795506Y-68380537D01*
X130905820Y-68439502D01*
X130978380Y-68461513D01*
X130846525Y-68593368D01*
X130684010Y-68836589D01*
X130572068Y-69106842D01*
X130515000Y-69393740D01*
X130515000Y-69686260D01*
X130572068Y-69973158D01*
X130684010Y-70243411D01*
X130846525Y-70486632D01*
X131053368Y-70693475D01*
X131296589Y-70855990D01*
X131566842Y-70967932D01*
X131853740Y-71025000D01*
X132146260Y-71025000D01*
X132433158Y-70967932D01*
X132703411Y-70855990D01*
X132946632Y-70693475D01*
X133153475Y-70486632D01*
X133315990Y-70243411D01*
X133427932Y-69973158D01*
X133485000Y-69686260D01*
X133485000Y-69393740D01*
X133427932Y-69106842D01*
X133315990Y-68836589D01*
X133153475Y-68593368D01*
X133021620Y-68461513D01*
X133094180Y-68439502D01*
X133204494Y-68380537D01*
X133301185Y-68301185D01*
X133380537Y-68204494D01*
X133439502Y-68094180D01*
X133475812Y-67974482D01*
X133488072Y-67850000D01*
X133488072Y-66150000D01*
X133475812Y-66025518D01*
X133439502Y-65905820D01*
X133380537Y-65795506D01*
X133301185Y-65698815D01*
X133204494Y-65619463D01*
X133094180Y-65560498D01*
X132974482Y-65524188D01*
X132850000Y-65511928D01*
X131150000Y-65511928D01*
X131025518Y-65524188D01*
X130905820Y-65560498D01*
X130795506Y-65619463D01*
X130698815Y-65698815D01*
X130619463Y-65795506D01*
X130560498Y-65905820D01*
X130524188Y-66025518D01*
X130511928Y-66150000D01*
X130511928Y-66240000D01*
X127537322Y-66240000D01*
X127499999Y-66236324D01*
X127462676Y-66240000D01*
X127462667Y-66240000D01*
X127351014Y-66250997D01*
X127207753Y-66294454D01*
X127075724Y-66365026D01*
X126959999Y-66459999D01*
X126936201Y-66488997D01*
X124985000Y-68440198D01*
X124985000Y-68313740D01*
X124927932Y-68026842D01*
X124815990Y-67756589D01*
X124653475Y-67513368D01*
X124446632Y-67306525D01*
X124264466Y-67184805D01*
X124381355Y-67115178D01*
X124597588Y-66920269D01*
X124771641Y-66686920D01*
X124896825Y-66424099D01*
X124941476Y-66276890D01*
X124820155Y-66047000D01*
X123627000Y-66047000D01*
X123627000Y-66067000D01*
X123373000Y-66067000D01*
X123373000Y-66047000D01*
X122179845Y-66047000D01*
X122058524Y-66276890D01*
X122103175Y-66424099D01*
X122228359Y-66686920D01*
X122402412Y-66920269D01*
X122618645Y-67115178D01*
X122735534Y-67184805D01*
X122553368Y-67306525D01*
X122346525Y-67513368D01*
X122221822Y-67700000D01*
X118854802Y-67700000D01*
X116898688Y-65743886D01*
X116934646Y-65563110D01*
X122058524Y-65563110D01*
X122179845Y-65793000D01*
X123373000Y-65793000D01*
X123373000Y-64599186D01*
X123627000Y-64599186D01*
X123627000Y-65793000D01*
X124820155Y-65793000D01*
X124941476Y-65563110D01*
X124896825Y-65415901D01*
X124873316Y-65366544D01*
X141145000Y-65366544D01*
X141145000Y-65633456D01*
X141197072Y-65895239D01*
X141299215Y-66141833D01*
X141447503Y-66363762D01*
X141636238Y-66552497D01*
X141858167Y-66700785D01*
X142104761Y-66802928D01*
X142220898Y-66826029D01*
X153158009Y-77763141D01*
X153193551Y-77806449D01*
X153366377Y-77948284D01*
X153563553Y-78053676D01*
X153777501Y-78118577D01*
X154000000Y-78140491D01*
X154055751Y-78135000D01*
X173082317Y-78135000D01*
X173119463Y-78204494D01*
X173198815Y-78301185D01*
X173295506Y-78380537D01*
X173405820Y-78439502D01*
X173525518Y-78475812D01*
X173650000Y-78488072D01*
X175350000Y-78488072D01*
X175474482Y-78475812D01*
X175594180Y-78439502D01*
X175704494Y-78380537D01*
X175801185Y-78301185D01*
X175880537Y-78204494D01*
X175939502Y-78094180D01*
X175963966Y-78013534D01*
X176039731Y-78097588D01*
X176273080Y-78271641D01*
X176535901Y-78396825D01*
X176683110Y-78441476D01*
X176913000Y-78320155D01*
X176913000Y-77127000D01*
X177167000Y-77127000D01*
X177167000Y-78320155D01*
X177396890Y-78441476D01*
X177544099Y-78396825D01*
X177806920Y-78271641D01*
X178040269Y-78097588D01*
X178235178Y-77881355D01*
X178384157Y-77631252D01*
X178481481Y-77356891D01*
X178360814Y-77127000D01*
X177167000Y-77127000D01*
X176913000Y-77127000D01*
X176893000Y-77127000D01*
X176893000Y-76873000D01*
X176913000Y-76873000D01*
X176913000Y-75679845D01*
X177167000Y-75679845D01*
X177167000Y-76873000D01*
X178360814Y-76873000D01*
X178481481Y-76643109D01*
X178384157Y-76368748D01*
X178235178Y-76118645D01*
X178040269Y-75902412D01*
X177806920Y-75728359D01*
X177544099Y-75603175D01*
X177396890Y-75558524D01*
X177167000Y-75679845D01*
X176913000Y-75679845D01*
X176683110Y-75558524D01*
X176535901Y-75603175D01*
X176273080Y-75728359D01*
X176039731Y-75902412D01*
X175963966Y-75986466D01*
X175939502Y-75905820D01*
X175880537Y-75795506D01*
X175801185Y-75698815D01*
X175704494Y-75619463D01*
X175594180Y-75560498D01*
X175474482Y-75524188D01*
X175350000Y-75511928D01*
X173650000Y-75511928D01*
X173525518Y-75524188D01*
X173405820Y-75560498D01*
X173295506Y-75619463D01*
X173198815Y-75698815D01*
X173119463Y-75795506D01*
X173082317Y-75865000D01*
X154470132Y-75865000D01*
X150355132Y-71750000D01*
X187611928Y-71750000D01*
X187624188Y-71874482D01*
X187660498Y-71994180D01*
X187719463Y-72104494D01*
X187798815Y-72201185D01*
X187895506Y-72280537D01*
X188005820Y-72339502D01*
X188125518Y-72375812D01*
X188250000Y-72388072D01*
X189714250Y-72385000D01*
X189873000Y-72226250D01*
X189873000Y-70127000D01*
X190127000Y-70127000D01*
X190127000Y-72226250D01*
X190285750Y-72385000D01*
X191750000Y-72388072D01*
X191874482Y-72375812D01*
X191994180Y-72339502D01*
X192104494Y-72280537D01*
X192201185Y-72201185D01*
X192280537Y-72104494D01*
X192339502Y-71994180D01*
X192375812Y-71874482D01*
X192388072Y-71750000D01*
X192385000Y-70285750D01*
X192226250Y-70127000D01*
X190127000Y-70127000D01*
X189873000Y-70127000D01*
X187773750Y-70127000D01*
X187615000Y-70285750D01*
X187611928Y-71750000D01*
X150355132Y-71750000D01*
X146674955Y-68069823D01*
X158375000Y-68069823D01*
X158398513Y-68308555D01*
X158491432Y-68614868D01*
X158642325Y-68897169D01*
X158845392Y-69144608D01*
X159092830Y-69347675D01*
X159375131Y-69498568D01*
X159681444Y-69591487D01*
X160000000Y-69622862D01*
X160318555Y-69591487D01*
X160624868Y-69498568D01*
X160907169Y-69347675D01*
X161154608Y-69144608D01*
X161289698Y-68980000D01*
X163371928Y-68980000D01*
X163384188Y-69104482D01*
X163420498Y-69224180D01*
X163479463Y-69334494D01*
X163558815Y-69431185D01*
X163655506Y-69510537D01*
X163765820Y-69569502D01*
X163885518Y-69605812D01*
X164010000Y-69618072D01*
X164714250Y-69615000D01*
X164873000Y-69456250D01*
X164873000Y-67127000D01*
X165127000Y-67127000D01*
X165127000Y-69456250D01*
X165285750Y-69615000D01*
X165990000Y-69618072D01*
X166114482Y-69605812D01*
X166234180Y-69569502D01*
X166344494Y-69510537D01*
X166441185Y-69431185D01*
X166520537Y-69334494D01*
X166579502Y-69224180D01*
X166615812Y-69104482D01*
X166628072Y-68980000D01*
X166625000Y-67285750D01*
X166466250Y-67127000D01*
X165127000Y-67127000D01*
X164873000Y-67127000D01*
X163533750Y-67127000D01*
X163375000Y-67285750D01*
X163371928Y-68980000D01*
X161289698Y-68980000D01*
X161357675Y-68897170D01*
X161508568Y-68614869D01*
X161601487Y-68308556D01*
X161625000Y-68069824D01*
X161625000Y-65930176D01*
X161601487Y-65691444D01*
X161508568Y-65385131D01*
X161357675Y-65102830D01*
X161289699Y-65020000D01*
X163371928Y-65020000D01*
X163375000Y-66714250D01*
X163533750Y-66873000D01*
X164873000Y-66873000D01*
X164873000Y-64543750D01*
X165127000Y-64543750D01*
X165127000Y-66873000D01*
X166466250Y-66873000D01*
X166625000Y-66714250D01*
X166628072Y-65020000D01*
X166615812Y-64895518D01*
X166579502Y-64775820D01*
X166520537Y-64665506D01*
X166441185Y-64568815D01*
X166344494Y-64489463D01*
X166234180Y-64430498D01*
X166114482Y-64394188D01*
X165990000Y-64381928D01*
X165285750Y-64385000D01*
X165127000Y-64543750D01*
X164873000Y-64543750D01*
X164714250Y-64385000D01*
X164010000Y-64381928D01*
X163885518Y-64394188D01*
X163765820Y-64430498D01*
X163655506Y-64489463D01*
X163558815Y-64568815D01*
X163479463Y-64665506D01*
X163420498Y-64775820D01*
X163384188Y-64895518D01*
X163371928Y-65020000D01*
X161289699Y-65020000D01*
X161154608Y-64855392D01*
X160907170Y-64652325D01*
X160624869Y-64501432D01*
X160318556Y-64408513D01*
X160000000Y-64377138D01*
X159681445Y-64408513D01*
X159375132Y-64501432D01*
X159092831Y-64652325D01*
X158845393Y-64855392D01*
X158642326Y-65102830D01*
X158491433Y-65385131D01*
X158398514Y-65691444D01*
X158375001Y-65930176D01*
X158375000Y-68069823D01*
X146674955Y-68069823D01*
X143971676Y-65366544D01*
X146225000Y-65366544D01*
X146225000Y-65633456D01*
X146277072Y-65895239D01*
X146379215Y-66141833D01*
X146527503Y-66363762D01*
X146716238Y-66552497D01*
X146938167Y-66700785D01*
X147184761Y-66802928D01*
X147446544Y-66855000D01*
X147713456Y-66855000D01*
X147975239Y-66802928D01*
X148221833Y-66700785D01*
X148443762Y-66552497D01*
X148632497Y-66363762D01*
X148780785Y-66141833D01*
X148882928Y-65895239D01*
X148935000Y-65633456D01*
X148935000Y-65366544D01*
X148882928Y-65104761D01*
X148780785Y-64858167D01*
X148632497Y-64636238D01*
X148443762Y-64447503D01*
X148221833Y-64299215D01*
X148022640Y-64216706D01*
X170115000Y-64216706D01*
X170115000Y-65823293D01*
X170130700Y-65982696D01*
X170192741Y-66187219D01*
X170293491Y-66375710D01*
X170429078Y-66540922D01*
X170594290Y-66676509D01*
X170782780Y-66777259D01*
X170987303Y-66839300D01*
X171200000Y-66860249D01*
X171412696Y-66839300D01*
X171617219Y-66777259D01*
X171805710Y-66676509D01*
X171820978Y-66663978D01*
X171922099Y-66765099D01*
X172083428Y-66872896D01*
X172262686Y-66947147D01*
X172452986Y-66985000D01*
X172647014Y-66985000D01*
X172837314Y-66947147D01*
X172975000Y-66890116D01*
X173112686Y-66947147D01*
X173302986Y-66985000D01*
X173497014Y-66985000D01*
X173687314Y-66947147D01*
X173825000Y-66890116D01*
X173962686Y-66947147D01*
X174152986Y-66985000D01*
X174347014Y-66985000D01*
X174537314Y-66947147D01*
X174675000Y-66890116D01*
X174812686Y-66947147D01*
X175002986Y-66985000D01*
X175197014Y-66985000D01*
X175387314Y-66947147D01*
X175525000Y-66890116D01*
X175662686Y-66947147D01*
X175852986Y-66985000D01*
X176047014Y-66985000D01*
X176237314Y-66947147D01*
X176375542Y-66889891D01*
X176504384Y-66944589D01*
X176694344Y-66984110D01*
X176888364Y-66985813D01*
X177078989Y-66949632D01*
X177225651Y-66890385D01*
X177362686Y-66947147D01*
X177552986Y-66985000D01*
X177747014Y-66985000D01*
X177937314Y-66947147D01*
X178075000Y-66890116D01*
X178212686Y-66947147D01*
X178402986Y-66985000D01*
X178597014Y-66985000D01*
X178787314Y-66947147D01*
X178966572Y-66872896D01*
X179127901Y-66765099D01*
X179229022Y-66663978D01*
X179244290Y-66676509D01*
X179432780Y-66777259D01*
X179637303Y-66839300D01*
X179850000Y-66860249D01*
X180062696Y-66839300D01*
X180267219Y-66777259D01*
X180455710Y-66676509D01*
X180620922Y-66540922D01*
X180756509Y-66375710D01*
X180857259Y-66187220D01*
X180876133Y-66125000D01*
X182911928Y-66125000D01*
X182911928Y-67875000D01*
X182941001Y-68170186D01*
X183027104Y-68454028D01*
X183166927Y-68715618D01*
X183355097Y-68944903D01*
X183584382Y-69133073D01*
X183845972Y-69272896D01*
X184129814Y-69358999D01*
X184425000Y-69388072D01*
X186175000Y-69388072D01*
X186470186Y-69358999D01*
X186754028Y-69272896D01*
X187015618Y-69133073D01*
X187244903Y-68944903D01*
X187433073Y-68715618D01*
X187572896Y-68454028D01*
X187612085Y-68324840D01*
X187615000Y-69714250D01*
X187773750Y-69873000D01*
X189873000Y-69873000D01*
X189873000Y-67773750D01*
X190127000Y-67773750D01*
X190127000Y-69873000D01*
X192226250Y-69873000D01*
X192385000Y-69714250D01*
X192388072Y-68250000D01*
X192375812Y-68125518D01*
X192339502Y-68005820D01*
X192280537Y-67895506D01*
X192201185Y-67798815D01*
X192104494Y-67719463D01*
X191994180Y-67660498D01*
X191874482Y-67624188D01*
X191750000Y-67611928D01*
X190285750Y-67615000D01*
X190127000Y-67773750D01*
X189873000Y-67773750D01*
X189714250Y-67615000D01*
X188250000Y-67611928D01*
X188125518Y-67624188D01*
X188005820Y-67660498D01*
X187895506Y-67719463D01*
X187798815Y-67798815D01*
X187719463Y-67895506D01*
X187678506Y-67972131D01*
X187688072Y-67875000D01*
X187688072Y-66125000D01*
X187658999Y-65829814D01*
X187572896Y-65545972D01*
X187433073Y-65284382D01*
X187244903Y-65055097D01*
X187015618Y-64866927D01*
X186754028Y-64727104D01*
X186470186Y-64641001D01*
X186175000Y-64611928D01*
X184425000Y-64611928D01*
X184129814Y-64641001D01*
X183845972Y-64727104D01*
X183584382Y-64866927D01*
X183355097Y-65055097D01*
X183166927Y-65284382D01*
X183027104Y-65545972D01*
X182941001Y-65829814D01*
X182911928Y-66125000D01*
X180876133Y-66125000D01*
X180919300Y-65982697D01*
X180935000Y-65823294D01*
X180935000Y-64216706D01*
X180919300Y-64057303D01*
X180857259Y-63852780D01*
X180756509Y-63664290D01*
X180620922Y-63499078D01*
X180455710Y-63363491D01*
X180267220Y-63262741D01*
X180225219Y-63250000D01*
X187611928Y-63250000D01*
X187611928Y-64750000D01*
X187638599Y-65020799D01*
X187717589Y-65281192D01*
X187845860Y-65521171D01*
X188018485Y-65731515D01*
X188228829Y-65904140D01*
X188468808Y-66032411D01*
X188729201Y-66111401D01*
X189000000Y-66138072D01*
X191000000Y-66138072D01*
X191270799Y-66111401D01*
X191531192Y-66032411D01*
X191771171Y-65904140D01*
X191981515Y-65731515D01*
X192154140Y-65521171D01*
X192282411Y-65281192D01*
X192361401Y-65020799D01*
X192388072Y-64750000D01*
X192388072Y-63250000D01*
X192361401Y-62979201D01*
X192282411Y-62718808D01*
X192154140Y-62478829D01*
X191981515Y-62268485D01*
X191771171Y-62095860D01*
X191531192Y-61967589D01*
X191270799Y-61888599D01*
X191000000Y-61861928D01*
X189000000Y-61861928D01*
X188729201Y-61888599D01*
X188468808Y-61967589D01*
X188228829Y-62095860D01*
X188018485Y-62268485D01*
X187845860Y-62478829D01*
X187717589Y-62718808D01*
X187638599Y-62979201D01*
X187611928Y-63250000D01*
X180225219Y-63250000D01*
X180062697Y-63200700D01*
X179850000Y-63179751D01*
X179637304Y-63200700D01*
X179432781Y-63262741D01*
X179244291Y-63363491D01*
X179079079Y-63499078D01*
X178943492Y-63664290D01*
X178898306Y-63748827D01*
X178787314Y-63702853D01*
X178597014Y-63665000D01*
X178402986Y-63665000D01*
X178212686Y-63702853D01*
X178075000Y-63759884D01*
X177937314Y-63702853D01*
X177747014Y-63665000D01*
X177552986Y-63665000D01*
X177362686Y-63702853D01*
X177225000Y-63759884D01*
X177087314Y-63702853D01*
X176897014Y-63665000D01*
X176702986Y-63665000D01*
X176512686Y-63702853D01*
X176375000Y-63759884D01*
X176237314Y-63702853D01*
X176047014Y-63665000D01*
X175852986Y-63665000D01*
X175662686Y-63702853D01*
X175525000Y-63759884D01*
X175387314Y-63702853D01*
X175197014Y-63665000D01*
X175002986Y-63665000D01*
X174812686Y-63702853D01*
X174675000Y-63759884D01*
X174537314Y-63702853D01*
X174347014Y-63665000D01*
X174152986Y-63665000D01*
X173962686Y-63702853D01*
X173825000Y-63759884D01*
X173687314Y-63702853D01*
X173497014Y-63665000D01*
X173302986Y-63665000D01*
X173112686Y-63702853D01*
X172975000Y-63759884D01*
X172837314Y-63702853D01*
X172647014Y-63665000D01*
X172452986Y-63665000D01*
X172262686Y-63702853D01*
X172151695Y-63748827D01*
X172106509Y-63664290D01*
X171970922Y-63499078D01*
X171805710Y-63363491D01*
X171617220Y-63262741D01*
X171412697Y-63200700D01*
X171200000Y-63179751D01*
X170987304Y-63200700D01*
X170782781Y-63262741D01*
X170594291Y-63363491D01*
X170429079Y-63499078D01*
X170293492Y-63664290D01*
X170192742Y-63852780D01*
X170130700Y-64057303D01*
X170115000Y-64216706D01*
X148022640Y-64216706D01*
X147975239Y-64197072D01*
X147713456Y-64145000D01*
X147446544Y-64145000D01*
X147184761Y-64197072D01*
X146938167Y-64299215D01*
X146716238Y-64447503D01*
X146527503Y-64636238D01*
X146379215Y-64858167D01*
X146277072Y-65104761D01*
X146225000Y-65366544D01*
X143971676Y-65366544D01*
X143826029Y-65220898D01*
X143802928Y-65104761D01*
X143700785Y-64858167D01*
X143552497Y-64636238D01*
X143363762Y-64447503D01*
X143141833Y-64299215D01*
X142895239Y-64197072D01*
X142633456Y-64145000D01*
X142366544Y-64145000D01*
X142104761Y-64197072D01*
X141858167Y-64299215D01*
X141636238Y-64447503D01*
X141447503Y-64636238D01*
X141299215Y-64858167D01*
X141197072Y-65104761D01*
X141145000Y-65366544D01*
X124873316Y-65366544D01*
X124771641Y-65153080D01*
X124597588Y-64919731D01*
X124381355Y-64724822D01*
X124131252Y-64575843D01*
X123856891Y-64478519D01*
X123627000Y-64599186D01*
X123373000Y-64599186D01*
X123143109Y-64478519D01*
X122868748Y-64575843D01*
X122618645Y-64724822D01*
X122402412Y-64919731D01*
X122228359Y-65153080D01*
X122103175Y-65415901D01*
X122058524Y-65563110D01*
X116934646Y-65563110D01*
X116935000Y-65561335D01*
X116935000Y-65278665D01*
X116879853Y-65001426D01*
X116771680Y-64740273D01*
X116614637Y-64505241D01*
X116414759Y-64305363D01*
X116179727Y-64148320D01*
X115918574Y-64040147D01*
X115641335Y-63985000D01*
X115358665Y-63985000D01*
X115081426Y-64040147D01*
X114820273Y-64148320D01*
X114585241Y-64305363D01*
X114385363Y-64505241D01*
X114228320Y-64740273D01*
X114120147Y-65001426D01*
X114065000Y-65278665D01*
X110038072Y-65278665D01*
X110038072Y-65100000D01*
X110025812Y-64975518D01*
X109989502Y-64855820D01*
X109930537Y-64745506D01*
X109851185Y-64648815D01*
X109754494Y-64569463D01*
X109644180Y-64510498D01*
X109524482Y-64474188D01*
X109400000Y-64461928D01*
X107600000Y-64461928D01*
X107475518Y-64474188D01*
X107355820Y-64510498D01*
X107245506Y-64569463D01*
X107148815Y-64648815D01*
X107069463Y-64745506D01*
X107010498Y-64855820D01*
X106974188Y-64975518D01*
X106961928Y-65100000D01*
X106961928Y-66900000D01*
X106974188Y-67024482D01*
X107010498Y-67144180D01*
X107069463Y-67254494D01*
X107148815Y-67351185D01*
X107245506Y-67430537D01*
X107355820Y-67489502D01*
X107374127Y-67495056D01*
X107307688Y-67561495D01*
X107139701Y-67812905D01*
X107023989Y-68092257D01*
X106965000Y-68388816D01*
X106965000Y-68469868D01*
X101236860Y-74198009D01*
X101193552Y-74233551D01*
X101051717Y-74406377D01*
X100946324Y-74603553D01*
X100946324Y-74603554D01*
X100881423Y-74817502D01*
X100859509Y-75040000D01*
X96041947Y-75040000D01*
X96028449Y-70127000D01*
X105000000Y-70127000D01*
X105024776Y-70124560D01*
X105048601Y-70117333D01*
X105070557Y-70105597D01*
X105089803Y-70089803D01*
X105105597Y-70070557D01*
X105117333Y-70048601D01*
X105124560Y-70024776D01*
X105127000Y-70000000D01*
X105127000Y-62826544D01*
X143685000Y-62826544D01*
X143685000Y-63093456D01*
X143737072Y-63355239D01*
X143839215Y-63601833D01*
X143987503Y-63823762D01*
X144176238Y-64012497D01*
X144398167Y-64160785D01*
X144644761Y-64262928D01*
X144906544Y-64315000D01*
X145173456Y-64315000D01*
X145435239Y-64262928D01*
X145681833Y-64160785D01*
X145903762Y-64012497D01*
X146092497Y-63823762D01*
X146240785Y-63601833D01*
X146342928Y-63355239D01*
X146395000Y-63093456D01*
X146395000Y-62826544D01*
X146342928Y-62564761D01*
X146240785Y-62318167D01*
X146092497Y-62096238D01*
X145903762Y-61907503D01*
X145681833Y-61759215D01*
X145435239Y-61657072D01*
X145173456Y-61605000D01*
X144906544Y-61605000D01*
X144644761Y-61657072D01*
X144398167Y-61759215D01*
X144176238Y-61907503D01*
X143987503Y-62096238D01*
X143839215Y-62318167D01*
X143737072Y-62564761D01*
X143685000Y-62826544D01*
X105127000Y-62826544D01*
X105127000Y-60660000D01*
X170279750Y-60660000D01*
X170192742Y-60822780D01*
G37*
X170192742Y-60822780D02*
X170130700Y-61027303D01*
X170115000Y-61186706D01*
X170115000Y-62093293D01*
X170130700Y-62252696D01*
X170192741Y-62457219D01*
X170293491Y-62645710D01*
X170429078Y-62810922D01*
X170594290Y-62946509D01*
X170782780Y-63047259D01*
X170987303Y-63109300D01*
X171200000Y-63130249D01*
X171412696Y-63109300D01*
X171617219Y-63047259D01*
X171805710Y-62946509D01*
X171970922Y-62810922D01*
X172106509Y-62645710D01*
X172207259Y-62457220D01*
X172269300Y-62252697D01*
X172285000Y-62093294D01*
X172285000Y-61186707D01*
X172269300Y-61027304D01*
X172207259Y-60822780D01*
X172120251Y-60660000D01*
X178929750Y-60660000D01*
X178842742Y-60822780D01*
X178780700Y-61027303D01*
X178765000Y-61186706D01*
X178765000Y-62093293D01*
X178780700Y-62252696D01*
X178842741Y-62457219D01*
X178943491Y-62645710D01*
X179079078Y-62810922D01*
X179244290Y-62946509D01*
X179432780Y-63047259D01*
X179637303Y-63109300D01*
X179850000Y-63130249D01*
X180062696Y-63109300D01*
X180267219Y-63047259D01*
X180455710Y-62946509D01*
X180620922Y-62810922D01*
X180756509Y-62645710D01*
X180857259Y-62457220D01*
X180919300Y-62252697D01*
X180935000Y-62093294D01*
X180935000Y-61186707D01*
X180919300Y-61027304D01*
X180857259Y-60822780D01*
X180770251Y-60660000D01*
X193373439Y-60660000D01*
X193423474Y-78873000D01*
X185000000Y-78873000D01*
X184975224Y-78875440D01*
X184951399Y-78882667D01*
X184929443Y-78894403D01*
X184910197Y-78910197D01*
X184894403Y-78929443D01*
X184882667Y-78951399D01*
X184875440Y-78975224D01*
X184873000Y-79000000D01*
X184873000Y-89000000D01*
X184875440Y-89024776D01*
X184882667Y-89048601D01*
X184894403Y-89070557D01*
X184910197Y-89089803D01*
X184929443Y-89105597D01*
X184951399Y-89117333D01*
X184975224Y-89124560D01*
X185000000Y-89127000D01*
X193451645Y-89127000D01*
X193597925Y-142373000D01*
X185000000Y-142373000D01*
X184975224Y-142375440D01*
X184951399Y-142382667D01*
X184929443Y-142394403D01*
X184910197Y-142410197D01*
X184894403Y-142429443D01*
X184882667Y-142451399D01*
X184875440Y-142475224D01*
X184873000Y-142500000D01*
X184873000Y-151373000D01*
X105127000Y-151373000D01*
X105127000Y-142500000D01*
X105124560Y-142475224D01*
X105117333Y-142451399D01*
X105105597Y-142429443D01*
X105089803Y-142410197D01*
X105070557Y-142394403D01*
X105048601Y-142382667D01*
X105024776Y-142375440D01*
X105000000Y-142373000D01*
X96226927Y-142373000D01*
X96226672Y-142279872D01*
X109765000Y-142279872D01*
X109765000Y-142720128D01*
X109850890Y-143151925D01*
X110019369Y-143558669D01*
X110263962Y-143924729D01*
X110575271Y-144236038D01*
X110941331Y-144480631D01*
X111348075Y-144649110D01*
X111779872Y-144735000D01*
X112220128Y-144735000D01*
X112651925Y-144649110D01*
X113058669Y-144480631D01*
X113424729Y-144236038D01*
X113736038Y-143924729D01*
X113980631Y-143558669D01*
X114149110Y-143151925D01*
X114223116Y-142779872D01*
X155765000Y-142779872D01*
X155765000Y-143220128D01*
X155850890Y-143651925D01*
X156019369Y-144058669D01*
X156263962Y-144424729D01*
X156575271Y-144736038D01*
X156941331Y-144980631D01*
X157348075Y-145149110D01*
X157779872Y-145235000D01*
X158220128Y-145235000D01*
X158651925Y-145149110D01*
X159058669Y-144980631D01*
X159424729Y-144736038D01*
X159736038Y-144424729D01*
X159980631Y-144058669D01*
X160149110Y-143651925D01*
X160235000Y-143220128D01*
X160235000Y-142779872D01*
X160149110Y-142348075D01*
X159980631Y-141941331D01*
X159736038Y-141575271D01*
X159424729Y-141263962D01*
X159058669Y-141019369D01*
X158651925Y-140850890D01*
X158220128Y-140765000D01*
X157779872Y-140765000D01*
X157348075Y-140850890D01*
X156941331Y-141019369D01*
X156575271Y-141263962D01*
X156263962Y-141575271D01*
X156019369Y-141941331D01*
X155850890Y-142348075D01*
X155765000Y-142779872D01*
X114223116Y-142779872D01*
X114235000Y-142720128D01*
X114235000Y-142279872D01*
X114149110Y-141848075D01*
X113980631Y-141441331D01*
X113736038Y-141075271D01*
X113424729Y-140763962D01*
X113058669Y-140519369D01*
X112651925Y-140350890D01*
X112220128Y-140265000D01*
X111779872Y-140265000D01*
X111348075Y-140350890D01*
X110941331Y-140519369D01*
X110575271Y-140763962D01*
X110263962Y-141075271D01*
X110019369Y-141441331D01*
X109850890Y-141848075D01*
X109765000Y-142279872D01*
X96226672Y-142279872D01*
X96041947Y-75040000D01*
X100859509Y-75040000D01*
X100865000Y-75095751D01*
X100865000Y-76444249D01*
X100865001Y-106944238D01*
X100859509Y-107000000D01*
X100881423Y-107222498D01*
X100946324Y-107436446D01*
X100946325Y-107436447D01*
X101051717Y-107633623D01*
X101193552Y-107806449D01*
X101236860Y-107841991D01*
X106961928Y-113567060D01*
X106961928Y-114400000D01*
X106974188Y-114524482D01*
X107010498Y-114644180D01*
X107069463Y-114754494D01*
X107148815Y-114851185D01*
X107245506Y-114930537D01*
X107355820Y-114989502D01*
X107365000Y-114992287D01*
X107365001Y-128007713D01*
X107355820Y-128010498D01*
X107245506Y-128069463D01*
X107148815Y-128148815D01*
X107069463Y-128245506D01*
X107010498Y-128355820D01*
X106974188Y-128475518D01*
X106961928Y-128600000D01*
X106961928Y-130400000D01*
X106974188Y-130524482D01*
X107010498Y-130644180D01*
X107069463Y-130754494D01*
X107148815Y-130851185D01*
X107245506Y-130930537D01*
X107355820Y-130989502D01*
X107475518Y-131025812D01*
X107600000Y-131038072D01*
X109400000Y-131038072D01*
X109524482Y-131025812D01*
X109644180Y-130989502D01*
X109754494Y-130930537D01*
X109851185Y-130851185D01*
X109930537Y-130754494D01*
X109989502Y-130644180D01*
X109995056Y-130625873D01*
X110061495Y-130692312D01*
X110312905Y-130860299D01*
X110592257Y-130976011D01*
X110888816Y-131035000D01*
X111191184Y-131035000D01*
X111487743Y-130976011D01*
X111767095Y-130860299D01*
X112018505Y-130692312D01*
X112075817Y-130635000D01*
X133007713Y-130635000D01*
X133010498Y-130644180D01*
X133069463Y-130754494D01*
X133148815Y-130851185D01*
X133245506Y-130930537D01*
X133355820Y-130989502D01*
X133475518Y-131025812D01*
X133600000Y-131038072D01*
X135400000Y-131038072D01*
X135524482Y-131025812D01*
X135644180Y-130989502D01*
X135754494Y-130930537D01*
X135851185Y-130851185D01*
X135930537Y-130754494D01*
X135989502Y-130644180D01*
X135995056Y-130625873D01*
X136061495Y-130692312D01*
X136312905Y-130860299D01*
X136592257Y-130976011D01*
X136888816Y-131035000D01*
X137191184Y-131035000D01*
X137487743Y-130976011D01*
X137767095Y-130860299D01*
X138018505Y-130692312D01*
X138075817Y-130635000D01*
X158507713Y-130635000D01*
X158510498Y-130644180D01*
X158569463Y-130754494D01*
X158648815Y-130851185D01*
X158745506Y-130930537D01*
X158855820Y-130989502D01*
X158975518Y-131025812D01*
X159100000Y-131038072D01*
X160900000Y-131038072D01*
X161024482Y-131025812D01*
X161144180Y-130989502D01*
X161254494Y-130930537D01*
X161351185Y-130851185D01*
X161430537Y-130754494D01*
X161489502Y-130644180D01*
X161495056Y-130625873D01*
X161561495Y-130692312D01*
X161812905Y-130860299D01*
X162092257Y-130976011D01*
X162388816Y-131035000D01*
X162691184Y-131035000D01*
X162987743Y-130976011D01*
X163267095Y-130860299D01*
X163518505Y-130692312D01*
X163575817Y-130635000D01*
X174035716Y-130635000D01*
X174240273Y-130771680D01*
X174501426Y-130879853D01*
X174778665Y-130935000D01*
X175061335Y-130935000D01*
X175338574Y-130879853D01*
X175599727Y-130771680D01*
X175834759Y-130614637D01*
X176034637Y-130414759D01*
X176191680Y-130179727D01*
X176299853Y-129918574D01*
X176355000Y-129641335D01*
X176355000Y-129358665D01*
X178565000Y-129358665D01*
X178565000Y-129641335D01*
X178620147Y-129918574D01*
X178728320Y-130179727D01*
X178885363Y-130414759D01*
X179085241Y-130614637D01*
X179320273Y-130771680D01*
X179581426Y-130879853D01*
X179858665Y-130935000D01*
X180141335Y-130935000D01*
X180418574Y-130879853D01*
X180679727Y-130771680D01*
X180914759Y-130614637D01*
X181114637Y-130414759D01*
X181271680Y-130179727D01*
X181379853Y-129918574D01*
X181435000Y-129641335D01*
X181435000Y-129358665D01*
X181379853Y-129081426D01*
X181271680Y-128820273D01*
X181114637Y-128585241D01*
X180914759Y-128385363D01*
X180679727Y-128228320D01*
X180418574Y-128120147D01*
X180141335Y-128065000D01*
X179858665Y-128065000D01*
X179581426Y-128120147D01*
X179320273Y-128228320D01*
X179085241Y-128385363D01*
X178885363Y-128585241D01*
X178728320Y-128820273D01*
X178620147Y-129081426D01*
X178565000Y-129358665D01*
X176355000Y-129358665D01*
X176299853Y-129081426D01*
X176191680Y-128820273D01*
X176034637Y-128585241D01*
X175834759Y-128385363D01*
X175599727Y-128228320D01*
X175338574Y-128120147D01*
X175061335Y-128065000D01*
X174778665Y-128065000D01*
X174501426Y-128120147D01*
X174240273Y-128228320D01*
X174035716Y-128365000D01*
X163575817Y-128365000D01*
X163518505Y-128307688D01*
X163267095Y-128139701D01*
X162987743Y-128023989D01*
X162691184Y-127965000D01*
X162388816Y-127965000D01*
X162092257Y-128023989D01*
X161812905Y-128139701D01*
X161561495Y-128307688D01*
X161495056Y-128374127D01*
X161489502Y-128355820D01*
X161430537Y-128245506D01*
X161351185Y-128148815D01*
X161254494Y-128069463D01*
X161144180Y-128010498D01*
X161024482Y-127974188D01*
X160900000Y-127961928D01*
X159100000Y-127961928D01*
X158975518Y-127974188D01*
X158855820Y-128010498D01*
X158745506Y-128069463D01*
X158648815Y-128148815D01*
X158569463Y-128245506D01*
X158510498Y-128355820D01*
X158507713Y-128365000D01*
X138075817Y-128365000D01*
X138018505Y-128307688D01*
X137767095Y-128139701D01*
X137487743Y-128023989D01*
X137191184Y-127965000D01*
X136888816Y-127965000D01*
X136592257Y-128023989D01*
X136312905Y-128139701D01*
X136061495Y-128307688D01*
X135995056Y-128374127D01*
X135989502Y-128355820D01*
X135930537Y-128245506D01*
X135851185Y-128148815D01*
X135754494Y-128069463D01*
X135644180Y-128010498D01*
X135524482Y-127974188D01*
X135400000Y-127961928D01*
X133600000Y-127961928D01*
X133475518Y-127974188D01*
X133355820Y-128010498D01*
X133245506Y-128069463D01*
X133148815Y-128148815D01*
X133069463Y-128245506D01*
X133010498Y-128355820D01*
X133007713Y-128365000D01*
X112075817Y-128365000D01*
X112018505Y-128307688D01*
X111767095Y-128139701D01*
X111487743Y-128023989D01*
X111191184Y-127965000D01*
X110888816Y-127965000D01*
X110592257Y-128023989D01*
X110312905Y-128139701D01*
X110061495Y-128307688D01*
X109995056Y-128374127D01*
X109989502Y-128355820D01*
X109930537Y-128245506D01*
X109851185Y-128148815D01*
X109754494Y-128069463D01*
X109644180Y-128010498D01*
X109635000Y-128007713D01*
X109635000Y-114992287D01*
X109644180Y-114989502D01*
X109754494Y-114930537D01*
X109851185Y-114851185D01*
X109930537Y-114754494D01*
X109989502Y-114644180D01*
X109995056Y-114625873D01*
X110061495Y-114692312D01*
X110312905Y-114860299D01*
X110592257Y-114976011D01*
X110888816Y-115035000D01*
X111191184Y-115035000D01*
X111487743Y-114976011D01*
X111767095Y-114860299D01*
X112018505Y-114692312D01*
X112075817Y-114635000D01*
X133007713Y-114635000D01*
X133010498Y-114644180D01*
X133069463Y-114754494D01*
X133148815Y-114851185D01*
X133245506Y-114930537D01*
X133355820Y-114989502D01*
X133475518Y-115025812D01*
X133600000Y-115038072D01*
X135400000Y-115038072D01*
X135524482Y-115025812D01*
X135644180Y-114989502D01*
X135754494Y-114930537D01*
X135851185Y-114851185D01*
X135930537Y-114754494D01*
X135989502Y-114644180D01*
X135995056Y-114625873D01*
X136061495Y-114692312D01*
X136312905Y-114860299D01*
X136592257Y-114976011D01*
X136888816Y-115035000D01*
X137191184Y-115035000D01*
X137487743Y-114976011D01*
X137767095Y-114860299D01*
X138018505Y-114692312D01*
X138075817Y-114635000D01*
X158507713Y-114635000D01*
X158510498Y-114644180D01*
X158569463Y-114754494D01*
X158648815Y-114851185D01*
X158745506Y-114930537D01*
X158855820Y-114989502D01*
X158975518Y-115025812D01*
X159100000Y-115038072D01*
X160900000Y-115038072D01*
X161024482Y-115025812D01*
X161144180Y-114989502D01*
X161254494Y-114930537D01*
X161351185Y-114851185D01*
X161430537Y-114754494D01*
X161489502Y-114644180D01*
X161495056Y-114625873D01*
X161561495Y-114692312D01*
X161812905Y-114860299D01*
X162092257Y-114976011D01*
X162388816Y-115035000D01*
X162691184Y-115035000D01*
X162987743Y-114976011D01*
X163267095Y-114860299D01*
X163518505Y-114692312D01*
X163575817Y-114635000D01*
X174035716Y-114635000D01*
X174240273Y-114771680D01*
X174501426Y-114879853D01*
X174778665Y-114935000D01*
X175061335Y-114935000D01*
X175338574Y-114879853D01*
X175599727Y-114771680D01*
X175834759Y-114614637D01*
X176034637Y-114414759D01*
X176191680Y-114179727D01*
X176299853Y-113918574D01*
X176355000Y-113641335D01*
X176355000Y-113358665D01*
X178565000Y-113358665D01*
X178565000Y-113641335D01*
X178620147Y-113918574D01*
X178728320Y-114179727D01*
X178885363Y-114414759D01*
X179085241Y-114614637D01*
X179320273Y-114771680D01*
X179581426Y-114879853D01*
X179858665Y-114935000D01*
X180141335Y-114935000D01*
X180418574Y-114879853D01*
X180679727Y-114771680D01*
X180914759Y-114614637D01*
X181114637Y-114414759D01*
X181271680Y-114179727D01*
X181379853Y-113918574D01*
X181435000Y-113641335D01*
X181435000Y-113358665D01*
X181379853Y-113081426D01*
X181271680Y-112820273D01*
X181114637Y-112585241D01*
X180914759Y-112385363D01*
X180679727Y-112228320D01*
X180418574Y-112120147D01*
X180141335Y-112065000D01*
X179858665Y-112065000D01*
X179581426Y-112120147D01*
X179320273Y-112228320D01*
X179085241Y-112385363D01*
X178885363Y-112585241D01*
X178728320Y-112820273D01*
X178620147Y-113081426D01*
X178565000Y-113358665D01*
X176355000Y-113358665D01*
X176299853Y-113081426D01*
X176191680Y-112820273D01*
X176034637Y-112585241D01*
X175834759Y-112385363D01*
X175599727Y-112228320D01*
X175338574Y-112120147D01*
X175061335Y-112065000D01*
X174778665Y-112065000D01*
X174501426Y-112120147D01*
X174240273Y-112228320D01*
X174035716Y-112365000D01*
X163575817Y-112365000D01*
X163518505Y-112307688D01*
X163267095Y-112139701D01*
X162987743Y-112023989D01*
X162691184Y-111965000D01*
X162388816Y-111965000D01*
X162092257Y-112023989D01*
X161812905Y-112139701D01*
X161561495Y-112307688D01*
X161495056Y-112374127D01*
X161489502Y-112355820D01*
X161430537Y-112245506D01*
X161351185Y-112148815D01*
X161254494Y-112069463D01*
X161144180Y-112010498D01*
X161024482Y-111974188D01*
X160900000Y-111961928D01*
X159100000Y-111961928D01*
X158975518Y-111974188D01*
X158855820Y-112010498D01*
X158745506Y-112069463D01*
X158648815Y-112148815D01*
X158569463Y-112245506D01*
X158510498Y-112355820D01*
X158507713Y-112365000D01*
X138075817Y-112365000D01*
X138018505Y-112307688D01*
X137767095Y-112139701D01*
X137487743Y-112023989D01*
X137191184Y-111965000D01*
X136888816Y-111965000D01*
X136592257Y-112023989D01*
X136312905Y-112139701D01*
X136061495Y-112307688D01*
X135995056Y-112374127D01*
X135989502Y-112355820D01*
X135930537Y-112245506D01*
X135851185Y-112148815D01*
X135754494Y-112069463D01*
X135644180Y-112010498D01*
X135524482Y-111974188D01*
X135400000Y-111961928D01*
X133600000Y-111961928D01*
X133475518Y-111974188D01*
X133355820Y-112010498D01*
X133245506Y-112069463D01*
X133148815Y-112148815D01*
X133069463Y-112245506D01*
X133010498Y-112355820D01*
X133007713Y-112365000D01*
X112075817Y-112365000D01*
X112018505Y-112307688D01*
X111767095Y-112139701D01*
X111487743Y-112023989D01*
X111191184Y-111965000D01*
X110888816Y-111965000D01*
X110592257Y-112023989D01*
X110312905Y-112139701D01*
X110061495Y-112307688D01*
X109995056Y-112374127D01*
X109989502Y-112355820D01*
X109930537Y-112245506D01*
X109851185Y-112148815D01*
X109754494Y-112069463D01*
X109644180Y-112010498D01*
X109635000Y-112007713D01*
X109635000Y-99492287D01*
X109644180Y-99489502D01*
X109754494Y-99430537D01*
X109851185Y-99351185D01*
X109930537Y-99254494D01*
X109989502Y-99144180D01*
X109995056Y-99125873D01*
X110061495Y-99192312D01*
X110312905Y-99360299D01*
X110592257Y-99476011D01*
X110888816Y-99535000D01*
X111191184Y-99535000D01*
X111487743Y-99476011D01*
X111767095Y-99360299D01*
X112018505Y-99192312D01*
X112075817Y-99135000D01*
X133007713Y-99135000D01*
X133010498Y-99144180D01*
X133069463Y-99254494D01*
X133148815Y-99351185D01*
X133245506Y-99430537D01*
X133355820Y-99489502D01*
X133475518Y-99525812D01*
X133600000Y-99538072D01*
X135400000Y-99538072D01*
X135524482Y-99525812D01*
X135644180Y-99489502D01*
X135754494Y-99430537D01*
X135851185Y-99351185D01*
X135930537Y-99254494D01*
X135989502Y-99144180D01*
X135995056Y-99125873D01*
X136061495Y-99192312D01*
X136312905Y-99360299D01*
X136592257Y-99476011D01*
X136888816Y-99535000D01*
X137191184Y-99535000D01*
X137487743Y-99476011D01*
X137767095Y-99360299D01*
X138018505Y-99192312D01*
X138075817Y-99135000D01*
X158507713Y-99135000D01*
X158510498Y-99144180D01*
X158569463Y-99254494D01*
X158648815Y-99351185D01*
X158745506Y-99430537D01*
X158855820Y-99489502D01*
X158975518Y-99525812D01*
X159100000Y-99538072D01*
X160900000Y-99538072D01*
X161024482Y-99525812D01*
X161144180Y-99489502D01*
X161254494Y-99430537D01*
X161351185Y-99351185D01*
X161430537Y-99254494D01*
X161489502Y-99144180D01*
X161495056Y-99125873D01*
X161561495Y-99192312D01*
X161812905Y-99360299D01*
X162092257Y-99476011D01*
X162388816Y-99535000D01*
X162691184Y-99535000D01*
X162987743Y-99476011D01*
X163267095Y-99360299D01*
X163518505Y-99192312D01*
X163575817Y-99135000D01*
X174035716Y-99135000D01*
X174240273Y-99271680D01*
X174501426Y-99379853D01*
X174778665Y-99435000D01*
X175061335Y-99435000D01*
X175338574Y-99379853D01*
X175599727Y-99271680D01*
X175834759Y-99114637D01*
X176034637Y-98914759D01*
X176191680Y-98679727D01*
X176299853Y-98418574D01*
X176355000Y-98141335D01*
X176355000Y-97858665D01*
X178565000Y-97858665D01*
X178565000Y-98141335D01*
X178620147Y-98418574D01*
X178728320Y-98679727D01*
X178885363Y-98914759D01*
X179085241Y-99114637D01*
X179320273Y-99271680D01*
X179581426Y-99379853D01*
X179858665Y-99435000D01*
X180141335Y-99435000D01*
X180418574Y-99379853D01*
X180679727Y-99271680D01*
X180914759Y-99114637D01*
X181114637Y-98914759D01*
X181271680Y-98679727D01*
X181379853Y-98418574D01*
X181435000Y-98141335D01*
X181435000Y-97858665D01*
X181379853Y-97581426D01*
X181271680Y-97320273D01*
X181114637Y-97085241D01*
X180914759Y-96885363D01*
X180679727Y-96728320D01*
X180418574Y-96620147D01*
X180141335Y-96565000D01*
X179858665Y-96565000D01*
X179581426Y-96620147D01*
X179320273Y-96728320D01*
X179085241Y-96885363D01*
X178885363Y-97085241D01*
X178728320Y-97320273D01*
X178620147Y-97581426D01*
X178565000Y-97858665D01*
X176355000Y-97858665D01*
X176299853Y-97581426D01*
X176191680Y-97320273D01*
X176034637Y-97085241D01*
X175834759Y-96885363D01*
X175599727Y-96728320D01*
X175338574Y-96620147D01*
X175061335Y-96565000D01*
X174778665Y-96565000D01*
X174501426Y-96620147D01*
X174240273Y-96728320D01*
X174035716Y-96865000D01*
X163575817Y-96865000D01*
X163518505Y-96807688D01*
X163267095Y-96639701D01*
X162987743Y-96523989D01*
X162691184Y-96465000D01*
X162388816Y-96465000D01*
X162092257Y-96523989D01*
X161812905Y-96639701D01*
X161561495Y-96807688D01*
X161495056Y-96874127D01*
X161489502Y-96855820D01*
X161430537Y-96745506D01*
X161351185Y-96648815D01*
X161254494Y-96569463D01*
X161144180Y-96510498D01*
X161024482Y-96474188D01*
X160900000Y-96461928D01*
X159100000Y-96461928D01*
X158975518Y-96474188D01*
X158855820Y-96510498D01*
X158745506Y-96569463D01*
X158648815Y-96648815D01*
X158569463Y-96745506D01*
X158510498Y-96855820D01*
X158507713Y-96865000D01*
X138075817Y-96865000D01*
X138018505Y-96807688D01*
X137767095Y-96639701D01*
X137487743Y-96523989D01*
X137191184Y-96465000D01*
X136888816Y-96465000D01*
X136592257Y-96523989D01*
X136312905Y-96639701D01*
X136061495Y-96807688D01*
X135995056Y-96874127D01*
X135989502Y-96855820D01*
X135930537Y-96745506D01*
X135851185Y-96648815D01*
X135754494Y-96569463D01*
X135644180Y-96510498D01*
X135524482Y-96474188D01*
X135400000Y-96461928D01*
X133600000Y-96461928D01*
X133475518Y-96474188D01*
X133355820Y-96510498D01*
X133245506Y-96569463D01*
X133148815Y-96648815D01*
X133069463Y-96745506D01*
X133010498Y-96855820D01*
X133007713Y-96865000D01*
X112075817Y-96865000D01*
X112018505Y-96807688D01*
X111767095Y-96639701D01*
X111487743Y-96523989D01*
X111191184Y-96465000D01*
X110888816Y-96465000D01*
X110592257Y-96523989D01*
X110312905Y-96639701D01*
X110061495Y-96807688D01*
X109995056Y-96874127D01*
X109989502Y-96855820D01*
X109930537Y-96745506D01*
X109851185Y-96648815D01*
X109754494Y-96569463D01*
X109644180Y-96510498D01*
X109524482Y-96474188D01*
X109400000Y-96461928D01*
X107600000Y-96461928D01*
X107475518Y-96474188D01*
X107355820Y-96510498D01*
X107245506Y-96569463D01*
X107148815Y-96648815D01*
X107069463Y-96745506D01*
X107010498Y-96855820D01*
X106974188Y-96975518D01*
X106961928Y-97100000D01*
X106961928Y-98900000D01*
X106974188Y-99024482D01*
X107010498Y-99144180D01*
X107069463Y-99254494D01*
X107148815Y-99351185D01*
X107245506Y-99430537D01*
X107355820Y-99489502D01*
X107365000Y-99492287D01*
X107365001Y-110759869D01*
X103135000Y-106529869D01*
X103135000Y-83779872D01*
X110265000Y-83779872D01*
X110265000Y-84220128D01*
X110350890Y-84651925D01*
X110519369Y-85058669D01*
X110763962Y-85424729D01*
X111075271Y-85736038D01*
X111441331Y-85980631D01*
X111848075Y-86149110D01*
X112279872Y-86235000D01*
X112720128Y-86235000D01*
X113151925Y-86149110D01*
X113558669Y-85980631D01*
X113924729Y-85736038D01*
X114236038Y-85424729D01*
X114332828Y-85279872D01*
X158265000Y-85279872D01*
X158265000Y-85720128D01*
X158350890Y-86151925D01*
X158519369Y-86558669D01*
X158763962Y-86924729D01*
X159075271Y-87236038D01*
X159441331Y-87480631D01*
X159848075Y-87649110D01*
X160279872Y-87735000D01*
X160720128Y-87735000D01*
X161151925Y-87649110D01*
X161558669Y-87480631D01*
X161924729Y-87236038D01*
X162236038Y-86924729D01*
X162480631Y-86558669D01*
X162649110Y-86151925D01*
X162735000Y-85720128D01*
X162735000Y-85279872D01*
X162649110Y-84848075D01*
X162480631Y-84441331D01*
X162236038Y-84075271D01*
X161924729Y-83763962D01*
X161558669Y-83519369D01*
X161151925Y-83350890D01*
X160720128Y-83265000D01*
X160279872Y-83265000D01*
X159848075Y-83350890D01*
X159441331Y-83519369D01*
X159075271Y-83763962D01*
X158763962Y-84075271D01*
X158519369Y-84441331D01*
X158350890Y-84848075D01*
X158265000Y-85279872D01*
X114332828Y-85279872D01*
X114480631Y-85058669D01*
X114649110Y-84651925D01*
X114735000Y-84220128D01*
X114735000Y-83779872D01*
X114649110Y-83348075D01*
X114480631Y-82941331D01*
X114236038Y-82575271D01*
X113924729Y-82263962D01*
X113558669Y-82019369D01*
X113151925Y-81850890D01*
X112720128Y-81765000D01*
X112279872Y-81765000D01*
X111848075Y-81850890D01*
X111441331Y-82019369D01*
X111075271Y-82263962D01*
X110763962Y-82575271D01*
X110519369Y-82941331D01*
X110350890Y-83348075D01*
X110265000Y-83779872D01*
X103135000Y-83779872D01*
X103135000Y-75510131D01*
X107051345Y-71593786D01*
X107139701Y-71807095D01*
X107307688Y-72058505D01*
X107521495Y-72272312D01*
X107772905Y-72440299D01*
X108052257Y-72556011D01*
X108348816Y-72615000D01*
X108651184Y-72615000D01*
X108947743Y-72556011D01*
X109227095Y-72440299D01*
X109478505Y-72272312D01*
X109692312Y-72058505D01*
X109860299Y-71807095D01*
X109976011Y-71527743D01*
X110029268Y-71260000D01*
X114281957Y-71260000D01*
X114385363Y-71414759D01*
X114585241Y-71614637D01*
X114820273Y-71771680D01*
X115081426Y-71879853D01*
X115358665Y-71935000D01*
X115641335Y-71935000D01*
X115918574Y-71879853D01*
X116179727Y-71771680D01*
X116414759Y-71614637D01*
X116614637Y-71414759D01*
X116771680Y-71179727D01*
X116879853Y-70918574D01*
X116935000Y-70641335D01*
X116935000Y-70358665D01*
X116879853Y-70081426D01*
X116771680Y-69820273D01*
X116614637Y-69585241D01*
X116414759Y-69385363D01*
X116179727Y-69228320D01*
X115918574Y-69120147D01*
X115641335Y-69065000D01*
X115358665Y-69065000D01*
X115081426Y-69120147D01*
X114820273Y-69228320D01*
X114585241Y-69385363D01*
X114385363Y-69585241D01*
X114281957Y-69740000D01*
X109466999Y-69740000D01*
X109478505Y-69732312D01*
X109692312Y-69518505D01*
X109860299Y-69267095D01*
X109976011Y-68987743D01*
X110035000Y-68691184D01*
X110035000Y-68388816D01*
X109976011Y-68092257D01*
X109860299Y-67812905D01*
X109692312Y-67561495D01*
X109625873Y-67495056D01*
X109644180Y-67489502D01*
X109754494Y-67430537D01*
X109851185Y-67351185D01*
X109930537Y-67254494D01*
X109989502Y-67144180D01*
X110025812Y-67024482D01*
X110038072Y-66900000D01*
X110038072Y-65278665D01*
X114065000Y-65278665D01*
X114065000Y-65561335D01*
X114120147Y-65838574D01*
X114228320Y-66099727D01*
X114385363Y-66334759D01*
X114585241Y-66534637D01*
X114820273Y-66691680D01*
X115081426Y-66799853D01*
X115358665Y-66855000D01*
X115641335Y-66855000D01*
X115823886Y-66818688D01*
X117976201Y-68971003D01*
X117999999Y-69000001D01*
X118115724Y-69094974D01*
X118247753Y-69165546D01*
X118391014Y-69209003D01*
X118502667Y-69220000D01*
X118502676Y-69220000D01*
X118539999Y-69223676D01*
X118577322Y-69220000D01*
X122221822Y-69220000D01*
X122346525Y-69406632D01*
X122478380Y-69538487D01*
X122405820Y-69560498D01*
X122295506Y-69619463D01*
X122198815Y-69698815D01*
X122119463Y-69795506D01*
X122060498Y-69905820D01*
X122024188Y-70025518D01*
X122011928Y-70150000D01*
X122011928Y-71850000D01*
X122024188Y-71974482D01*
X122060498Y-72094180D01*
X122119463Y-72204494D01*
X122198815Y-72301185D01*
X122295506Y-72380537D01*
X122405820Y-72439502D01*
X122525518Y-72475812D01*
X122650000Y-72488072D01*
X124350000Y-72488072D01*
X124474482Y-72475812D01*
X124594180Y-72439502D01*
X124704494Y-72380537D01*
X124801185Y-72301185D01*
X124880537Y-72204494D01*
X124939502Y-72094180D01*
X124975812Y-71974482D01*
X124988072Y-71850000D01*
X124988072Y-70586729D01*
X127814802Y-67760000D01*
X130511928Y-67760000D01*
X130511928Y-67850000D01*
X130524188Y-67974482D01*
X130560498Y-68094180D01*
X130619463Y-68204494D01*
X130698815Y-68301185D01*
X130795506Y-68380537D01*
X130905820Y-68439502D01*
X130978380Y-68461513D01*
X130846525Y-68593368D01*
X130684010Y-68836589D01*
X130572068Y-69106842D01*
X130515000Y-69393740D01*
X130515000Y-69686260D01*
X130572068Y-69973158D01*
X130684010Y-70243411D01*
X130846525Y-70486632D01*
X131053368Y-70693475D01*
X131296589Y-70855990D01*
X131566842Y-70967932D01*
X131853740Y-71025000D01*
X132146260Y-71025000D01*
X132433158Y-70967932D01*
X132703411Y-70855990D01*
X132946632Y-70693475D01*
X133153475Y-70486632D01*
X133315990Y-70243411D01*
X133427932Y-69973158D01*
X133485000Y-69686260D01*
X133485000Y-69393740D01*
X133427932Y-69106842D01*
X133315990Y-68836589D01*
X133153475Y-68593368D01*
X133021620Y-68461513D01*
X133094180Y-68439502D01*
X133204494Y-68380537D01*
X133301185Y-68301185D01*
X133380537Y-68204494D01*
X133439502Y-68094180D01*
X133475812Y-67974482D01*
X133488072Y-67850000D01*
X133488072Y-66150000D01*
X133475812Y-66025518D01*
X133439502Y-65905820D01*
X133380537Y-65795506D01*
X133301185Y-65698815D01*
X133204494Y-65619463D01*
X133094180Y-65560498D01*
X132974482Y-65524188D01*
X132850000Y-65511928D01*
X131150000Y-65511928D01*
X131025518Y-65524188D01*
X130905820Y-65560498D01*
X130795506Y-65619463D01*
X130698815Y-65698815D01*
X130619463Y-65795506D01*
X130560498Y-65905820D01*
X130524188Y-66025518D01*
X130511928Y-66150000D01*
X130511928Y-66240000D01*
X127537322Y-66240000D01*
X127499999Y-66236324D01*
X127462676Y-66240000D01*
X127462667Y-66240000D01*
X127351014Y-66250997D01*
X127207753Y-66294454D01*
X127075724Y-66365026D01*
X126959999Y-66459999D01*
X126936201Y-66488997D01*
X124985000Y-68440198D01*
X124985000Y-68313740D01*
X124927932Y-68026842D01*
X124815990Y-67756589D01*
X124653475Y-67513368D01*
X124446632Y-67306525D01*
X124264466Y-67184805D01*
X124381355Y-67115178D01*
X124597588Y-66920269D01*
X124771641Y-66686920D01*
X124896825Y-66424099D01*
X124941476Y-66276890D01*
X124820155Y-66047000D01*
X123627000Y-66047000D01*
X123627000Y-66067000D01*
X123373000Y-66067000D01*
X123373000Y-66047000D01*
X122179845Y-66047000D01*
X122058524Y-66276890D01*
X122103175Y-66424099D01*
X122228359Y-66686920D01*
X122402412Y-66920269D01*
X122618645Y-67115178D01*
X122735534Y-67184805D01*
X122553368Y-67306525D01*
X122346525Y-67513368D01*
X122221822Y-67700000D01*
X118854802Y-67700000D01*
X116898688Y-65743886D01*
X116934646Y-65563110D01*
X122058524Y-65563110D01*
X122179845Y-65793000D01*
X123373000Y-65793000D01*
X123373000Y-64599186D01*
X123627000Y-64599186D01*
X123627000Y-65793000D01*
X124820155Y-65793000D01*
X124941476Y-65563110D01*
X124896825Y-65415901D01*
X124873316Y-65366544D01*
X141145000Y-65366544D01*
X141145000Y-65633456D01*
X141197072Y-65895239D01*
X141299215Y-66141833D01*
X141447503Y-66363762D01*
X141636238Y-66552497D01*
X141858167Y-66700785D01*
X142104761Y-66802928D01*
X142220898Y-66826029D01*
X153158009Y-77763141D01*
X153193551Y-77806449D01*
X153366377Y-77948284D01*
X153563553Y-78053676D01*
X153777501Y-78118577D01*
X154000000Y-78140491D01*
X154055751Y-78135000D01*
X173082317Y-78135000D01*
X173119463Y-78204494D01*
X173198815Y-78301185D01*
X173295506Y-78380537D01*
X173405820Y-78439502D01*
X173525518Y-78475812D01*
X173650000Y-78488072D01*
X175350000Y-78488072D01*
X175474482Y-78475812D01*
X175594180Y-78439502D01*
X175704494Y-78380537D01*
X175801185Y-78301185D01*
X175880537Y-78204494D01*
X175939502Y-78094180D01*
X175963966Y-78013534D01*
X176039731Y-78097588D01*
X176273080Y-78271641D01*
X176535901Y-78396825D01*
X176683110Y-78441476D01*
X176913000Y-78320155D01*
X176913000Y-77127000D01*
X177167000Y-77127000D01*
X177167000Y-78320155D01*
X177396890Y-78441476D01*
X177544099Y-78396825D01*
X177806920Y-78271641D01*
X178040269Y-78097588D01*
X178235178Y-77881355D01*
X178384157Y-77631252D01*
X178481481Y-77356891D01*
X178360814Y-77127000D01*
X177167000Y-77127000D01*
X176913000Y-77127000D01*
X176893000Y-77127000D01*
X176893000Y-76873000D01*
X176913000Y-76873000D01*
X176913000Y-75679845D01*
X177167000Y-75679845D01*
X177167000Y-76873000D01*
X178360814Y-76873000D01*
X178481481Y-76643109D01*
X178384157Y-76368748D01*
X178235178Y-76118645D01*
X178040269Y-75902412D01*
X177806920Y-75728359D01*
X177544099Y-75603175D01*
X177396890Y-75558524D01*
X177167000Y-75679845D01*
X176913000Y-75679845D01*
X176683110Y-75558524D01*
X176535901Y-75603175D01*
X176273080Y-75728359D01*
X176039731Y-75902412D01*
X175963966Y-75986466D01*
X175939502Y-75905820D01*
X175880537Y-75795506D01*
X175801185Y-75698815D01*
X175704494Y-75619463D01*
X175594180Y-75560498D01*
X175474482Y-75524188D01*
X175350000Y-75511928D01*
X173650000Y-75511928D01*
X173525518Y-75524188D01*
X173405820Y-75560498D01*
X173295506Y-75619463D01*
X173198815Y-75698815D01*
X173119463Y-75795506D01*
X173082317Y-75865000D01*
X154470132Y-75865000D01*
X150355132Y-71750000D01*
X187611928Y-71750000D01*
X187624188Y-71874482D01*
X187660498Y-71994180D01*
X187719463Y-72104494D01*
X187798815Y-72201185D01*
X187895506Y-72280537D01*
X188005820Y-72339502D01*
X188125518Y-72375812D01*
X188250000Y-72388072D01*
X189714250Y-72385000D01*
X189873000Y-72226250D01*
X189873000Y-70127000D01*
X190127000Y-70127000D01*
X190127000Y-72226250D01*
X190285750Y-72385000D01*
X191750000Y-72388072D01*
X191874482Y-72375812D01*
X191994180Y-72339502D01*
X192104494Y-72280537D01*
X192201185Y-72201185D01*
X192280537Y-72104494D01*
X192339502Y-71994180D01*
X192375812Y-71874482D01*
X192388072Y-71750000D01*
X192385000Y-70285750D01*
X192226250Y-70127000D01*
X190127000Y-70127000D01*
X189873000Y-70127000D01*
X187773750Y-70127000D01*
X187615000Y-70285750D01*
X187611928Y-71750000D01*
X150355132Y-71750000D01*
X146674955Y-68069823D01*
X158375000Y-68069823D01*
X158398513Y-68308555D01*
X158491432Y-68614868D01*
X158642325Y-68897169D01*
X158845392Y-69144608D01*
X159092830Y-69347675D01*
X159375131Y-69498568D01*
X159681444Y-69591487D01*
X160000000Y-69622862D01*
X160318555Y-69591487D01*
X160624868Y-69498568D01*
X160907169Y-69347675D01*
X161154608Y-69144608D01*
X161289698Y-68980000D01*
X163371928Y-68980000D01*
X163384188Y-69104482D01*
X163420498Y-69224180D01*
X163479463Y-69334494D01*
X163558815Y-69431185D01*
X163655506Y-69510537D01*
X163765820Y-69569502D01*
X163885518Y-69605812D01*
X164010000Y-69618072D01*
X164714250Y-69615000D01*
X164873000Y-69456250D01*
X164873000Y-67127000D01*
X165127000Y-67127000D01*
X165127000Y-69456250D01*
X165285750Y-69615000D01*
X165990000Y-69618072D01*
X166114482Y-69605812D01*
X166234180Y-69569502D01*
X166344494Y-69510537D01*
X166441185Y-69431185D01*
X166520537Y-69334494D01*
X166579502Y-69224180D01*
X166615812Y-69104482D01*
X166628072Y-68980000D01*
X166625000Y-67285750D01*
X166466250Y-67127000D01*
X165127000Y-67127000D01*
X164873000Y-67127000D01*
X163533750Y-67127000D01*
X163375000Y-67285750D01*
X163371928Y-68980000D01*
X161289698Y-68980000D01*
X161357675Y-68897170D01*
X161508568Y-68614869D01*
X161601487Y-68308556D01*
X161625000Y-68069824D01*
X161625000Y-65930176D01*
X161601487Y-65691444D01*
X161508568Y-65385131D01*
X161357675Y-65102830D01*
X161289699Y-65020000D01*
X163371928Y-65020000D01*
X163375000Y-66714250D01*
X163533750Y-66873000D01*
X164873000Y-66873000D01*
X164873000Y-64543750D01*
X165127000Y-64543750D01*
X165127000Y-66873000D01*
X166466250Y-66873000D01*
X166625000Y-66714250D01*
X166628072Y-65020000D01*
X166615812Y-64895518D01*
X166579502Y-64775820D01*
X166520537Y-64665506D01*
X166441185Y-64568815D01*
X166344494Y-64489463D01*
X166234180Y-64430498D01*
X166114482Y-64394188D01*
X165990000Y-64381928D01*
X165285750Y-64385000D01*
X165127000Y-64543750D01*
X164873000Y-64543750D01*
X164714250Y-64385000D01*
X164010000Y-64381928D01*
X163885518Y-64394188D01*
X163765820Y-64430498D01*
X163655506Y-64489463D01*
X163558815Y-64568815D01*
X163479463Y-64665506D01*
X163420498Y-64775820D01*
X163384188Y-64895518D01*
X163371928Y-65020000D01*
X161289699Y-65020000D01*
X161154608Y-64855392D01*
X160907170Y-64652325D01*
X160624869Y-64501432D01*
X160318556Y-64408513D01*
X160000000Y-64377138D01*
X159681445Y-64408513D01*
X159375132Y-64501432D01*
X159092831Y-64652325D01*
X158845393Y-64855392D01*
X158642326Y-65102830D01*
X158491433Y-65385131D01*
X158398514Y-65691444D01*
X158375001Y-65930176D01*
X158375000Y-68069823D01*
X146674955Y-68069823D01*
X143971676Y-65366544D01*
X146225000Y-65366544D01*
X146225000Y-65633456D01*
X146277072Y-65895239D01*
X146379215Y-66141833D01*
X146527503Y-66363762D01*
X146716238Y-66552497D01*
X146938167Y-66700785D01*
X147184761Y-66802928D01*
X147446544Y-66855000D01*
X147713456Y-66855000D01*
X147975239Y-66802928D01*
X148221833Y-66700785D01*
X148443762Y-66552497D01*
X148632497Y-66363762D01*
X148780785Y-66141833D01*
X148882928Y-65895239D01*
X148935000Y-65633456D01*
X148935000Y-65366544D01*
X148882928Y-65104761D01*
X148780785Y-64858167D01*
X148632497Y-64636238D01*
X148443762Y-64447503D01*
X148221833Y-64299215D01*
X148022640Y-64216706D01*
X170115000Y-64216706D01*
X170115000Y-65823293D01*
X170130700Y-65982696D01*
X170192741Y-66187219D01*
X170293491Y-66375710D01*
X170429078Y-66540922D01*
X170594290Y-66676509D01*
X170782780Y-66777259D01*
X170987303Y-66839300D01*
X171200000Y-66860249D01*
X171412696Y-66839300D01*
X171617219Y-66777259D01*
X171805710Y-66676509D01*
X171820978Y-66663978D01*
X171922099Y-66765099D01*
X172083428Y-66872896D01*
X172262686Y-66947147D01*
X172452986Y-66985000D01*
X172647014Y-66985000D01*
X172837314Y-66947147D01*
X172975000Y-66890116D01*
X173112686Y-66947147D01*
X173302986Y-66985000D01*
X173497014Y-66985000D01*
X173687314Y-66947147D01*
X173825000Y-66890116D01*
X173962686Y-66947147D01*
X174152986Y-66985000D01*
X174347014Y-66985000D01*
X174537314Y-66947147D01*
X174675000Y-66890116D01*
X174812686Y-66947147D01*
X175002986Y-66985000D01*
X175197014Y-66985000D01*
X175387314Y-66947147D01*
X175525000Y-66890116D01*
X175662686Y-66947147D01*
X175852986Y-66985000D01*
X176047014Y-66985000D01*
X176237314Y-66947147D01*
X176375542Y-66889891D01*
X176504384Y-66944589D01*
X176694344Y-66984110D01*
X176888364Y-66985813D01*
X177078989Y-66949632D01*
X177225651Y-66890385D01*
X177362686Y-66947147D01*
X177552986Y-66985000D01*
X177747014Y-66985000D01*
X177937314Y-66947147D01*
X178075000Y-66890116D01*
X178212686Y-66947147D01*
X178402986Y-66985000D01*
X178597014Y-66985000D01*
X178787314Y-66947147D01*
X178966572Y-66872896D01*
X179127901Y-66765099D01*
X179229022Y-66663978D01*
X179244290Y-66676509D01*
X179432780Y-66777259D01*
X179637303Y-66839300D01*
X179850000Y-66860249D01*
X180062696Y-66839300D01*
X180267219Y-66777259D01*
X180455710Y-66676509D01*
X180620922Y-66540922D01*
X180756509Y-66375710D01*
X180857259Y-66187220D01*
X180876133Y-66125000D01*
X182911928Y-66125000D01*
X182911928Y-67875000D01*
X182941001Y-68170186D01*
X183027104Y-68454028D01*
X183166927Y-68715618D01*
X183355097Y-68944903D01*
X183584382Y-69133073D01*
X183845972Y-69272896D01*
X184129814Y-69358999D01*
X184425000Y-69388072D01*
X186175000Y-69388072D01*
X186470186Y-69358999D01*
X186754028Y-69272896D01*
X187015618Y-69133073D01*
X187244903Y-68944903D01*
X187433073Y-68715618D01*
X187572896Y-68454028D01*
X187612085Y-68324840D01*
X187615000Y-69714250D01*
X187773750Y-69873000D01*
X189873000Y-69873000D01*
X189873000Y-67773750D01*
X190127000Y-67773750D01*
X190127000Y-69873000D01*
X192226250Y-69873000D01*
X192385000Y-69714250D01*
X192388072Y-68250000D01*
X192375812Y-68125518D01*
X192339502Y-68005820D01*
X192280537Y-67895506D01*
X192201185Y-67798815D01*
X192104494Y-67719463D01*
X191994180Y-67660498D01*
X191874482Y-67624188D01*
X191750000Y-67611928D01*
X190285750Y-67615000D01*
X190127000Y-67773750D01*
X189873000Y-67773750D01*
X189714250Y-67615000D01*
X188250000Y-67611928D01*
X188125518Y-67624188D01*
X188005820Y-67660498D01*
X187895506Y-67719463D01*
X187798815Y-67798815D01*
X187719463Y-67895506D01*
X187678506Y-67972131D01*
X187688072Y-67875000D01*
X187688072Y-66125000D01*
X187658999Y-65829814D01*
X187572896Y-65545972D01*
X187433073Y-65284382D01*
X187244903Y-65055097D01*
X187015618Y-64866927D01*
X186754028Y-64727104D01*
X186470186Y-64641001D01*
X186175000Y-64611928D01*
X184425000Y-64611928D01*
X184129814Y-64641001D01*
X183845972Y-64727104D01*
X183584382Y-64866927D01*
X183355097Y-65055097D01*
X183166927Y-65284382D01*
X183027104Y-65545972D01*
X182941001Y-65829814D01*
X182911928Y-66125000D01*
X180876133Y-66125000D01*
X180919300Y-65982697D01*
X180935000Y-65823294D01*
X180935000Y-64216706D01*
X180919300Y-64057303D01*
X180857259Y-63852780D01*
X180756509Y-63664290D01*
X180620922Y-63499078D01*
X180455710Y-63363491D01*
X180267220Y-63262741D01*
X180225219Y-63250000D01*
X187611928Y-63250000D01*
X187611928Y-64750000D01*
X187638599Y-65020799D01*
X187717589Y-65281192D01*
X187845860Y-65521171D01*
X188018485Y-65731515D01*
X188228829Y-65904140D01*
X188468808Y-66032411D01*
X188729201Y-66111401D01*
X189000000Y-66138072D01*
X191000000Y-66138072D01*
X191270799Y-66111401D01*
X191531192Y-66032411D01*
X191771171Y-65904140D01*
X191981515Y-65731515D01*
X192154140Y-65521171D01*
X192282411Y-65281192D01*
X192361401Y-65020799D01*
X192388072Y-64750000D01*
X192388072Y-63250000D01*
X192361401Y-62979201D01*
X192282411Y-62718808D01*
X192154140Y-62478829D01*
X191981515Y-62268485D01*
X191771171Y-62095860D01*
X191531192Y-61967589D01*
X191270799Y-61888599D01*
X191000000Y-61861928D01*
X189000000Y-61861928D01*
X188729201Y-61888599D01*
X188468808Y-61967589D01*
X188228829Y-62095860D01*
X188018485Y-62268485D01*
X187845860Y-62478829D01*
X187717589Y-62718808D01*
X187638599Y-62979201D01*
X187611928Y-63250000D01*
X180225219Y-63250000D01*
X180062697Y-63200700D01*
X179850000Y-63179751D01*
X179637304Y-63200700D01*
X179432781Y-63262741D01*
X179244291Y-63363491D01*
X179079079Y-63499078D01*
X178943492Y-63664290D01*
X178898306Y-63748827D01*
X178787314Y-63702853D01*
X178597014Y-63665000D01*
X178402986Y-63665000D01*
X178212686Y-63702853D01*
X178075000Y-63759884D01*
X177937314Y-63702853D01*
X177747014Y-63665000D01*
X177552986Y-63665000D01*
X177362686Y-63702853D01*
X177225000Y-63759884D01*
X177087314Y-63702853D01*
X176897014Y-63665000D01*
X176702986Y-63665000D01*
X176512686Y-63702853D01*
X176375000Y-63759884D01*
X176237314Y-63702853D01*
X176047014Y-63665000D01*
X175852986Y-63665000D01*
X175662686Y-63702853D01*
X175525000Y-63759884D01*
X175387314Y-63702853D01*
X175197014Y-63665000D01*
X175002986Y-63665000D01*
X174812686Y-63702853D01*
X174675000Y-63759884D01*
X174537314Y-63702853D01*
X174347014Y-63665000D01*
X174152986Y-63665000D01*
X173962686Y-63702853D01*
X173825000Y-63759884D01*
X173687314Y-63702853D01*
X173497014Y-63665000D01*
X173302986Y-63665000D01*
X173112686Y-63702853D01*
X172975000Y-63759884D01*
X172837314Y-63702853D01*
X172647014Y-63665000D01*
X172452986Y-63665000D01*
X172262686Y-63702853D01*
X172151695Y-63748827D01*
X172106509Y-63664290D01*
X171970922Y-63499078D01*
X171805710Y-63363491D01*
X171617220Y-63262741D01*
X171412697Y-63200700D01*
X171200000Y-63179751D01*
X170987304Y-63200700D01*
X170782781Y-63262741D01*
X170594291Y-63363491D01*
X170429079Y-63499078D01*
X170293492Y-63664290D01*
X170192742Y-63852780D01*
X170130700Y-64057303D01*
X170115000Y-64216706D01*
X148022640Y-64216706D01*
X147975239Y-64197072D01*
X147713456Y-64145000D01*
X147446544Y-64145000D01*
X147184761Y-64197072D01*
X146938167Y-64299215D01*
X146716238Y-64447503D01*
X146527503Y-64636238D01*
X146379215Y-64858167D01*
X146277072Y-65104761D01*
X146225000Y-65366544D01*
X143971676Y-65366544D01*
X143826029Y-65220898D01*
X143802928Y-65104761D01*
X143700785Y-64858167D01*
X143552497Y-64636238D01*
X143363762Y-64447503D01*
X143141833Y-64299215D01*
X142895239Y-64197072D01*
X142633456Y-64145000D01*
X142366544Y-64145000D01*
X142104761Y-64197072D01*
X141858167Y-64299215D01*
X141636238Y-64447503D01*
X141447503Y-64636238D01*
X141299215Y-64858167D01*
X141197072Y-65104761D01*
X141145000Y-65366544D01*
X124873316Y-65366544D01*
X124771641Y-65153080D01*
X124597588Y-64919731D01*
X124381355Y-64724822D01*
X124131252Y-64575843D01*
X123856891Y-64478519D01*
X123627000Y-64599186D01*
X123373000Y-64599186D01*
X123143109Y-64478519D01*
X122868748Y-64575843D01*
X122618645Y-64724822D01*
X122402412Y-64919731D01*
X122228359Y-65153080D01*
X122103175Y-65415901D01*
X122058524Y-65563110D01*
X116934646Y-65563110D01*
X116935000Y-65561335D01*
X116935000Y-65278665D01*
X116879853Y-65001426D01*
X116771680Y-64740273D01*
X116614637Y-64505241D01*
X116414759Y-64305363D01*
X116179727Y-64148320D01*
X115918574Y-64040147D01*
X115641335Y-63985000D01*
X115358665Y-63985000D01*
X115081426Y-64040147D01*
X114820273Y-64148320D01*
X114585241Y-64305363D01*
X114385363Y-64505241D01*
X114228320Y-64740273D01*
X114120147Y-65001426D01*
X114065000Y-65278665D01*
X110038072Y-65278665D01*
X110038072Y-65100000D01*
X110025812Y-64975518D01*
X109989502Y-64855820D01*
X109930537Y-64745506D01*
X109851185Y-64648815D01*
X109754494Y-64569463D01*
X109644180Y-64510498D01*
X109524482Y-64474188D01*
X109400000Y-64461928D01*
X107600000Y-64461928D01*
X107475518Y-64474188D01*
X107355820Y-64510498D01*
X107245506Y-64569463D01*
X107148815Y-64648815D01*
X107069463Y-64745506D01*
X107010498Y-64855820D01*
X106974188Y-64975518D01*
X106961928Y-65100000D01*
X106961928Y-66900000D01*
X106974188Y-67024482D01*
X107010498Y-67144180D01*
X107069463Y-67254494D01*
X107148815Y-67351185D01*
X107245506Y-67430537D01*
X107355820Y-67489502D01*
X107374127Y-67495056D01*
X107307688Y-67561495D01*
X107139701Y-67812905D01*
X107023989Y-68092257D01*
X106965000Y-68388816D01*
X106965000Y-68469868D01*
X101236860Y-74198009D01*
X101193552Y-74233551D01*
X101051717Y-74406377D01*
X100946324Y-74603553D01*
X100946324Y-74603554D01*
X100881423Y-74817502D01*
X100859509Y-75040000D01*
X96041947Y-75040000D01*
X96028449Y-70127000D01*
X105000000Y-70127000D01*
X105024776Y-70124560D01*
X105048601Y-70117333D01*
X105070557Y-70105597D01*
X105089803Y-70089803D01*
X105105597Y-70070557D01*
X105117333Y-70048601D01*
X105124560Y-70024776D01*
X105127000Y-70000000D01*
X105127000Y-62826544D01*
X143685000Y-62826544D01*
X143685000Y-63093456D01*
X143737072Y-63355239D01*
X143839215Y-63601833D01*
X143987503Y-63823762D01*
X144176238Y-64012497D01*
X144398167Y-64160785D01*
X144644761Y-64262928D01*
X144906544Y-64315000D01*
X145173456Y-64315000D01*
X145435239Y-64262928D01*
X145681833Y-64160785D01*
X145903762Y-64012497D01*
X146092497Y-63823762D01*
X146240785Y-63601833D01*
X146342928Y-63355239D01*
X146395000Y-63093456D01*
X146395000Y-62826544D01*
X146342928Y-62564761D01*
X146240785Y-62318167D01*
X146092497Y-62096238D01*
X145903762Y-61907503D01*
X145681833Y-61759215D01*
X145435239Y-61657072D01*
X145173456Y-61605000D01*
X144906544Y-61605000D01*
X144644761Y-61657072D01*
X144398167Y-61759215D01*
X144176238Y-61907503D01*
X143987503Y-62096238D01*
X143839215Y-62318167D01*
X143737072Y-62564761D01*
X143685000Y-62826544D01*
X105127000Y-62826544D01*
X105127000Y-60660000D01*
X170279750Y-60660000D01*
X170192742Y-60822780D01*
%TD*%
M02*
